%TF.GenerationSoftware,KiCad,Pcbnew,7.0.6*%
%TF.CreationDate,2023-10-09T17:48:47+13:00*%
%TF.ProjectId,Final Project KiCAD designs,46696e61-6c20-4507-926f-6a656374204b,1*%
%TF.SameCoordinates,Original*%
%TF.FileFunction,Soldermask,Top*%
%TF.FilePolarity,Negative*%
%FSLAX46Y46*%
G04 Gerber Fmt 4.6, Leading zero omitted, Abs format (unit mm)*
G04 Created by KiCad (PCBNEW 7.0.6) date 2023-10-09 17:48:47*
%MOMM*%
%LPD*%
G01*
G04 APERTURE LIST*
G04 APERTURE END LIST*
G36*
X101862664Y-113491602D02*
G01*
X102025000Y-113563878D01*
X102168761Y-113668327D01*
X102287664Y-113800383D01*
X102376514Y-113954274D01*
X102431425Y-114123275D01*
X102450000Y-114300000D01*
X102431425Y-114476725D01*
X102376514Y-114645726D01*
X102287664Y-114799617D01*
X102168761Y-114931673D01*
X102025000Y-115036122D01*
X101862664Y-115108398D01*
X101688849Y-115145344D01*
X101511151Y-115145344D01*
X101337336Y-115108398D01*
X101175000Y-115036122D01*
X101031239Y-114931673D01*
X100912336Y-114799617D01*
X100823486Y-114645726D01*
X100768575Y-114476725D01*
X100750000Y-114300000D01*
X100768575Y-114123275D01*
X100823486Y-113954274D01*
X100912336Y-113800383D01*
X101031239Y-113668327D01*
X101175000Y-113563878D01*
X101337336Y-113491602D01*
X101511151Y-113454656D01*
X101688849Y-113454656D01*
X101862664Y-113491602D01*
G37*
G36*
X117102664Y-113491602D02*
G01*
X117265000Y-113563878D01*
X117408761Y-113668327D01*
X117527664Y-113800383D01*
X117616514Y-113954274D01*
X117671425Y-114123275D01*
X117690000Y-114300000D01*
X117671425Y-114476725D01*
X117616514Y-114645726D01*
X117527664Y-114799617D01*
X117408761Y-114931673D01*
X117265000Y-115036122D01*
X117102664Y-115108398D01*
X116928849Y-115145344D01*
X116751151Y-115145344D01*
X116577336Y-115108398D01*
X116415000Y-115036122D01*
X116271239Y-114931673D01*
X116152336Y-114799617D01*
X116063486Y-114645726D01*
X116008575Y-114476725D01*
X115990000Y-114300000D01*
X116008575Y-114123275D01*
X116063486Y-113954274D01*
X116152336Y-113800383D01*
X116271239Y-113668327D01*
X116415000Y-113563878D01*
X116577336Y-113491602D01*
X116751151Y-113454656D01*
X116928849Y-113454656D01*
X117102664Y-113491602D01*
G37*
G36*
X101862664Y-110951602D02*
G01*
X102025000Y-111023878D01*
X102168761Y-111128327D01*
X102287664Y-111260383D01*
X102376514Y-111414274D01*
X102431425Y-111583275D01*
X102450000Y-111760000D01*
X102431425Y-111936725D01*
X102376514Y-112105726D01*
X102287664Y-112259617D01*
X102168761Y-112391673D01*
X102025000Y-112496122D01*
X101862664Y-112568398D01*
X101688849Y-112605344D01*
X101511151Y-112605344D01*
X101337336Y-112568398D01*
X101175000Y-112496122D01*
X101031239Y-112391673D01*
X100912336Y-112259617D01*
X100823486Y-112105726D01*
X100768575Y-111936725D01*
X100750000Y-111760000D01*
X100768575Y-111583275D01*
X100823486Y-111414274D01*
X100912336Y-111260383D01*
X101031239Y-111128327D01*
X101175000Y-111023878D01*
X101337336Y-110951602D01*
X101511151Y-110914656D01*
X101688849Y-110914656D01*
X101862664Y-110951602D01*
G37*
G36*
X117102664Y-110951602D02*
G01*
X117265000Y-111023878D01*
X117408761Y-111128327D01*
X117527664Y-111260383D01*
X117616514Y-111414274D01*
X117671425Y-111583275D01*
X117690000Y-111760000D01*
X117671425Y-111936725D01*
X117616514Y-112105726D01*
X117527664Y-112259617D01*
X117408761Y-112391673D01*
X117265000Y-112496122D01*
X117102664Y-112568398D01*
X116928849Y-112605344D01*
X116751151Y-112605344D01*
X116577336Y-112568398D01*
X116415000Y-112496122D01*
X116271239Y-112391673D01*
X116152336Y-112259617D01*
X116063486Y-112105726D01*
X116008575Y-111936725D01*
X115990000Y-111760000D01*
X116008575Y-111583275D01*
X116063486Y-111414274D01*
X116152336Y-111260383D01*
X116271239Y-111128327D01*
X116415000Y-111023878D01*
X116577336Y-110951602D01*
X116751151Y-110914656D01*
X116928849Y-110914656D01*
X117102664Y-110951602D01*
G37*
G36*
X83867607Y-108324930D02*
G01*
X83914076Y-108324930D01*
X83954202Y-108333459D01*
X83995533Y-108337530D01*
X84047460Y-108353282D01*
X84098115Y-108364049D01*
X84130527Y-108378479D01*
X84164321Y-108388731D01*
X84218023Y-108417435D01*
X84270000Y-108440577D01*
X84294165Y-108458134D01*
X84319878Y-108471878D01*
X84372333Y-108514927D01*
X84422218Y-108551170D01*
X84438412Y-108569155D01*
X84456225Y-108583774D01*
X84504089Y-108642097D01*
X84548115Y-108690993D01*
X84557365Y-108707015D01*
X84568121Y-108720121D01*
X84607908Y-108794557D01*
X84642191Y-108853937D01*
X84646134Y-108866074D01*
X84651268Y-108875678D01*
X84679568Y-108968971D01*
X84700333Y-109032879D01*
X84701064Y-109039834D01*
X84702469Y-109044466D01*
X84716151Y-109183385D01*
X84720000Y-109220000D01*
X84716151Y-109256617D01*
X84702469Y-109395533D01*
X84701064Y-109400164D01*
X84700333Y-109407121D01*
X84679563Y-109471042D01*
X84651268Y-109564321D01*
X84646135Y-109573923D01*
X84642191Y-109586063D01*
X84607901Y-109645454D01*
X84568121Y-109719878D01*
X84557367Y-109732981D01*
X84548115Y-109749007D01*
X84504080Y-109797912D01*
X84456225Y-109856225D01*
X84438415Y-109870840D01*
X84422218Y-109888830D01*
X84372323Y-109925080D01*
X84319878Y-109968121D01*
X84294171Y-109981861D01*
X84270000Y-109999423D01*
X84218012Y-110022569D01*
X84164321Y-110051268D01*
X84130534Y-110061517D01*
X84098115Y-110075951D01*
X84047449Y-110086720D01*
X83995533Y-110102469D01*
X83954210Y-110106538D01*
X83914076Y-110115070D01*
X83867597Y-110115070D01*
X83820000Y-110119758D01*
X83772403Y-110115070D01*
X83725924Y-110115070D01*
X83685789Y-110106539D01*
X83644466Y-110102469D01*
X83592546Y-110086719D01*
X83541885Y-110075951D01*
X83509467Y-110061517D01*
X83475678Y-110051268D01*
X83421981Y-110022566D01*
X83370000Y-109999423D01*
X83345831Y-109981863D01*
X83320121Y-109968121D01*
X83267667Y-109925074D01*
X83217782Y-109888830D01*
X83201587Y-109870843D01*
X83183774Y-109856225D01*
X83135908Y-109797899D01*
X83091885Y-109749007D01*
X83082634Y-109732985D01*
X83071878Y-109719878D01*
X83032085Y-109645431D01*
X82997809Y-109586063D01*
X82993866Y-109573928D01*
X82988731Y-109564321D01*
X82960421Y-109470996D01*
X82939667Y-109407121D01*
X82938936Y-109400169D01*
X82937530Y-109395533D01*
X82923832Y-109256466D01*
X82920000Y-109220000D01*
X82923832Y-109183536D01*
X82937530Y-109044466D01*
X82938936Y-109039829D01*
X82939667Y-109032879D01*
X82960416Y-108969017D01*
X82988731Y-108875678D01*
X82993866Y-108866069D01*
X82997809Y-108853937D01*
X83032078Y-108794581D01*
X83071878Y-108720121D01*
X83082636Y-108707011D01*
X83091885Y-108690993D01*
X83135898Y-108642110D01*
X83183774Y-108583774D01*
X83201590Y-108569152D01*
X83217782Y-108551170D01*
X83267657Y-108514933D01*
X83320121Y-108471878D01*
X83345836Y-108458132D01*
X83370000Y-108440577D01*
X83421970Y-108417438D01*
X83475678Y-108388731D01*
X83509474Y-108378478D01*
X83541885Y-108364049D01*
X83592535Y-108353282D01*
X83644466Y-108337530D01*
X83685798Y-108333459D01*
X83725924Y-108324930D01*
X83772393Y-108324930D01*
X83820000Y-108320241D01*
X83867607Y-108324930D01*
G37*
G36*
X86407607Y-108324930D02*
G01*
X86454076Y-108324930D01*
X86494202Y-108333459D01*
X86535533Y-108337530D01*
X86587460Y-108353282D01*
X86638115Y-108364049D01*
X86670527Y-108378479D01*
X86704321Y-108388731D01*
X86758023Y-108417435D01*
X86810000Y-108440577D01*
X86834165Y-108458134D01*
X86859878Y-108471878D01*
X86912333Y-108514927D01*
X86962218Y-108551170D01*
X86978412Y-108569155D01*
X86996225Y-108583774D01*
X87044089Y-108642097D01*
X87088115Y-108690993D01*
X87097365Y-108707015D01*
X87108121Y-108720121D01*
X87147908Y-108794557D01*
X87182191Y-108853937D01*
X87186134Y-108866074D01*
X87191268Y-108875678D01*
X87219568Y-108968971D01*
X87240333Y-109032879D01*
X87241064Y-109039834D01*
X87242469Y-109044466D01*
X87256151Y-109183385D01*
X87260000Y-109220000D01*
X87256151Y-109256617D01*
X87242469Y-109395533D01*
X87241064Y-109400164D01*
X87240333Y-109407121D01*
X87219563Y-109471042D01*
X87191268Y-109564321D01*
X87186135Y-109573923D01*
X87182191Y-109586063D01*
X87147901Y-109645454D01*
X87108121Y-109719878D01*
X87097367Y-109732981D01*
X87088115Y-109749007D01*
X87044080Y-109797912D01*
X86996225Y-109856225D01*
X86978415Y-109870840D01*
X86962218Y-109888830D01*
X86912323Y-109925080D01*
X86859878Y-109968121D01*
X86834171Y-109981861D01*
X86810000Y-109999423D01*
X86758012Y-110022569D01*
X86704321Y-110051268D01*
X86670534Y-110061517D01*
X86638115Y-110075951D01*
X86587449Y-110086720D01*
X86535533Y-110102469D01*
X86494210Y-110106538D01*
X86454076Y-110115070D01*
X86407597Y-110115070D01*
X86360000Y-110119758D01*
X86312403Y-110115070D01*
X86265924Y-110115070D01*
X86225789Y-110106539D01*
X86184466Y-110102469D01*
X86132546Y-110086719D01*
X86081885Y-110075951D01*
X86049467Y-110061517D01*
X86015678Y-110051268D01*
X85961981Y-110022566D01*
X85910000Y-109999423D01*
X85885831Y-109981863D01*
X85860121Y-109968121D01*
X85807667Y-109925074D01*
X85757782Y-109888830D01*
X85741587Y-109870843D01*
X85723774Y-109856225D01*
X85675908Y-109797899D01*
X85631885Y-109749007D01*
X85622634Y-109732985D01*
X85611878Y-109719878D01*
X85572085Y-109645431D01*
X85537809Y-109586063D01*
X85533866Y-109573928D01*
X85528731Y-109564321D01*
X85500421Y-109470996D01*
X85479667Y-109407121D01*
X85478936Y-109400169D01*
X85477530Y-109395533D01*
X85463832Y-109256466D01*
X85460000Y-109220000D01*
X85463832Y-109183536D01*
X85477530Y-109044466D01*
X85478936Y-109039829D01*
X85479667Y-109032879D01*
X85500416Y-108969017D01*
X85528731Y-108875678D01*
X85533866Y-108866069D01*
X85537809Y-108853937D01*
X85572078Y-108794581D01*
X85611878Y-108720121D01*
X85622636Y-108707011D01*
X85631885Y-108690993D01*
X85675898Y-108642110D01*
X85723774Y-108583774D01*
X85741590Y-108569152D01*
X85757782Y-108551170D01*
X85807657Y-108514933D01*
X85860121Y-108471878D01*
X85885836Y-108458132D01*
X85910000Y-108440577D01*
X85961970Y-108417438D01*
X86015678Y-108388731D01*
X86049474Y-108378478D01*
X86081885Y-108364049D01*
X86132535Y-108353282D01*
X86184466Y-108337530D01*
X86225798Y-108333459D01*
X86265924Y-108324930D01*
X86312393Y-108324930D01*
X86360000Y-108320241D01*
X86407607Y-108324930D01*
G37*
G36*
X101862664Y-108411602D02*
G01*
X102025000Y-108483878D01*
X102168761Y-108588327D01*
X102287664Y-108720383D01*
X102376514Y-108874274D01*
X102431425Y-109043275D01*
X102450000Y-109220000D01*
X102431425Y-109396725D01*
X102376514Y-109565726D01*
X102287664Y-109719617D01*
X102168761Y-109851673D01*
X102025000Y-109956122D01*
X101862664Y-110028398D01*
X101688849Y-110065344D01*
X101511151Y-110065344D01*
X101337336Y-110028398D01*
X101175000Y-109956122D01*
X101031239Y-109851673D01*
X100912336Y-109719617D01*
X100823486Y-109565726D01*
X100768575Y-109396725D01*
X100750000Y-109220000D01*
X100768575Y-109043275D01*
X100823486Y-108874274D01*
X100912336Y-108720383D01*
X101031239Y-108588327D01*
X101175000Y-108483878D01*
X101337336Y-108411602D01*
X101511151Y-108374656D01*
X101688849Y-108374656D01*
X101862664Y-108411602D01*
G37*
G36*
X117102664Y-108411602D02*
G01*
X117265000Y-108483878D01*
X117408761Y-108588327D01*
X117527664Y-108720383D01*
X117616514Y-108874274D01*
X117671425Y-109043275D01*
X117690000Y-109220000D01*
X117671425Y-109396725D01*
X117616514Y-109565726D01*
X117527664Y-109719617D01*
X117408761Y-109851673D01*
X117265000Y-109956122D01*
X117102664Y-110028398D01*
X116928849Y-110065344D01*
X116751151Y-110065344D01*
X116577336Y-110028398D01*
X116415000Y-109956122D01*
X116271239Y-109851673D01*
X116152336Y-109719617D01*
X116063486Y-109565726D01*
X116008575Y-109396725D01*
X115990000Y-109220000D01*
X116008575Y-109043275D01*
X116063486Y-108874274D01*
X116152336Y-108720383D01*
X116271239Y-108588327D01*
X116415000Y-108483878D01*
X116577336Y-108411602D01*
X116751151Y-108374656D01*
X116928849Y-108374656D01*
X117102664Y-108411602D01*
G37*
G36*
X83867607Y-105784930D02*
G01*
X83914076Y-105784930D01*
X83954202Y-105793459D01*
X83995533Y-105797530D01*
X84047460Y-105813282D01*
X84098115Y-105824049D01*
X84130527Y-105838479D01*
X84164321Y-105848731D01*
X84218023Y-105877435D01*
X84270000Y-105900577D01*
X84294165Y-105918134D01*
X84319878Y-105931878D01*
X84372333Y-105974927D01*
X84422218Y-106011170D01*
X84438412Y-106029155D01*
X84456225Y-106043774D01*
X84504089Y-106102097D01*
X84548115Y-106150993D01*
X84557365Y-106167015D01*
X84568121Y-106180121D01*
X84607908Y-106254557D01*
X84642191Y-106313937D01*
X84646134Y-106326074D01*
X84651268Y-106335678D01*
X84679568Y-106428971D01*
X84700333Y-106492879D01*
X84701064Y-106499834D01*
X84702469Y-106504466D01*
X84716151Y-106643385D01*
X84720000Y-106680000D01*
X84716151Y-106716617D01*
X84702469Y-106855533D01*
X84701064Y-106860164D01*
X84700333Y-106867121D01*
X84679563Y-106931042D01*
X84651268Y-107024321D01*
X84646135Y-107033923D01*
X84642191Y-107046063D01*
X84607901Y-107105454D01*
X84568121Y-107179878D01*
X84557367Y-107192981D01*
X84548115Y-107209007D01*
X84504080Y-107257912D01*
X84456225Y-107316225D01*
X84438415Y-107330840D01*
X84422218Y-107348830D01*
X84372323Y-107385080D01*
X84319878Y-107428121D01*
X84294171Y-107441861D01*
X84270000Y-107459423D01*
X84218012Y-107482569D01*
X84164321Y-107511268D01*
X84130534Y-107521517D01*
X84098115Y-107535951D01*
X84047449Y-107546720D01*
X83995533Y-107562469D01*
X83954210Y-107566538D01*
X83914076Y-107575070D01*
X83867597Y-107575070D01*
X83820000Y-107579758D01*
X83772403Y-107575070D01*
X83725924Y-107575070D01*
X83685789Y-107566539D01*
X83644466Y-107562469D01*
X83592546Y-107546719D01*
X83541885Y-107535951D01*
X83509467Y-107521517D01*
X83475678Y-107511268D01*
X83421981Y-107482566D01*
X83370000Y-107459423D01*
X83345831Y-107441863D01*
X83320121Y-107428121D01*
X83267667Y-107385074D01*
X83217782Y-107348830D01*
X83201587Y-107330843D01*
X83183774Y-107316225D01*
X83135908Y-107257899D01*
X83091885Y-107209007D01*
X83082634Y-107192985D01*
X83071878Y-107179878D01*
X83032085Y-107105431D01*
X82997809Y-107046063D01*
X82993866Y-107033928D01*
X82988731Y-107024321D01*
X82960421Y-106930996D01*
X82939667Y-106867121D01*
X82938936Y-106860169D01*
X82937530Y-106855533D01*
X82923832Y-106716466D01*
X82920000Y-106680000D01*
X82923832Y-106643536D01*
X82937530Y-106504466D01*
X82938936Y-106499829D01*
X82939667Y-106492879D01*
X82960416Y-106429017D01*
X82988731Y-106335678D01*
X82993866Y-106326069D01*
X82997809Y-106313937D01*
X83032078Y-106254581D01*
X83071878Y-106180121D01*
X83082636Y-106167011D01*
X83091885Y-106150993D01*
X83135898Y-106102110D01*
X83183774Y-106043774D01*
X83201590Y-106029152D01*
X83217782Y-106011170D01*
X83267657Y-105974933D01*
X83320121Y-105931878D01*
X83345836Y-105918132D01*
X83370000Y-105900577D01*
X83421970Y-105877438D01*
X83475678Y-105848731D01*
X83509474Y-105838478D01*
X83541885Y-105824049D01*
X83592535Y-105813282D01*
X83644466Y-105797530D01*
X83685798Y-105793459D01*
X83725924Y-105784930D01*
X83772393Y-105784930D01*
X83820000Y-105780241D01*
X83867607Y-105784930D01*
G37*
G36*
X86407607Y-105784930D02*
G01*
X86454076Y-105784930D01*
X86494202Y-105793459D01*
X86535533Y-105797530D01*
X86587460Y-105813282D01*
X86638115Y-105824049D01*
X86670527Y-105838479D01*
X86704321Y-105848731D01*
X86758023Y-105877435D01*
X86810000Y-105900577D01*
X86834165Y-105918134D01*
X86859878Y-105931878D01*
X86912333Y-105974927D01*
X86962218Y-106011170D01*
X86978412Y-106029155D01*
X86996225Y-106043774D01*
X87044089Y-106102097D01*
X87088115Y-106150993D01*
X87097365Y-106167015D01*
X87108121Y-106180121D01*
X87147908Y-106254557D01*
X87182191Y-106313937D01*
X87186134Y-106326074D01*
X87191268Y-106335678D01*
X87219568Y-106428971D01*
X87240333Y-106492879D01*
X87241064Y-106499834D01*
X87242469Y-106504466D01*
X87256151Y-106643385D01*
X87260000Y-106680000D01*
X87256151Y-106716617D01*
X87242469Y-106855533D01*
X87241064Y-106860164D01*
X87240333Y-106867121D01*
X87219563Y-106931042D01*
X87191268Y-107024321D01*
X87186135Y-107033923D01*
X87182191Y-107046063D01*
X87147901Y-107105454D01*
X87108121Y-107179878D01*
X87097367Y-107192981D01*
X87088115Y-107209007D01*
X87044080Y-107257912D01*
X86996225Y-107316225D01*
X86978415Y-107330840D01*
X86962218Y-107348830D01*
X86912323Y-107385080D01*
X86859878Y-107428121D01*
X86834171Y-107441861D01*
X86810000Y-107459423D01*
X86758012Y-107482569D01*
X86704321Y-107511268D01*
X86670534Y-107521517D01*
X86638115Y-107535951D01*
X86587449Y-107546720D01*
X86535533Y-107562469D01*
X86494210Y-107566538D01*
X86454076Y-107575070D01*
X86407597Y-107575070D01*
X86360000Y-107579758D01*
X86312403Y-107575070D01*
X86265924Y-107575070D01*
X86225789Y-107566539D01*
X86184466Y-107562469D01*
X86132546Y-107546719D01*
X86081885Y-107535951D01*
X86049467Y-107521517D01*
X86015678Y-107511268D01*
X85961981Y-107482566D01*
X85910000Y-107459423D01*
X85885831Y-107441863D01*
X85860121Y-107428121D01*
X85807667Y-107385074D01*
X85757782Y-107348830D01*
X85741587Y-107330843D01*
X85723774Y-107316225D01*
X85675908Y-107257899D01*
X85631885Y-107209007D01*
X85622634Y-107192985D01*
X85611878Y-107179878D01*
X85572085Y-107105431D01*
X85537809Y-107046063D01*
X85533866Y-107033928D01*
X85528731Y-107024321D01*
X85500421Y-106930996D01*
X85479667Y-106867121D01*
X85478936Y-106860169D01*
X85477530Y-106855533D01*
X85463832Y-106716466D01*
X85460000Y-106680000D01*
X85463832Y-106643536D01*
X85477530Y-106504466D01*
X85478936Y-106499829D01*
X85479667Y-106492879D01*
X85500416Y-106429017D01*
X85528731Y-106335678D01*
X85533866Y-106326069D01*
X85537809Y-106313937D01*
X85572078Y-106254581D01*
X85611878Y-106180121D01*
X85622636Y-106167011D01*
X85631885Y-106150993D01*
X85675898Y-106102110D01*
X85723774Y-106043774D01*
X85741590Y-106029152D01*
X85757782Y-106011170D01*
X85807657Y-105974933D01*
X85860121Y-105931878D01*
X85885836Y-105918132D01*
X85910000Y-105900577D01*
X85961970Y-105877438D01*
X86015678Y-105848731D01*
X86049474Y-105838478D01*
X86081885Y-105824049D01*
X86132535Y-105813282D01*
X86184466Y-105797530D01*
X86225798Y-105793459D01*
X86265924Y-105784930D01*
X86312393Y-105784930D01*
X86360000Y-105780241D01*
X86407607Y-105784930D01*
G37*
G36*
X101862664Y-105871602D02*
G01*
X102025000Y-105943878D01*
X102168761Y-106048327D01*
X102287664Y-106180383D01*
X102376514Y-106334274D01*
X102431425Y-106503275D01*
X102450000Y-106680000D01*
X102431425Y-106856725D01*
X102376514Y-107025726D01*
X102287664Y-107179617D01*
X102168761Y-107311673D01*
X102025000Y-107416122D01*
X101862664Y-107488398D01*
X101688849Y-107525344D01*
X101511151Y-107525344D01*
X101337336Y-107488398D01*
X101175000Y-107416122D01*
X101031239Y-107311673D01*
X100912336Y-107179617D01*
X100823486Y-107025726D01*
X100768575Y-106856725D01*
X100750000Y-106680000D01*
X100768575Y-106503275D01*
X100823486Y-106334274D01*
X100912336Y-106180383D01*
X101031239Y-106048327D01*
X101175000Y-105943878D01*
X101337336Y-105871602D01*
X101511151Y-105834656D01*
X101688849Y-105834656D01*
X101862664Y-105871602D01*
G37*
G36*
X117102664Y-105871602D02*
G01*
X117265000Y-105943878D01*
X117408761Y-106048327D01*
X117527664Y-106180383D01*
X117616514Y-106334274D01*
X117671425Y-106503275D01*
X117690000Y-106680000D01*
X117671425Y-106856725D01*
X117616514Y-107025726D01*
X117527664Y-107179617D01*
X117408761Y-107311673D01*
X117265000Y-107416122D01*
X117102664Y-107488398D01*
X116928849Y-107525344D01*
X116751151Y-107525344D01*
X116577336Y-107488398D01*
X116415000Y-107416122D01*
X116271239Y-107311673D01*
X116152336Y-107179617D01*
X116063486Y-107025726D01*
X116008575Y-106856725D01*
X115990000Y-106680000D01*
X116008575Y-106503275D01*
X116063486Y-106334274D01*
X116152336Y-106180383D01*
X116271239Y-106048327D01*
X116415000Y-105943878D01*
X116577336Y-105871602D01*
X116751151Y-105834656D01*
X116928849Y-105834656D01*
X117102664Y-105871602D01*
G37*
G36*
X83867607Y-103244930D02*
G01*
X83914076Y-103244930D01*
X83954202Y-103253459D01*
X83995533Y-103257530D01*
X84047460Y-103273282D01*
X84098115Y-103284049D01*
X84130527Y-103298479D01*
X84164321Y-103308731D01*
X84218023Y-103337435D01*
X84270000Y-103360577D01*
X84294165Y-103378134D01*
X84319878Y-103391878D01*
X84372333Y-103434927D01*
X84422218Y-103471170D01*
X84438412Y-103489155D01*
X84456225Y-103503774D01*
X84504089Y-103562097D01*
X84548115Y-103610993D01*
X84557365Y-103627015D01*
X84568121Y-103640121D01*
X84607908Y-103714557D01*
X84642191Y-103773937D01*
X84646134Y-103786074D01*
X84651268Y-103795678D01*
X84679568Y-103888971D01*
X84700333Y-103952879D01*
X84701064Y-103959834D01*
X84702469Y-103964466D01*
X84716151Y-104103385D01*
X84720000Y-104140000D01*
X84716151Y-104176617D01*
X84702469Y-104315533D01*
X84701064Y-104320164D01*
X84700333Y-104327121D01*
X84679563Y-104391042D01*
X84651268Y-104484321D01*
X84646135Y-104493923D01*
X84642191Y-104506063D01*
X84607901Y-104565454D01*
X84568121Y-104639878D01*
X84557367Y-104652981D01*
X84548115Y-104669007D01*
X84504080Y-104717912D01*
X84456225Y-104776225D01*
X84438415Y-104790840D01*
X84422218Y-104808830D01*
X84372323Y-104845080D01*
X84319878Y-104888121D01*
X84294171Y-104901861D01*
X84270000Y-104919423D01*
X84218012Y-104942569D01*
X84164321Y-104971268D01*
X84130534Y-104981517D01*
X84098115Y-104995951D01*
X84047449Y-105006720D01*
X83995533Y-105022469D01*
X83954210Y-105026538D01*
X83914076Y-105035070D01*
X83867597Y-105035070D01*
X83820000Y-105039758D01*
X83772403Y-105035070D01*
X83725924Y-105035070D01*
X83685789Y-105026539D01*
X83644466Y-105022469D01*
X83592546Y-105006719D01*
X83541885Y-104995951D01*
X83509467Y-104981517D01*
X83475678Y-104971268D01*
X83421981Y-104942566D01*
X83370000Y-104919423D01*
X83345831Y-104901863D01*
X83320121Y-104888121D01*
X83267667Y-104845074D01*
X83217782Y-104808830D01*
X83201587Y-104790843D01*
X83183774Y-104776225D01*
X83135908Y-104717899D01*
X83091885Y-104669007D01*
X83082634Y-104652985D01*
X83071878Y-104639878D01*
X83032085Y-104565431D01*
X82997809Y-104506063D01*
X82993866Y-104493928D01*
X82988731Y-104484321D01*
X82960421Y-104390996D01*
X82939667Y-104327121D01*
X82938936Y-104320169D01*
X82937530Y-104315533D01*
X82923832Y-104176466D01*
X82920000Y-104140000D01*
X82923832Y-104103536D01*
X82937530Y-103964466D01*
X82938936Y-103959829D01*
X82939667Y-103952879D01*
X82960416Y-103889017D01*
X82988731Y-103795678D01*
X82993866Y-103786069D01*
X82997809Y-103773937D01*
X83032078Y-103714581D01*
X83071878Y-103640121D01*
X83082636Y-103627011D01*
X83091885Y-103610993D01*
X83135898Y-103562110D01*
X83183774Y-103503774D01*
X83201590Y-103489152D01*
X83217782Y-103471170D01*
X83267657Y-103434933D01*
X83320121Y-103391878D01*
X83345836Y-103378132D01*
X83370000Y-103360577D01*
X83421970Y-103337438D01*
X83475678Y-103308731D01*
X83509474Y-103298478D01*
X83541885Y-103284049D01*
X83592535Y-103273282D01*
X83644466Y-103257530D01*
X83685798Y-103253459D01*
X83725924Y-103244930D01*
X83772393Y-103244930D01*
X83820000Y-103240241D01*
X83867607Y-103244930D01*
G37*
G36*
X86407607Y-103244930D02*
G01*
X86454076Y-103244930D01*
X86494202Y-103253459D01*
X86535533Y-103257530D01*
X86587460Y-103273282D01*
X86638115Y-103284049D01*
X86670527Y-103298479D01*
X86704321Y-103308731D01*
X86758023Y-103337435D01*
X86810000Y-103360577D01*
X86834165Y-103378134D01*
X86859878Y-103391878D01*
X86912333Y-103434927D01*
X86962218Y-103471170D01*
X86978412Y-103489155D01*
X86996225Y-103503774D01*
X87044089Y-103562097D01*
X87088115Y-103610993D01*
X87097365Y-103627015D01*
X87108121Y-103640121D01*
X87147908Y-103714557D01*
X87182191Y-103773937D01*
X87186134Y-103786074D01*
X87191268Y-103795678D01*
X87219568Y-103888971D01*
X87240333Y-103952879D01*
X87241064Y-103959834D01*
X87242469Y-103964466D01*
X87256151Y-104103385D01*
X87260000Y-104140000D01*
X87256151Y-104176617D01*
X87242469Y-104315533D01*
X87241064Y-104320164D01*
X87240333Y-104327121D01*
X87219563Y-104391042D01*
X87191268Y-104484321D01*
X87186135Y-104493923D01*
X87182191Y-104506063D01*
X87147901Y-104565454D01*
X87108121Y-104639878D01*
X87097367Y-104652981D01*
X87088115Y-104669007D01*
X87044080Y-104717912D01*
X86996225Y-104776225D01*
X86978415Y-104790840D01*
X86962218Y-104808830D01*
X86912323Y-104845080D01*
X86859878Y-104888121D01*
X86834171Y-104901861D01*
X86810000Y-104919423D01*
X86758012Y-104942569D01*
X86704321Y-104971268D01*
X86670534Y-104981517D01*
X86638115Y-104995951D01*
X86587449Y-105006720D01*
X86535533Y-105022469D01*
X86494210Y-105026538D01*
X86454076Y-105035070D01*
X86407597Y-105035070D01*
X86360000Y-105039758D01*
X86312403Y-105035070D01*
X86265924Y-105035070D01*
X86225789Y-105026539D01*
X86184466Y-105022469D01*
X86132546Y-105006719D01*
X86081885Y-104995951D01*
X86049467Y-104981517D01*
X86015678Y-104971268D01*
X85961981Y-104942566D01*
X85910000Y-104919423D01*
X85885831Y-104901863D01*
X85860121Y-104888121D01*
X85807667Y-104845074D01*
X85757782Y-104808830D01*
X85741587Y-104790843D01*
X85723774Y-104776225D01*
X85675908Y-104717899D01*
X85631885Y-104669007D01*
X85622634Y-104652985D01*
X85611878Y-104639878D01*
X85572085Y-104565431D01*
X85537809Y-104506063D01*
X85533866Y-104493928D01*
X85528731Y-104484321D01*
X85500421Y-104390996D01*
X85479667Y-104327121D01*
X85478936Y-104320169D01*
X85477530Y-104315533D01*
X85463832Y-104176466D01*
X85460000Y-104140000D01*
X85463832Y-104103536D01*
X85477530Y-103964466D01*
X85478936Y-103959829D01*
X85479667Y-103952879D01*
X85500416Y-103889017D01*
X85528731Y-103795678D01*
X85533866Y-103786069D01*
X85537809Y-103773937D01*
X85572078Y-103714581D01*
X85611878Y-103640121D01*
X85622636Y-103627011D01*
X85631885Y-103610993D01*
X85675898Y-103562110D01*
X85723774Y-103503774D01*
X85741590Y-103489152D01*
X85757782Y-103471170D01*
X85807657Y-103434933D01*
X85860121Y-103391878D01*
X85885836Y-103378132D01*
X85910000Y-103360577D01*
X85961970Y-103337438D01*
X86015678Y-103308731D01*
X86049474Y-103298478D01*
X86081885Y-103284049D01*
X86132535Y-103273282D01*
X86184466Y-103257530D01*
X86225798Y-103253459D01*
X86265924Y-103244930D01*
X86312393Y-103244930D01*
X86360000Y-103240241D01*
X86407607Y-103244930D01*
G37*
G36*
X101862664Y-103331602D02*
G01*
X102025000Y-103403878D01*
X102168761Y-103508327D01*
X102287664Y-103640383D01*
X102376514Y-103794274D01*
X102431425Y-103963275D01*
X102450000Y-104140000D01*
X102431425Y-104316725D01*
X102376514Y-104485726D01*
X102287664Y-104639617D01*
X102168761Y-104771673D01*
X102025000Y-104876122D01*
X101862664Y-104948398D01*
X101688849Y-104985344D01*
X101511151Y-104985344D01*
X101337336Y-104948398D01*
X101175000Y-104876122D01*
X101031239Y-104771673D01*
X100912336Y-104639617D01*
X100823486Y-104485726D01*
X100768575Y-104316725D01*
X100750000Y-104140000D01*
X100768575Y-103963275D01*
X100823486Y-103794274D01*
X100912336Y-103640383D01*
X101031239Y-103508327D01*
X101175000Y-103403878D01*
X101337336Y-103331602D01*
X101511151Y-103294656D01*
X101688849Y-103294656D01*
X101862664Y-103331602D01*
G37*
G36*
X117102664Y-103331602D02*
G01*
X117265000Y-103403878D01*
X117408761Y-103508327D01*
X117527664Y-103640383D01*
X117616514Y-103794274D01*
X117671425Y-103963275D01*
X117690000Y-104140000D01*
X117671425Y-104316725D01*
X117616514Y-104485726D01*
X117527664Y-104639617D01*
X117408761Y-104771673D01*
X117265000Y-104876122D01*
X117102664Y-104948398D01*
X116928849Y-104985344D01*
X116751151Y-104985344D01*
X116577336Y-104948398D01*
X116415000Y-104876122D01*
X116271239Y-104771673D01*
X116152336Y-104639617D01*
X116063486Y-104485726D01*
X116008575Y-104316725D01*
X115990000Y-104140000D01*
X116008575Y-103963275D01*
X116063486Y-103794274D01*
X116152336Y-103640383D01*
X116271239Y-103508327D01*
X116415000Y-103403878D01*
X116577336Y-103331602D01*
X116751151Y-103294656D01*
X116928849Y-103294656D01*
X117102664Y-103331602D01*
G37*
G36*
X83867607Y-100704930D02*
G01*
X83914076Y-100704930D01*
X83954202Y-100713459D01*
X83995533Y-100717530D01*
X84047460Y-100733282D01*
X84098115Y-100744049D01*
X84130527Y-100758479D01*
X84164321Y-100768731D01*
X84218023Y-100797435D01*
X84270000Y-100820577D01*
X84294165Y-100838134D01*
X84319878Y-100851878D01*
X84372333Y-100894927D01*
X84422218Y-100931170D01*
X84438412Y-100949155D01*
X84456225Y-100963774D01*
X84504089Y-101022097D01*
X84548115Y-101070993D01*
X84557365Y-101087015D01*
X84568121Y-101100121D01*
X84607908Y-101174557D01*
X84642191Y-101233937D01*
X84646134Y-101246074D01*
X84651268Y-101255678D01*
X84679568Y-101348971D01*
X84700333Y-101412879D01*
X84701064Y-101419834D01*
X84702469Y-101424466D01*
X84716151Y-101563385D01*
X84720000Y-101600000D01*
X84716151Y-101636617D01*
X84702469Y-101775533D01*
X84701064Y-101780164D01*
X84700333Y-101787121D01*
X84679563Y-101851042D01*
X84651268Y-101944321D01*
X84646135Y-101953923D01*
X84642191Y-101966063D01*
X84607901Y-102025454D01*
X84568121Y-102099878D01*
X84557367Y-102112981D01*
X84548115Y-102129007D01*
X84504080Y-102177912D01*
X84456225Y-102236225D01*
X84438415Y-102250840D01*
X84422218Y-102268830D01*
X84372323Y-102305080D01*
X84319878Y-102348121D01*
X84294171Y-102361861D01*
X84270000Y-102379423D01*
X84218012Y-102402569D01*
X84164321Y-102431268D01*
X84130534Y-102441517D01*
X84098115Y-102455951D01*
X84047449Y-102466720D01*
X83995533Y-102482469D01*
X83954210Y-102486538D01*
X83914076Y-102495070D01*
X83867597Y-102495070D01*
X83820000Y-102499758D01*
X83772403Y-102495070D01*
X83725924Y-102495070D01*
X83685789Y-102486539D01*
X83644466Y-102482469D01*
X83592546Y-102466719D01*
X83541885Y-102455951D01*
X83509467Y-102441517D01*
X83475678Y-102431268D01*
X83421981Y-102402566D01*
X83370000Y-102379423D01*
X83345831Y-102361863D01*
X83320121Y-102348121D01*
X83267667Y-102305074D01*
X83217782Y-102268830D01*
X83201587Y-102250843D01*
X83183774Y-102236225D01*
X83135908Y-102177899D01*
X83091885Y-102129007D01*
X83082634Y-102112985D01*
X83071878Y-102099878D01*
X83032085Y-102025431D01*
X82997809Y-101966063D01*
X82993866Y-101953928D01*
X82988731Y-101944321D01*
X82960421Y-101850996D01*
X82939667Y-101787121D01*
X82938936Y-101780169D01*
X82937530Y-101775533D01*
X82923832Y-101636466D01*
X82920000Y-101600000D01*
X82923832Y-101563536D01*
X82937530Y-101424466D01*
X82938936Y-101419829D01*
X82939667Y-101412879D01*
X82960416Y-101349017D01*
X82988731Y-101255678D01*
X82993866Y-101246069D01*
X82997809Y-101233937D01*
X83032078Y-101174581D01*
X83071878Y-101100121D01*
X83082636Y-101087011D01*
X83091885Y-101070993D01*
X83135898Y-101022110D01*
X83183774Y-100963774D01*
X83201590Y-100949152D01*
X83217782Y-100931170D01*
X83267657Y-100894933D01*
X83320121Y-100851878D01*
X83345836Y-100838132D01*
X83370000Y-100820577D01*
X83421970Y-100797438D01*
X83475678Y-100768731D01*
X83509474Y-100758478D01*
X83541885Y-100744049D01*
X83592535Y-100733282D01*
X83644466Y-100717530D01*
X83685798Y-100713459D01*
X83725924Y-100704930D01*
X83772393Y-100704930D01*
X83820000Y-100700241D01*
X83867607Y-100704930D01*
G37*
G36*
X86407607Y-100704930D02*
G01*
X86454076Y-100704930D01*
X86494202Y-100713459D01*
X86535533Y-100717530D01*
X86587460Y-100733282D01*
X86638115Y-100744049D01*
X86670527Y-100758479D01*
X86704321Y-100768731D01*
X86758023Y-100797435D01*
X86810000Y-100820577D01*
X86834165Y-100838134D01*
X86859878Y-100851878D01*
X86912333Y-100894927D01*
X86962218Y-100931170D01*
X86978412Y-100949155D01*
X86996225Y-100963774D01*
X87044089Y-101022097D01*
X87088115Y-101070993D01*
X87097365Y-101087015D01*
X87108121Y-101100121D01*
X87147908Y-101174557D01*
X87182191Y-101233937D01*
X87186134Y-101246074D01*
X87191268Y-101255678D01*
X87219568Y-101348971D01*
X87240333Y-101412879D01*
X87241064Y-101419834D01*
X87242469Y-101424466D01*
X87256151Y-101563385D01*
X87260000Y-101600000D01*
X87256151Y-101636617D01*
X87242469Y-101775533D01*
X87241064Y-101780164D01*
X87240333Y-101787121D01*
X87219563Y-101851042D01*
X87191268Y-101944321D01*
X87186135Y-101953923D01*
X87182191Y-101966063D01*
X87147901Y-102025454D01*
X87108121Y-102099878D01*
X87097367Y-102112981D01*
X87088115Y-102129007D01*
X87044080Y-102177912D01*
X86996225Y-102236225D01*
X86978415Y-102250840D01*
X86962218Y-102268830D01*
X86912323Y-102305080D01*
X86859878Y-102348121D01*
X86834171Y-102361861D01*
X86810000Y-102379423D01*
X86758012Y-102402569D01*
X86704321Y-102431268D01*
X86670534Y-102441517D01*
X86638115Y-102455951D01*
X86587449Y-102466720D01*
X86535533Y-102482469D01*
X86494210Y-102486538D01*
X86454076Y-102495070D01*
X86407597Y-102495070D01*
X86360000Y-102499758D01*
X86312403Y-102495070D01*
X86265924Y-102495070D01*
X86225789Y-102486539D01*
X86184466Y-102482469D01*
X86132546Y-102466719D01*
X86081885Y-102455951D01*
X86049467Y-102441517D01*
X86015678Y-102431268D01*
X85961981Y-102402566D01*
X85910000Y-102379423D01*
X85885831Y-102361863D01*
X85860121Y-102348121D01*
X85807667Y-102305074D01*
X85757782Y-102268830D01*
X85741587Y-102250843D01*
X85723774Y-102236225D01*
X85675908Y-102177899D01*
X85631885Y-102129007D01*
X85622634Y-102112985D01*
X85611878Y-102099878D01*
X85572085Y-102025431D01*
X85537809Y-101966063D01*
X85533866Y-101953928D01*
X85528731Y-101944321D01*
X85500421Y-101850996D01*
X85479667Y-101787121D01*
X85478936Y-101780169D01*
X85477530Y-101775533D01*
X85463832Y-101636466D01*
X85460000Y-101600000D01*
X85463832Y-101563536D01*
X85477530Y-101424466D01*
X85478936Y-101419829D01*
X85479667Y-101412879D01*
X85500416Y-101349017D01*
X85528731Y-101255678D01*
X85533866Y-101246069D01*
X85537809Y-101233937D01*
X85572078Y-101174581D01*
X85611878Y-101100121D01*
X85622636Y-101087011D01*
X85631885Y-101070993D01*
X85675898Y-101022110D01*
X85723774Y-100963774D01*
X85741590Y-100949152D01*
X85757782Y-100931170D01*
X85807657Y-100894933D01*
X85860121Y-100851878D01*
X85885836Y-100838132D01*
X85910000Y-100820577D01*
X85961970Y-100797438D01*
X86015678Y-100768731D01*
X86049474Y-100758478D01*
X86081885Y-100744049D01*
X86132535Y-100733282D01*
X86184466Y-100717530D01*
X86225798Y-100713459D01*
X86265924Y-100704930D01*
X86312393Y-100704930D01*
X86360000Y-100700241D01*
X86407607Y-100704930D01*
G37*
G36*
X101862664Y-100791602D02*
G01*
X102025000Y-100863878D01*
X102168761Y-100968327D01*
X102287664Y-101100383D01*
X102376514Y-101254274D01*
X102431425Y-101423275D01*
X102450000Y-101600000D01*
X102431425Y-101776725D01*
X102376514Y-101945726D01*
X102287664Y-102099617D01*
X102168761Y-102231673D01*
X102025000Y-102336122D01*
X101862664Y-102408398D01*
X101688849Y-102445344D01*
X101511151Y-102445344D01*
X101337336Y-102408398D01*
X101175000Y-102336122D01*
X101031239Y-102231673D01*
X100912336Y-102099617D01*
X100823486Y-101945726D01*
X100768575Y-101776725D01*
X100750000Y-101600000D01*
X100768575Y-101423275D01*
X100823486Y-101254274D01*
X100912336Y-101100383D01*
X101031239Y-100968327D01*
X101175000Y-100863878D01*
X101337336Y-100791602D01*
X101511151Y-100754656D01*
X101688849Y-100754656D01*
X101862664Y-100791602D01*
G37*
G36*
X117102664Y-100791602D02*
G01*
X117265000Y-100863878D01*
X117408761Y-100968327D01*
X117527664Y-101100383D01*
X117616514Y-101254274D01*
X117671425Y-101423275D01*
X117690000Y-101600000D01*
X117671425Y-101776725D01*
X117616514Y-101945726D01*
X117527664Y-102099617D01*
X117408761Y-102231673D01*
X117265000Y-102336122D01*
X117102664Y-102408398D01*
X116928849Y-102445344D01*
X116751151Y-102445344D01*
X116577336Y-102408398D01*
X116415000Y-102336122D01*
X116271239Y-102231673D01*
X116152336Y-102099617D01*
X116063486Y-101945726D01*
X116008575Y-101776725D01*
X115990000Y-101600000D01*
X116008575Y-101423275D01*
X116063486Y-101254274D01*
X116152336Y-101100383D01*
X116271239Y-100968327D01*
X116415000Y-100863878D01*
X116577336Y-100791602D01*
X116751151Y-100754656D01*
X116928849Y-100754656D01*
X117102664Y-100791602D01*
G37*
G36*
X83867607Y-98164930D02*
G01*
X83914076Y-98164930D01*
X83954202Y-98173459D01*
X83995533Y-98177530D01*
X84047460Y-98193282D01*
X84098115Y-98204049D01*
X84130527Y-98218479D01*
X84164321Y-98228731D01*
X84218023Y-98257435D01*
X84270000Y-98280577D01*
X84294165Y-98298134D01*
X84319878Y-98311878D01*
X84372333Y-98354927D01*
X84422218Y-98391170D01*
X84438412Y-98409155D01*
X84456225Y-98423774D01*
X84504089Y-98482097D01*
X84548115Y-98530993D01*
X84557365Y-98547015D01*
X84568121Y-98560121D01*
X84607908Y-98634557D01*
X84642191Y-98693937D01*
X84646134Y-98706074D01*
X84651268Y-98715678D01*
X84679568Y-98808971D01*
X84700333Y-98872879D01*
X84701064Y-98879834D01*
X84702469Y-98884466D01*
X84716151Y-99023385D01*
X84720000Y-99060000D01*
X84716151Y-99096617D01*
X84702469Y-99235533D01*
X84701064Y-99240164D01*
X84700333Y-99247121D01*
X84679563Y-99311042D01*
X84651268Y-99404321D01*
X84646135Y-99413923D01*
X84642191Y-99426063D01*
X84607901Y-99485454D01*
X84568121Y-99559878D01*
X84557367Y-99572981D01*
X84548115Y-99589007D01*
X84504080Y-99637912D01*
X84456225Y-99696225D01*
X84438415Y-99710840D01*
X84422218Y-99728830D01*
X84372323Y-99765080D01*
X84319878Y-99808121D01*
X84294171Y-99821861D01*
X84270000Y-99839423D01*
X84218012Y-99862569D01*
X84164321Y-99891268D01*
X84130534Y-99901517D01*
X84098115Y-99915951D01*
X84047449Y-99926720D01*
X83995533Y-99942469D01*
X83954210Y-99946538D01*
X83914076Y-99955070D01*
X83867597Y-99955070D01*
X83820000Y-99959758D01*
X83772403Y-99955070D01*
X83725924Y-99955070D01*
X83685789Y-99946539D01*
X83644466Y-99942469D01*
X83592546Y-99926719D01*
X83541885Y-99915951D01*
X83509467Y-99901517D01*
X83475678Y-99891268D01*
X83421981Y-99862566D01*
X83370000Y-99839423D01*
X83345831Y-99821863D01*
X83320121Y-99808121D01*
X83267667Y-99765074D01*
X83217782Y-99728830D01*
X83201587Y-99710843D01*
X83183774Y-99696225D01*
X83135908Y-99637899D01*
X83091885Y-99589007D01*
X83082634Y-99572985D01*
X83071878Y-99559878D01*
X83032085Y-99485431D01*
X82997809Y-99426063D01*
X82993866Y-99413928D01*
X82988731Y-99404321D01*
X82960421Y-99310996D01*
X82939667Y-99247121D01*
X82938936Y-99240169D01*
X82937530Y-99235533D01*
X82923832Y-99096466D01*
X82920000Y-99060000D01*
X82923832Y-99023536D01*
X82937530Y-98884466D01*
X82938936Y-98879829D01*
X82939667Y-98872879D01*
X82960416Y-98809017D01*
X82988731Y-98715678D01*
X82993866Y-98706069D01*
X82997809Y-98693937D01*
X83032078Y-98634581D01*
X83071878Y-98560121D01*
X83082636Y-98547011D01*
X83091885Y-98530993D01*
X83135898Y-98482110D01*
X83183774Y-98423774D01*
X83201590Y-98409152D01*
X83217782Y-98391170D01*
X83267657Y-98354933D01*
X83320121Y-98311878D01*
X83345836Y-98298132D01*
X83370000Y-98280577D01*
X83421970Y-98257438D01*
X83475678Y-98228731D01*
X83509474Y-98218478D01*
X83541885Y-98204049D01*
X83592535Y-98193282D01*
X83644466Y-98177530D01*
X83685798Y-98173459D01*
X83725924Y-98164930D01*
X83772393Y-98164930D01*
X83820000Y-98160241D01*
X83867607Y-98164930D01*
G37*
G36*
X86407607Y-98164930D02*
G01*
X86454076Y-98164930D01*
X86494202Y-98173459D01*
X86535533Y-98177530D01*
X86587460Y-98193282D01*
X86638115Y-98204049D01*
X86670527Y-98218479D01*
X86704321Y-98228731D01*
X86758023Y-98257435D01*
X86810000Y-98280577D01*
X86834165Y-98298134D01*
X86859878Y-98311878D01*
X86912333Y-98354927D01*
X86962218Y-98391170D01*
X86978412Y-98409155D01*
X86996225Y-98423774D01*
X87044089Y-98482097D01*
X87088115Y-98530993D01*
X87097365Y-98547015D01*
X87108121Y-98560121D01*
X87147908Y-98634557D01*
X87182191Y-98693937D01*
X87186134Y-98706074D01*
X87191268Y-98715678D01*
X87219568Y-98808971D01*
X87240333Y-98872879D01*
X87241064Y-98879834D01*
X87242469Y-98884466D01*
X87256151Y-99023385D01*
X87260000Y-99060000D01*
X87256151Y-99096617D01*
X87242469Y-99235533D01*
X87241064Y-99240164D01*
X87240333Y-99247121D01*
X87219563Y-99311042D01*
X87191268Y-99404321D01*
X87186135Y-99413923D01*
X87182191Y-99426063D01*
X87147901Y-99485454D01*
X87108121Y-99559878D01*
X87097367Y-99572981D01*
X87088115Y-99589007D01*
X87044080Y-99637912D01*
X86996225Y-99696225D01*
X86978415Y-99710840D01*
X86962218Y-99728830D01*
X86912323Y-99765080D01*
X86859878Y-99808121D01*
X86834171Y-99821861D01*
X86810000Y-99839423D01*
X86758012Y-99862569D01*
X86704321Y-99891268D01*
X86670534Y-99901517D01*
X86638115Y-99915951D01*
X86587449Y-99926720D01*
X86535533Y-99942469D01*
X86494210Y-99946538D01*
X86454076Y-99955070D01*
X86407597Y-99955070D01*
X86360000Y-99959758D01*
X86312403Y-99955070D01*
X86265924Y-99955070D01*
X86225789Y-99946539D01*
X86184466Y-99942469D01*
X86132546Y-99926719D01*
X86081885Y-99915951D01*
X86049467Y-99901517D01*
X86015678Y-99891268D01*
X85961981Y-99862566D01*
X85910000Y-99839423D01*
X85885831Y-99821863D01*
X85860121Y-99808121D01*
X85807667Y-99765074D01*
X85757782Y-99728830D01*
X85741587Y-99710843D01*
X85723774Y-99696225D01*
X85675908Y-99637899D01*
X85631885Y-99589007D01*
X85622634Y-99572985D01*
X85611878Y-99559878D01*
X85572085Y-99485431D01*
X85537809Y-99426063D01*
X85533866Y-99413928D01*
X85528731Y-99404321D01*
X85500421Y-99310996D01*
X85479667Y-99247121D01*
X85478936Y-99240169D01*
X85477530Y-99235533D01*
X85463832Y-99096466D01*
X85460000Y-99060000D01*
X85463832Y-99023536D01*
X85477530Y-98884466D01*
X85478936Y-98879829D01*
X85479667Y-98872879D01*
X85500416Y-98809017D01*
X85528731Y-98715678D01*
X85533866Y-98706069D01*
X85537809Y-98693937D01*
X85572078Y-98634581D01*
X85611878Y-98560121D01*
X85622636Y-98547011D01*
X85631885Y-98530993D01*
X85675898Y-98482110D01*
X85723774Y-98423774D01*
X85741590Y-98409152D01*
X85757782Y-98391170D01*
X85807657Y-98354933D01*
X85860121Y-98311878D01*
X85885836Y-98298132D01*
X85910000Y-98280577D01*
X85961970Y-98257438D01*
X86015678Y-98228731D01*
X86049474Y-98218478D01*
X86081885Y-98204049D01*
X86132535Y-98193282D01*
X86184466Y-98177530D01*
X86225798Y-98173459D01*
X86265924Y-98164930D01*
X86312393Y-98164930D01*
X86360000Y-98160241D01*
X86407607Y-98164930D01*
G37*
G36*
X101862664Y-98251602D02*
G01*
X102025000Y-98323878D01*
X102168761Y-98428327D01*
X102287664Y-98560383D01*
X102376514Y-98714274D01*
X102431425Y-98883275D01*
X102450000Y-99060000D01*
X102431425Y-99236725D01*
X102376514Y-99405726D01*
X102287664Y-99559617D01*
X102168761Y-99691673D01*
X102025000Y-99796122D01*
X101862664Y-99868398D01*
X101688849Y-99905344D01*
X101511151Y-99905344D01*
X101337336Y-99868398D01*
X101175000Y-99796122D01*
X101031239Y-99691673D01*
X100912336Y-99559617D01*
X100823486Y-99405726D01*
X100768575Y-99236725D01*
X100750000Y-99060000D01*
X100768575Y-98883275D01*
X100823486Y-98714274D01*
X100912336Y-98560383D01*
X101031239Y-98428327D01*
X101175000Y-98323878D01*
X101337336Y-98251602D01*
X101511151Y-98214656D01*
X101688849Y-98214656D01*
X101862664Y-98251602D01*
G37*
G36*
X117102664Y-98251602D02*
G01*
X117265000Y-98323878D01*
X117408761Y-98428327D01*
X117527664Y-98560383D01*
X117616514Y-98714274D01*
X117671425Y-98883275D01*
X117690000Y-99060000D01*
X117671425Y-99236725D01*
X117616514Y-99405726D01*
X117527664Y-99559617D01*
X117408761Y-99691673D01*
X117265000Y-99796122D01*
X117102664Y-99868398D01*
X116928849Y-99905344D01*
X116751151Y-99905344D01*
X116577336Y-99868398D01*
X116415000Y-99796122D01*
X116271239Y-99691673D01*
X116152336Y-99559617D01*
X116063486Y-99405726D01*
X116008575Y-99236725D01*
X115990000Y-99060000D01*
X116008575Y-98883275D01*
X116063486Y-98714274D01*
X116152336Y-98560383D01*
X116271239Y-98428327D01*
X116415000Y-98323878D01*
X116577336Y-98251602D01*
X116751151Y-98214656D01*
X116928849Y-98214656D01*
X117102664Y-98251602D01*
G37*
G36*
X83867607Y-95624930D02*
G01*
X83914076Y-95624930D01*
X83954202Y-95633459D01*
X83995533Y-95637530D01*
X84047460Y-95653282D01*
X84098115Y-95664049D01*
X84130527Y-95678479D01*
X84164321Y-95688731D01*
X84218023Y-95717435D01*
X84270000Y-95740577D01*
X84294165Y-95758134D01*
X84319878Y-95771878D01*
X84372333Y-95814927D01*
X84422218Y-95851170D01*
X84438412Y-95869155D01*
X84456225Y-95883774D01*
X84504089Y-95942097D01*
X84548115Y-95990993D01*
X84557365Y-96007015D01*
X84568121Y-96020121D01*
X84607908Y-96094557D01*
X84642191Y-96153937D01*
X84646134Y-96166074D01*
X84651268Y-96175678D01*
X84679568Y-96268971D01*
X84700333Y-96332879D01*
X84701064Y-96339834D01*
X84702469Y-96344466D01*
X84716151Y-96483385D01*
X84720000Y-96520000D01*
X84716151Y-96556617D01*
X84702469Y-96695533D01*
X84701064Y-96700164D01*
X84700333Y-96707121D01*
X84679563Y-96771042D01*
X84651268Y-96864321D01*
X84646135Y-96873923D01*
X84642191Y-96886063D01*
X84607901Y-96945454D01*
X84568121Y-97019878D01*
X84557367Y-97032981D01*
X84548115Y-97049007D01*
X84504080Y-97097912D01*
X84456225Y-97156225D01*
X84438415Y-97170840D01*
X84422218Y-97188830D01*
X84372323Y-97225080D01*
X84319878Y-97268121D01*
X84294171Y-97281861D01*
X84270000Y-97299423D01*
X84218012Y-97322569D01*
X84164321Y-97351268D01*
X84130534Y-97361517D01*
X84098115Y-97375951D01*
X84047449Y-97386720D01*
X83995533Y-97402469D01*
X83954210Y-97406538D01*
X83914076Y-97415070D01*
X83867597Y-97415070D01*
X83820000Y-97419758D01*
X83772403Y-97415070D01*
X83725924Y-97415070D01*
X83685789Y-97406539D01*
X83644466Y-97402469D01*
X83592546Y-97386719D01*
X83541885Y-97375951D01*
X83509467Y-97361517D01*
X83475678Y-97351268D01*
X83421981Y-97322566D01*
X83370000Y-97299423D01*
X83345831Y-97281863D01*
X83320121Y-97268121D01*
X83267667Y-97225074D01*
X83217782Y-97188830D01*
X83201587Y-97170843D01*
X83183774Y-97156225D01*
X83135908Y-97097899D01*
X83091885Y-97049007D01*
X83082634Y-97032985D01*
X83071878Y-97019878D01*
X83032085Y-96945431D01*
X82997809Y-96886063D01*
X82993866Y-96873928D01*
X82988731Y-96864321D01*
X82960421Y-96770996D01*
X82939667Y-96707121D01*
X82938936Y-96700169D01*
X82937530Y-96695533D01*
X82923832Y-96556466D01*
X82920000Y-96520000D01*
X82923832Y-96483536D01*
X82937530Y-96344466D01*
X82938936Y-96339829D01*
X82939667Y-96332879D01*
X82960416Y-96269017D01*
X82988731Y-96175678D01*
X82993866Y-96166069D01*
X82997809Y-96153937D01*
X83032078Y-96094581D01*
X83071878Y-96020121D01*
X83082636Y-96007011D01*
X83091885Y-95990993D01*
X83135898Y-95942110D01*
X83183774Y-95883774D01*
X83201590Y-95869152D01*
X83217782Y-95851170D01*
X83267657Y-95814933D01*
X83320121Y-95771878D01*
X83345836Y-95758132D01*
X83370000Y-95740577D01*
X83421970Y-95717438D01*
X83475678Y-95688731D01*
X83509474Y-95678478D01*
X83541885Y-95664049D01*
X83592535Y-95653282D01*
X83644466Y-95637530D01*
X83685798Y-95633459D01*
X83725924Y-95624930D01*
X83772393Y-95624930D01*
X83820000Y-95620241D01*
X83867607Y-95624930D01*
G37*
G36*
X86407607Y-95624930D02*
G01*
X86454076Y-95624930D01*
X86494202Y-95633459D01*
X86535533Y-95637530D01*
X86587460Y-95653282D01*
X86638115Y-95664049D01*
X86670527Y-95678479D01*
X86704321Y-95688731D01*
X86758023Y-95717435D01*
X86810000Y-95740577D01*
X86834165Y-95758134D01*
X86859878Y-95771878D01*
X86912333Y-95814927D01*
X86962218Y-95851170D01*
X86978412Y-95869155D01*
X86996225Y-95883774D01*
X87044089Y-95942097D01*
X87088115Y-95990993D01*
X87097365Y-96007015D01*
X87108121Y-96020121D01*
X87147908Y-96094557D01*
X87182191Y-96153937D01*
X87186134Y-96166074D01*
X87191268Y-96175678D01*
X87219568Y-96268971D01*
X87240333Y-96332879D01*
X87241064Y-96339834D01*
X87242469Y-96344466D01*
X87256151Y-96483385D01*
X87260000Y-96520000D01*
X87256151Y-96556617D01*
X87242469Y-96695533D01*
X87241064Y-96700164D01*
X87240333Y-96707121D01*
X87219563Y-96771042D01*
X87191268Y-96864321D01*
X87186135Y-96873923D01*
X87182191Y-96886063D01*
X87147901Y-96945454D01*
X87108121Y-97019878D01*
X87097367Y-97032981D01*
X87088115Y-97049007D01*
X87044080Y-97097912D01*
X86996225Y-97156225D01*
X86978415Y-97170840D01*
X86962218Y-97188830D01*
X86912323Y-97225080D01*
X86859878Y-97268121D01*
X86834171Y-97281861D01*
X86810000Y-97299423D01*
X86758012Y-97322569D01*
X86704321Y-97351268D01*
X86670534Y-97361517D01*
X86638115Y-97375951D01*
X86587449Y-97386720D01*
X86535533Y-97402469D01*
X86494210Y-97406538D01*
X86454076Y-97415070D01*
X86407597Y-97415070D01*
X86360000Y-97419758D01*
X86312403Y-97415070D01*
X86265924Y-97415070D01*
X86225789Y-97406539D01*
X86184466Y-97402469D01*
X86132546Y-97386719D01*
X86081885Y-97375951D01*
X86049467Y-97361517D01*
X86015678Y-97351268D01*
X85961981Y-97322566D01*
X85910000Y-97299423D01*
X85885831Y-97281863D01*
X85860121Y-97268121D01*
X85807667Y-97225074D01*
X85757782Y-97188830D01*
X85741587Y-97170843D01*
X85723774Y-97156225D01*
X85675908Y-97097899D01*
X85631885Y-97049007D01*
X85622634Y-97032985D01*
X85611878Y-97019878D01*
X85572085Y-96945431D01*
X85537809Y-96886063D01*
X85533866Y-96873928D01*
X85528731Y-96864321D01*
X85500421Y-96770996D01*
X85479667Y-96707121D01*
X85478936Y-96700169D01*
X85477530Y-96695533D01*
X85463832Y-96556466D01*
X85460000Y-96520000D01*
X85463832Y-96483536D01*
X85477530Y-96344466D01*
X85478936Y-96339829D01*
X85479667Y-96332879D01*
X85500416Y-96269017D01*
X85528731Y-96175678D01*
X85533866Y-96166069D01*
X85537809Y-96153937D01*
X85572078Y-96094581D01*
X85611878Y-96020121D01*
X85622636Y-96007011D01*
X85631885Y-95990993D01*
X85675898Y-95942110D01*
X85723774Y-95883774D01*
X85741590Y-95869152D01*
X85757782Y-95851170D01*
X85807657Y-95814933D01*
X85860121Y-95771878D01*
X85885836Y-95758132D01*
X85910000Y-95740577D01*
X85961970Y-95717438D01*
X86015678Y-95688731D01*
X86049474Y-95678478D01*
X86081885Y-95664049D01*
X86132535Y-95653282D01*
X86184466Y-95637530D01*
X86225798Y-95633459D01*
X86265924Y-95624930D01*
X86312393Y-95624930D01*
X86360000Y-95620241D01*
X86407607Y-95624930D01*
G37*
G36*
X101862664Y-95711602D02*
G01*
X102025000Y-95783878D01*
X102168761Y-95888327D01*
X102287664Y-96020383D01*
X102376514Y-96174274D01*
X102431425Y-96343275D01*
X102450000Y-96520000D01*
X102431425Y-96696725D01*
X102376514Y-96865726D01*
X102287664Y-97019617D01*
X102168761Y-97151673D01*
X102025000Y-97256122D01*
X101862664Y-97328398D01*
X101688849Y-97365344D01*
X101511151Y-97365344D01*
X101337336Y-97328398D01*
X101175000Y-97256122D01*
X101031239Y-97151673D01*
X100912336Y-97019617D01*
X100823486Y-96865726D01*
X100768575Y-96696725D01*
X100750000Y-96520000D01*
X100768575Y-96343275D01*
X100823486Y-96174274D01*
X100912336Y-96020383D01*
X101031239Y-95888327D01*
X101175000Y-95783878D01*
X101337336Y-95711602D01*
X101511151Y-95674656D01*
X101688849Y-95674656D01*
X101862664Y-95711602D01*
G37*
G36*
X117102664Y-95711602D02*
G01*
X117265000Y-95783878D01*
X117408761Y-95888327D01*
X117527664Y-96020383D01*
X117616514Y-96174274D01*
X117671425Y-96343275D01*
X117690000Y-96520000D01*
X117671425Y-96696725D01*
X117616514Y-96865726D01*
X117527664Y-97019617D01*
X117408761Y-97151673D01*
X117265000Y-97256122D01*
X117102664Y-97328398D01*
X116928849Y-97365344D01*
X116751151Y-97365344D01*
X116577336Y-97328398D01*
X116415000Y-97256122D01*
X116271239Y-97151673D01*
X116152336Y-97019617D01*
X116063486Y-96865726D01*
X116008575Y-96696725D01*
X115990000Y-96520000D01*
X116008575Y-96343275D01*
X116063486Y-96174274D01*
X116152336Y-96020383D01*
X116271239Y-95888327D01*
X116415000Y-95783878D01*
X116577336Y-95711602D01*
X116751151Y-95674656D01*
X116928849Y-95674656D01*
X117102664Y-95711602D01*
G37*
G36*
X24170743Y-93254750D02*
G01*
X24389626Y-93313400D01*
X24595000Y-93409167D01*
X24780624Y-93539142D01*
X24940858Y-93699376D01*
X25070833Y-93885000D01*
X25166600Y-94090374D01*
X25225250Y-94309257D01*
X25245000Y-94535000D01*
X25225250Y-94760743D01*
X25166600Y-94979626D01*
X25070833Y-95185000D01*
X24940858Y-95370624D01*
X24780624Y-95530858D01*
X24595000Y-95660833D01*
X24389626Y-95756600D01*
X24170743Y-95815250D01*
X23945000Y-95835000D01*
X23942814Y-95835000D01*
X23447186Y-95835000D01*
X23445000Y-95835000D01*
X23219257Y-95815250D01*
X23000374Y-95756600D01*
X22795000Y-95660833D01*
X22609376Y-95530858D01*
X22449142Y-95370624D01*
X22319167Y-95185000D01*
X22223400Y-94979626D01*
X22164750Y-94760743D01*
X22145000Y-94535000D01*
X22164750Y-94309257D01*
X22223400Y-94090374D01*
X22319167Y-93885000D01*
X22449142Y-93699376D01*
X22609376Y-93539142D01*
X22795000Y-93409167D01*
X23000374Y-93313400D01*
X23219257Y-93254750D01*
X23445000Y-93235000D01*
X23945000Y-93235000D01*
X24170743Y-93254750D01*
G37*
G36*
X36670743Y-93254750D02*
G01*
X36889626Y-93313400D01*
X37095000Y-93409167D01*
X37280624Y-93539142D01*
X37440858Y-93699376D01*
X37570833Y-93885000D01*
X37666600Y-94090374D01*
X37725250Y-94309257D01*
X37745000Y-94535000D01*
X37725250Y-94760743D01*
X37666600Y-94979626D01*
X37570833Y-95185000D01*
X37440858Y-95370624D01*
X37280624Y-95530858D01*
X37095000Y-95660833D01*
X36889626Y-95756600D01*
X36670743Y-95815250D01*
X36445000Y-95835000D01*
X36442814Y-95835000D01*
X35947186Y-95835000D01*
X35945000Y-95835000D01*
X35719257Y-95815250D01*
X35500374Y-95756600D01*
X35295000Y-95660833D01*
X35109376Y-95530858D01*
X34949142Y-95370624D01*
X34819167Y-95185000D01*
X34723400Y-94979626D01*
X34664750Y-94760743D01*
X34645000Y-94535000D01*
X34664750Y-94309257D01*
X34723400Y-94090374D01*
X34819167Y-93885000D01*
X34949142Y-93699376D01*
X35109376Y-93539142D01*
X35295000Y-93409167D01*
X35500374Y-93313400D01*
X35719257Y-93254750D01*
X35945000Y-93235000D01*
X36445000Y-93235000D01*
X36670743Y-93254750D01*
G37*
G36*
X83867607Y-93084930D02*
G01*
X83914076Y-93084930D01*
X83954202Y-93093459D01*
X83995533Y-93097530D01*
X84047460Y-93113282D01*
X84098115Y-93124049D01*
X84130527Y-93138479D01*
X84164321Y-93148731D01*
X84218023Y-93177435D01*
X84270000Y-93200577D01*
X84294165Y-93218134D01*
X84319878Y-93231878D01*
X84372333Y-93274927D01*
X84422218Y-93311170D01*
X84438412Y-93329155D01*
X84456225Y-93343774D01*
X84504089Y-93402097D01*
X84548115Y-93450993D01*
X84557365Y-93467015D01*
X84568121Y-93480121D01*
X84607908Y-93554557D01*
X84642191Y-93613937D01*
X84646134Y-93626074D01*
X84651268Y-93635678D01*
X84679568Y-93728971D01*
X84700333Y-93792879D01*
X84701064Y-93799834D01*
X84702469Y-93804466D01*
X84716151Y-93943385D01*
X84720000Y-93980000D01*
X84716151Y-94016617D01*
X84702469Y-94155533D01*
X84701064Y-94160164D01*
X84700333Y-94167121D01*
X84679563Y-94231042D01*
X84651268Y-94324321D01*
X84646135Y-94333923D01*
X84642191Y-94346063D01*
X84607901Y-94405454D01*
X84568121Y-94479878D01*
X84557367Y-94492981D01*
X84548115Y-94509007D01*
X84504080Y-94557912D01*
X84456225Y-94616225D01*
X84438415Y-94630840D01*
X84422218Y-94648830D01*
X84372323Y-94685080D01*
X84319878Y-94728121D01*
X84294171Y-94741861D01*
X84270000Y-94759423D01*
X84218012Y-94782569D01*
X84164321Y-94811268D01*
X84130534Y-94821517D01*
X84098115Y-94835951D01*
X84047449Y-94846720D01*
X83995533Y-94862469D01*
X83954210Y-94866538D01*
X83914076Y-94875070D01*
X83867597Y-94875070D01*
X83820000Y-94879758D01*
X83772403Y-94875070D01*
X83725924Y-94875070D01*
X83685789Y-94866539D01*
X83644466Y-94862469D01*
X83592546Y-94846719D01*
X83541885Y-94835951D01*
X83509467Y-94821517D01*
X83475678Y-94811268D01*
X83421981Y-94782566D01*
X83370000Y-94759423D01*
X83345831Y-94741863D01*
X83320121Y-94728121D01*
X83267667Y-94685074D01*
X83217782Y-94648830D01*
X83201587Y-94630843D01*
X83183774Y-94616225D01*
X83135908Y-94557899D01*
X83091885Y-94509007D01*
X83082634Y-94492985D01*
X83071878Y-94479878D01*
X83032085Y-94405431D01*
X82997809Y-94346063D01*
X82993866Y-94333928D01*
X82988731Y-94324321D01*
X82960421Y-94230996D01*
X82939667Y-94167121D01*
X82938936Y-94160169D01*
X82937530Y-94155533D01*
X82923832Y-94016466D01*
X82920000Y-93980000D01*
X82923832Y-93943536D01*
X82937530Y-93804466D01*
X82938936Y-93799829D01*
X82939667Y-93792879D01*
X82960416Y-93729017D01*
X82988731Y-93635678D01*
X82993866Y-93626069D01*
X82997809Y-93613937D01*
X83032078Y-93554581D01*
X83071878Y-93480121D01*
X83082636Y-93467011D01*
X83091885Y-93450993D01*
X83135898Y-93402110D01*
X83183774Y-93343774D01*
X83201590Y-93329152D01*
X83217782Y-93311170D01*
X83267657Y-93274933D01*
X83320121Y-93231878D01*
X83345836Y-93218132D01*
X83370000Y-93200577D01*
X83421970Y-93177438D01*
X83475678Y-93148731D01*
X83509474Y-93138478D01*
X83541885Y-93124049D01*
X83592535Y-93113282D01*
X83644466Y-93097530D01*
X83685798Y-93093459D01*
X83725924Y-93084930D01*
X83772393Y-93084930D01*
X83820000Y-93080241D01*
X83867607Y-93084930D01*
G37*
G36*
X86407607Y-93084930D02*
G01*
X86454076Y-93084930D01*
X86494202Y-93093459D01*
X86535533Y-93097530D01*
X86587460Y-93113282D01*
X86638115Y-93124049D01*
X86670527Y-93138479D01*
X86704321Y-93148731D01*
X86758023Y-93177435D01*
X86810000Y-93200577D01*
X86834165Y-93218134D01*
X86859878Y-93231878D01*
X86912333Y-93274927D01*
X86962218Y-93311170D01*
X86978412Y-93329155D01*
X86996225Y-93343774D01*
X87044089Y-93402097D01*
X87088115Y-93450993D01*
X87097365Y-93467015D01*
X87108121Y-93480121D01*
X87147908Y-93554557D01*
X87182191Y-93613937D01*
X87186134Y-93626074D01*
X87191268Y-93635678D01*
X87219568Y-93728971D01*
X87240333Y-93792879D01*
X87241064Y-93799834D01*
X87242469Y-93804466D01*
X87256151Y-93943385D01*
X87260000Y-93980000D01*
X87256151Y-94016617D01*
X87242469Y-94155533D01*
X87241064Y-94160164D01*
X87240333Y-94167121D01*
X87219563Y-94231042D01*
X87191268Y-94324321D01*
X87186135Y-94333923D01*
X87182191Y-94346063D01*
X87147901Y-94405454D01*
X87108121Y-94479878D01*
X87097367Y-94492981D01*
X87088115Y-94509007D01*
X87044080Y-94557912D01*
X86996225Y-94616225D01*
X86978415Y-94630840D01*
X86962218Y-94648830D01*
X86912323Y-94685080D01*
X86859878Y-94728121D01*
X86834171Y-94741861D01*
X86810000Y-94759423D01*
X86758012Y-94782569D01*
X86704321Y-94811268D01*
X86670534Y-94821517D01*
X86638115Y-94835951D01*
X86587449Y-94846720D01*
X86535533Y-94862469D01*
X86494210Y-94866538D01*
X86454076Y-94875070D01*
X86407597Y-94875070D01*
X86360000Y-94879758D01*
X86312403Y-94875070D01*
X86265924Y-94875070D01*
X86225789Y-94866539D01*
X86184466Y-94862469D01*
X86132546Y-94846719D01*
X86081885Y-94835951D01*
X86049467Y-94821517D01*
X86015678Y-94811268D01*
X85961981Y-94782566D01*
X85910000Y-94759423D01*
X85885831Y-94741863D01*
X85860121Y-94728121D01*
X85807667Y-94685074D01*
X85757782Y-94648830D01*
X85741587Y-94630843D01*
X85723774Y-94616225D01*
X85675908Y-94557899D01*
X85631885Y-94509007D01*
X85622634Y-94492985D01*
X85611878Y-94479878D01*
X85572085Y-94405431D01*
X85537809Y-94346063D01*
X85533866Y-94333928D01*
X85528731Y-94324321D01*
X85500421Y-94230996D01*
X85479667Y-94167121D01*
X85478936Y-94160169D01*
X85477530Y-94155533D01*
X85463832Y-94016466D01*
X85460000Y-93980000D01*
X85463832Y-93943536D01*
X85477530Y-93804466D01*
X85478936Y-93799829D01*
X85479667Y-93792879D01*
X85500416Y-93729017D01*
X85528731Y-93635678D01*
X85533866Y-93626069D01*
X85537809Y-93613937D01*
X85572078Y-93554581D01*
X85611878Y-93480121D01*
X85622636Y-93467011D01*
X85631885Y-93450993D01*
X85675898Y-93402110D01*
X85723774Y-93343774D01*
X85741590Y-93329152D01*
X85757782Y-93311170D01*
X85807657Y-93274933D01*
X85860121Y-93231878D01*
X85885836Y-93218132D01*
X85910000Y-93200577D01*
X85961970Y-93177438D01*
X86015678Y-93148731D01*
X86049474Y-93138478D01*
X86081885Y-93124049D01*
X86132535Y-93113282D01*
X86184466Y-93097530D01*
X86225798Y-93093459D01*
X86265924Y-93084930D01*
X86312393Y-93084930D01*
X86360000Y-93080241D01*
X86407607Y-93084930D01*
G37*
G36*
X101862664Y-93171602D02*
G01*
X102025000Y-93243878D01*
X102168761Y-93348327D01*
X102287664Y-93480383D01*
X102376514Y-93634274D01*
X102431425Y-93803275D01*
X102450000Y-93980000D01*
X102431425Y-94156725D01*
X102376514Y-94325726D01*
X102287664Y-94479617D01*
X102168761Y-94611673D01*
X102025000Y-94716122D01*
X101862664Y-94788398D01*
X101688849Y-94825344D01*
X101511151Y-94825344D01*
X101337336Y-94788398D01*
X101175000Y-94716122D01*
X101031239Y-94611673D01*
X100912336Y-94479617D01*
X100823486Y-94325726D01*
X100768575Y-94156725D01*
X100750000Y-93980000D01*
X100768575Y-93803275D01*
X100823486Y-93634274D01*
X100912336Y-93480383D01*
X101031239Y-93348327D01*
X101175000Y-93243878D01*
X101337336Y-93171602D01*
X101511151Y-93134656D01*
X101688849Y-93134656D01*
X101862664Y-93171602D01*
G37*
G36*
X117102664Y-93171602D02*
G01*
X117265000Y-93243878D01*
X117408761Y-93348327D01*
X117527664Y-93480383D01*
X117616514Y-93634274D01*
X117671425Y-93803275D01*
X117690000Y-93980000D01*
X117671425Y-94156725D01*
X117616514Y-94325726D01*
X117527664Y-94479617D01*
X117408761Y-94611673D01*
X117265000Y-94716122D01*
X117102664Y-94788398D01*
X116928849Y-94825344D01*
X116751151Y-94825344D01*
X116577336Y-94788398D01*
X116415000Y-94716122D01*
X116271239Y-94611673D01*
X116152336Y-94479617D01*
X116063486Y-94325726D01*
X116008575Y-94156725D01*
X115990000Y-93980000D01*
X116008575Y-93803275D01*
X116063486Y-93634274D01*
X116152336Y-93480383D01*
X116271239Y-93348327D01*
X116415000Y-93243878D01*
X116577336Y-93171602D01*
X116751151Y-93134656D01*
X116928849Y-93134656D01*
X117102664Y-93171602D01*
G37*
G36*
X84689134Y-90543806D02*
G01*
X84705355Y-90554645D01*
X84716194Y-90570866D01*
X84720000Y-90590000D01*
X84720000Y-92290000D01*
X84716194Y-92309134D01*
X84705355Y-92325355D01*
X84689134Y-92336194D01*
X84670000Y-92340000D01*
X82970000Y-92340000D01*
X82950866Y-92336194D01*
X82934645Y-92325355D01*
X82923806Y-92309134D01*
X82920000Y-92290000D01*
X82920000Y-90590000D01*
X82923806Y-90570866D01*
X82934645Y-90554645D01*
X82950866Y-90543806D01*
X82970000Y-90540000D01*
X84670000Y-90540000D01*
X84689134Y-90543806D01*
G37*
G36*
X86407607Y-90544930D02*
G01*
X86454076Y-90544930D01*
X86494202Y-90553459D01*
X86535533Y-90557530D01*
X86587460Y-90573282D01*
X86638115Y-90584049D01*
X86670527Y-90598479D01*
X86704321Y-90608731D01*
X86758023Y-90637435D01*
X86810000Y-90660577D01*
X86834165Y-90678134D01*
X86859878Y-90691878D01*
X86912333Y-90734927D01*
X86962218Y-90771170D01*
X86978412Y-90789155D01*
X86996225Y-90803774D01*
X87044089Y-90862097D01*
X87088115Y-90910993D01*
X87097365Y-90927015D01*
X87108121Y-90940121D01*
X87147908Y-91014557D01*
X87182191Y-91073937D01*
X87186134Y-91086074D01*
X87191268Y-91095678D01*
X87219568Y-91188971D01*
X87240333Y-91252879D01*
X87241064Y-91259834D01*
X87242469Y-91264466D01*
X87256151Y-91403385D01*
X87260000Y-91440000D01*
X87256151Y-91476617D01*
X87242469Y-91615533D01*
X87241064Y-91620164D01*
X87240333Y-91627121D01*
X87219563Y-91691042D01*
X87191268Y-91784321D01*
X87186135Y-91793923D01*
X87182191Y-91806063D01*
X87147901Y-91865454D01*
X87108121Y-91939878D01*
X87097367Y-91952981D01*
X87088115Y-91969007D01*
X87044080Y-92017912D01*
X86996225Y-92076225D01*
X86978415Y-92090840D01*
X86962218Y-92108830D01*
X86912323Y-92145080D01*
X86859878Y-92188121D01*
X86834171Y-92201861D01*
X86810000Y-92219423D01*
X86758012Y-92242569D01*
X86704321Y-92271268D01*
X86670534Y-92281517D01*
X86638115Y-92295951D01*
X86587449Y-92306720D01*
X86535533Y-92322469D01*
X86494210Y-92326538D01*
X86454076Y-92335070D01*
X86407597Y-92335070D01*
X86360000Y-92339758D01*
X86312403Y-92335070D01*
X86265924Y-92335070D01*
X86225789Y-92326539D01*
X86184466Y-92322469D01*
X86132546Y-92306719D01*
X86081885Y-92295951D01*
X86049467Y-92281517D01*
X86015678Y-92271268D01*
X85961981Y-92242566D01*
X85910000Y-92219423D01*
X85885831Y-92201863D01*
X85860121Y-92188121D01*
X85807667Y-92145074D01*
X85757782Y-92108830D01*
X85741587Y-92090843D01*
X85723774Y-92076225D01*
X85675908Y-92017899D01*
X85631885Y-91969007D01*
X85622634Y-91952985D01*
X85611878Y-91939878D01*
X85572085Y-91865431D01*
X85537809Y-91806063D01*
X85533866Y-91793928D01*
X85528731Y-91784321D01*
X85500421Y-91690996D01*
X85479667Y-91627121D01*
X85478936Y-91620169D01*
X85477530Y-91615533D01*
X85463832Y-91476466D01*
X85460000Y-91440000D01*
X85463832Y-91403536D01*
X85477530Y-91264466D01*
X85478936Y-91259829D01*
X85479667Y-91252879D01*
X85500416Y-91189017D01*
X85528731Y-91095678D01*
X85533866Y-91086069D01*
X85537809Y-91073937D01*
X85572078Y-91014581D01*
X85611878Y-90940121D01*
X85622636Y-90927011D01*
X85631885Y-90910993D01*
X85675898Y-90862110D01*
X85723774Y-90803774D01*
X85741590Y-90789152D01*
X85757782Y-90771170D01*
X85807657Y-90734933D01*
X85860121Y-90691878D01*
X85885836Y-90678132D01*
X85910000Y-90660577D01*
X85961970Y-90637438D01*
X86015678Y-90608731D01*
X86049474Y-90598478D01*
X86081885Y-90584049D01*
X86132535Y-90573282D01*
X86184466Y-90557530D01*
X86225798Y-90553459D01*
X86265924Y-90544930D01*
X86312393Y-90544930D01*
X86360000Y-90540241D01*
X86407607Y-90544930D01*
G37*
G36*
X101862664Y-90631602D02*
G01*
X102025000Y-90703878D01*
X102168761Y-90808327D01*
X102287664Y-90940383D01*
X102376514Y-91094274D01*
X102431425Y-91263275D01*
X102450000Y-91440000D01*
X102431425Y-91616725D01*
X102376514Y-91785726D01*
X102287664Y-91939617D01*
X102168761Y-92071673D01*
X102025000Y-92176122D01*
X101862664Y-92248398D01*
X101688849Y-92285344D01*
X101511151Y-92285344D01*
X101337336Y-92248398D01*
X101175000Y-92176122D01*
X101031239Y-92071673D01*
X100912336Y-91939617D01*
X100823486Y-91785726D01*
X100768575Y-91616725D01*
X100750000Y-91440000D01*
X100768575Y-91263275D01*
X100823486Y-91094274D01*
X100912336Y-90940383D01*
X101031239Y-90808327D01*
X101175000Y-90703878D01*
X101337336Y-90631602D01*
X101511151Y-90594656D01*
X101688849Y-90594656D01*
X101862664Y-90631602D01*
G37*
G36*
X117102664Y-90631602D02*
G01*
X117265000Y-90703878D01*
X117408761Y-90808327D01*
X117527664Y-90940383D01*
X117616514Y-91094274D01*
X117671425Y-91263275D01*
X117690000Y-91440000D01*
X117671425Y-91616725D01*
X117616514Y-91785726D01*
X117527664Y-91939617D01*
X117408761Y-92071673D01*
X117265000Y-92176122D01*
X117102664Y-92248398D01*
X116928849Y-92285344D01*
X116751151Y-92285344D01*
X116577336Y-92248398D01*
X116415000Y-92176122D01*
X116271239Y-92071673D01*
X116152336Y-91939617D01*
X116063486Y-91785726D01*
X116008575Y-91616725D01*
X115990000Y-91440000D01*
X116008575Y-91263275D01*
X116063486Y-91094274D01*
X116152336Y-90940383D01*
X116271239Y-90808327D01*
X116415000Y-90703878D01*
X116577336Y-90631602D01*
X116751151Y-90594656D01*
X116928849Y-90594656D01*
X117102664Y-90631602D01*
G37*
G36*
X24170743Y-88254750D02*
G01*
X24389626Y-88313400D01*
X24595000Y-88409167D01*
X24780624Y-88539142D01*
X24940858Y-88699376D01*
X25070833Y-88885000D01*
X25166600Y-89090374D01*
X25225250Y-89309257D01*
X25245000Y-89535000D01*
X25225250Y-89760743D01*
X25166600Y-89979626D01*
X25070833Y-90185000D01*
X24940858Y-90370624D01*
X24780624Y-90530858D01*
X24595000Y-90660833D01*
X24389626Y-90756600D01*
X24170743Y-90815250D01*
X23945000Y-90835000D01*
X23942814Y-90835000D01*
X23447186Y-90835000D01*
X23445000Y-90835000D01*
X23219257Y-90815250D01*
X23000374Y-90756600D01*
X22795000Y-90660833D01*
X22609376Y-90530858D01*
X22449142Y-90370624D01*
X22319167Y-90185000D01*
X22223400Y-89979626D01*
X22164750Y-89760743D01*
X22145000Y-89535000D01*
X22164750Y-89309257D01*
X22223400Y-89090374D01*
X22319167Y-88885000D01*
X22449142Y-88699376D01*
X22609376Y-88539142D01*
X22795000Y-88409167D01*
X23000374Y-88313400D01*
X23219257Y-88254750D01*
X23445000Y-88235000D01*
X23945000Y-88235000D01*
X24170743Y-88254750D01*
G37*
G36*
X36670743Y-88254750D02*
G01*
X36889626Y-88313400D01*
X37095000Y-88409167D01*
X37280624Y-88539142D01*
X37440858Y-88699376D01*
X37570833Y-88885000D01*
X37666600Y-89090374D01*
X37725250Y-89309257D01*
X37745000Y-89535000D01*
X37725250Y-89760743D01*
X37666600Y-89979626D01*
X37570833Y-90185000D01*
X37440858Y-90370624D01*
X37280624Y-90530858D01*
X37095000Y-90660833D01*
X36889626Y-90756600D01*
X36670743Y-90815250D01*
X36445000Y-90835000D01*
X36442814Y-90835000D01*
X35947186Y-90835000D01*
X35945000Y-90835000D01*
X35719257Y-90815250D01*
X35500374Y-90756600D01*
X35295000Y-90660833D01*
X35109376Y-90530858D01*
X34949142Y-90370624D01*
X34819167Y-90185000D01*
X34723400Y-89979626D01*
X34664750Y-89760743D01*
X34645000Y-89535000D01*
X34664750Y-89309257D01*
X34723400Y-89090374D01*
X34819167Y-88885000D01*
X34949142Y-88699376D01*
X35109376Y-88539142D01*
X35295000Y-88409167D01*
X35500374Y-88313400D01*
X35719257Y-88254750D01*
X35945000Y-88235000D01*
X36445000Y-88235000D01*
X36670743Y-88254750D01*
G37*
G36*
X101862664Y-88091602D02*
G01*
X102025000Y-88163878D01*
X102168761Y-88268327D01*
X102287664Y-88400383D01*
X102376514Y-88554274D01*
X102431425Y-88723275D01*
X102450000Y-88900000D01*
X102431425Y-89076725D01*
X102376514Y-89245726D01*
X102287664Y-89399617D01*
X102168761Y-89531673D01*
X102025000Y-89636122D01*
X101862664Y-89708398D01*
X101688849Y-89745344D01*
X101511151Y-89745344D01*
X101337336Y-89708398D01*
X101175000Y-89636122D01*
X101031239Y-89531673D01*
X100912336Y-89399617D01*
X100823486Y-89245726D01*
X100768575Y-89076725D01*
X100750000Y-88900000D01*
X100768575Y-88723275D01*
X100823486Y-88554274D01*
X100912336Y-88400383D01*
X101031239Y-88268327D01*
X101175000Y-88163878D01*
X101337336Y-88091602D01*
X101511151Y-88054656D01*
X101688849Y-88054656D01*
X101862664Y-88091602D01*
G37*
G36*
X117102664Y-88091602D02*
G01*
X117265000Y-88163878D01*
X117408761Y-88268327D01*
X117527664Y-88400383D01*
X117616514Y-88554274D01*
X117671425Y-88723275D01*
X117690000Y-88900000D01*
X117671425Y-89076725D01*
X117616514Y-89245726D01*
X117527664Y-89399617D01*
X117408761Y-89531673D01*
X117265000Y-89636122D01*
X117102664Y-89708398D01*
X116928849Y-89745344D01*
X116751151Y-89745344D01*
X116577336Y-89708398D01*
X116415000Y-89636122D01*
X116271239Y-89531673D01*
X116152336Y-89399617D01*
X116063486Y-89245726D01*
X116008575Y-89076725D01*
X115990000Y-88900000D01*
X116008575Y-88723275D01*
X116063486Y-88554274D01*
X116152336Y-88400383D01*
X116271239Y-88268327D01*
X116415000Y-88163878D01*
X116577336Y-88091602D01*
X116751151Y-88054656D01*
X116928849Y-88054656D01*
X117102664Y-88091602D01*
G37*
G36*
X101862664Y-85551602D02*
G01*
X102025000Y-85623878D01*
X102168761Y-85728327D01*
X102287664Y-85860383D01*
X102376514Y-86014274D01*
X102431425Y-86183275D01*
X102450000Y-86360000D01*
X102431425Y-86536725D01*
X102376514Y-86705726D01*
X102287664Y-86859617D01*
X102168761Y-86991673D01*
X102025000Y-87096122D01*
X101862664Y-87168398D01*
X101688849Y-87205344D01*
X101511151Y-87205344D01*
X101337336Y-87168398D01*
X101175000Y-87096122D01*
X101031239Y-86991673D01*
X100912336Y-86859617D01*
X100823486Y-86705726D01*
X100768575Y-86536725D01*
X100750000Y-86360000D01*
X100768575Y-86183275D01*
X100823486Y-86014274D01*
X100912336Y-85860383D01*
X101031239Y-85728327D01*
X101175000Y-85623878D01*
X101337336Y-85551602D01*
X101511151Y-85514656D01*
X101688849Y-85514656D01*
X101862664Y-85551602D01*
G37*
G36*
X117102664Y-85551602D02*
G01*
X117265000Y-85623878D01*
X117408761Y-85728327D01*
X117527664Y-85860383D01*
X117616514Y-86014274D01*
X117671425Y-86183275D01*
X117690000Y-86360000D01*
X117671425Y-86536725D01*
X117616514Y-86705726D01*
X117527664Y-86859617D01*
X117408761Y-86991673D01*
X117265000Y-87096122D01*
X117102664Y-87168398D01*
X116928849Y-87205344D01*
X116751151Y-87205344D01*
X116577336Y-87168398D01*
X116415000Y-87096122D01*
X116271239Y-86991673D01*
X116152336Y-86859617D01*
X116063486Y-86705726D01*
X116008575Y-86536725D01*
X115990000Y-86360000D01*
X116008575Y-86183275D01*
X116063486Y-86014274D01*
X116152336Y-85860383D01*
X116271239Y-85728327D01*
X116415000Y-85623878D01*
X116577336Y-85551602D01*
X116751151Y-85514656D01*
X116928849Y-85514656D01*
X117102664Y-85551602D01*
G37*
G36*
X101862664Y-83011602D02*
G01*
X102025000Y-83083878D01*
X102168761Y-83188327D01*
X102287664Y-83320383D01*
X102376514Y-83474274D01*
X102431425Y-83643275D01*
X102450000Y-83820000D01*
X102431425Y-83996725D01*
X102376514Y-84165726D01*
X102287664Y-84319617D01*
X102168761Y-84451673D01*
X102025000Y-84556122D01*
X101862664Y-84628398D01*
X101688849Y-84665344D01*
X101511151Y-84665344D01*
X101337336Y-84628398D01*
X101175000Y-84556122D01*
X101031239Y-84451673D01*
X100912336Y-84319617D01*
X100823486Y-84165726D01*
X100768575Y-83996725D01*
X100750000Y-83820000D01*
X100768575Y-83643275D01*
X100823486Y-83474274D01*
X100912336Y-83320383D01*
X101031239Y-83188327D01*
X101175000Y-83083878D01*
X101337336Y-83011602D01*
X101511151Y-82974656D01*
X101688849Y-82974656D01*
X101862664Y-83011602D01*
G37*
G36*
X117102664Y-83011602D02*
G01*
X117265000Y-83083878D01*
X117408761Y-83188327D01*
X117527664Y-83320383D01*
X117616514Y-83474274D01*
X117671425Y-83643275D01*
X117690000Y-83820000D01*
X117671425Y-83996725D01*
X117616514Y-84165726D01*
X117527664Y-84319617D01*
X117408761Y-84451673D01*
X117265000Y-84556122D01*
X117102664Y-84628398D01*
X116928849Y-84665344D01*
X116751151Y-84665344D01*
X116577336Y-84628398D01*
X116415000Y-84556122D01*
X116271239Y-84451673D01*
X116152336Y-84319617D01*
X116063486Y-84165726D01*
X116008575Y-83996725D01*
X115990000Y-83820000D01*
X116008575Y-83643275D01*
X116063486Y-83474274D01*
X116152336Y-83320383D01*
X116271239Y-83188327D01*
X116415000Y-83083878D01*
X116577336Y-83011602D01*
X116751151Y-82974656D01*
X116928849Y-82974656D01*
X117102664Y-83011602D01*
G37*
G36*
X26269134Y-81653806D02*
G01*
X26285355Y-81664645D01*
X26296194Y-81680866D01*
X26300000Y-81700000D01*
X26300000Y-83400000D01*
X26296194Y-83419134D01*
X26285355Y-83435355D01*
X26269134Y-83446194D01*
X26250000Y-83450000D01*
X24550000Y-83450000D01*
X24530866Y-83446194D01*
X24514645Y-83435355D01*
X24503806Y-83419134D01*
X24500000Y-83400000D01*
X24500000Y-81700000D01*
X24503806Y-81680866D01*
X24514645Y-81664645D01*
X24530866Y-81653806D01*
X24550000Y-81650000D01*
X26250000Y-81650000D01*
X26269134Y-81653806D01*
G37*
G36*
X101862664Y-80471602D02*
G01*
X102025000Y-80543878D01*
X102168761Y-80648327D01*
X102287664Y-80780383D01*
X102376514Y-80934274D01*
X102431425Y-81103275D01*
X102450000Y-81280000D01*
X102431425Y-81456725D01*
X102376514Y-81625726D01*
X102287664Y-81779617D01*
X102168761Y-81911673D01*
X102025000Y-82016122D01*
X101862664Y-82088398D01*
X101688849Y-82125344D01*
X101511151Y-82125344D01*
X101337336Y-82088398D01*
X101175000Y-82016122D01*
X101031239Y-81911673D01*
X100912336Y-81779617D01*
X100823486Y-81625726D01*
X100768575Y-81456725D01*
X100750000Y-81280000D01*
X100768575Y-81103275D01*
X100823486Y-80934274D01*
X100912336Y-80780383D01*
X101031239Y-80648327D01*
X101175000Y-80543878D01*
X101337336Y-80471602D01*
X101511151Y-80434656D01*
X101688849Y-80434656D01*
X101862664Y-80471602D01*
G37*
G36*
X117102664Y-80471602D02*
G01*
X117265000Y-80543878D01*
X117408761Y-80648327D01*
X117527664Y-80780383D01*
X117616514Y-80934274D01*
X117671425Y-81103275D01*
X117690000Y-81280000D01*
X117671425Y-81456725D01*
X117616514Y-81625726D01*
X117527664Y-81779617D01*
X117408761Y-81911673D01*
X117265000Y-82016122D01*
X117102664Y-82088398D01*
X116928849Y-82125344D01*
X116751151Y-82125344D01*
X116577336Y-82088398D01*
X116415000Y-82016122D01*
X116271239Y-81911673D01*
X116152336Y-81779617D01*
X116063486Y-81625726D01*
X116008575Y-81456725D01*
X115990000Y-81280000D01*
X116008575Y-81103275D01*
X116063486Y-80934274D01*
X116152336Y-80780383D01*
X116271239Y-80648327D01*
X116415000Y-80543878D01*
X116577336Y-80471602D01*
X116751151Y-80434656D01*
X116928849Y-80434656D01*
X117102664Y-80471602D01*
G37*
G36*
X25447607Y-79114930D02*
G01*
X25494076Y-79114930D01*
X25534202Y-79123459D01*
X25575533Y-79127530D01*
X25627460Y-79143282D01*
X25678115Y-79154049D01*
X25710527Y-79168479D01*
X25744321Y-79178731D01*
X25798023Y-79207435D01*
X25850000Y-79230577D01*
X25874165Y-79248134D01*
X25899878Y-79261878D01*
X25952333Y-79304927D01*
X26002218Y-79341170D01*
X26018412Y-79359155D01*
X26036225Y-79373774D01*
X26084089Y-79432097D01*
X26128115Y-79480993D01*
X26137365Y-79497015D01*
X26148121Y-79510121D01*
X26187908Y-79584557D01*
X26222191Y-79643937D01*
X26226134Y-79656074D01*
X26231268Y-79665678D01*
X26259568Y-79758971D01*
X26280333Y-79822879D01*
X26281064Y-79829834D01*
X26282469Y-79834466D01*
X26296152Y-79973397D01*
X26300000Y-80010000D01*
X26296150Y-80046629D01*
X26282469Y-80185533D01*
X26281064Y-80190164D01*
X26280333Y-80197121D01*
X26259563Y-80261042D01*
X26231268Y-80354321D01*
X26226135Y-80363923D01*
X26222191Y-80376063D01*
X26187901Y-80435454D01*
X26148121Y-80509878D01*
X26137367Y-80522981D01*
X26128115Y-80539007D01*
X26084080Y-80587912D01*
X26036225Y-80646225D01*
X26018415Y-80660840D01*
X26002218Y-80678830D01*
X25952323Y-80715080D01*
X25899878Y-80758121D01*
X25874171Y-80771861D01*
X25850000Y-80789423D01*
X25798012Y-80812569D01*
X25744321Y-80841268D01*
X25710534Y-80851517D01*
X25678115Y-80865951D01*
X25627449Y-80876720D01*
X25575533Y-80892469D01*
X25534210Y-80896538D01*
X25494076Y-80905070D01*
X25447597Y-80905070D01*
X25400000Y-80909758D01*
X25352403Y-80905070D01*
X25305924Y-80905070D01*
X25265789Y-80896539D01*
X25224466Y-80892469D01*
X25172546Y-80876719D01*
X25121885Y-80865951D01*
X25089467Y-80851517D01*
X25055678Y-80841268D01*
X25001981Y-80812566D01*
X24950000Y-80789423D01*
X24925831Y-80771863D01*
X24900121Y-80758121D01*
X24847667Y-80715074D01*
X24797782Y-80678830D01*
X24781587Y-80660843D01*
X24763774Y-80646225D01*
X24715908Y-80587899D01*
X24671885Y-80539007D01*
X24662634Y-80522985D01*
X24651878Y-80509878D01*
X24612085Y-80435431D01*
X24577809Y-80376063D01*
X24573866Y-80363928D01*
X24568731Y-80354321D01*
X24540421Y-80260996D01*
X24519667Y-80197121D01*
X24518936Y-80190169D01*
X24517530Y-80185533D01*
X24503832Y-80046466D01*
X24500000Y-80010000D01*
X24503832Y-79973536D01*
X24517530Y-79834466D01*
X24518936Y-79829829D01*
X24519667Y-79822879D01*
X24540416Y-79759017D01*
X24568731Y-79665678D01*
X24573866Y-79656069D01*
X24577809Y-79643937D01*
X24612078Y-79584581D01*
X24651878Y-79510121D01*
X24662636Y-79497011D01*
X24671885Y-79480993D01*
X24715898Y-79432110D01*
X24763774Y-79373774D01*
X24781590Y-79359152D01*
X24797782Y-79341170D01*
X24847657Y-79304933D01*
X24900121Y-79261878D01*
X24925836Y-79248132D01*
X24950000Y-79230577D01*
X25001970Y-79207438D01*
X25055678Y-79178731D01*
X25089474Y-79168478D01*
X25121885Y-79154049D01*
X25172535Y-79143282D01*
X25224466Y-79127530D01*
X25265798Y-79123459D01*
X25305924Y-79114930D01*
X25352393Y-79114930D01*
X25400000Y-79110241D01*
X25447607Y-79114930D01*
G37*
G36*
X102419134Y-77893806D02*
G01*
X102435355Y-77904645D01*
X102446194Y-77920866D01*
X102450000Y-77940000D01*
X102450000Y-79540000D01*
X102446194Y-79559134D01*
X102435355Y-79575355D01*
X102419134Y-79586194D01*
X102400000Y-79590000D01*
X100800000Y-79590000D01*
X100780866Y-79586194D01*
X100764645Y-79575355D01*
X100753806Y-79559134D01*
X100750000Y-79540000D01*
X100750000Y-77940000D01*
X100753806Y-77920866D01*
X100764645Y-77904645D01*
X100780866Y-77893806D01*
X100800000Y-77890000D01*
X102400000Y-77890000D01*
X102419134Y-77893806D01*
G37*
G36*
X117102664Y-77931602D02*
G01*
X117265000Y-78003878D01*
X117408761Y-78108327D01*
X117527664Y-78240383D01*
X117616514Y-78394274D01*
X117671425Y-78563275D01*
X117690000Y-78740000D01*
X117671425Y-78916725D01*
X117616514Y-79085726D01*
X117527664Y-79239617D01*
X117408761Y-79371673D01*
X117265000Y-79476122D01*
X117102664Y-79548398D01*
X116928849Y-79585344D01*
X116751151Y-79585344D01*
X116577336Y-79548398D01*
X116415000Y-79476122D01*
X116271239Y-79371673D01*
X116152336Y-79239617D01*
X116063486Y-79085726D01*
X116008575Y-78916725D01*
X115990000Y-78740000D01*
X116008575Y-78563275D01*
X116063486Y-78394274D01*
X116152336Y-78240383D01*
X116271239Y-78108327D01*
X116415000Y-78003878D01*
X116577336Y-77931602D01*
X116751151Y-77894656D01*
X116928849Y-77894656D01*
X117102664Y-77931602D01*
G37*
G36*
X36113350Y-77058806D02*
G01*
X36129571Y-77069645D01*
X36140410Y-77085866D01*
X36144216Y-77105000D01*
X36144216Y-79105000D01*
X36140410Y-79124134D01*
X36129571Y-79140355D01*
X36113350Y-79151194D01*
X36094216Y-79155000D01*
X34094216Y-79155000D01*
X34075082Y-79151194D01*
X34058861Y-79140355D01*
X34048022Y-79124134D01*
X34044216Y-79105000D01*
X34044216Y-77105000D01*
X34048022Y-77085866D01*
X34058861Y-77069645D01*
X34075082Y-77058806D01*
X34094216Y-77055000D01*
X36094216Y-77055000D01*
X36113350Y-77058806D01*
G37*
G36*
X40141856Y-77059692D02*
G01*
X40191076Y-77059692D01*
X40245886Y-77069937D01*
X40299061Y-77075175D01*
X40339460Y-77087430D01*
X40381502Y-77095289D01*
X40439729Y-77117846D01*
X40496034Y-77134926D01*
X40528202Y-77152120D01*
X40562148Y-77165271D01*
X40621131Y-77201792D01*
X40677565Y-77231957D01*
X40701277Y-77251417D01*
X40726851Y-77267252D01*
X40783524Y-77318915D01*
X40836678Y-77362538D01*
X40852426Y-77381727D01*
X40870018Y-77397764D01*
X40921082Y-77465385D01*
X40967259Y-77521651D01*
X40976190Y-77538359D01*
X40986761Y-77552358D01*
X41028816Y-77636815D01*
X41064290Y-77703182D01*
X41068073Y-77715654D01*
X41073113Y-77725775D01*
X41102878Y-77830393D01*
X41124041Y-77900155D01*
X41124736Y-77907214D01*
X41126126Y-77912099D01*
X41140582Y-78068102D01*
X41144216Y-78105000D01*
X41140579Y-78141925D01*
X41126126Y-78297900D01*
X41124736Y-78302783D01*
X41124041Y-78309845D01*
X41102874Y-78379622D01*
X41073113Y-78484224D01*
X41068074Y-78494343D01*
X41064290Y-78506818D01*
X41028808Y-78573198D01*
X40986761Y-78657641D01*
X40976191Y-78671636D01*
X40967259Y-78688349D01*
X40921073Y-78744626D01*
X40870018Y-78812235D01*
X40852429Y-78828268D01*
X40836678Y-78847462D01*
X40783513Y-78891093D01*
X40726851Y-78942747D01*
X40701282Y-78958578D01*
X40677565Y-78978043D01*
X40621119Y-79008213D01*
X40562148Y-79044728D01*
X40528209Y-79057875D01*
X40496034Y-79075074D01*
X40439717Y-79092157D01*
X40381502Y-79114710D01*
X40339467Y-79122567D01*
X40299061Y-79134825D01*
X40245882Y-79140062D01*
X40191076Y-79150308D01*
X40141856Y-79150308D01*
X40094216Y-79155000D01*
X40046576Y-79150308D01*
X39997356Y-79150308D01*
X39942548Y-79140062D01*
X39889371Y-79134825D01*
X39848966Y-79122568D01*
X39806929Y-79114710D01*
X39748709Y-79092155D01*
X39692398Y-79075074D01*
X39660225Y-79057877D01*
X39626283Y-79044728D01*
X39567305Y-79008210D01*
X39510867Y-78978043D01*
X39487152Y-78958581D01*
X39461580Y-78942747D01*
X39404908Y-78891084D01*
X39351754Y-78847462D01*
X39336005Y-78828272D01*
X39318413Y-78812235D01*
X39267346Y-78744611D01*
X39221173Y-78688349D01*
X39212242Y-78671641D01*
X39201670Y-78657641D01*
X39159608Y-78573170D01*
X39124142Y-78506818D01*
X39120359Y-78494348D01*
X39115318Y-78484224D01*
X39085541Y-78379568D01*
X39064391Y-78309845D01*
X39063696Y-78302789D01*
X39062305Y-78297900D01*
X39047835Y-78141754D01*
X39044216Y-78105000D01*
X39047833Y-78068274D01*
X39062305Y-77912099D01*
X39063696Y-77907209D01*
X39064391Y-77900155D01*
X39085536Y-77830446D01*
X39115318Y-77725775D01*
X39120360Y-77715648D01*
X39124142Y-77703182D01*
X39159601Y-77636842D01*
X39201670Y-77552358D01*
X39212244Y-77538355D01*
X39221173Y-77521651D01*
X39267336Y-77465400D01*
X39318413Y-77397764D01*
X39336008Y-77381723D01*
X39351754Y-77362538D01*
X39404897Y-77318924D01*
X39461580Y-77267252D01*
X39487157Y-77251414D01*
X39510867Y-77231957D01*
X39567293Y-77201796D01*
X39626283Y-77165271D01*
X39660231Y-77152119D01*
X39692398Y-77134926D01*
X39748697Y-77117847D01*
X39806929Y-77095289D01*
X39848972Y-77087429D01*
X39889371Y-77075175D01*
X39942545Y-77069937D01*
X39997356Y-77059692D01*
X40046576Y-77059692D01*
X40094216Y-77055000D01*
X40141856Y-77059692D01*
G37*
G36*
X25447607Y-76574930D02*
G01*
X25494076Y-76574930D01*
X25534202Y-76583459D01*
X25575533Y-76587530D01*
X25627460Y-76603282D01*
X25678115Y-76614049D01*
X25710527Y-76628479D01*
X25744321Y-76638731D01*
X25798023Y-76667435D01*
X25850000Y-76690577D01*
X25874165Y-76708134D01*
X25899878Y-76721878D01*
X25952333Y-76764927D01*
X26002218Y-76801170D01*
X26018412Y-76819155D01*
X26036225Y-76833774D01*
X26084089Y-76892097D01*
X26128115Y-76940993D01*
X26137365Y-76957015D01*
X26148121Y-76970121D01*
X26187908Y-77044557D01*
X26222191Y-77103937D01*
X26226134Y-77116074D01*
X26231268Y-77125678D01*
X26259568Y-77218971D01*
X26280333Y-77282879D01*
X26281064Y-77289834D01*
X26282469Y-77294466D01*
X26296152Y-77433397D01*
X26300000Y-77470000D01*
X26296150Y-77506629D01*
X26282469Y-77645533D01*
X26281064Y-77650164D01*
X26280333Y-77657121D01*
X26259563Y-77721042D01*
X26231268Y-77814321D01*
X26226135Y-77823923D01*
X26222191Y-77836063D01*
X26187901Y-77895454D01*
X26148121Y-77969878D01*
X26137367Y-77982981D01*
X26128115Y-77999007D01*
X26084080Y-78047912D01*
X26036225Y-78106225D01*
X26018415Y-78120840D01*
X26002218Y-78138830D01*
X25952323Y-78175080D01*
X25899878Y-78218121D01*
X25874171Y-78231861D01*
X25850000Y-78249423D01*
X25798012Y-78272569D01*
X25744321Y-78301268D01*
X25710534Y-78311517D01*
X25678115Y-78325951D01*
X25627449Y-78336720D01*
X25575533Y-78352469D01*
X25534210Y-78356538D01*
X25494076Y-78365070D01*
X25447597Y-78365070D01*
X25400000Y-78369758D01*
X25352403Y-78365070D01*
X25305924Y-78365070D01*
X25265789Y-78356539D01*
X25224466Y-78352469D01*
X25172546Y-78336719D01*
X25121885Y-78325951D01*
X25089467Y-78311517D01*
X25055678Y-78301268D01*
X25001981Y-78272566D01*
X24950000Y-78249423D01*
X24925831Y-78231863D01*
X24900121Y-78218121D01*
X24847667Y-78175074D01*
X24797782Y-78138830D01*
X24781587Y-78120843D01*
X24763774Y-78106225D01*
X24715908Y-78047899D01*
X24671885Y-77999007D01*
X24662634Y-77982985D01*
X24651878Y-77969878D01*
X24612085Y-77895431D01*
X24577809Y-77836063D01*
X24573866Y-77823928D01*
X24568731Y-77814321D01*
X24540421Y-77720996D01*
X24519667Y-77657121D01*
X24518936Y-77650169D01*
X24517530Y-77645533D01*
X24503832Y-77506466D01*
X24500000Y-77470000D01*
X24503832Y-77433536D01*
X24517530Y-77294466D01*
X24518936Y-77289829D01*
X24519667Y-77282879D01*
X24540416Y-77219017D01*
X24568731Y-77125678D01*
X24573866Y-77116069D01*
X24577809Y-77103937D01*
X24612078Y-77044581D01*
X24651878Y-76970121D01*
X24662636Y-76957011D01*
X24671885Y-76940993D01*
X24715898Y-76892110D01*
X24763774Y-76833774D01*
X24781590Y-76819152D01*
X24797782Y-76801170D01*
X24847657Y-76764933D01*
X24900121Y-76721878D01*
X24925836Y-76708132D01*
X24950000Y-76690577D01*
X25001970Y-76667438D01*
X25055678Y-76638731D01*
X25089474Y-76628478D01*
X25121885Y-76614049D01*
X25172535Y-76603282D01*
X25224466Y-76587530D01*
X25265798Y-76583459D01*
X25305924Y-76574930D01*
X25352393Y-76574930D01*
X25400000Y-76570241D01*
X25447607Y-76574930D01*
G37*
G36*
X26199134Y-72128806D02*
G01*
X26215355Y-72139645D01*
X26226194Y-72155866D01*
X26230000Y-72175000D01*
X26230000Y-73875000D01*
X26226194Y-73894134D01*
X26215355Y-73910355D01*
X26199134Y-73921194D01*
X26180000Y-73925000D01*
X24480000Y-73925000D01*
X24460866Y-73921194D01*
X24444645Y-73910355D01*
X24433806Y-73894134D01*
X24430000Y-73875000D01*
X24430000Y-72175000D01*
X24433806Y-72155866D01*
X24444645Y-72139645D01*
X24460866Y-72128806D01*
X24480000Y-72125000D01*
X26180000Y-72125000D01*
X26199134Y-72128806D01*
G37*
G36*
X25377606Y-69589930D02*
G01*
X25424076Y-69589930D01*
X25464202Y-69598459D01*
X25505533Y-69602530D01*
X25557460Y-69618282D01*
X25608115Y-69629049D01*
X25640527Y-69643479D01*
X25674321Y-69653731D01*
X25728023Y-69682435D01*
X25780000Y-69705577D01*
X25804165Y-69723134D01*
X25829878Y-69736878D01*
X25882333Y-69779927D01*
X25932218Y-69816170D01*
X25948412Y-69834155D01*
X25966225Y-69848774D01*
X26014089Y-69907097D01*
X26058115Y-69955993D01*
X26067365Y-69972015D01*
X26078121Y-69985121D01*
X26117908Y-70059557D01*
X26152191Y-70118937D01*
X26156134Y-70131074D01*
X26161268Y-70140678D01*
X26189568Y-70233971D01*
X26210333Y-70297879D01*
X26211064Y-70304834D01*
X26212469Y-70309466D01*
X26226151Y-70448385D01*
X26230000Y-70485000D01*
X26226151Y-70521617D01*
X26212469Y-70660533D01*
X26211064Y-70665164D01*
X26210333Y-70672121D01*
X26189563Y-70736042D01*
X26161268Y-70829321D01*
X26156135Y-70838923D01*
X26152191Y-70851063D01*
X26117901Y-70910454D01*
X26078121Y-70984878D01*
X26067367Y-70997981D01*
X26058115Y-71014007D01*
X26014080Y-71062912D01*
X25966225Y-71121225D01*
X25948415Y-71135840D01*
X25932218Y-71153830D01*
X25882323Y-71190080D01*
X25829878Y-71233121D01*
X25804171Y-71246861D01*
X25780000Y-71264423D01*
X25728012Y-71287569D01*
X25674321Y-71316268D01*
X25640534Y-71326517D01*
X25608115Y-71340951D01*
X25557449Y-71351720D01*
X25505533Y-71367469D01*
X25464210Y-71371538D01*
X25424076Y-71380070D01*
X25377597Y-71380070D01*
X25330000Y-71384758D01*
X25282403Y-71380070D01*
X25235924Y-71380070D01*
X25195789Y-71371539D01*
X25154466Y-71367469D01*
X25102546Y-71351719D01*
X25051885Y-71340951D01*
X25019467Y-71326517D01*
X24985678Y-71316268D01*
X24931981Y-71287566D01*
X24880000Y-71264423D01*
X24855831Y-71246863D01*
X24830121Y-71233121D01*
X24777667Y-71190074D01*
X24727782Y-71153830D01*
X24711587Y-71135843D01*
X24693774Y-71121225D01*
X24645908Y-71062899D01*
X24601885Y-71014007D01*
X24592634Y-70997985D01*
X24581878Y-70984878D01*
X24542085Y-70910431D01*
X24507809Y-70851063D01*
X24503866Y-70838928D01*
X24498731Y-70829321D01*
X24470421Y-70735996D01*
X24449667Y-70672121D01*
X24448936Y-70665169D01*
X24447530Y-70660533D01*
X24433832Y-70521466D01*
X24430000Y-70485000D01*
X24433832Y-70448536D01*
X24447530Y-70309466D01*
X24448936Y-70304829D01*
X24449667Y-70297879D01*
X24470416Y-70234017D01*
X24498731Y-70140678D01*
X24503866Y-70131069D01*
X24507809Y-70118937D01*
X24542078Y-70059581D01*
X24581878Y-69985121D01*
X24592636Y-69972011D01*
X24601885Y-69955993D01*
X24645898Y-69907110D01*
X24693774Y-69848774D01*
X24711590Y-69834152D01*
X24727782Y-69816170D01*
X24777657Y-69779933D01*
X24830121Y-69736878D01*
X24855836Y-69723132D01*
X24880000Y-69705577D01*
X24931970Y-69682438D01*
X24985678Y-69653731D01*
X25019474Y-69643478D01*
X25051885Y-69629049D01*
X25102535Y-69618282D01*
X25154466Y-69602530D01*
X25195798Y-69598458D01*
X25235924Y-69589930D01*
X25282392Y-69589930D01*
X25329999Y-69585241D01*
X25377606Y-69589930D01*
G37*
G36*
X25377606Y-67049930D02*
G01*
X25424076Y-67049930D01*
X25464202Y-67058459D01*
X25505533Y-67062530D01*
X25557460Y-67078282D01*
X25608115Y-67089049D01*
X25640527Y-67103479D01*
X25674321Y-67113731D01*
X25728023Y-67142435D01*
X25780000Y-67165577D01*
X25804165Y-67183134D01*
X25829878Y-67196878D01*
X25882333Y-67239927D01*
X25932218Y-67276170D01*
X25948412Y-67294155D01*
X25966225Y-67308774D01*
X26014089Y-67367097D01*
X26058115Y-67415993D01*
X26067365Y-67432015D01*
X26078121Y-67445121D01*
X26117908Y-67519557D01*
X26152191Y-67578937D01*
X26156134Y-67591074D01*
X26161268Y-67600678D01*
X26189568Y-67693971D01*
X26210333Y-67757879D01*
X26211064Y-67764834D01*
X26212469Y-67769466D01*
X26226151Y-67908385D01*
X26230000Y-67945000D01*
X26226151Y-67981617D01*
X26212469Y-68120533D01*
X26211064Y-68125164D01*
X26210333Y-68132121D01*
X26189563Y-68196042D01*
X26161268Y-68289321D01*
X26156135Y-68298923D01*
X26152191Y-68311063D01*
X26117901Y-68370454D01*
X26078121Y-68444878D01*
X26067367Y-68457981D01*
X26058115Y-68474007D01*
X26014080Y-68522912D01*
X25966225Y-68581225D01*
X25948415Y-68595840D01*
X25932218Y-68613830D01*
X25882323Y-68650080D01*
X25829878Y-68693121D01*
X25804171Y-68706861D01*
X25780000Y-68724423D01*
X25728012Y-68747569D01*
X25674321Y-68776268D01*
X25640534Y-68786517D01*
X25608115Y-68800951D01*
X25557449Y-68811720D01*
X25505533Y-68827469D01*
X25464210Y-68831538D01*
X25424076Y-68840070D01*
X25377597Y-68840070D01*
X25330000Y-68844758D01*
X25282403Y-68840070D01*
X25235924Y-68840070D01*
X25195789Y-68831539D01*
X25154466Y-68827469D01*
X25102546Y-68811719D01*
X25051885Y-68800951D01*
X25019467Y-68786517D01*
X24985678Y-68776268D01*
X24931981Y-68747566D01*
X24880000Y-68724423D01*
X24855831Y-68706863D01*
X24830121Y-68693121D01*
X24777667Y-68650074D01*
X24727782Y-68613830D01*
X24711587Y-68595843D01*
X24693774Y-68581225D01*
X24645908Y-68522899D01*
X24601885Y-68474007D01*
X24592634Y-68457985D01*
X24581878Y-68444878D01*
X24542085Y-68370431D01*
X24507809Y-68311063D01*
X24503866Y-68298928D01*
X24498731Y-68289321D01*
X24470421Y-68195996D01*
X24449667Y-68132121D01*
X24448936Y-68125169D01*
X24447530Y-68120533D01*
X24433832Y-67981466D01*
X24430000Y-67945000D01*
X24433832Y-67908536D01*
X24447530Y-67769466D01*
X24448936Y-67764829D01*
X24449667Y-67757879D01*
X24470416Y-67694017D01*
X24498731Y-67600678D01*
X24503866Y-67591069D01*
X24507809Y-67578937D01*
X24542078Y-67519581D01*
X24581878Y-67445121D01*
X24592636Y-67432011D01*
X24601885Y-67415993D01*
X24645898Y-67367110D01*
X24693774Y-67308774D01*
X24711590Y-67294152D01*
X24727782Y-67276170D01*
X24777657Y-67239933D01*
X24830121Y-67196878D01*
X24855836Y-67183132D01*
X24880000Y-67165577D01*
X24931970Y-67142438D01*
X24985678Y-67113731D01*
X25019474Y-67103478D01*
X25051885Y-67089049D01*
X25102535Y-67078282D01*
X25154466Y-67062530D01*
X25195798Y-67058458D01*
X25235924Y-67049930D01*
X25282392Y-67049930D01*
X25329999Y-67045241D01*
X25377606Y-67049930D01*
G37*
G36*
X30107664Y-67136602D02*
G01*
X30270000Y-67208878D01*
X30413761Y-67313327D01*
X30532664Y-67445383D01*
X30621514Y-67599274D01*
X30676425Y-67768275D01*
X30695000Y-67945000D01*
X30676425Y-68121725D01*
X30621514Y-68290726D01*
X30532664Y-68444617D01*
X30413761Y-68576673D01*
X30270000Y-68681122D01*
X30107664Y-68753398D01*
X29933849Y-68790344D01*
X29756151Y-68790344D01*
X29582336Y-68753398D01*
X29420000Y-68681122D01*
X29276239Y-68576673D01*
X29157336Y-68444617D01*
X29068486Y-68290726D01*
X29013575Y-68121725D01*
X28995000Y-67945000D01*
X29013575Y-67768275D01*
X29068486Y-67599274D01*
X29157336Y-67445383D01*
X29276239Y-67313327D01*
X29420000Y-67208878D01*
X29582336Y-67136602D01*
X29756151Y-67099656D01*
X29933849Y-67099656D01*
X30107664Y-67136602D01*
G37*
G36*
X37727664Y-67136602D02*
G01*
X37890000Y-67208878D01*
X38033761Y-67313327D01*
X38152664Y-67445383D01*
X38241514Y-67599274D01*
X38296425Y-67768275D01*
X38315000Y-67945000D01*
X38296425Y-68121725D01*
X38241514Y-68290726D01*
X38152664Y-68444617D01*
X38033761Y-68576673D01*
X37890000Y-68681122D01*
X37727664Y-68753398D01*
X37553849Y-68790344D01*
X37376151Y-68790344D01*
X37202336Y-68753398D01*
X37040000Y-68681122D01*
X36896239Y-68576673D01*
X36777336Y-68444617D01*
X36688486Y-68290726D01*
X36633575Y-68121725D01*
X36615000Y-67945000D01*
X36633575Y-67768275D01*
X36688486Y-67599274D01*
X36777336Y-67445383D01*
X36896239Y-67313327D01*
X37040000Y-67208878D01*
X37202336Y-67136602D01*
X37376151Y-67099656D01*
X37553849Y-67099656D01*
X37727664Y-67136602D01*
G37*
G36*
X57412664Y-66501602D02*
G01*
X57575000Y-66573878D01*
X57718761Y-66678327D01*
X57837664Y-66810383D01*
X57926514Y-66964274D01*
X57981425Y-67133275D01*
X58000000Y-67310000D01*
X57981425Y-67486725D01*
X57926514Y-67655726D01*
X57837664Y-67809617D01*
X57718761Y-67941673D01*
X57575000Y-68046122D01*
X57412664Y-68118398D01*
X57238849Y-68155344D01*
X57061151Y-68155344D01*
X56887336Y-68118398D01*
X56725000Y-68046122D01*
X56581239Y-67941673D01*
X56462336Y-67809617D01*
X56373486Y-67655726D01*
X56318575Y-67486725D01*
X56300000Y-67310000D01*
X56318575Y-67133275D01*
X56373486Y-66964274D01*
X56462336Y-66810383D01*
X56581239Y-66678327D01*
X56725000Y-66573878D01*
X56887336Y-66501602D01*
X57061151Y-66464656D01*
X57238849Y-66464656D01*
X57412664Y-66501602D01*
G37*
G36*
X65032664Y-66501602D02*
G01*
X65195000Y-66573878D01*
X65338761Y-66678327D01*
X65457664Y-66810383D01*
X65546514Y-66964274D01*
X65601425Y-67133275D01*
X65620000Y-67310000D01*
X65601425Y-67486725D01*
X65546514Y-67655726D01*
X65457664Y-67809617D01*
X65338761Y-67941673D01*
X65195000Y-68046122D01*
X65032664Y-68118398D01*
X64858849Y-68155344D01*
X64681151Y-68155344D01*
X64507336Y-68118398D01*
X64345000Y-68046122D01*
X64201239Y-67941673D01*
X64082336Y-67809617D01*
X63993486Y-67655726D01*
X63938575Y-67486725D01*
X63920000Y-67310000D01*
X63938575Y-67133275D01*
X63993486Y-66964274D01*
X64082336Y-66810383D01*
X64201239Y-66678327D01*
X64345000Y-66573878D01*
X64507336Y-66501602D01*
X64681151Y-66464656D01*
X64858849Y-66464656D01*
X65032664Y-66501602D01*
G37*
G36*
X52879134Y-66448806D02*
G01*
X52895355Y-66459645D01*
X52906194Y-66475866D01*
X52910000Y-66495000D01*
X52910000Y-68095000D01*
X52906194Y-68114134D01*
X52895355Y-68130355D01*
X52879134Y-68141194D01*
X52860000Y-68145000D01*
X51260000Y-68145000D01*
X51240866Y-68141194D01*
X51224645Y-68130355D01*
X51213806Y-68114134D01*
X51210000Y-68095000D01*
X51210000Y-66495000D01*
X51213806Y-66475866D01*
X51224645Y-66459645D01*
X51240866Y-66448806D01*
X51260000Y-66445000D01*
X52860000Y-66445000D01*
X52879134Y-66448806D01*
G37*
G36*
X44702664Y-66486602D02*
G01*
X44865000Y-66558878D01*
X45008761Y-66663327D01*
X45127664Y-66795383D01*
X45216514Y-66949274D01*
X45271425Y-67118275D01*
X45290000Y-67295000D01*
X45271425Y-67471725D01*
X45216514Y-67640726D01*
X45127664Y-67794617D01*
X45008761Y-67926673D01*
X44865000Y-68031122D01*
X44702664Y-68103398D01*
X44528849Y-68140344D01*
X44351151Y-68140344D01*
X44177336Y-68103398D01*
X44015000Y-68031122D01*
X43871239Y-67926673D01*
X43752336Y-67794617D01*
X43663486Y-67640726D01*
X43608575Y-67471725D01*
X43590000Y-67295000D01*
X43608575Y-67118275D01*
X43663486Y-66949274D01*
X43752336Y-66795383D01*
X43871239Y-66663327D01*
X44015000Y-66558878D01*
X44177336Y-66486602D01*
X44351151Y-66449656D01*
X44528849Y-66449656D01*
X44702664Y-66486602D01*
G37*
G36*
X73844134Y-63923806D02*
G01*
X73860355Y-63934645D01*
X73871194Y-63950866D01*
X73875000Y-63970000D01*
X73875000Y-65570000D01*
X73871194Y-65589134D01*
X73860355Y-65605355D01*
X73844134Y-65616194D01*
X73825000Y-65620000D01*
X72225000Y-65620000D01*
X72205866Y-65616194D01*
X72189645Y-65605355D01*
X72178806Y-65589134D01*
X72175000Y-65570000D01*
X72175000Y-63970000D01*
X72178806Y-63950866D01*
X72189645Y-63934645D01*
X72205866Y-63923806D01*
X72225000Y-63920000D01*
X73825000Y-63920000D01*
X73844134Y-63923806D01*
G37*
G36*
X75827664Y-63961602D02*
G01*
X75990000Y-64033878D01*
X76133761Y-64138327D01*
X76252664Y-64270383D01*
X76341514Y-64424274D01*
X76396425Y-64593275D01*
X76415000Y-64770000D01*
X76396425Y-64946725D01*
X76341514Y-65115726D01*
X76252664Y-65269617D01*
X76133761Y-65401673D01*
X75990000Y-65506122D01*
X75827664Y-65578398D01*
X75653849Y-65615344D01*
X75476151Y-65615344D01*
X75302336Y-65578398D01*
X75140000Y-65506122D01*
X74996239Y-65401673D01*
X74877336Y-65269617D01*
X74788486Y-65115726D01*
X74733575Y-64946725D01*
X74715000Y-64770000D01*
X74733575Y-64593275D01*
X74788486Y-64424274D01*
X74877336Y-64270383D01*
X74996239Y-64138327D01*
X75140000Y-64033878D01*
X75302336Y-63961602D01*
X75476151Y-63924656D01*
X75653849Y-63924656D01*
X75827664Y-63961602D01*
G37*
G36*
X78367664Y-63961602D02*
G01*
X78530000Y-64033878D01*
X78673761Y-64138327D01*
X78792664Y-64270383D01*
X78881514Y-64424274D01*
X78936425Y-64593275D01*
X78955000Y-64770000D01*
X78936425Y-64946725D01*
X78881514Y-65115726D01*
X78792664Y-65269617D01*
X78673761Y-65401673D01*
X78530000Y-65506122D01*
X78367664Y-65578398D01*
X78193849Y-65615344D01*
X78016151Y-65615344D01*
X77842336Y-65578398D01*
X77680000Y-65506122D01*
X77536239Y-65401673D01*
X77417336Y-65269617D01*
X77328486Y-65115726D01*
X77273575Y-64946725D01*
X77255000Y-64770000D01*
X77273575Y-64593275D01*
X77328486Y-64424274D01*
X77417336Y-64270383D01*
X77536239Y-64138327D01*
X77680000Y-64033878D01*
X77842336Y-63961602D01*
X78016151Y-63924656D01*
X78193849Y-63924656D01*
X78367664Y-63961602D01*
G37*
G36*
X80907664Y-63961602D02*
G01*
X81070000Y-64033878D01*
X81213761Y-64138327D01*
X81332664Y-64270383D01*
X81421514Y-64424274D01*
X81476425Y-64593275D01*
X81495000Y-64770000D01*
X81476425Y-64946725D01*
X81421514Y-65115726D01*
X81332664Y-65269617D01*
X81213761Y-65401673D01*
X81070000Y-65506122D01*
X80907664Y-65578398D01*
X80733849Y-65615344D01*
X80556151Y-65615344D01*
X80382336Y-65578398D01*
X80220000Y-65506122D01*
X80076239Y-65401673D01*
X79957336Y-65269617D01*
X79868486Y-65115726D01*
X79813575Y-64946725D01*
X79795000Y-64770000D01*
X79813575Y-64593275D01*
X79868486Y-64424274D01*
X79957336Y-64270383D01*
X80076239Y-64138327D01*
X80220000Y-64033878D01*
X80382336Y-63961602D01*
X80556151Y-63924656D01*
X80733849Y-63924656D01*
X80907664Y-63961602D01*
G37*
G36*
X83447664Y-63961602D02*
G01*
X83610000Y-64033878D01*
X83753761Y-64138327D01*
X83872664Y-64270383D01*
X83961514Y-64424274D01*
X84016425Y-64593275D01*
X84035000Y-64770000D01*
X84016425Y-64946725D01*
X83961514Y-65115726D01*
X83872664Y-65269617D01*
X83753761Y-65401673D01*
X83610000Y-65506122D01*
X83447664Y-65578398D01*
X83273849Y-65615344D01*
X83096151Y-65615344D01*
X82922336Y-65578398D01*
X82760000Y-65506122D01*
X82616239Y-65401673D01*
X82497336Y-65269617D01*
X82408486Y-65115726D01*
X82353575Y-64946725D01*
X82335000Y-64770000D01*
X82353575Y-64593275D01*
X82408486Y-64424274D01*
X82497336Y-64270383D01*
X82616239Y-64138327D01*
X82760000Y-64033878D01*
X82922336Y-63961602D01*
X83096151Y-63924656D01*
X83273849Y-63924656D01*
X83447664Y-63961602D01*
G37*
G36*
X44702664Y-63946602D02*
G01*
X44865000Y-64018878D01*
X45008761Y-64123327D01*
X45127664Y-64255383D01*
X45216514Y-64409274D01*
X45271425Y-64578275D01*
X45290000Y-64755000D01*
X45271425Y-64931725D01*
X45216514Y-65100726D01*
X45127664Y-65254617D01*
X45008761Y-65386673D01*
X44865000Y-65491122D01*
X44702664Y-65563398D01*
X44528849Y-65600344D01*
X44351151Y-65600344D01*
X44177336Y-65563398D01*
X44015000Y-65491122D01*
X43871239Y-65386673D01*
X43752336Y-65254617D01*
X43663486Y-65100726D01*
X43608575Y-64931725D01*
X43590000Y-64755000D01*
X43608575Y-64578275D01*
X43663486Y-64409274D01*
X43752336Y-64255383D01*
X43871239Y-64123327D01*
X44015000Y-64018878D01*
X44177336Y-63946602D01*
X44351151Y-63909656D01*
X44528849Y-63909656D01*
X44702664Y-63946602D01*
G37*
G36*
X52322664Y-63946602D02*
G01*
X52485000Y-64018878D01*
X52628761Y-64123327D01*
X52747664Y-64255383D01*
X52836514Y-64409274D01*
X52891425Y-64578275D01*
X52910000Y-64755000D01*
X52891425Y-64931725D01*
X52836514Y-65100726D01*
X52747664Y-65254617D01*
X52628761Y-65386673D01*
X52485000Y-65491122D01*
X52322664Y-65563398D01*
X52148849Y-65600344D01*
X51971151Y-65600344D01*
X51797336Y-65563398D01*
X51635000Y-65491122D01*
X51491239Y-65386673D01*
X51372336Y-65254617D01*
X51283486Y-65100726D01*
X51228575Y-64931725D01*
X51210000Y-64755000D01*
X51228575Y-64578275D01*
X51283486Y-64409274D01*
X51372336Y-64255383D01*
X51491239Y-64123327D01*
X51635000Y-64018878D01*
X51797336Y-63946602D01*
X51971151Y-63909656D01*
X52148849Y-63909656D01*
X52322664Y-63946602D01*
G37*
G36*
X57412664Y-63326602D02*
G01*
X57575000Y-63398878D01*
X57718761Y-63503327D01*
X57837664Y-63635383D01*
X57926514Y-63789274D01*
X57981425Y-63958275D01*
X58000000Y-64135000D01*
X57981425Y-64311725D01*
X57926514Y-64480726D01*
X57837664Y-64634617D01*
X57718761Y-64766673D01*
X57575000Y-64871122D01*
X57412664Y-64943398D01*
X57238849Y-64980344D01*
X57061151Y-64980344D01*
X56887336Y-64943398D01*
X56725000Y-64871122D01*
X56581239Y-64766673D01*
X56462336Y-64634617D01*
X56373486Y-64480726D01*
X56318575Y-64311725D01*
X56300000Y-64135000D01*
X56318575Y-63958275D01*
X56373486Y-63789274D01*
X56462336Y-63635383D01*
X56581239Y-63503327D01*
X56725000Y-63398878D01*
X56887336Y-63326602D01*
X57061151Y-63289656D01*
X57238849Y-63289656D01*
X57412664Y-63326602D01*
G37*
G36*
X65032664Y-63326602D02*
G01*
X65195000Y-63398878D01*
X65338761Y-63503327D01*
X65457664Y-63635383D01*
X65546514Y-63789274D01*
X65601425Y-63958275D01*
X65620000Y-64135000D01*
X65601425Y-64311725D01*
X65546514Y-64480726D01*
X65457664Y-64634617D01*
X65338761Y-64766673D01*
X65195000Y-64871122D01*
X65032664Y-64943398D01*
X64858849Y-64980344D01*
X64681151Y-64980344D01*
X64507336Y-64943398D01*
X64345000Y-64871122D01*
X64201239Y-64766673D01*
X64082336Y-64634617D01*
X63993486Y-64480726D01*
X63938575Y-64311725D01*
X63920000Y-64135000D01*
X63938575Y-63958275D01*
X63993486Y-63789274D01*
X64082336Y-63635383D01*
X64201239Y-63503327D01*
X64345000Y-63398878D01*
X64507336Y-63326602D01*
X64681151Y-63289656D01*
X64858849Y-63289656D01*
X65032664Y-63326602D01*
G37*
G36*
X44702664Y-61406602D02*
G01*
X44865000Y-61478878D01*
X45008761Y-61583327D01*
X45127664Y-61715383D01*
X45216514Y-61869274D01*
X45271425Y-62038275D01*
X45290000Y-62215000D01*
X45271425Y-62391725D01*
X45216514Y-62560726D01*
X45127664Y-62714617D01*
X45008761Y-62846673D01*
X44865000Y-62951122D01*
X44702664Y-63023398D01*
X44528849Y-63060344D01*
X44351151Y-63060344D01*
X44177336Y-63023398D01*
X44015000Y-62951122D01*
X43871239Y-62846673D01*
X43752336Y-62714617D01*
X43663486Y-62560726D01*
X43608575Y-62391725D01*
X43590000Y-62215000D01*
X43608575Y-62038275D01*
X43663486Y-61869274D01*
X43752336Y-61715383D01*
X43871239Y-61583327D01*
X44015000Y-61478878D01*
X44177336Y-61406602D01*
X44351151Y-61369656D01*
X44528849Y-61369656D01*
X44702664Y-61406602D01*
G37*
G36*
X52322664Y-61406602D02*
G01*
X52485000Y-61478878D01*
X52628761Y-61583327D01*
X52747664Y-61715383D01*
X52836514Y-61869274D01*
X52891425Y-62038275D01*
X52910000Y-62215000D01*
X52891425Y-62391725D01*
X52836514Y-62560726D01*
X52747664Y-62714617D01*
X52628761Y-62846673D01*
X52485000Y-62951122D01*
X52322664Y-63023398D01*
X52148849Y-63060344D01*
X51971151Y-63060344D01*
X51797336Y-63023398D01*
X51635000Y-62951122D01*
X51491239Y-62846673D01*
X51372336Y-62714617D01*
X51283486Y-62560726D01*
X51228575Y-62391725D01*
X51210000Y-62215000D01*
X51228575Y-62038275D01*
X51283486Y-61869274D01*
X51372336Y-61715383D01*
X51491239Y-61583327D01*
X51635000Y-61478878D01*
X51797336Y-61406602D01*
X51971151Y-61369656D01*
X52148849Y-61369656D01*
X52322664Y-61406602D01*
G37*
G36*
X38919134Y-60113806D02*
G01*
X38935355Y-60124645D01*
X38946194Y-60140866D01*
X38950000Y-60160000D01*
X38950000Y-61760000D01*
X38946194Y-61779134D01*
X38935355Y-61795355D01*
X38919134Y-61806194D01*
X38900000Y-61810000D01*
X37300000Y-61810000D01*
X37280866Y-61806194D01*
X37264645Y-61795355D01*
X37253806Y-61779134D01*
X37250000Y-61760000D01*
X37250000Y-60160000D01*
X37253806Y-60140866D01*
X37264645Y-60124645D01*
X37280866Y-60113806D01*
X37300000Y-60110000D01*
X38900000Y-60110000D01*
X38919134Y-60113806D01*
G37*
G36*
X23122664Y-60151602D02*
G01*
X23285000Y-60223878D01*
X23428761Y-60328327D01*
X23547664Y-60460383D01*
X23636514Y-60614274D01*
X23691425Y-60783275D01*
X23710000Y-60960000D01*
X23691425Y-61136725D01*
X23636514Y-61305726D01*
X23547664Y-61459617D01*
X23428761Y-61591673D01*
X23285000Y-61696122D01*
X23122664Y-61768398D01*
X22948849Y-61805344D01*
X22771151Y-61805344D01*
X22597336Y-61768398D01*
X22435000Y-61696122D01*
X22291239Y-61591673D01*
X22172336Y-61459617D01*
X22083486Y-61305726D01*
X22028575Y-61136725D01*
X22010000Y-60960000D01*
X22028575Y-60783275D01*
X22083486Y-60614274D01*
X22172336Y-60460383D01*
X22291239Y-60328327D01*
X22435000Y-60223878D01*
X22597336Y-60151602D01*
X22771151Y-60114656D01*
X22948849Y-60114656D01*
X23122664Y-60151602D01*
G37*
G36*
X57412664Y-60151602D02*
G01*
X57575000Y-60223878D01*
X57718761Y-60328327D01*
X57837664Y-60460383D01*
X57926514Y-60614274D01*
X57981425Y-60783275D01*
X58000000Y-60960000D01*
X57981425Y-61136725D01*
X57926514Y-61305726D01*
X57837664Y-61459617D01*
X57718761Y-61591673D01*
X57575000Y-61696122D01*
X57412664Y-61768398D01*
X57238849Y-61805344D01*
X57061151Y-61805344D01*
X56887336Y-61768398D01*
X56725000Y-61696122D01*
X56581239Y-61591673D01*
X56462336Y-61459617D01*
X56373486Y-61305726D01*
X56318575Y-61136725D01*
X56300000Y-60960000D01*
X56318575Y-60783275D01*
X56373486Y-60614274D01*
X56462336Y-60460383D01*
X56581239Y-60328327D01*
X56725000Y-60223878D01*
X56887336Y-60151602D01*
X57061151Y-60114656D01*
X57238849Y-60114656D01*
X57412664Y-60151602D01*
G37*
G36*
X65032664Y-60151602D02*
G01*
X65195000Y-60223878D01*
X65338761Y-60328327D01*
X65457664Y-60460383D01*
X65546514Y-60614274D01*
X65601425Y-60783275D01*
X65620000Y-60960000D01*
X65601425Y-61136725D01*
X65546514Y-61305726D01*
X65457664Y-61459617D01*
X65338761Y-61591673D01*
X65195000Y-61696122D01*
X65032664Y-61768398D01*
X64858849Y-61805344D01*
X64681151Y-61805344D01*
X64507336Y-61768398D01*
X64345000Y-61696122D01*
X64201239Y-61591673D01*
X64082336Y-61459617D01*
X63993486Y-61305726D01*
X63938575Y-61136725D01*
X63920000Y-60960000D01*
X63938575Y-60783275D01*
X63993486Y-60614274D01*
X64082336Y-60460383D01*
X64201239Y-60328327D01*
X64345000Y-60223878D01*
X64507336Y-60151602D01*
X64681151Y-60114656D01*
X64858849Y-60114656D01*
X65032664Y-60151602D01*
G37*
G36*
X117089134Y-58143806D02*
G01*
X117105355Y-58154645D01*
X117116194Y-58170866D01*
X117120000Y-58190000D01*
X117120000Y-61190000D01*
X117116194Y-61209134D01*
X117105355Y-61225355D01*
X117089134Y-61236194D01*
X117070000Y-61240000D01*
X114070000Y-61240000D01*
X114050866Y-61236194D01*
X114034645Y-61225355D01*
X114023806Y-61209134D01*
X114020000Y-61190000D01*
X114020000Y-58190000D01*
X114023806Y-58170866D01*
X114034645Y-58154645D01*
X114050866Y-58143806D01*
X114070000Y-58140000D01*
X117070000Y-58140000D01*
X117089134Y-58143806D01*
G37*
G36*
X44702664Y-58866602D02*
G01*
X44865000Y-58938878D01*
X45008761Y-59043327D01*
X45127664Y-59175383D01*
X45216514Y-59329274D01*
X45271425Y-59498275D01*
X45290000Y-59675000D01*
X45271425Y-59851725D01*
X45216514Y-60020726D01*
X45127664Y-60174617D01*
X45008761Y-60306673D01*
X44865000Y-60411122D01*
X44702664Y-60483398D01*
X44528849Y-60520344D01*
X44351151Y-60520344D01*
X44177336Y-60483398D01*
X44015000Y-60411122D01*
X43871239Y-60306673D01*
X43752336Y-60174617D01*
X43663486Y-60020726D01*
X43608575Y-59851725D01*
X43590000Y-59675000D01*
X43608575Y-59498275D01*
X43663486Y-59329274D01*
X43752336Y-59175383D01*
X43871239Y-59043327D01*
X44015000Y-58938878D01*
X44177336Y-58866602D01*
X44351151Y-58829656D01*
X44528849Y-58829656D01*
X44702664Y-58866602D01*
G37*
G36*
X52322664Y-58866602D02*
G01*
X52485000Y-58938878D01*
X52628761Y-59043327D01*
X52747664Y-59175383D01*
X52836514Y-59329274D01*
X52891425Y-59498275D01*
X52910000Y-59675000D01*
X52891425Y-59851725D01*
X52836514Y-60020726D01*
X52747664Y-60174617D01*
X52628761Y-60306673D01*
X52485000Y-60411122D01*
X52322664Y-60483398D01*
X52148849Y-60520344D01*
X51971151Y-60520344D01*
X51797336Y-60483398D01*
X51635000Y-60411122D01*
X51491239Y-60306673D01*
X51372336Y-60174617D01*
X51283486Y-60020726D01*
X51228575Y-59851725D01*
X51210000Y-59675000D01*
X51228575Y-59498275D01*
X51283486Y-59329274D01*
X51372336Y-59175383D01*
X51491239Y-59043327D01*
X51635000Y-58938878D01*
X51797336Y-58866602D01*
X51971151Y-58829656D01*
X52148849Y-58829656D01*
X52322664Y-58866602D01*
G37*
G36*
X23122664Y-57611602D02*
G01*
X23285000Y-57683878D01*
X23428761Y-57788327D01*
X23547664Y-57920383D01*
X23636514Y-58074274D01*
X23691425Y-58243275D01*
X23710000Y-58420000D01*
X23691425Y-58596725D01*
X23636514Y-58765726D01*
X23547664Y-58919617D01*
X23428761Y-59051673D01*
X23285000Y-59156122D01*
X23122664Y-59228398D01*
X22948849Y-59265344D01*
X22771151Y-59265344D01*
X22597336Y-59228398D01*
X22435000Y-59156122D01*
X22291239Y-59051673D01*
X22172336Y-58919617D01*
X22083486Y-58765726D01*
X22028575Y-58596725D01*
X22010000Y-58420000D01*
X22028575Y-58243275D01*
X22083486Y-58074274D01*
X22172336Y-57920383D01*
X22291239Y-57788327D01*
X22435000Y-57683878D01*
X22597336Y-57611602D01*
X22771151Y-57574656D01*
X22948849Y-57574656D01*
X23122664Y-57611602D01*
G37*
G36*
X38362664Y-57611602D02*
G01*
X38525000Y-57683878D01*
X38668761Y-57788327D01*
X38787664Y-57920383D01*
X38876514Y-58074274D01*
X38931425Y-58243275D01*
X38950000Y-58420000D01*
X38931425Y-58596725D01*
X38876514Y-58765726D01*
X38787664Y-58919617D01*
X38668761Y-59051673D01*
X38525000Y-59156122D01*
X38362664Y-59228398D01*
X38188849Y-59265344D01*
X38011151Y-59265344D01*
X37837336Y-59228398D01*
X37675000Y-59156122D01*
X37531239Y-59051673D01*
X37412336Y-58919617D01*
X37323486Y-58765726D01*
X37268575Y-58596725D01*
X37250000Y-58420000D01*
X37268575Y-58243275D01*
X37323486Y-58074274D01*
X37412336Y-57920383D01*
X37531239Y-57788327D01*
X37675000Y-57683878D01*
X37837336Y-57611602D01*
X38011151Y-57574656D01*
X38188849Y-57574656D01*
X38362664Y-57611602D01*
G37*
G36*
X57412664Y-56976602D02*
G01*
X57575000Y-57048878D01*
X57718761Y-57153327D01*
X57837664Y-57285383D01*
X57926514Y-57439274D01*
X57981425Y-57608275D01*
X58000000Y-57785000D01*
X57981425Y-57961725D01*
X57926514Y-58130726D01*
X57837664Y-58284617D01*
X57718761Y-58416673D01*
X57575000Y-58521122D01*
X57412664Y-58593398D01*
X57238849Y-58630344D01*
X57061151Y-58630344D01*
X56887336Y-58593398D01*
X56725000Y-58521122D01*
X56581239Y-58416673D01*
X56462336Y-58284617D01*
X56373486Y-58130726D01*
X56318575Y-57961725D01*
X56300000Y-57785000D01*
X56318575Y-57608275D01*
X56373486Y-57439274D01*
X56462336Y-57285383D01*
X56581239Y-57153327D01*
X56725000Y-57048878D01*
X56887336Y-56976602D01*
X57061151Y-56939656D01*
X57238849Y-56939656D01*
X57412664Y-56976602D01*
G37*
G36*
X65032664Y-56976602D02*
G01*
X65195000Y-57048878D01*
X65338761Y-57153327D01*
X65457664Y-57285383D01*
X65546514Y-57439274D01*
X65601425Y-57608275D01*
X65620000Y-57785000D01*
X65601425Y-57961725D01*
X65546514Y-58130726D01*
X65457664Y-58284617D01*
X65338761Y-58416673D01*
X65195000Y-58521122D01*
X65032664Y-58593398D01*
X64858849Y-58630344D01*
X64681151Y-58630344D01*
X64507336Y-58593398D01*
X64345000Y-58521122D01*
X64201239Y-58416673D01*
X64082336Y-58284617D01*
X63993486Y-58130726D01*
X63938575Y-57961725D01*
X63920000Y-57785000D01*
X63938575Y-57608275D01*
X63993486Y-57439274D01*
X64082336Y-57285383D01*
X64201239Y-57153327D01*
X64345000Y-57048878D01*
X64507336Y-56976602D01*
X64681151Y-56939656D01*
X64858849Y-56939656D01*
X65032664Y-56976602D01*
G37*
G36*
X44702664Y-56326602D02*
G01*
X44865000Y-56398878D01*
X45008761Y-56503327D01*
X45127664Y-56635383D01*
X45216514Y-56789274D01*
X45271425Y-56958275D01*
X45290000Y-57135000D01*
X45271425Y-57311725D01*
X45216514Y-57480726D01*
X45127664Y-57634617D01*
X45008761Y-57766673D01*
X44865000Y-57871122D01*
X44702664Y-57943398D01*
X44528849Y-57980344D01*
X44351151Y-57980344D01*
X44177336Y-57943398D01*
X44015000Y-57871122D01*
X43871239Y-57766673D01*
X43752336Y-57634617D01*
X43663486Y-57480726D01*
X43608575Y-57311725D01*
X43590000Y-57135000D01*
X43608575Y-56958275D01*
X43663486Y-56789274D01*
X43752336Y-56635383D01*
X43871239Y-56503327D01*
X44015000Y-56398878D01*
X44177336Y-56326602D01*
X44351151Y-56289656D01*
X44528849Y-56289656D01*
X44702664Y-56326602D01*
G37*
G36*
X52322664Y-56326602D02*
G01*
X52485000Y-56398878D01*
X52628761Y-56503327D01*
X52747664Y-56635383D01*
X52836514Y-56789274D01*
X52891425Y-56958275D01*
X52910000Y-57135000D01*
X52891425Y-57311725D01*
X52836514Y-57480726D01*
X52747664Y-57634617D01*
X52628761Y-57766673D01*
X52485000Y-57871122D01*
X52322664Y-57943398D01*
X52148849Y-57980344D01*
X51971151Y-57980344D01*
X51797336Y-57943398D01*
X51635000Y-57871122D01*
X51491239Y-57766673D01*
X51372336Y-57634617D01*
X51283486Y-57480726D01*
X51228575Y-57311725D01*
X51210000Y-57135000D01*
X51228575Y-56958275D01*
X51283486Y-56789274D01*
X51372336Y-56635383D01*
X51491239Y-56503327D01*
X51635000Y-56398878D01*
X51797336Y-56326602D01*
X51971151Y-56289656D01*
X52148849Y-56289656D01*
X52322664Y-56326602D01*
G37*
G36*
X23122664Y-55071602D02*
G01*
X23285000Y-55143878D01*
X23428761Y-55248327D01*
X23547664Y-55380383D01*
X23636514Y-55534274D01*
X23691425Y-55703275D01*
X23710000Y-55880000D01*
X23691425Y-56056725D01*
X23636514Y-56225726D01*
X23547664Y-56379617D01*
X23428761Y-56511673D01*
X23285000Y-56616122D01*
X23122664Y-56688398D01*
X22948849Y-56725344D01*
X22771151Y-56725344D01*
X22597336Y-56688398D01*
X22435000Y-56616122D01*
X22291239Y-56511673D01*
X22172336Y-56379617D01*
X22083486Y-56225726D01*
X22028575Y-56056725D01*
X22010000Y-55880000D01*
X22028575Y-55703275D01*
X22083486Y-55534274D01*
X22172336Y-55380383D01*
X22291239Y-55248327D01*
X22435000Y-55143878D01*
X22597336Y-55071602D01*
X22771151Y-55034656D01*
X22948849Y-55034656D01*
X23122664Y-55071602D01*
G37*
G36*
X38362664Y-55071602D02*
G01*
X38525000Y-55143878D01*
X38668761Y-55248327D01*
X38787664Y-55380383D01*
X38876514Y-55534274D01*
X38931425Y-55703275D01*
X38950000Y-55880000D01*
X38931425Y-56056725D01*
X38876514Y-56225726D01*
X38787664Y-56379617D01*
X38668761Y-56511673D01*
X38525000Y-56616122D01*
X38362664Y-56688398D01*
X38188849Y-56725344D01*
X38011151Y-56725344D01*
X37837336Y-56688398D01*
X37675000Y-56616122D01*
X37531239Y-56511673D01*
X37412336Y-56379617D01*
X37323486Y-56225726D01*
X37268575Y-56056725D01*
X37250000Y-55880000D01*
X37268575Y-55703275D01*
X37323486Y-55534274D01*
X37412336Y-55380383D01*
X37531239Y-55248327D01*
X37675000Y-55143878D01*
X37837336Y-55071602D01*
X38011151Y-55034656D01*
X38188849Y-55034656D01*
X38362664Y-55071602D01*
G37*
G36*
X115812473Y-53079083D02*
G01*
X116048976Y-53135862D01*
X116273685Y-53228940D01*
X116481067Y-53356024D01*
X116666016Y-53513984D01*
X116823976Y-53698933D01*
X116951060Y-53906315D01*
X117044138Y-54131024D01*
X117100917Y-54367527D01*
X117120000Y-54610000D01*
X117100917Y-54852473D01*
X117044138Y-55088976D01*
X116951060Y-55313685D01*
X116823976Y-55521067D01*
X116666016Y-55706016D01*
X116481067Y-55863976D01*
X116273685Y-55991060D01*
X116048976Y-56084138D01*
X115812473Y-56140917D01*
X115570000Y-56160000D01*
X115327527Y-56140917D01*
X115091024Y-56084138D01*
X114866315Y-55991060D01*
X114658933Y-55863976D01*
X114473984Y-55706016D01*
X114316024Y-55521067D01*
X114188940Y-55313685D01*
X114095862Y-55088976D01*
X114039083Y-54852473D01*
X114020000Y-54610000D01*
X114039083Y-54367527D01*
X114095862Y-54131024D01*
X114188940Y-53906315D01*
X114316024Y-53698933D01*
X114473984Y-53513984D01*
X114658933Y-53356024D01*
X114866315Y-53228940D01*
X115091024Y-53135862D01*
X115327527Y-53079083D01*
X115570000Y-53060000D01*
X115812473Y-53079083D01*
G37*
G36*
X57412664Y-53801602D02*
G01*
X57575000Y-53873878D01*
X57718761Y-53978327D01*
X57837664Y-54110383D01*
X57926514Y-54264274D01*
X57981425Y-54433275D01*
X58000000Y-54610000D01*
X57981425Y-54786725D01*
X57926514Y-54955726D01*
X57837664Y-55109617D01*
X57718761Y-55241673D01*
X57575000Y-55346122D01*
X57412664Y-55418398D01*
X57238849Y-55455344D01*
X57061151Y-55455344D01*
X56887336Y-55418398D01*
X56725000Y-55346122D01*
X56581239Y-55241673D01*
X56462336Y-55109617D01*
X56373486Y-54955726D01*
X56318575Y-54786725D01*
X56300000Y-54610000D01*
X56318575Y-54433275D01*
X56373486Y-54264274D01*
X56462336Y-54110383D01*
X56581239Y-53978327D01*
X56725000Y-53873878D01*
X56887336Y-53801602D01*
X57061151Y-53764656D01*
X57238849Y-53764656D01*
X57412664Y-53801602D01*
G37*
G36*
X65032664Y-53801602D02*
G01*
X65195000Y-53873878D01*
X65338761Y-53978327D01*
X65457664Y-54110383D01*
X65546514Y-54264274D01*
X65601425Y-54433275D01*
X65620000Y-54610000D01*
X65601425Y-54786725D01*
X65546514Y-54955726D01*
X65457664Y-55109617D01*
X65338761Y-55241673D01*
X65195000Y-55346122D01*
X65032664Y-55418398D01*
X64858849Y-55455344D01*
X64681151Y-55455344D01*
X64507336Y-55418398D01*
X64345000Y-55346122D01*
X64201239Y-55241673D01*
X64082336Y-55109617D01*
X63993486Y-54955726D01*
X63938575Y-54786725D01*
X63920000Y-54610000D01*
X63938575Y-54433275D01*
X63993486Y-54264274D01*
X64082336Y-54110383D01*
X64201239Y-53978327D01*
X64345000Y-53873878D01*
X64507336Y-53801602D01*
X64681151Y-53764656D01*
X64858849Y-53764656D01*
X65032664Y-53801602D01*
G37*
G36*
X44702664Y-53786602D02*
G01*
X44865000Y-53858878D01*
X45008761Y-53963327D01*
X45127664Y-54095383D01*
X45216514Y-54249274D01*
X45271425Y-54418275D01*
X45290000Y-54595000D01*
X45271425Y-54771725D01*
X45216514Y-54940726D01*
X45127664Y-55094617D01*
X45008761Y-55226673D01*
X44865000Y-55331122D01*
X44702664Y-55403398D01*
X44528849Y-55440344D01*
X44351151Y-55440344D01*
X44177336Y-55403398D01*
X44015000Y-55331122D01*
X43871239Y-55226673D01*
X43752336Y-55094617D01*
X43663486Y-54940726D01*
X43608575Y-54771725D01*
X43590000Y-54595000D01*
X43608575Y-54418275D01*
X43663486Y-54249274D01*
X43752336Y-54095383D01*
X43871239Y-53963327D01*
X44015000Y-53858878D01*
X44177336Y-53786602D01*
X44351151Y-53749656D01*
X44528849Y-53749656D01*
X44702664Y-53786602D01*
G37*
G36*
X52322664Y-53786602D02*
G01*
X52485000Y-53858878D01*
X52628761Y-53963327D01*
X52747664Y-54095383D01*
X52836514Y-54249274D01*
X52891425Y-54418275D01*
X52910000Y-54595000D01*
X52891425Y-54771725D01*
X52836514Y-54940726D01*
X52747664Y-55094617D01*
X52628761Y-55226673D01*
X52485000Y-55331122D01*
X52322664Y-55403398D01*
X52148849Y-55440344D01*
X51971151Y-55440344D01*
X51797336Y-55403398D01*
X51635000Y-55331122D01*
X51491239Y-55226673D01*
X51372336Y-55094617D01*
X51283486Y-54940726D01*
X51228575Y-54771725D01*
X51210000Y-54595000D01*
X51228575Y-54418275D01*
X51283486Y-54249274D01*
X51372336Y-54095383D01*
X51491239Y-53963327D01*
X51635000Y-53858878D01*
X51797336Y-53786602D01*
X51971151Y-53749656D01*
X52148849Y-53749656D01*
X52322664Y-53786602D01*
G37*
G36*
X23122664Y-52531602D02*
G01*
X23285000Y-52603878D01*
X23428761Y-52708327D01*
X23547664Y-52840383D01*
X23636514Y-52994274D01*
X23691425Y-53163275D01*
X23710000Y-53340000D01*
X23691425Y-53516725D01*
X23636514Y-53685726D01*
X23547664Y-53839617D01*
X23428761Y-53971673D01*
X23285000Y-54076122D01*
X23122664Y-54148398D01*
X22948849Y-54185344D01*
X22771151Y-54185344D01*
X22597336Y-54148398D01*
X22435000Y-54076122D01*
X22291239Y-53971673D01*
X22172336Y-53839617D01*
X22083486Y-53685726D01*
X22028575Y-53516725D01*
X22010000Y-53340000D01*
X22028575Y-53163275D01*
X22083486Y-52994274D01*
X22172336Y-52840383D01*
X22291239Y-52708327D01*
X22435000Y-52603878D01*
X22597336Y-52531602D01*
X22771151Y-52494656D01*
X22948849Y-52494656D01*
X23122664Y-52531602D01*
G37*
G36*
X38362664Y-52531602D02*
G01*
X38525000Y-52603878D01*
X38668761Y-52708327D01*
X38787664Y-52840383D01*
X38876514Y-52994274D01*
X38931425Y-53163275D01*
X38950000Y-53340000D01*
X38931425Y-53516725D01*
X38876514Y-53685726D01*
X38787664Y-53839617D01*
X38668761Y-53971673D01*
X38525000Y-54076122D01*
X38362664Y-54148398D01*
X38188849Y-54185344D01*
X38011151Y-54185344D01*
X37837336Y-54148398D01*
X37675000Y-54076122D01*
X37531239Y-53971673D01*
X37412336Y-53839617D01*
X37323486Y-53685726D01*
X37268575Y-53516725D01*
X37250000Y-53340000D01*
X37268575Y-53163275D01*
X37323486Y-52994274D01*
X37412336Y-52840383D01*
X37531239Y-52708327D01*
X37675000Y-52603878D01*
X37837336Y-52531602D01*
X38011151Y-52494656D01*
X38188849Y-52494656D01*
X38362664Y-52531602D01*
G37*
G36*
X44702664Y-51246602D02*
G01*
X44865000Y-51318878D01*
X45008761Y-51423327D01*
X45127664Y-51555383D01*
X45216514Y-51709274D01*
X45271425Y-51878275D01*
X45290000Y-52055000D01*
X45271425Y-52231725D01*
X45216514Y-52400726D01*
X45127664Y-52554617D01*
X45008761Y-52686673D01*
X44865000Y-52791122D01*
X44702664Y-52863398D01*
X44528849Y-52900344D01*
X44351151Y-52900344D01*
X44177336Y-52863398D01*
X44015000Y-52791122D01*
X43871239Y-52686673D01*
X43752336Y-52554617D01*
X43663486Y-52400726D01*
X43608575Y-52231725D01*
X43590000Y-52055000D01*
X43608575Y-51878275D01*
X43663486Y-51709274D01*
X43752336Y-51555383D01*
X43871239Y-51423327D01*
X44015000Y-51318878D01*
X44177336Y-51246602D01*
X44351151Y-51209656D01*
X44528849Y-51209656D01*
X44702664Y-51246602D01*
G37*
G36*
X52322664Y-51246602D02*
G01*
X52485000Y-51318878D01*
X52628761Y-51423327D01*
X52747664Y-51555383D01*
X52836514Y-51709274D01*
X52891425Y-51878275D01*
X52910000Y-52055000D01*
X52891425Y-52231725D01*
X52836514Y-52400726D01*
X52747664Y-52554617D01*
X52628761Y-52686673D01*
X52485000Y-52791122D01*
X52322664Y-52863398D01*
X52148849Y-52900344D01*
X51971151Y-52900344D01*
X51797336Y-52863398D01*
X51635000Y-52791122D01*
X51491239Y-52686673D01*
X51372336Y-52554617D01*
X51283486Y-52400726D01*
X51228575Y-52231725D01*
X51210000Y-52055000D01*
X51228575Y-51878275D01*
X51283486Y-51709274D01*
X51372336Y-51555383D01*
X51491239Y-51423327D01*
X51635000Y-51318878D01*
X51797336Y-51246602D01*
X51971151Y-51209656D01*
X52148849Y-51209656D01*
X52322664Y-51246602D01*
G37*
G36*
X57412664Y-50626602D02*
G01*
X57575000Y-50698878D01*
X57718761Y-50803327D01*
X57837664Y-50935383D01*
X57926514Y-51089274D01*
X57981425Y-51258275D01*
X58000000Y-51435000D01*
X57981425Y-51611725D01*
X57926514Y-51780726D01*
X57837664Y-51934617D01*
X57718761Y-52066673D01*
X57575000Y-52171122D01*
X57412664Y-52243398D01*
X57238849Y-52280344D01*
X57061151Y-52280344D01*
X56887336Y-52243398D01*
X56725000Y-52171122D01*
X56581239Y-52066673D01*
X56462336Y-51934617D01*
X56373486Y-51780726D01*
X56318575Y-51611725D01*
X56300000Y-51435000D01*
X56318575Y-51258275D01*
X56373486Y-51089274D01*
X56462336Y-50935383D01*
X56581239Y-50803327D01*
X56725000Y-50698878D01*
X56887336Y-50626602D01*
X57061151Y-50589656D01*
X57238849Y-50589656D01*
X57412664Y-50626602D01*
G37*
G36*
X65032664Y-50626602D02*
G01*
X65195000Y-50698878D01*
X65338761Y-50803327D01*
X65457664Y-50935383D01*
X65546514Y-51089274D01*
X65601425Y-51258275D01*
X65620000Y-51435000D01*
X65601425Y-51611725D01*
X65546514Y-51780726D01*
X65457664Y-51934617D01*
X65338761Y-52066673D01*
X65195000Y-52171122D01*
X65032664Y-52243398D01*
X64858849Y-52280344D01*
X64681151Y-52280344D01*
X64507336Y-52243398D01*
X64345000Y-52171122D01*
X64201239Y-52066673D01*
X64082336Y-51934617D01*
X63993486Y-51780726D01*
X63938575Y-51611725D01*
X63920000Y-51435000D01*
X63938575Y-51258275D01*
X63993486Y-51089274D01*
X64082336Y-50935383D01*
X64201239Y-50803327D01*
X64345000Y-50698878D01*
X64507336Y-50626602D01*
X64681151Y-50589656D01*
X64858849Y-50589656D01*
X65032664Y-50626602D01*
G37*
G36*
X23122664Y-49991602D02*
G01*
X23285000Y-50063878D01*
X23428761Y-50168327D01*
X23547664Y-50300383D01*
X23636514Y-50454274D01*
X23691425Y-50623275D01*
X23710000Y-50800000D01*
X23691425Y-50976725D01*
X23636514Y-51145726D01*
X23547664Y-51299617D01*
X23428761Y-51431673D01*
X23285000Y-51536122D01*
X23122664Y-51608398D01*
X22948849Y-51645344D01*
X22771151Y-51645344D01*
X22597336Y-51608398D01*
X22435000Y-51536122D01*
X22291239Y-51431673D01*
X22172336Y-51299617D01*
X22083486Y-51145726D01*
X22028575Y-50976725D01*
X22010000Y-50800000D01*
X22028575Y-50623275D01*
X22083486Y-50454274D01*
X22172336Y-50300383D01*
X22291239Y-50168327D01*
X22435000Y-50063878D01*
X22597336Y-49991602D01*
X22771151Y-49954656D01*
X22948849Y-49954656D01*
X23122664Y-49991602D01*
G37*
G36*
X38362664Y-49991602D02*
G01*
X38525000Y-50063878D01*
X38668761Y-50168327D01*
X38787664Y-50300383D01*
X38876514Y-50454274D01*
X38931425Y-50623275D01*
X38950000Y-50800000D01*
X38931425Y-50976725D01*
X38876514Y-51145726D01*
X38787664Y-51299617D01*
X38668761Y-51431673D01*
X38525000Y-51536122D01*
X38362664Y-51608398D01*
X38188849Y-51645344D01*
X38011151Y-51645344D01*
X37837336Y-51608398D01*
X37675000Y-51536122D01*
X37531239Y-51431673D01*
X37412336Y-51299617D01*
X37323486Y-51145726D01*
X37268575Y-50976725D01*
X37250000Y-50800000D01*
X37268575Y-50623275D01*
X37323486Y-50454274D01*
X37412336Y-50300383D01*
X37531239Y-50168327D01*
X37675000Y-50063878D01*
X37837336Y-49991602D01*
X38011151Y-49954656D01*
X38188849Y-49954656D01*
X38362664Y-49991602D01*
G37*
G36*
X73287664Y-48721602D02*
G01*
X73450000Y-48793878D01*
X73593761Y-48898327D01*
X73712664Y-49030383D01*
X73801514Y-49184274D01*
X73856425Y-49353275D01*
X73875000Y-49530000D01*
X73856425Y-49706725D01*
X73801514Y-49875726D01*
X73712664Y-50029617D01*
X73593761Y-50161673D01*
X73450000Y-50266122D01*
X73287664Y-50338398D01*
X73113849Y-50375344D01*
X72936151Y-50375344D01*
X72762336Y-50338398D01*
X72600000Y-50266122D01*
X72456239Y-50161673D01*
X72337336Y-50029617D01*
X72248486Y-49875726D01*
X72193575Y-49706725D01*
X72175000Y-49530000D01*
X72193575Y-49353275D01*
X72248486Y-49184274D01*
X72337336Y-49030383D01*
X72456239Y-48898327D01*
X72600000Y-48793878D01*
X72762336Y-48721602D01*
X72936151Y-48684656D01*
X73113849Y-48684656D01*
X73287664Y-48721602D01*
G37*
G36*
X75827664Y-48721602D02*
G01*
X75990000Y-48793878D01*
X76133761Y-48898327D01*
X76252664Y-49030383D01*
X76341514Y-49184274D01*
X76396425Y-49353275D01*
X76415000Y-49530000D01*
X76396425Y-49706725D01*
X76341514Y-49875726D01*
X76252664Y-50029617D01*
X76133761Y-50161673D01*
X75990000Y-50266122D01*
X75827664Y-50338398D01*
X75653849Y-50375344D01*
X75476151Y-50375344D01*
X75302336Y-50338398D01*
X75140000Y-50266122D01*
X74996239Y-50161673D01*
X74877336Y-50029617D01*
X74788486Y-49875726D01*
X74733575Y-49706725D01*
X74715000Y-49530000D01*
X74733575Y-49353275D01*
X74788486Y-49184274D01*
X74877336Y-49030383D01*
X74996239Y-48898327D01*
X75140000Y-48793878D01*
X75302336Y-48721602D01*
X75476151Y-48684656D01*
X75653849Y-48684656D01*
X75827664Y-48721602D01*
G37*
G36*
X78367664Y-48721602D02*
G01*
X78530000Y-48793878D01*
X78673761Y-48898327D01*
X78792664Y-49030383D01*
X78881514Y-49184274D01*
X78936425Y-49353275D01*
X78955000Y-49530000D01*
X78936425Y-49706725D01*
X78881514Y-49875726D01*
X78792664Y-50029617D01*
X78673761Y-50161673D01*
X78530000Y-50266122D01*
X78367664Y-50338398D01*
X78193849Y-50375344D01*
X78016151Y-50375344D01*
X77842336Y-50338398D01*
X77680000Y-50266122D01*
X77536239Y-50161673D01*
X77417336Y-50029617D01*
X77328486Y-49875726D01*
X77273575Y-49706725D01*
X77255000Y-49530000D01*
X77273575Y-49353275D01*
X77328486Y-49184274D01*
X77417336Y-49030383D01*
X77536239Y-48898327D01*
X77680000Y-48793878D01*
X77842336Y-48721602D01*
X78016151Y-48684656D01*
X78193849Y-48684656D01*
X78367664Y-48721602D01*
G37*
G36*
X80907664Y-48721602D02*
G01*
X81070000Y-48793878D01*
X81213761Y-48898327D01*
X81332664Y-49030383D01*
X81421514Y-49184274D01*
X81476425Y-49353275D01*
X81495000Y-49530000D01*
X81476425Y-49706725D01*
X81421514Y-49875726D01*
X81332664Y-50029617D01*
X81213761Y-50161673D01*
X81070000Y-50266122D01*
X80907664Y-50338398D01*
X80733849Y-50375344D01*
X80556151Y-50375344D01*
X80382336Y-50338398D01*
X80220000Y-50266122D01*
X80076239Y-50161673D01*
X79957336Y-50029617D01*
X79868486Y-49875726D01*
X79813575Y-49706725D01*
X79795000Y-49530000D01*
X79813575Y-49353275D01*
X79868486Y-49184274D01*
X79957336Y-49030383D01*
X80076239Y-48898327D01*
X80220000Y-48793878D01*
X80382336Y-48721602D01*
X80556151Y-48684656D01*
X80733849Y-48684656D01*
X80907664Y-48721602D01*
G37*
G36*
X83447664Y-48721602D02*
G01*
X83610000Y-48793878D01*
X83753761Y-48898327D01*
X83872664Y-49030383D01*
X83961514Y-49184274D01*
X84016425Y-49353275D01*
X84035000Y-49530000D01*
X84016425Y-49706725D01*
X83961514Y-49875726D01*
X83872664Y-50029617D01*
X83753761Y-50161673D01*
X83610000Y-50266122D01*
X83447664Y-50338398D01*
X83273849Y-50375344D01*
X83096151Y-50375344D01*
X82922336Y-50338398D01*
X82760000Y-50266122D01*
X82616239Y-50161673D01*
X82497336Y-50029617D01*
X82408486Y-49875726D01*
X82353575Y-49706725D01*
X82335000Y-49530000D01*
X82353575Y-49353275D01*
X82408486Y-49184274D01*
X82497336Y-49030383D01*
X82616239Y-48898327D01*
X82760000Y-48793878D01*
X82922336Y-48721602D01*
X83096151Y-48684656D01*
X83273849Y-48684656D01*
X83447664Y-48721602D01*
G37*
G36*
X44702664Y-48706602D02*
G01*
X44865000Y-48778878D01*
X45008761Y-48883327D01*
X45127664Y-49015383D01*
X45216514Y-49169274D01*
X45271425Y-49338275D01*
X45290000Y-49515000D01*
X45271425Y-49691725D01*
X45216514Y-49860726D01*
X45127664Y-50014617D01*
X45008761Y-50146673D01*
X44865000Y-50251122D01*
X44702664Y-50323398D01*
X44528849Y-50360344D01*
X44351151Y-50360344D01*
X44177336Y-50323398D01*
X44015000Y-50251122D01*
X43871239Y-50146673D01*
X43752336Y-50014617D01*
X43663486Y-49860726D01*
X43608575Y-49691725D01*
X43590000Y-49515000D01*
X43608575Y-49338275D01*
X43663486Y-49169274D01*
X43752336Y-49015383D01*
X43871239Y-48883327D01*
X44015000Y-48778878D01*
X44177336Y-48706602D01*
X44351151Y-48669656D01*
X44528849Y-48669656D01*
X44702664Y-48706602D01*
G37*
G36*
X52322664Y-48706602D02*
G01*
X52485000Y-48778878D01*
X52628761Y-48883327D01*
X52747664Y-49015383D01*
X52836514Y-49169274D01*
X52891425Y-49338275D01*
X52910000Y-49515000D01*
X52891425Y-49691725D01*
X52836514Y-49860726D01*
X52747664Y-50014617D01*
X52628761Y-50146673D01*
X52485000Y-50251122D01*
X52322664Y-50323398D01*
X52148849Y-50360344D01*
X51971151Y-50360344D01*
X51797336Y-50323398D01*
X51635000Y-50251122D01*
X51491239Y-50146673D01*
X51372336Y-50014617D01*
X51283486Y-49860726D01*
X51228575Y-49691725D01*
X51210000Y-49515000D01*
X51228575Y-49338275D01*
X51283486Y-49169274D01*
X51372336Y-49015383D01*
X51491239Y-48883327D01*
X51635000Y-48778878D01*
X51797336Y-48706602D01*
X51971151Y-48669656D01*
X52148849Y-48669656D01*
X52322664Y-48706602D01*
G37*
G36*
X117089134Y-46078806D02*
G01*
X117105355Y-46089645D01*
X117116194Y-46105866D01*
X117120000Y-46125000D01*
X117120000Y-49125000D01*
X117116194Y-49144134D01*
X117105355Y-49160355D01*
X117089134Y-49171194D01*
X117070000Y-49175000D01*
X114070000Y-49175000D01*
X114050866Y-49171194D01*
X114034645Y-49160355D01*
X114023806Y-49144134D01*
X114020000Y-49125000D01*
X114020000Y-46125000D01*
X114023806Y-46105866D01*
X114034645Y-46089645D01*
X114050866Y-46078806D01*
X114070000Y-46075000D01*
X117070000Y-46075000D01*
X117089134Y-46078806D01*
G37*
G36*
X23122664Y-47451602D02*
G01*
X23285000Y-47523878D01*
X23428761Y-47628327D01*
X23547664Y-47760383D01*
X23636514Y-47914274D01*
X23691425Y-48083275D01*
X23710000Y-48260000D01*
X23691425Y-48436725D01*
X23636514Y-48605726D01*
X23547664Y-48759617D01*
X23428761Y-48891673D01*
X23285000Y-48996122D01*
X23122664Y-49068398D01*
X22948849Y-49105344D01*
X22771151Y-49105344D01*
X22597336Y-49068398D01*
X22435000Y-48996122D01*
X22291239Y-48891673D01*
X22172336Y-48759617D01*
X22083486Y-48605726D01*
X22028575Y-48436725D01*
X22010000Y-48260000D01*
X22028575Y-48083275D01*
X22083486Y-47914274D01*
X22172336Y-47760383D01*
X22291239Y-47628327D01*
X22435000Y-47523878D01*
X22597336Y-47451602D01*
X22771151Y-47414656D01*
X22948849Y-47414656D01*
X23122664Y-47451602D01*
G37*
G36*
X38362664Y-47451602D02*
G01*
X38525000Y-47523878D01*
X38668761Y-47628327D01*
X38787664Y-47760383D01*
X38876514Y-47914274D01*
X38931425Y-48083275D01*
X38950000Y-48260000D01*
X38931425Y-48436725D01*
X38876514Y-48605726D01*
X38787664Y-48759617D01*
X38668761Y-48891673D01*
X38525000Y-48996122D01*
X38362664Y-49068398D01*
X38188849Y-49105344D01*
X38011151Y-49105344D01*
X37837336Y-49068398D01*
X37675000Y-48996122D01*
X37531239Y-48891673D01*
X37412336Y-48759617D01*
X37323486Y-48605726D01*
X37268575Y-48436725D01*
X37250000Y-48260000D01*
X37268575Y-48083275D01*
X37323486Y-47914274D01*
X37412336Y-47760383D01*
X37531239Y-47628327D01*
X37675000Y-47523878D01*
X37837336Y-47451602D01*
X38011151Y-47414656D01*
X38188849Y-47414656D01*
X38362664Y-47451602D01*
G37*
G36*
X57412664Y-47451602D02*
G01*
X57575000Y-47523878D01*
X57718761Y-47628327D01*
X57837664Y-47760383D01*
X57926514Y-47914274D01*
X57981425Y-48083275D01*
X58000000Y-48260000D01*
X57981425Y-48436725D01*
X57926514Y-48605726D01*
X57837664Y-48759617D01*
X57718761Y-48891673D01*
X57575000Y-48996122D01*
X57412664Y-49068398D01*
X57238849Y-49105344D01*
X57061151Y-49105344D01*
X56887336Y-49068398D01*
X56725000Y-48996122D01*
X56581239Y-48891673D01*
X56462336Y-48759617D01*
X56373486Y-48605726D01*
X56318575Y-48436725D01*
X56300000Y-48260000D01*
X56318575Y-48083275D01*
X56373486Y-47914274D01*
X56462336Y-47760383D01*
X56581239Y-47628327D01*
X56725000Y-47523878D01*
X56887336Y-47451602D01*
X57061151Y-47414656D01*
X57238849Y-47414656D01*
X57412664Y-47451602D01*
G37*
G36*
X65032664Y-47451602D02*
G01*
X65195000Y-47523878D01*
X65338761Y-47628327D01*
X65457664Y-47760383D01*
X65546514Y-47914274D01*
X65601425Y-48083275D01*
X65620000Y-48260000D01*
X65601425Y-48436725D01*
X65546514Y-48605726D01*
X65457664Y-48759617D01*
X65338761Y-48891673D01*
X65195000Y-48996122D01*
X65032664Y-49068398D01*
X64858849Y-49105344D01*
X64681151Y-49105344D01*
X64507336Y-49068398D01*
X64345000Y-48996122D01*
X64201239Y-48891673D01*
X64082336Y-48759617D01*
X63993486Y-48605726D01*
X63938575Y-48436725D01*
X63920000Y-48260000D01*
X63938575Y-48083275D01*
X63993486Y-47914274D01*
X64082336Y-47760383D01*
X64201239Y-47628327D01*
X64345000Y-47523878D01*
X64507336Y-47451602D01*
X64681151Y-47414656D01*
X64858849Y-47414656D01*
X65032664Y-47451602D01*
G37*
G36*
X23122664Y-44911602D02*
G01*
X23285000Y-44983878D01*
X23428761Y-45088327D01*
X23547664Y-45220383D01*
X23636514Y-45374274D01*
X23691425Y-45543275D01*
X23710000Y-45720000D01*
X23691425Y-45896725D01*
X23636514Y-46065726D01*
X23547664Y-46219617D01*
X23428761Y-46351673D01*
X23285000Y-46456122D01*
X23122664Y-46528398D01*
X22948849Y-46565344D01*
X22771151Y-46565344D01*
X22597336Y-46528398D01*
X22435000Y-46456122D01*
X22291239Y-46351673D01*
X22172336Y-46219617D01*
X22083486Y-46065726D01*
X22028575Y-45896725D01*
X22010000Y-45720000D01*
X22028575Y-45543275D01*
X22083486Y-45374274D01*
X22172336Y-45220383D01*
X22291239Y-45088327D01*
X22435000Y-44983878D01*
X22597336Y-44911602D01*
X22771151Y-44874656D01*
X22948849Y-44874656D01*
X23122664Y-44911602D01*
G37*
G36*
X38362664Y-44911602D02*
G01*
X38525000Y-44983878D01*
X38668761Y-45088327D01*
X38787664Y-45220383D01*
X38876514Y-45374274D01*
X38931425Y-45543275D01*
X38950000Y-45720000D01*
X38931425Y-45896725D01*
X38876514Y-46065726D01*
X38787664Y-46219617D01*
X38668761Y-46351673D01*
X38525000Y-46456122D01*
X38362664Y-46528398D01*
X38188849Y-46565344D01*
X38011151Y-46565344D01*
X37837336Y-46528398D01*
X37675000Y-46456122D01*
X37531239Y-46351673D01*
X37412336Y-46219617D01*
X37323486Y-46065726D01*
X37268575Y-45896725D01*
X37250000Y-45720000D01*
X37268575Y-45543275D01*
X37323486Y-45374274D01*
X37412336Y-45220383D01*
X37531239Y-45088327D01*
X37675000Y-44983878D01*
X37837336Y-44911602D01*
X38011151Y-44874656D01*
X38188849Y-44874656D01*
X38362664Y-44911602D01*
G37*
G36*
X115812473Y-41014083D02*
G01*
X116048976Y-41070862D01*
X116273685Y-41163940D01*
X116481067Y-41291024D01*
X116666016Y-41448984D01*
X116823976Y-41633933D01*
X116951060Y-41841315D01*
X117044138Y-42066024D01*
X117100917Y-42302527D01*
X117120000Y-42545000D01*
X117100917Y-42787473D01*
X117044138Y-43023976D01*
X116951060Y-43248685D01*
X116823976Y-43456067D01*
X116666016Y-43641016D01*
X116481067Y-43798976D01*
X116273685Y-43926060D01*
X116048976Y-44019138D01*
X115812473Y-44075917D01*
X115570000Y-44095000D01*
X115327527Y-44075917D01*
X115091024Y-44019138D01*
X114866315Y-43926060D01*
X114658933Y-43798976D01*
X114473984Y-43641016D01*
X114316024Y-43456067D01*
X114188940Y-43248685D01*
X114095862Y-43023976D01*
X114039083Y-42787473D01*
X114020000Y-42545000D01*
X114039083Y-42302527D01*
X114095862Y-42066024D01*
X114188940Y-41841315D01*
X114316024Y-41633933D01*
X114473984Y-41448984D01*
X114658933Y-41291024D01*
X114866315Y-41163940D01*
X115091024Y-41070862D01*
X115327527Y-41014083D01*
X115570000Y-40995000D01*
X115812473Y-41014083D01*
G37*
G36*
X23122664Y-42371602D02*
G01*
X23285000Y-42443878D01*
X23428761Y-42548327D01*
X23547664Y-42680383D01*
X23636514Y-42834274D01*
X23691425Y-43003275D01*
X23710000Y-43180000D01*
X23691425Y-43356725D01*
X23636514Y-43525726D01*
X23547664Y-43679617D01*
X23428761Y-43811673D01*
X23285000Y-43916122D01*
X23122664Y-43988398D01*
X22948849Y-44025344D01*
X22771151Y-44025344D01*
X22597336Y-43988398D01*
X22435000Y-43916122D01*
X22291239Y-43811673D01*
X22172336Y-43679617D01*
X22083486Y-43525726D01*
X22028575Y-43356725D01*
X22010000Y-43180000D01*
X22028575Y-43003275D01*
X22083486Y-42834274D01*
X22172336Y-42680383D01*
X22291239Y-42548327D01*
X22435000Y-42443878D01*
X22597336Y-42371602D01*
X22771151Y-42334656D01*
X22948849Y-42334656D01*
X23122664Y-42371602D01*
G37*
G36*
X38362664Y-42371602D02*
G01*
X38525000Y-42443878D01*
X38668761Y-42548327D01*
X38787664Y-42680383D01*
X38876514Y-42834274D01*
X38931425Y-43003275D01*
X38950000Y-43180000D01*
X38931425Y-43356725D01*
X38876514Y-43525726D01*
X38787664Y-43679617D01*
X38668761Y-43811673D01*
X38525000Y-43916122D01*
X38362664Y-43988398D01*
X38188849Y-44025344D01*
X38011151Y-44025344D01*
X37837336Y-43988398D01*
X37675000Y-43916122D01*
X37531239Y-43811673D01*
X37412336Y-43679617D01*
X37323486Y-43525726D01*
X37268575Y-43356725D01*
X37250000Y-43180000D01*
X37268575Y-43003275D01*
X37323486Y-42834274D01*
X37412336Y-42680383D01*
X37531239Y-42548327D01*
X37675000Y-42443878D01*
X37837336Y-42371602D01*
X38011151Y-42334656D01*
X38188849Y-42334656D01*
X38362664Y-42371602D01*
G37*
G36*
X57412664Y-41101602D02*
G01*
X57575000Y-41173878D01*
X57718761Y-41278327D01*
X57837664Y-41410383D01*
X57926514Y-41564274D01*
X57981425Y-41733275D01*
X58000000Y-41910000D01*
X57981425Y-42086725D01*
X57926514Y-42255726D01*
X57837664Y-42409617D01*
X57718761Y-42541673D01*
X57575000Y-42646122D01*
X57412664Y-42718398D01*
X57238849Y-42755344D01*
X57061151Y-42755344D01*
X56887336Y-42718398D01*
X56725000Y-42646122D01*
X56581239Y-42541673D01*
X56462336Y-42409617D01*
X56373486Y-42255726D01*
X56318575Y-42086725D01*
X56300000Y-41910000D01*
X56318575Y-41733275D01*
X56373486Y-41564274D01*
X56462336Y-41410383D01*
X56581239Y-41278327D01*
X56725000Y-41173878D01*
X56887336Y-41101602D01*
X57061151Y-41064656D01*
X57238849Y-41064656D01*
X57412664Y-41101602D01*
G37*
G36*
X65032664Y-41101602D02*
G01*
X65195000Y-41173878D01*
X65338761Y-41278327D01*
X65457664Y-41410383D01*
X65546514Y-41564274D01*
X65601425Y-41733275D01*
X65620000Y-41910000D01*
X65601425Y-42086725D01*
X65546514Y-42255726D01*
X65457664Y-42409617D01*
X65338761Y-42541673D01*
X65195000Y-42646122D01*
X65032664Y-42718398D01*
X64858849Y-42755344D01*
X64681151Y-42755344D01*
X64507336Y-42718398D01*
X64345000Y-42646122D01*
X64201239Y-42541673D01*
X64082336Y-42409617D01*
X63993486Y-42255726D01*
X63938575Y-42086725D01*
X63920000Y-41910000D01*
X63938575Y-41733275D01*
X63993486Y-41564274D01*
X64082336Y-41410383D01*
X64201239Y-41278327D01*
X64345000Y-41173878D01*
X64507336Y-41101602D01*
X64681151Y-41064656D01*
X64858849Y-41064656D01*
X65032664Y-41101602D01*
G37*
G36*
X23122664Y-39831602D02*
G01*
X23285000Y-39903878D01*
X23428761Y-40008327D01*
X23547664Y-40140383D01*
X23636514Y-40294274D01*
X23691425Y-40463275D01*
X23710000Y-40640000D01*
X23691425Y-40816725D01*
X23636514Y-40985726D01*
X23547664Y-41139617D01*
X23428761Y-41271673D01*
X23285000Y-41376122D01*
X23122664Y-41448398D01*
X22948849Y-41485344D01*
X22771151Y-41485344D01*
X22597336Y-41448398D01*
X22435000Y-41376122D01*
X22291239Y-41271673D01*
X22172336Y-41139617D01*
X22083486Y-40985726D01*
X22028575Y-40816725D01*
X22010000Y-40640000D01*
X22028575Y-40463275D01*
X22083486Y-40294274D01*
X22172336Y-40140383D01*
X22291239Y-40008327D01*
X22435000Y-39903878D01*
X22597336Y-39831602D01*
X22771151Y-39794656D01*
X22948849Y-39794656D01*
X23122664Y-39831602D01*
G37*
G36*
X38362664Y-39831602D02*
G01*
X38525000Y-39903878D01*
X38668761Y-40008327D01*
X38787664Y-40140383D01*
X38876514Y-40294274D01*
X38931425Y-40463275D01*
X38950000Y-40640000D01*
X38931425Y-40816725D01*
X38876514Y-40985726D01*
X38787664Y-41139617D01*
X38668761Y-41271673D01*
X38525000Y-41376122D01*
X38362664Y-41448398D01*
X38188849Y-41485344D01*
X38011151Y-41485344D01*
X37837336Y-41448398D01*
X37675000Y-41376122D01*
X37531239Y-41271673D01*
X37412336Y-41139617D01*
X37323486Y-40985726D01*
X37268575Y-40816725D01*
X37250000Y-40640000D01*
X37268575Y-40463275D01*
X37323486Y-40294274D01*
X37412336Y-40140383D01*
X37531239Y-40008327D01*
X37675000Y-39903878D01*
X37837336Y-39831602D01*
X38011151Y-39794656D01*
X38188849Y-39794656D01*
X38362664Y-39831602D01*
G37*
G36*
X52879134Y-39778806D02*
G01*
X52895355Y-39789645D01*
X52906194Y-39805866D01*
X52910000Y-39825000D01*
X52910000Y-41425000D01*
X52906194Y-41444134D01*
X52895355Y-41460355D01*
X52879134Y-41471194D01*
X52860000Y-41475000D01*
X51260000Y-41475000D01*
X51240866Y-41471194D01*
X51224645Y-41460355D01*
X51213806Y-41444134D01*
X51210000Y-41425000D01*
X51210000Y-39825000D01*
X51213806Y-39805866D01*
X51224645Y-39789645D01*
X51240866Y-39778806D01*
X51260000Y-39775000D01*
X52860000Y-39775000D01*
X52879134Y-39778806D01*
G37*
G36*
X44702664Y-39816602D02*
G01*
X44865000Y-39888878D01*
X45008761Y-39993327D01*
X45127664Y-40125383D01*
X45216514Y-40279274D01*
X45271425Y-40448275D01*
X45290000Y-40625000D01*
X45271425Y-40801725D01*
X45216514Y-40970726D01*
X45127664Y-41124617D01*
X45008761Y-41256673D01*
X44865000Y-41361122D01*
X44702664Y-41433398D01*
X44528849Y-41470344D01*
X44351151Y-41470344D01*
X44177336Y-41433398D01*
X44015000Y-41361122D01*
X43871239Y-41256673D01*
X43752336Y-41124617D01*
X43663486Y-40970726D01*
X43608575Y-40801725D01*
X43590000Y-40625000D01*
X43608575Y-40448275D01*
X43663486Y-40279274D01*
X43752336Y-40125383D01*
X43871239Y-39993327D01*
X44015000Y-39888878D01*
X44177336Y-39816602D01*
X44351151Y-39779656D01*
X44528849Y-39779656D01*
X44702664Y-39816602D01*
G37*
G36*
X73844134Y-39671306D02*
G01*
X73860355Y-39682145D01*
X73871194Y-39698366D01*
X73875000Y-39717500D01*
X73875000Y-41317500D01*
X73871194Y-41336634D01*
X73860355Y-41352855D01*
X73844134Y-41363694D01*
X73825000Y-41367500D01*
X72225000Y-41367500D01*
X72205866Y-41363694D01*
X72189645Y-41352855D01*
X72178806Y-41336634D01*
X72175000Y-41317500D01*
X72175000Y-39717500D01*
X72178806Y-39698366D01*
X72189645Y-39682145D01*
X72205866Y-39671306D01*
X72225000Y-39667500D01*
X73825000Y-39667500D01*
X73844134Y-39671306D01*
G37*
G36*
X75827664Y-39709102D02*
G01*
X75990000Y-39781378D01*
X76133761Y-39885827D01*
X76252664Y-40017883D01*
X76341514Y-40171774D01*
X76396425Y-40340775D01*
X76415000Y-40517500D01*
X76396425Y-40694225D01*
X76341514Y-40863226D01*
X76252664Y-41017117D01*
X76133761Y-41149173D01*
X75990000Y-41253622D01*
X75827664Y-41325898D01*
X75653849Y-41362844D01*
X75476151Y-41362844D01*
X75302336Y-41325898D01*
X75140000Y-41253622D01*
X74996239Y-41149173D01*
X74877336Y-41017117D01*
X74788486Y-40863226D01*
X74733575Y-40694225D01*
X74715000Y-40517500D01*
X74733575Y-40340775D01*
X74788486Y-40171774D01*
X74877336Y-40017883D01*
X74996239Y-39885827D01*
X75140000Y-39781378D01*
X75302336Y-39709102D01*
X75476151Y-39672156D01*
X75653849Y-39672156D01*
X75827664Y-39709102D01*
G37*
G36*
X78367664Y-39709102D02*
G01*
X78530000Y-39781378D01*
X78673761Y-39885827D01*
X78792664Y-40017883D01*
X78881514Y-40171774D01*
X78936425Y-40340775D01*
X78955000Y-40517500D01*
X78936425Y-40694225D01*
X78881514Y-40863226D01*
X78792664Y-41017117D01*
X78673761Y-41149173D01*
X78530000Y-41253622D01*
X78367664Y-41325898D01*
X78193849Y-41362844D01*
X78016151Y-41362844D01*
X77842336Y-41325898D01*
X77680000Y-41253622D01*
X77536239Y-41149173D01*
X77417336Y-41017117D01*
X77328486Y-40863226D01*
X77273575Y-40694225D01*
X77255000Y-40517500D01*
X77273575Y-40340775D01*
X77328486Y-40171774D01*
X77417336Y-40017883D01*
X77536239Y-39885827D01*
X77680000Y-39781378D01*
X77842336Y-39709102D01*
X78016151Y-39672156D01*
X78193849Y-39672156D01*
X78367664Y-39709102D01*
G37*
G36*
X80907664Y-39709102D02*
G01*
X81070000Y-39781378D01*
X81213761Y-39885827D01*
X81332664Y-40017883D01*
X81421514Y-40171774D01*
X81476425Y-40340775D01*
X81495000Y-40517500D01*
X81476425Y-40694225D01*
X81421514Y-40863226D01*
X81332664Y-41017117D01*
X81213761Y-41149173D01*
X81070000Y-41253622D01*
X80907664Y-41325898D01*
X80733849Y-41362844D01*
X80556151Y-41362844D01*
X80382336Y-41325898D01*
X80220000Y-41253622D01*
X80076239Y-41149173D01*
X79957336Y-41017117D01*
X79868486Y-40863226D01*
X79813575Y-40694225D01*
X79795000Y-40517500D01*
X79813575Y-40340775D01*
X79868486Y-40171774D01*
X79957336Y-40017883D01*
X80076239Y-39885827D01*
X80220000Y-39781378D01*
X80382336Y-39709102D01*
X80556151Y-39672156D01*
X80733849Y-39672156D01*
X80907664Y-39709102D01*
G37*
G36*
X83447664Y-39709102D02*
G01*
X83610000Y-39781378D01*
X83753761Y-39885827D01*
X83872664Y-40017883D01*
X83961514Y-40171774D01*
X84016425Y-40340775D01*
X84035000Y-40517500D01*
X84016425Y-40694225D01*
X83961514Y-40863226D01*
X83872664Y-41017117D01*
X83753761Y-41149173D01*
X83610000Y-41253622D01*
X83447664Y-41325898D01*
X83273849Y-41362844D01*
X83096151Y-41362844D01*
X82922336Y-41325898D01*
X82760000Y-41253622D01*
X82616239Y-41149173D01*
X82497336Y-41017117D01*
X82408486Y-40863226D01*
X82353575Y-40694225D01*
X82335000Y-40517500D01*
X82353575Y-40340775D01*
X82408486Y-40171774D01*
X82497336Y-40017883D01*
X82616239Y-39885827D01*
X82760000Y-39781378D01*
X82922336Y-39709102D01*
X83096151Y-39672156D01*
X83273849Y-39672156D01*
X83447664Y-39709102D01*
G37*
G36*
X57412664Y-37926602D02*
G01*
X57575000Y-37998878D01*
X57718761Y-38103327D01*
X57837664Y-38235383D01*
X57926514Y-38389274D01*
X57981425Y-38558275D01*
X58000000Y-38735000D01*
X57981425Y-38911725D01*
X57926514Y-39080726D01*
X57837664Y-39234617D01*
X57718761Y-39366673D01*
X57575000Y-39471122D01*
X57412664Y-39543398D01*
X57238849Y-39580344D01*
X57061151Y-39580344D01*
X56887336Y-39543398D01*
X56725000Y-39471122D01*
X56581239Y-39366673D01*
X56462336Y-39234617D01*
X56373486Y-39080726D01*
X56318575Y-38911725D01*
X56300000Y-38735000D01*
X56318575Y-38558275D01*
X56373486Y-38389274D01*
X56462336Y-38235383D01*
X56581239Y-38103327D01*
X56725000Y-37998878D01*
X56887336Y-37926602D01*
X57061151Y-37889656D01*
X57238849Y-37889656D01*
X57412664Y-37926602D01*
G37*
G36*
X65032664Y-37926602D02*
G01*
X65195000Y-37998878D01*
X65338761Y-38103327D01*
X65457664Y-38235383D01*
X65546514Y-38389274D01*
X65601425Y-38558275D01*
X65620000Y-38735000D01*
X65601425Y-38911725D01*
X65546514Y-39080726D01*
X65457664Y-39234617D01*
X65338761Y-39366673D01*
X65195000Y-39471122D01*
X65032664Y-39543398D01*
X64858849Y-39580344D01*
X64681151Y-39580344D01*
X64507336Y-39543398D01*
X64345000Y-39471122D01*
X64201239Y-39366673D01*
X64082336Y-39234617D01*
X63993486Y-39080726D01*
X63938575Y-38911725D01*
X63920000Y-38735000D01*
X63938575Y-38558275D01*
X63993486Y-38389274D01*
X64082336Y-38235383D01*
X64201239Y-38103327D01*
X64345000Y-37998878D01*
X64507336Y-37926602D01*
X64681151Y-37889656D01*
X64858849Y-37889656D01*
X65032664Y-37926602D01*
G37*
G36*
X23122664Y-37291602D02*
G01*
X23285000Y-37363878D01*
X23428761Y-37468327D01*
X23547664Y-37600383D01*
X23636514Y-37754274D01*
X23691425Y-37923275D01*
X23710000Y-38100000D01*
X23691425Y-38276725D01*
X23636514Y-38445726D01*
X23547664Y-38599617D01*
X23428761Y-38731673D01*
X23285000Y-38836122D01*
X23122664Y-38908398D01*
X22948849Y-38945344D01*
X22771151Y-38945344D01*
X22597336Y-38908398D01*
X22435000Y-38836122D01*
X22291239Y-38731673D01*
X22172336Y-38599617D01*
X22083486Y-38445726D01*
X22028575Y-38276725D01*
X22010000Y-38100000D01*
X22028575Y-37923275D01*
X22083486Y-37754274D01*
X22172336Y-37600383D01*
X22291239Y-37468327D01*
X22435000Y-37363878D01*
X22597336Y-37291602D01*
X22771151Y-37254656D01*
X22948849Y-37254656D01*
X23122664Y-37291602D01*
G37*
G36*
X38362664Y-37291602D02*
G01*
X38525000Y-37363878D01*
X38668761Y-37468327D01*
X38787664Y-37600383D01*
X38876514Y-37754274D01*
X38931425Y-37923275D01*
X38950000Y-38100000D01*
X38931425Y-38276725D01*
X38876514Y-38445726D01*
X38787664Y-38599617D01*
X38668761Y-38731673D01*
X38525000Y-38836122D01*
X38362664Y-38908398D01*
X38188849Y-38945344D01*
X38011151Y-38945344D01*
X37837336Y-38908398D01*
X37675000Y-38836122D01*
X37531239Y-38731673D01*
X37412336Y-38599617D01*
X37323486Y-38445726D01*
X37268575Y-38276725D01*
X37250000Y-38100000D01*
X37268575Y-37923275D01*
X37323486Y-37754274D01*
X37412336Y-37600383D01*
X37531239Y-37468327D01*
X37675000Y-37363878D01*
X37837336Y-37291602D01*
X38011151Y-37254656D01*
X38188849Y-37254656D01*
X38362664Y-37291602D01*
G37*
G36*
X44702664Y-37276602D02*
G01*
X44865000Y-37348878D01*
X45008761Y-37453327D01*
X45127664Y-37585383D01*
X45216514Y-37739274D01*
X45271425Y-37908275D01*
X45290000Y-38085000D01*
X45271425Y-38261725D01*
X45216514Y-38430726D01*
X45127664Y-38584617D01*
X45008761Y-38716673D01*
X44865000Y-38821122D01*
X44702664Y-38893398D01*
X44528849Y-38930344D01*
X44351151Y-38930344D01*
X44177336Y-38893398D01*
X44015000Y-38821122D01*
X43871239Y-38716673D01*
X43752336Y-38584617D01*
X43663486Y-38430726D01*
X43608575Y-38261725D01*
X43590000Y-38085000D01*
X43608575Y-37908275D01*
X43663486Y-37739274D01*
X43752336Y-37585383D01*
X43871239Y-37453327D01*
X44015000Y-37348878D01*
X44177336Y-37276602D01*
X44351151Y-37239656D01*
X44528849Y-37239656D01*
X44702664Y-37276602D01*
G37*
G36*
X52322664Y-37276602D02*
G01*
X52485000Y-37348878D01*
X52628761Y-37453327D01*
X52747664Y-37585383D01*
X52836514Y-37739274D01*
X52891425Y-37908275D01*
X52910000Y-38085000D01*
X52891425Y-38261725D01*
X52836514Y-38430726D01*
X52747664Y-38584617D01*
X52628761Y-38716673D01*
X52485000Y-38821122D01*
X52322664Y-38893398D01*
X52148849Y-38930344D01*
X51971151Y-38930344D01*
X51797336Y-38893398D01*
X51635000Y-38821122D01*
X51491239Y-38716673D01*
X51372336Y-38584617D01*
X51283486Y-38430726D01*
X51228575Y-38261725D01*
X51210000Y-38085000D01*
X51228575Y-37908275D01*
X51283486Y-37739274D01*
X51372336Y-37585383D01*
X51491239Y-37453327D01*
X51635000Y-37348878D01*
X51797336Y-37276602D01*
X51971151Y-37239656D01*
X52148849Y-37239656D01*
X52322664Y-37276602D01*
G37*
G36*
X23122664Y-34751602D02*
G01*
X23285000Y-34823878D01*
X23428761Y-34928327D01*
X23547664Y-35060383D01*
X23636514Y-35214274D01*
X23691425Y-35383275D01*
X23710000Y-35560000D01*
X23691425Y-35736725D01*
X23636514Y-35905726D01*
X23547664Y-36059617D01*
X23428761Y-36191673D01*
X23285000Y-36296122D01*
X23122664Y-36368398D01*
X22948849Y-36405344D01*
X22771151Y-36405344D01*
X22597336Y-36368398D01*
X22435000Y-36296122D01*
X22291239Y-36191673D01*
X22172336Y-36059617D01*
X22083486Y-35905726D01*
X22028575Y-35736725D01*
X22010000Y-35560000D01*
X22028575Y-35383275D01*
X22083486Y-35214274D01*
X22172336Y-35060383D01*
X22291239Y-34928327D01*
X22435000Y-34823878D01*
X22597336Y-34751602D01*
X22771151Y-34714656D01*
X22948849Y-34714656D01*
X23122664Y-34751602D01*
G37*
G36*
X38362664Y-34751602D02*
G01*
X38525000Y-34823878D01*
X38668761Y-34928327D01*
X38787664Y-35060383D01*
X38876514Y-35214274D01*
X38931425Y-35383275D01*
X38950000Y-35560000D01*
X38931425Y-35736725D01*
X38876514Y-35905726D01*
X38787664Y-36059617D01*
X38668761Y-36191673D01*
X38525000Y-36296122D01*
X38362664Y-36368398D01*
X38188849Y-36405344D01*
X38011151Y-36405344D01*
X37837336Y-36368398D01*
X37675000Y-36296122D01*
X37531239Y-36191673D01*
X37412336Y-36059617D01*
X37323486Y-35905726D01*
X37268575Y-35736725D01*
X37250000Y-35560000D01*
X37268575Y-35383275D01*
X37323486Y-35214274D01*
X37412336Y-35060383D01*
X37531239Y-34928327D01*
X37675000Y-34823878D01*
X37837336Y-34751602D01*
X38011151Y-34714656D01*
X38188849Y-34714656D01*
X38362664Y-34751602D01*
G37*
G36*
X57412664Y-34751602D02*
G01*
X57575000Y-34823878D01*
X57718761Y-34928327D01*
X57837664Y-35060383D01*
X57926514Y-35214274D01*
X57981425Y-35383275D01*
X58000000Y-35560000D01*
X57981425Y-35736725D01*
X57926514Y-35905726D01*
X57837664Y-36059617D01*
X57718761Y-36191673D01*
X57575000Y-36296122D01*
X57412664Y-36368398D01*
X57238849Y-36405344D01*
X57061151Y-36405344D01*
X56887336Y-36368398D01*
X56725000Y-36296122D01*
X56581239Y-36191673D01*
X56462336Y-36059617D01*
X56373486Y-35905726D01*
X56318575Y-35736725D01*
X56300000Y-35560000D01*
X56318575Y-35383275D01*
X56373486Y-35214274D01*
X56462336Y-35060383D01*
X56581239Y-34928327D01*
X56725000Y-34823878D01*
X56887336Y-34751602D01*
X57061151Y-34714656D01*
X57238849Y-34714656D01*
X57412664Y-34751602D01*
G37*
G36*
X65032664Y-34751602D02*
G01*
X65195000Y-34823878D01*
X65338761Y-34928327D01*
X65457664Y-35060383D01*
X65546514Y-35214274D01*
X65601425Y-35383275D01*
X65620000Y-35560000D01*
X65601425Y-35736725D01*
X65546514Y-35905726D01*
X65457664Y-36059617D01*
X65338761Y-36191673D01*
X65195000Y-36296122D01*
X65032664Y-36368398D01*
X64858849Y-36405344D01*
X64681151Y-36405344D01*
X64507336Y-36368398D01*
X64345000Y-36296122D01*
X64201239Y-36191673D01*
X64082336Y-36059617D01*
X63993486Y-35905726D01*
X63938575Y-35736725D01*
X63920000Y-35560000D01*
X63938575Y-35383275D01*
X63993486Y-35214274D01*
X64082336Y-35060383D01*
X64201239Y-34928327D01*
X64345000Y-34823878D01*
X64507336Y-34751602D01*
X64681151Y-34714656D01*
X64858849Y-34714656D01*
X65032664Y-34751602D01*
G37*
G36*
X44702664Y-34736602D02*
G01*
X44865000Y-34808878D01*
X45008761Y-34913327D01*
X45127664Y-35045383D01*
X45216514Y-35199274D01*
X45271425Y-35368275D01*
X45290000Y-35545000D01*
X45271425Y-35721725D01*
X45216514Y-35890726D01*
X45127664Y-36044617D01*
X45008761Y-36176673D01*
X44865000Y-36281122D01*
X44702664Y-36353398D01*
X44528849Y-36390344D01*
X44351151Y-36390344D01*
X44177336Y-36353398D01*
X44015000Y-36281122D01*
X43871239Y-36176673D01*
X43752336Y-36044617D01*
X43663486Y-35890726D01*
X43608575Y-35721725D01*
X43590000Y-35545000D01*
X43608575Y-35368275D01*
X43663486Y-35199274D01*
X43752336Y-35045383D01*
X43871239Y-34913327D01*
X44015000Y-34808878D01*
X44177336Y-34736602D01*
X44351151Y-34699656D01*
X44528849Y-34699656D01*
X44702664Y-34736602D01*
G37*
G36*
X52322664Y-34736602D02*
G01*
X52485000Y-34808878D01*
X52628761Y-34913327D01*
X52747664Y-35045383D01*
X52836514Y-35199274D01*
X52891425Y-35368275D01*
X52910000Y-35545000D01*
X52891425Y-35721725D01*
X52836514Y-35890726D01*
X52747664Y-36044617D01*
X52628761Y-36176673D01*
X52485000Y-36281122D01*
X52322664Y-36353398D01*
X52148849Y-36390344D01*
X51971151Y-36390344D01*
X51797336Y-36353398D01*
X51635000Y-36281122D01*
X51491239Y-36176673D01*
X51372336Y-36044617D01*
X51283486Y-35890726D01*
X51228575Y-35721725D01*
X51210000Y-35545000D01*
X51228575Y-35368275D01*
X51283486Y-35199274D01*
X51372336Y-35045383D01*
X51491239Y-34913327D01*
X51635000Y-34808878D01*
X51797336Y-34736602D01*
X51971151Y-34699656D01*
X52148849Y-34699656D01*
X52322664Y-34736602D01*
G37*
G36*
X91924134Y-33778806D02*
G01*
X91940355Y-33789645D01*
X91951194Y-33805866D01*
X91955000Y-33825000D01*
X91955000Y-36025000D01*
X91951194Y-36044134D01*
X91940355Y-36060355D01*
X91924134Y-36071194D01*
X91905000Y-36075000D01*
X89705000Y-36075000D01*
X89685866Y-36071194D01*
X89669645Y-36060355D01*
X89658806Y-36044134D01*
X89655000Y-36025000D01*
X89655000Y-33825000D01*
X89658806Y-33805866D01*
X89669645Y-33789645D01*
X89685866Y-33778806D01*
X89705000Y-33775000D01*
X91905000Y-33775000D01*
X91924134Y-33778806D01*
G37*
G36*
X23122664Y-32211602D02*
G01*
X23285000Y-32283878D01*
X23428761Y-32388327D01*
X23547664Y-32520383D01*
X23636514Y-32674274D01*
X23691425Y-32843275D01*
X23710000Y-33020000D01*
X23691425Y-33196725D01*
X23636514Y-33365726D01*
X23547664Y-33519617D01*
X23428761Y-33651673D01*
X23285000Y-33756122D01*
X23122664Y-33828398D01*
X22948849Y-33865344D01*
X22771151Y-33865344D01*
X22597336Y-33828398D01*
X22435000Y-33756122D01*
X22291239Y-33651673D01*
X22172336Y-33519617D01*
X22083486Y-33365726D01*
X22028575Y-33196725D01*
X22010000Y-33020000D01*
X22028575Y-32843275D01*
X22083486Y-32674274D01*
X22172336Y-32520383D01*
X22291239Y-32388327D01*
X22435000Y-32283878D01*
X22597336Y-32211602D01*
X22771151Y-32174656D01*
X22948849Y-32174656D01*
X23122664Y-32211602D01*
G37*
G36*
X38362664Y-32211602D02*
G01*
X38525000Y-32283878D01*
X38668761Y-32388327D01*
X38787664Y-32520383D01*
X38876514Y-32674274D01*
X38931425Y-32843275D01*
X38950000Y-33020000D01*
X38931425Y-33196725D01*
X38876514Y-33365726D01*
X38787664Y-33519617D01*
X38668761Y-33651673D01*
X38525000Y-33756122D01*
X38362664Y-33828398D01*
X38188849Y-33865344D01*
X38011151Y-33865344D01*
X37837336Y-33828398D01*
X37675000Y-33756122D01*
X37531239Y-33651673D01*
X37412336Y-33519617D01*
X37323486Y-33365726D01*
X37268575Y-33196725D01*
X37250000Y-33020000D01*
X37268575Y-32843275D01*
X37323486Y-32674274D01*
X37412336Y-32520383D01*
X37531239Y-32388327D01*
X37675000Y-32283878D01*
X37837336Y-32211602D01*
X38011151Y-32174656D01*
X38188849Y-32174656D01*
X38362664Y-32211602D01*
G37*
G36*
X44702664Y-32196602D02*
G01*
X44865000Y-32268878D01*
X45008761Y-32373327D01*
X45127664Y-32505383D01*
X45216514Y-32659274D01*
X45271425Y-32828275D01*
X45290000Y-33005000D01*
X45271425Y-33181725D01*
X45216514Y-33350726D01*
X45127664Y-33504617D01*
X45008761Y-33636673D01*
X44865000Y-33741122D01*
X44702664Y-33813398D01*
X44528849Y-33850344D01*
X44351151Y-33850344D01*
X44177336Y-33813398D01*
X44015000Y-33741122D01*
X43871239Y-33636673D01*
X43752336Y-33504617D01*
X43663486Y-33350726D01*
X43608575Y-33181725D01*
X43590000Y-33005000D01*
X43608575Y-32828275D01*
X43663486Y-32659274D01*
X43752336Y-32505383D01*
X43871239Y-32373327D01*
X44015000Y-32268878D01*
X44177336Y-32196602D01*
X44351151Y-32159656D01*
X44528849Y-32159656D01*
X44702664Y-32196602D01*
G37*
G36*
X52322664Y-32196602D02*
G01*
X52485000Y-32268878D01*
X52628761Y-32373327D01*
X52747664Y-32505383D01*
X52836514Y-32659274D01*
X52891425Y-32828275D01*
X52910000Y-33005000D01*
X52891425Y-33181725D01*
X52836514Y-33350726D01*
X52747664Y-33504617D01*
X52628761Y-33636673D01*
X52485000Y-33741122D01*
X52322664Y-33813398D01*
X52148849Y-33850344D01*
X51971151Y-33850344D01*
X51797336Y-33813398D01*
X51635000Y-33741122D01*
X51491239Y-33636673D01*
X51372336Y-33504617D01*
X51283486Y-33350726D01*
X51228575Y-33181725D01*
X51210000Y-33005000D01*
X51228575Y-32828275D01*
X51283486Y-32659274D01*
X51372336Y-32505383D01*
X51491239Y-32373327D01*
X51635000Y-32268878D01*
X51797336Y-32196602D01*
X51971151Y-32159656D01*
X52148849Y-32159656D01*
X52322664Y-32196602D01*
G37*
G36*
X57412664Y-31576602D02*
G01*
X57575000Y-31648878D01*
X57718761Y-31753327D01*
X57837664Y-31885383D01*
X57926514Y-32039274D01*
X57981425Y-32208275D01*
X58000000Y-32385000D01*
X57981425Y-32561725D01*
X57926514Y-32730726D01*
X57837664Y-32884617D01*
X57718761Y-33016673D01*
X57575000Y-33121122D01*
X57412664Y-33193398D01*
X57238849Y-33230344D01*
X57061151Y-33230344D01*
X56887336Y-33193398D01*
X56725000Y-33121122D01*
X56581239Y-33016673D01*
X56462336Y-32884617D01*
X56373486Y-32730726D01*
X56318575Y-32561725D01*
X56300000Y-32385000D01*
X56318575Y-32208275D01*
X56373486Y-32039274D01*
X56462336Y-31885383D01*
X56581239Y-31753327D01*
X56725000Y-31648878D01*
X56887336Y-31576602D01*
X57061151Y-31539656D01*
X57238849Y-31539656D01*
X57412664Y-31576602D01*
G37*
G36*
X65032664Y-31576602D02*
G01*
X65195000Y-31648878D01*
X65338761Y-31753327D01*
X65457664Y-31885383D01*
X65546514Y-32039274D01*
X65601425Y-32208275D01*
X65620000Y-32385000D01*
X65601425Y-32561725D01*
X65546514Y-32730726D01*
X65457664Y-32884617D01*
X65338761Y-33016673D01*
X65195000Y-33121122D01*
X65032664Y-33193398D01*
X64858849Y-33230344D01*
X64681151Y-33230344D01*
X64507336Y-33193398D01*
X64345000Y-33121122D01*
X64201239Y-33016673D01*
X64082336Y-32884617D01*
X63993486Y-32730726D01*
X63938575Y-32561725D01*
X63920000Y-32385000D01*
X63938575Y-32208275D01*
X63993486Y-32039274D01*
X64082336Y-31885383D01*
X64201239Y-31753327D01*
X64345000Y-31648878D01*
X64507336Y-31576602D01*
X64681151Y-31539656D01*
X64858849Y-31539656D01*
X65032664Y-31576602D01*
G37*
G36*
X117026634Y-29603806D02*
G01*
X117042855Y-29614645D01*
X117053694Y-29630866D01*
X117057500Y-29650000D01*
X117057500Y-33150000D01*
X117053694Y-33169134D01*
X117042855Y-33185355D01*
X117026634Y-33196194D01*
X117007500Y-33200000D01*
X113507500Y-33200000D01*
X113488366Y-33196194D01*
X113472145Y-33185355D01*
X113461306Y-33169134D01*
X113457500Y-33150000D01*
X113457500Y-29650000D01*
X113461306Y-29630866D01*
X113472145Y-29614645D01*
X113488366Y-29603806D01*
X113507500Y-29600000D01*
X117007500Y-29600000D01*
X117026634Y-29603806D01*
G37*
G36*
X23122664Y-29671602D02*
G01*
X23285000Y-29743878D01*
X23428761Y-29848327D01*
X23547664Y-29980383D01*
X23636514Y-30134274D01*
X23691425Y-30303275D01*
X23710000Y-30480000D01*
X23691425Y-30656725D01*
X23636514Y-30825726D01*
X23547664Y-30979617D01*
X23428761Y-31111673D01*
X23285000Y-31216122D01*
X23122664Y-31288398D01*
X22948849Y-31325344D01*
X22771151Y-31325344D01*
X22597336Y-31288398D01*
X22435000Y-31216122D01*
X22291239Y-31111673D01*
X22172336Y-30979617D01*
X22083486Y-30825726D01*
X22028575Y-30656725D01*
X22010000Y-30480000D01*
X22028575Y-30303275D01*
X22083486Y-30134274D01*
X22172336Y-29980383D01*
X22291239Y-29848327D01*
X22435000Y-29743878D01*
X22597336Y-29671602D01*
X22771151Y-29634656D01*
X22948849Y-29634656D01*
X23122664Y-29671602D01*
G37*
G36*
X38362664Y-29671602D02*
G01*
X38525000Y-29743878D01*
X38668761Y-29848327D01*
X38787664Y-29980383D01*
X38876514Y-30134274D01*
X38931425Y-30303275D01*
X38950000Y-30480000D01*
X38931425Y-30656725D01*
X38876514Y-30825726D01*
X38787664Y-30979617D01*
X38668761Y-31111673D01*
X38525000Y-31216122D01*
X38362664Y-31288398D01*
X38188849Y-31325344D01*
X38011151Y-31325344D01*
X37837336Y-31288398D01*
X37675000Y-31216122D01*
X37531239Y-31111673D01*
X37412336Y-30979617D01*
X37323486Y-30825726D01*
X37268575Y-30656725D01*
X37250000Y-30480000D01*
X37268575Y-30303275D01*
X37323486Y-30134274D01*
X37412336Y-29980383D01*
X37531239Y-29848327D01*
X37675000Y-29743878D01*
X37837336Y-29671602D01*
X38011151Y-29634656D01*
X38188849Y-29634656D01*
X38362664Y-29671602D01*
G37*
G36*
X44702664Y-29656602D02*
G01*
X44865000Y-29728878D01*
X45008761Y-29833327D01*
X45127664Y-29965383D01*
X45216514Y-30119274D01*
X45271425Y-30288275D01*
X45290000Y-30465000D01*
X45271425Y-30641725D01*
X45216514Y-30810726D01*
X45127664Y-30964617D01*
X45008761Y-31096673D01*
X44865000Y-31201122D01*
X44702664Y-31273398D01*
X44528849Y-31310344D01*
X44351151Y-31310344D01*
X44177336Y-31273398D01*
X44015000Y-31201122D01*
X43871239Y-31096673D01*
X43752336Y-30964617D01*
X43663486Y-30810726D01*
X43608575Y-30641725D01*
X43590000Y-30465000D01*
X43608575Y-30288275D01*
X43663486Y-30119274D01*
X43752336Y-29965383D01*
X43871239Y-29833327D01*
X44015000Y-29728878D01*
X44177336Y-29656602D01*
X44351151Y-29619656D01*
X44528849Y-29619656D01*
X44702664Y-29656602D01*
G37*
G36*
X52322664Y-29656602D02*
G01*
X52485000Y-29728878D01*
X52628761Y-29833327D01*
X52747664Y-29965383D01*
X52836514Y-30119274D01*
X52891425Y-30288275D01*
X52910000Y-30465000D01*
X52891425Y-30641725D01*
X52836514Y-30810726D01*
X52747664Y-30964617D01*
X52628761Y-31096673D01*
X52485000Y-31201122D01*
X52322664Y-31273398D01*
X52148849Y-31310344D01*
X51971151Y-31310344D01*
X51797336Y-31273398D01*
X51635000Y-31201122D01*
X51491239Y-31096673D01*
X51372336Y-30964617D01*
X51283486Y-30810726D01*
X51228575Y-30641725D01*
X51210000Y-30465000D01*
X51228575Y-30288275D01*
X51283486Y-30119274D01*
X51372336Y-29965383D01*
X51491239Y-29833327D01*
X51635000Y-29728878D01*
X51797336Y-29656602D01*
X51971151Y-29619656D01*
X52148849Y-29619656D01*
X52322664Y-29656602D01*
G37*
G36*
X96147664Y-28956602D02*
G01*
X96310000Y-29028878D01*
X96453761Y-29133327D01*
X96572664Y-29265383D01*
X96661514Y-29419274D01*
X96716425Y-29588275D01*
X96735000Y-29765000D01*
X96716425Y-29941725D01*
X96661514Y-30110726D01*
X96572664Y-30264617D01*
X96453761Y-30396673D01*
X96310000Y-30501122D01*
X96147664Y-30573398D01*
X95973849Y-30610344D01*
X95796151Y-30610344D01*
X95622336Y-30573398D01*
X95460000Y-30501122D01*
X95316239Y-30396673D01*
X95197336Y-30264617D01*
X95108486Y-30110726D01*
X95053575Y-29941725D01*
X95035000Y-29765000D01*
X95053575Y-29588275D01*
X95108486Y-29419274D01*
X95197336Y-29265383D01*
X95316239Y-29133327D01*
X95460000Y-29028878D01*
X95622336Y-28956602D01*
X95796151Y-28919656D01*
X95973849Y-28919656D01*
X96147664Y-28956602D01*
G37*
G36*
X111577202Y-26611388D02*
G01*
X111586555Y-26613894D01*
X111595337Y-26614675D01*
X111681811Y-26639418D01*
X111763990Y-26661438D01*
X111770678Y-26664845D01*
X111775533Y-26666235D01*
X111860068Y-26710392D01*
X111936291Y-26749230D01*
X111939693Y-26751984D01*
X111941376Y-26752864D01*
X112027369Y-26822983D01*
X112086574Y-26870926D01*
X112134543Y-26930163D01*
X112204635Y-27016123D01*
X112205513Y-27017805D01*
X112208270Y-27021209D01*
X112247126Y-27097468D01*
X112291264Y-27181966D01*
X112292652Y-27186818D01*
X112296062Y-27193510D01*
X112318092Y-27275727D01*
X112342824Y-27362162D01*
X112343604Y-27370939D01*
X112346112Y-27380298D01*
X112357500Y-27525000D01*
X112357500Y-29275000D01*
X112346112Y-29419702D01*
X112343604Y-29429061D01*
X112342824Y-29437837D01*
X112318096Y-29524256D01*
X112296062Y-29606490D01*
X112292651Y-29613182D01*
X112291264Y-29618033D01*
X112247147Y-29702490D01*
X112208270Y-29778791D01*
X112205512Y-29782196D01*
X112204635Y-29783876D01*
X112134660Y-29869691D01*
X112086574Y-29929074D01*
X112027191Y-29977160D01*
X111941376Y-30047135D01*
X111939696Y-30048012D01*
X111936291Y-30050770D01*
X111859990Y-30089647D01*
X111775533Y-30133764D01*
X111770682Y-30135151D01*
X111763990Y-30138562D01*
X111681756Y-30160596D01*
X111595337Y-30185324D01*
X111586561Y-30186104D01*
X111577202Y-30188612D01*
X111432500Y-30200000D01*
X109682500Y-30200000D01*
X109537798Y-30188612D01*
X109528439Y-30186104D01*
X109519662Y-30185324D01*
X109433227Y-30160592D01*
X109351010Y-30138562D01*
X109344318Y-30135152D01*
X109339466Y-30133764D01*
X109254968Y-30089626D01*
X109178709Y-30050770D01*
X109175305Y-30048013D01*
X109173623Y-30047135D01*
X109087663Y-29977043D01*
X109028426Y-29929074D01*
X108980483Y-29869869D01*
X108910364Y-29783876D01*
X108909484Y-29782193D01*
X108906730Y-29778791D01*
X108867892Y-29702568D01*
X108823735Y-29618033D01*
X108822345Y-29613178D01*
X108818938Y-29606490D01*
X108796918Y-29524311D01*
X108772175Y-29437837D01*
X108771394Y-29429055D01*
X108768888Y-29419702D01*
X108757500Y-29275000D01*
X108757500Y-27525000D01*
X108768888Y-27380298D01*
X108771394Y-27370945D01*
X108772175Y-27362162D01*
X108796922Y-27275672D01*
X108818938Y-27193510D01*
X108822345Y-27186822D01*
X108823735Y-27181966D01*
X108867913Y-27097390D01*
X108906730Y-27021209D01*
X108909483Y-27017808D01*
X108910364Y-27016123D01*
X108980636Y-26929942D01*
X109028426Y-26870926D01*
X109087485Y-26823100D01*
X109173623Y-26752864D01*
X109175308Y-26751983D01*
X109178709Y-26749230D01*
X109254890Y-26710413D01*
X109339466Y-26666235D01*
X109344322Y-26664845D01*
X109351010Y-26661438D01*
X109433172Y-26639422D01*
X109519662Y-26614675D01*
X109528445Y-26613894D01*
X109537798Y-26611388D01*
X109682500Y-26600000D01*
X111432500Y-26600000D01*
X111577202Y-26611388D01*
G37*
G36*
X57412664Y-28401602D02*
G01*
X57575000Y-28473878D01*
X57718761Y-28578327D01*
X57837664Y-28710383D01*
X57926514Y-28864274D01*
X57981425Y-29033275D01*
X58000000Y-29210000D01*
X57981425Y-29386725D01*
X57926514Y-29555726D01*
X57837664Y-29709617D01*
X57718761Y-29841673D01*
X57575000Y-29946122D01*
X57412664Y-30018398D01*
X57238849Y-30055344D01*
X57061151Y-30055344D01*
X56887336Y-30018398D01*
X56725000Y-29946122D01*
X56581239Y-29841673D01*
X56462336Y-29709617D01*
X56373486Y-29555726D01*
X56318575Y-29386725D01*
X56300000Y-29210000D01*
X56318575Y-29033275D01*
X56373486Y-28864274D01*
X56462336Y-28710383D01*
X56581239Y-28578327D01*
X56725000Y-28473878D01*
X56887336Y-28401602D01*
X57061151Y-28364656D01*
X57238849Y-28364656D01*
X57412664Y-28401602D01*
G37*
G36*
X65032664Y-28401602D02*
G01*
X65195000Y-28473878D01*
X65338761Y-28578327D01*
X65457664Y-28710383D01*
X65546514Y-28864274D01*
X65601425Y-29033275D01*
X65620000Y-29210000D01*
X65601425Y-29386725D01*
X65546514Y-29555726D01*
X65457664Y-29709617D01*
X65338761Y-29841673D01*
X65195000Y-29946122D01*
X65032664Y-30018398D01*
X64858849Y-30055344D01*
X64681151Y-30055344D01*
X64507336Y-30018398D01*
X64345000Y-29946122D01*
X64201239Y-29841673D01*
X64082336Y-29709617D01*
X63993486Y-29555726D01*
X63938575Y-29386725D01*
X63920000Y-29210000D01*
X63938575Y-29033275D01*
X63993486Y-28864274D01*
X64082336Y-28710383D01*
X64201239Y-28578327D01*
X64345000Y-28473878D01*
X64507336Y-28401602D01*
X64681151Y-28364656D01*
X64858849Y-28364656D01*
X65032664Y-28401602D01*
G37*
G36*
X104324134Y-28261457D02*
G01*
X104340355Y-28272296D01*
X104351194Y-28288517D01*
X104355000Y-28307651D01*
X104355000Y-29907651D01*
X104351194Y-29926785D01*
X104340355Y-29943006D01*
X104324134Y-29953845D01*
X104305000Y-29957651D01*
X102705000Y-29957651D01*
X102685866Y-29953845D01*
X102669645Y-29943006D01*
X102658806Y-29926785D01*
X102655000Y-29907651D01*
X102655000Y-28307651D01*
X102658806Y-28288517D01*
X102669645Y-28272296D01*
X102685866Y-28261457D01*
X102705000Y-28257651D01*
X104305000Y-28257651D01*
X104324134Y-28261457D01*
G37*
G36*
X23122664Y-27131602D02*
G01*
X23285000Y-27203878D01*
X23428761Y-27308327D01*
X23547664Y-27440383D01*
X23636514Y-27594274D01*
X23691425Y-27763275D01*
X23710000Y-27940000D01*
X23691425Y-28116725D01*
X23636514Y-28285726D01*
X23547664Y-28439617D01*
X23428761Y-28571673D01*
X23285000Y-28676122D01*
X23122664Y-28748398D01*
X22948849Y-28785344D01*
X22771151Y-28785344D01*
X22597336Y-28748398D01*
X22435000Y-28676122D01*
X22291239Y-28571673D01*
X22172336Y-28439617D01*
X22083486Y-28285726D01*
X22028575Y-28116725D01*
X22010000Y-27940000D01*
X22028575Y-27763275D01*
X22083486Y-27594274D01*
X22172336Y-27440383D01*
X22291239Y-27308327D01*
X22435000Y-27203878D01*
X22597336Y-27131602D01*
X22771151Y-27094656D01*
X22948849Y-27094656D01*
X23122664Y-27131602D01*
G37*
G36*
X38362664Y-27131602D02*
G01*
X38525000Y-27203878D01*
X38668761Y-27308327D01*
X38787664Y-27440383D01*
X38876514Y-27594274D01*
X38931425Y-27763275D01*
X38950000Y-27940000D01*
X38931425Y-28116725D01*
X38876514Y-28285726D01*
X38787664Y-28439617D01*
X38668761Y-28571673D01*
X38525000Y-28676122D01*
X38362664Y-28748398D01*
X38188849Y-28785344D01*
X38011151Y-28785344D01*
X37837336Y-28748398D01*
X37675000Y-28676122D01*
X37531239Y-28571673D01*
X37412336Y-28439617D01*
X37323486Y-28285726D01*
X37268575Y-28116725D01*
X37250000Y-27940000D01*
X37268575Y-27763275D01*
X37323486Y-27594274D01*
X37412336Y-27440383D01*
X37531239Y-27308327D01*
X37675000Y-27203878D01*
X37837336Y-27131602D01*
X38011151Y-27094656D01*
X38188849Y-27094656D01*
X38362664Y-27131602D01*
G37*
G36*
X44702664Y-27116602D02*
G01*
X44865000Y-27188878D01*
X45008761Y-27293327D01*
X45127664Y-27425383D01*
X45216514Y-27579274D01*
X45271425Y-27748275D01*
X45290000Y-27925000D01*
X45271425Y-28101725D01*
X45216514Y-28270726D01*
X45127664Y-28424617D01*
X45008761Y-28556673D01*
X44865000Y-28661122D01*
X44702664Y-28733398D01*
X44528849Y-28770344D01*
X44351151Y-28770344D01*
X44177336Y-28733398D01*
X44015000Y-28661122D01*
X43871239Y-28556673D01*
X43752336Y-28424617D01*
X43663486Y-28270726D01*
X43608575Y-28101725D01*
X43590000Y-27925000D01*
X43608575Y-27748275D01*
X43663486Y-27579274D01*
X43752336Y-27425383D01*
X43871239Y-27293327D01*
X44015000Y-27188878D01*
X44177336Y-27116602D01*
X44351151Y-27079656D01*
X44528849Y-27079656D01*
X44702664Y-27116602D01*
G37*
G36*
X52322664Y-27116602D02*
G01*
X52485000Y-27188878D01*
X52628761Y-27293327D01*
X52747664Y-27425383D01*
X52836514Y-27579274D01*
X52891425Y-27748275D01*
X52910000Y-27925000D01*
X52891425Y-28101725D01*
X52836514Y-28270726D01*
X52747664Y-28424617D01*
X52628761Y-28556673D01*
X52485000Y-28661122D01*
X52322664Y-28733398D01*
X52148849Y-28770344D01*
X51971151Y-28770344D01*
X51797336Y-28733398D01*
X51635000Y-28661122D01*
X51491239Y-28556673D01*
X51372336Y-28424617D01*
X51283486Y-28270726D01*
X51228575Y-28101725D01*
X51210000Y-27925000D01*
X51228575Y-27748275D01*
X51283486Y-27579274D01*
X51372336Y-27425383D01*
X51491239Y-27293327D01*
X51635000Y-27188878D01*
X51797336Y-27116602D01*
X51971151Y-27079656D01*
X52148849Y-27079656D01*
X52322664Y-27116602D01*
G37*
G36*
X116260050Y-23850287D02*
G01*
X116364462Y-23857367D01*
X116398905Y-23865932D01*
X116435517Y-23870058D01*
X116484712Y-23887272D01*
X116533274Y-23899349D01*
X116566934Y-23916042D01*
X116604607Y-23929225D01*
X116646162Y-23955335D01*
X116688195Y-23976182D01*
X116719905Y-24001671D01*
X116756292Y-24024535D01*
X116788842Y-24057085D01*
X116822976Y-24084523D01*
X116850413Y-24118656D01*
X116882965Y-24151208D01*
X116905828Y-24187595D01*
X116931317Y-24219304D01*
X116952161Y-24261334D01*
X116978275Y-24302893D01*
X116991458Y-24340569D01*
X117008150Y-24374225D01*
X117020225Y-24422780D01*
X117037442Y-24471983D01*
X117041567Y-24508599D01*
X117050132Y-24543037D01*
X117057210Y-24647429D01*
X117057500Y-24650000D01*
X117057500Y-26150000D01*
X117057210Y-26152573D01*
X117050132Y-26256962D01*
X117041567Y-26291398D01*
X117037442Y-26328017D01*
X117020224Y-26377222D01*
X117008150Y-26425774D01*
X116991459Y-26459427D01*
X116978275Y-26497107D01*
X116952159Y-26538669D01*
X116931317Y-26580695D01*
X116905831Y-26612399D01*
X116882965Y-26648792D01*
X116850409Y-26681347D01*
X116822976Y-26715476D01*
X116788847Y-26742909D01*
X116756292Y-26775465D01*
X116719899Y-26798331D01*
X116688195Y-26823817D01*
X116646169Y-26844659D01*
X116604607Y-26870775D01*
X116566927Y-26883959D01*
X116533274Y-26900650D01*
X116484722Y-26912724D01*
X116435517Y-26929942D01*
X116398898Y-26934067D01*
X116364462Y-26942632D01*
X116260071Y-26949710D01*
X116257500Y-26950000D01*
X114257500Y-26950000D01*
X114254928Y-26949710D01*
X114150537Y-26942632D01*
X114116099Y-26934067D01*
X114079483Y-26929942D01*
X114030280Y-26912725D01*
X113981725Y-26900650D01*
X113948069Y-26883958D01*
X113910393Y-26870775D01*
X113868834Y-26844661D01*
X113826804Y-26823817D01*
X113795095Y-26798328D01*
X113758708Y-26775465D01*
X113726156Y-26742913D01*
X113692023Y-26715476D01*
X113664585Y-26681342D01*
X113632035Y-26648792D01*
X113609171Y-26612405D01*
X113583682Y-26580695D01*
X113562835Y-26538662D01*
X113536725Y-26497107D01*
X113523542Y-26459434D01*
X113506849Y-26425774D01*
X113494772Y-26377212D01*
X113477558Y-26328017D01*
X113473432Y-26291405D01*
X113464867Y-26256962D01*
X113457787Y-26152549D01*
X113457500Y-26150000D01*
X113457500Y-24650000D01*
X113457787Y-24647450D01*
X113464867Y-24543037D01*
X113473433Y-24508592D01*
X113477558Y-24471983D01*
X113494771Y-24422790D01*
X113506849Y-24374225D01*
X113523543Y-24340562D01*
X113536725Y-24302893D01*
X113562833Y-24261341D01*
X113583682Y-24219304D01*
X113609174Y-24187589D01*
X113632035Y-24151208D01*
X113664581Y-24118661D01*
X113692023Y-24084523D01*
X113726161Y-24057081D01*
X113758708Y-24024535D01*
X113795089Y-24001674D01*
X113826804Y-23976182D01*
X113868841Y-23955333D01*
X113910393Y-23929225D01*
X113948062Y-23916043D01*
X113981725Y-23899349D01*
X114030290Y-23887271D01*
X114079483Y-23870058D01*
X114116092Y-23865933D01*
X114150537Y-23857367D01*
X114254952Y-23850287D01*
X114257500Y-23850000D01*
X116257500Y-23850000D01*
X116260050Y-23850287D01*
G37*
G36*
X57412664Y-25226602D02*
G01*
X57575000Y-25298878D01*
X57718761Y-25403327D01*
X57837664Y-25535383D01*
X57926514Y-25689274D01*
X57981425Y-25858275D01*
X58000000Y-26035000D01*
X57981425Y-26211725D01*
X57926514Y-26380726D01*
X57837664Y-26534617D01*
X57718761Y-26666673D01*
X57575000Y-26771122D01*
X57412664Y-26843398D01*
X57238849Y-26880344D01*
X57061151Y-26880344D01*
X56887336Y-26843398D01*
X56725000Y-26771122D01*
X56581239Y-26666673D01*
X56462336Y-26534617D01*
X56373486Y-26380726D01*
X56318575Y-26211725D01*
X56300000Y-26035000D01*
X56318575Y-25858275D01*
X56373486Y-25689274D01*
X56462336Y-25535383D01*
X56581239Y-25403327D01*
X56725000Y-25298878D01*
X56887336Y-25226602D01*
X57061151Y-25189656D01*
X57238849Y-25189656D01*
X57412664Y-25226602D01*
G37*
G36*
X65032664Y-25226602D02*
G01*
X65195000Y-25298878D01*
X65338761Y-25403327D01*
X65457664Y-25535383D01*
X65546514Y-25689274D01*
X65601425Y-25858275D01*
X65620000Y-26035000D01*
X65601425Y-26211725D01*
X65546514Y-26380726D01*
X65457664Y-26534617D01*
X65338761Y-26666673D01*
X65195000Y-26771122D01*
X65032664Y-26843398D01*
X64858849Y-26880344D01*
X64681151Y-26880344D01*
X64507336Y-26843398D01*
X64345000Y-26771122D01*
X64201239Y-26666673D01*
X64082336Y-26534617D01*
X63993486Y-26380726D01*
X63938575Y-26211725D01*
X63920000Y-26035000D01*
X63938575Y-25858275D01*
X63993486Y-25689274D01*
X64082336Y-25535383D01*
X64201239Y-25403327D01*
X64345000Y-25298878D01*
X64507336Y-25226602D01*
X64681151Y-25189656D01*
X64858849Y-25189656D01*
X65032664Y-25226602D01*
G37*
G36*
X23122664Y-24591602D02*
G01*
X23285000Y-24663878D01*
X23428761Y-24768327D01*
X23547664Y-24900383D01*
X23636514Y-25054274D01*
X23691425Y-25223275D01*
X23710000Y-25400000D01*
X23691425Y-25576725D01*
X23636514Y-25745726D01*
X23547664Y-25899617D01*
X23428761Y-26031673D01*
X23285000Y-26136122D01*
X23122664Y-26208398D01*
X22948849Y-26245344D01*
X22771151Y-26245344D01*
X22597336Y-26208398D01*
X22435000Y-26136122D01*
X22291239Y-26031673D01*
X22172336Y-25899617D01*
X22083486Y-25745726D01*
X22028575Y-25576725D01*
X22010000Y-25400000D01*
X22028575Y-25223275D01*
X22083486Y-25054274D01*
X22172336Y-24900383D01*
X22291239Y-24768327D01*
X22435000Y-24663878D01*
X22597336Y-24591602D01*
X22771151Y-24554656D01*
X22948849Y-24554656D01*
X23122664Y-24591602D01*
G37*
G36*
X38362664Y-24591602D02*
G01*
X38525000Y-24663878D01*
X38668761Y-24768327D01*
X38787664Y-24900383D01*
X38876514Y-25054274D01*
X38931425Y-25223275D01*
X38950000Y-25400000D01*
X38931425Y-25576725D01*
X38876514Y-25745726D01*
X38787664Y-25899617D01*
X38668761Y-26031673D01*
X38525000Y-26136122D01*
X38362664Y-26208398D01*
X38188849Y-26245344D01*
X38011151Y-26245344D01*
X37837336Y-26208398D01*
X37675000Y-26136122D01*
X37531239Y-26031673D01*
X37412336Y-25899617D01*
X37323486Y-25745726D01*
X37268575Y-25576725D01*
X37250000Y-25400000D01*
X37268575Y-25223275D01*
X37323486Y-25054274D01*
X37412336Y-24900383D01*
X37531239Y-24768327D01*
X37675000Y-24663878D01*
X37837336Y-24591602D01*
X38011151Y-24554656D01*
X38188849Y-24554656D01*
X38362664Y-24591602D01*
G37*
G36*
X44702664Y-24576602D02*
G01*
X44865000Y-24648878D01*
X45008761Y-24753327D01*
X45127664Y-24885383D01*
X45216514Y-25039274D01*
X45271425Y-25208275D01*
X45290000Y-25385000D01*
X45271425Y-25561725D01*
X45216514Y-25730726D01*
X45127664Y-25884617D01*
X45008761Y-26016673D01*
X44865000Y-26121122D01*
X44702664Y-26193398D01*
X44528849Y-26230344D01*
X44351151Y-26230344D01*
X44177336Y-26193398D01*
X44015000Y-26121122D01*
X43871239Y-26016673D01*
X43752336Y-25884617D01*
X43663486Y-25730726D01*
X43608575Y-25561725D01*
X43590000Y-25385000D01*
X43608575Y-25208275D01*
X43663486Y-25039274D01*
X43752336Y-24885383D01*
X43871239Y-24753327D01*
X44015000Y-24648878D01*
X44177336Y-24576602D01*
X44351151Y-24539656D01*
X44528849Y-24539656D01*
X44702664Y-24576602D01*
G37*
G36*
X52322664Y-24576602D02*
G01*
X52485000Y-24648878D01*
X52628761Y-24753327D01*
X52747664Y-24885383D01*
X52836514Y-25039274D01*
X52891425Y-25208275D01*
X52910000Y-25385000D01*
X52891425Y-25561725D01*
X52836514Y-25730726D01*
X52747664Y-25884617D01*
X52628761Y-26016673D01*
X52485000Y-26121122D01*
X52322664Y-26193398D01*
X52148849Y-26230344D01*
X51971151Y-26230344D01*
X51797336Y-26193398D01*
X51635000Y-26121122D01*
X51491239Y-26016673D01*
X51372336Y-25884617D01*
X51283486Y-25730726D01*
X51228575Y-25561725D01*
X51210000Y-25385000D01*
X51228575Y-25208275D01*
X51283486Y-25039274D01*
X51372336Y-24885383D01*
X51491239Y-24753327D01*
X51635000Y-24648878D01*
X51797336Y-24576602D01*
X51971151Y-24539656D01*
X52148849Y-24539656D01*
X52322664Y-24576602D01*
G37*
G36*
X103767664Y-24499253D02*
G01*
X103930000Y-24571529D01*
X104073761Y-24675978D01*
X104192664Y-24808034D01*
X104281514Y-24961925D01*
X104336425Y-25130926D01*
X104355000Y-25307651D01*
X104336425Y-25484376D01*
X104281514Y-25653377D01*
X104192664Y-25807268D01*
X104073761Y-25939324D01*
X103930000Y-26043773D01*
X103767664Y-26116049D01*
X103593849Y-26152995D01*
X103416151Y-26152995D01*
X103242336Y-26116049D01*
X103080000Y-26043773D01*
X102936239Y-25939324D01*
X102817336Y-25807268D01*
X102728486Y-25653377D01*
X102673575Y-25484376D01*
X102655000Y-25307651D01*
X102673575Y-25130926D01*
X102728486Y-24961925D01*
X102817336Y-24808034D01*
X102936239Y-24675978D01*
X103080000Y-24571529D01*
X103242336Y-24499253D01*
X103416151Y-24462307D01*
X103593849Y-24462307D01*
X103767664Y-24499253D01*
G37*
G36*
X73287664Y-24469102D02*
G01*
X73450000Y-24541378D01*
X73593761Y-24645827D01*
X73712664Y-24777883D01*
X73801514Y-24931774D01*
X73856425Y-25100775D01*
X73875000Y-25277500D01*
X73856425Y-25454225D01*
X73801514Y-25623226D01*
X73712664Y-25777117D01*
X73593761Y-25909173D01*
X73450000Y-26013622D01*
X73287664Y-26085898D01*
X73113849Y-26122844D01*
X72936151Y-26122844D01*
X72762336Y-26085898D01*
X72600000Y-26013622D01*
X72456239Y-25909173D01*
X72337336Y-25777117D01*
X72248486Y-25623226D01*
X72193575Y-25454225D01*
X72175000Y-25277500D01*
X72193575Y-25100775D01*
X72248486Y-24931774D01*
X72337336Y-24777883D01*
X72456239Y-24645827D01*
X72600000Y-24541378D01*
X72762336Y-24469102D01*
X72936151Y-24432156D01*
X73113849Y-24432156D01*
X73287664Y-24469102D01*
G37*
G36*
X75827664Y-24469102D02*
G01*
X75990000Y-24541378D01*
X76133761Y-24645827D01*
X76252664Y-24777883D01*
X76341514Y-24931774D01*
X76396425Y-25100775D01*
X76415000Y-25277500D01*
X76396425Y-25454225D01*
X76341514Y-25623226D01*
X76252664Y-25777117D01*
X76133761Y-25909173D01*
X75990000Y-26013622D01*
X75827664Y-26085898D01*
X75653849Y-26122844D01*
X75476151Y-26122844D01*
X75302336Y-26085898D01*
X75140000Y-26013622D01*
X74996239Y-25909173D01*
X74877336Y-25777117D01*
X74788486Y-25623226D01*
X74733575Y-25454225D01*
X74715000Y-25277500D01*
X74733575Y-25100775D01*
X74788486Y-24931774D01*
X74877336Y-24777883D01*
X74996239Y-24645827D01*
X75140000Y-24541378D01*
X75302336Y-24469102D01*
X75476151Y-24432156D01*
X75653849Y-24432156D01*
X75827664Y-24469102D01*
G37*
G36*
X78367664Y-24469102D02*
G01*
X78530000Y-24541378D01*
X78673761Y-24645827D01*
X78792664Y-24777883D01*
X78881514Y-24931774D01*
X78936425Y-25100775D01*
X78955000Y-25277500D01*
X78936425Y-25454225D01*
X78881514Y-25623226D01*
X78792664Y-25777117D01*
X78673761Y-25909173D01*
X78530000Y-26013622D01*
X78367664Y-26085898D01*
X78193849Y-26122844D01*
X78016151Y-26122844D01*
X77842336Y-26085898D01*
X77680000Y-26013622D01*
X77536239Y-25909173D01*
X77417336Y-25777117D01*
X77328486Y-25623226D01*
X77273575Y-25454225D01*
X77255000Y-25277500D01*
X77273575Y-25100775D01*
X77328486Y-24931774D01*
X77417336Y-24777883D01*
X77536239Y-24645827D01*
X77680000Y-24541378D01*
X77842336Y-24469102D01*
X78016151Y-24432156D01*
X78193849Y-24432156D01*
X78367664Y-24469102D01*
G37*
G36*
X80907664Y-24469102D02*
G01*
X81070000Y-24541378D01*
X81213761Y-24645827D01*
X81332664Y-24777883D01*
X81421514Y-24931774D01*
X81476425Y-25100775D01*
X81495000Y-25277500D01*
X81476425Y-25454225D01*
X81421514Y-25623226D01*
X81332664Y-25777117D01*
X81213761Y-25909173D01*
X81070000Y-26013622D01*
X80907664Y-26085898D01*
X80733849Y-26122844D01*
X80556151Y-26122844D01*
X80382336Y-26085898D01*
X80220000Y-26013622D01*
X80076239Y-25909173D01*
X79957336Y-25777117D01*
X79868486Y-25623226D01*
X79813575Y-25454225D01*
X79795000Y-25277500D01*
X79813575Y-25100775D01*
X79868486Y-24931774D01*
X79957336Y-24777883D01*
X80076239Y-24645827D01*
X80220000Y-24541378D01*
X80382336Y-24469102D01*
X80556151Y-24432156D01*
X80733849Y-24432156D01*
X80907664Y-24469102D01*
G37*
G36*
X83447664Y-24469102D02*
G01*
X83610000Y-24541378D01*
X83753761Y-24645827D01*
X83872664Y-24777883D01*
X83961514Y-24931774D01*
X84016425Y-25100775D01*
X84035000Y-25277500D01*
X84016425Y-25454225D01*
X83961514Y-25623226D01*
X83872664Y-25777117D01*
X83753761Y-25909173D01*
X83610000Y-26013622D01*
X83447664Y-26085898D01*
X83273849Y-26122844D01*
X83096151Y-26122844D01*
X82922336Y-26085898D01*
X82760000Y-26013622D01*
X82616239Y-25909173D01*
X82497336Y-25777117D01*
X82408486Y-25623226D01*
X82353575Y-25454225D01*
X82335000Y-25277500D01*
X82353575Y-25100775D01*
X82408486Y-24931774D01*
X82497336Y-24777883D01*
X82616239Y-24645827D01*
X82760000Y-24541378D01*
X82922336Y-24469102D01*
X83096151Y-24432156D01*
X83273849Y-24432156D01*
X83447664Y-24469102D01*
G37*
G36*
X91119712Y-23658901D02*
G01*
X91317599Y-23735562D01*
X91498030Y-23847280D01*
X91654860Y-23990250D01*
X91782750Y-24159603D01*
X91877343Y-24349572D01*
X91935419Y-24553688D01*
X91955000Y-24765000D01*
X91935419Y-24976312D01*
X91877343Y-25180428D01*
X91782750Y-25370397D01*
X91654860Y-25539750D01*
X91498030Y-25682720D01*
X91317599Y-25794438D01*
X91119712Y-25871099D01*
X90911109Y-25910094D01*
X90698891Y-25910094D01*
X90490288Y-25871099D01*
X90292401Y-25794438D01*
X90111970Y-25682720D01*
X89955140Y-25539750D01*
X89827250Y-25370397D01*
X89732657Y-25180428D01*
X89674581Y-24976312D01*
X89655000Y-24765000D01*
X89674581Y-24553688D01*
X89732657Y-24349572D01*
X89827250Y-24159603D01*
X89955140Y-23990250D01*
X90111970Y-23847280D01*
X90292401Y-23735562D01*
X90490288Y-23658901D01*
X90698891Y-23619906D01*
X90911109Y-23619906D01*
X91119712Y-23658901D01*
G37*
G36*
X96147664Y-23956602D02*
G01*
X96310000Y-24028878D01*
X96453761Y-24133327D01*
X96572664Y-24265383D01*
X96661514Y-24419274D01*
X96716425Y-24588275D01*
X96735000Y-24765000D01*
X96716425Y-24941725D01*
X96661514Y-25110726D01*
X96572664Y-25264617D01*
X96453761Y-25396673D01*
X96310000Y-25501122D01*
X96147664Y-25573398D01*
X95973849Y-25610344D01*
X95796151Y-25610344D01*
X95622336Y-25573398D01*
X95460000Y-25501122D01*
X95316239Y-25396673D01*
X95197336Y-25264617D01*
X95108486Y-25110726D01*
X95053575Y-24941725D01*
X95035000Y-24765000D01*
X95053575Y-24588275D01*
X95108486Y-24419274D01*
X95197336Y-24265383D01*
X95316239Y-24133327D01*
X95460000Y-24028878D01*
X95622336Y-23956602D01*
X95796151Y-23919656D01*
X95973849Y-23919656D01*
X96147664Y-23956602D01*
G37*
G36*
X57412664Y-22051602D02*
G01*
X57575000Y-22123878D01*
X57718761Y-22228327D01*
X57837664Y-22360383D01*
X57926514Y-22514274D01*
X57981425Y-22683275D01*
X58000000Y-22860000D01*
X57981425Y-23036725D01*
X57926514Y-23205726D01*
X57837664Y-23359617D01*
X57718761Y-23491673D01*
X57575000Y-23596122D01*
X57412664Y-23668398D01*
X57238849Y-23705344D01*
X57061151Y-23705344D01*
X56887336Y-23668398D01*
X56725000Y-23596122D01*
X56581239Y-23491673D01*
X56462336Y-23359617D01*
X56373486Y-23205726D01*
X56318575Y-23036725D01*
X56300000Y-22860000D01*
X56318575Y-22683275D01*
X56373486Y-22514274D01*
X56462336Y-22360383D01*
X56581239Y-22228327D01*
X56725000Y-22123878D01*
X56887336Y-22051602D01*
X57061151Y-22014656D01*
X57238849Y-22014656D01*
X57412664Y-22051602D01*
G37*
G36*
X65032664Y-22051602D02*
G01*
X65195000Y-22123878D01*
X65338761Y-22228327D01*
X65457664Y-22360383D01*
X65546514Y-22514274D01*
X65601425Y-22683275D01*
X65620000Y-22860000D01*
X65601425Y-23036725D01*
X65546514Y-23205726D01*
X65457664Y-23359617D01*
X65338761Y-23491673D01*
X65195000Y-23596122D01*
X65032664Y-23668398D01*
X64858849Y-23705344D01*
X64681151Y-23705344D01*
X64507336Y-23668398D01*
X64345000Y-23596122D01*
X64201239Y-23491673D01*
X64082336Y-23359617D01*
X63993486Y-23205726D01*
X63938575Y-23036725D01*
X63920000Y-22860000D01*
X63938575Y-22683275D01*
X63993486Y-22514274D01*
X64082336Y-22360383D01*
X64201239Y-22228327D01*
X64345000Y-22123878D01*
X64507336Y-22051602D01*
X64681151Y-22014656D01*
X64858849Y-22014656D01*
X65032664Y-22051602D01*
G37*
G36*
X44702664Y-22036602D02*
G01*
X44865000Y-22108878D01*
X45008761Y-22213327D01*
X45127664Y-22345383D01*
X45216514Y-22499274D01*
X45271425Y-22668275D01*
X45290000Y-22845000D01*
X45271425Y-23021725D01*
X45216514Y-23190726D01*
X45127664Y-23344617D01*
X45008761Y-23476673D01*
X44865000Y-23581122D01*
X44702664Y-23653398D01*
X44528849Y-23690344D01*
X44351151Y-23690344D01*
X44177336Y-23653398D01*
X44015000Y-23581122D01*
X43871239Y-23476673D01*
X43752336Y-23344617D01*
X43663486Y-23190726D01*
X43608575Y-23021725D01*
X43590000Y-22845000D01*
X43608575Y-22668275D01*
X43663486Y-22499274D01*
X43752336Y-22345383D01*
X43871239Y-22213327D01*
X44015000Y-22108878D01*
X44177336Y-22036602D01*
X44351151Y-21999656D01*
X44528849Y-21999656D01*
X44702664Y-22036602D01*
G37*
G36*
X52322664Y-22036602D02*
G01*
X52485000Y-22108878D01*
X52628761Y-22213327D01*
X52747664Y-22345383D01*
X52836514Y-22499274D01*
X52891425Y-22668275D01*
X52910000Y-22845000D01*
X52891425Y-23021725D01*
X52836514Y-23190726D01*
X52747664Y-23344617D01*
X52628761Y-23476673D01*
X52485000Y-23581122D01*
X52322664Y-23653398D01*
X52148849Y-23690344D01*
X51971151Y-23690344D01*
X51797336Y-23653398D01*
X51635000Y-23581122D01*
X51491239Y-23476673D01*
X51372336Y-23344617D01*
X51283486Y-23190726D01*
X51228575Y-23021725D01*
X51210000Y-22845000D01*
X51228575Y-22668275D01*
X51283486Y-22499274D01*
X51372336Y-22345383D01*
X51491239Y-22213327D01*
X51635000Y-22108878D01*
X51797336Y-22036602D01*
X51971151Y-21999656D01*
X52148849Y-21999656D01*
X52322664Y-22036602D01*
G37*
M02*
