%TF.GenerationSoftware,KiCad,Pcbnew,7.0.6*%
%TF.CreationDate,2023-10-09T17:48:47+13:00*%
%TF.ProjectId,Final Project KiCAD designs,46696e61-6c20-4507-926f-6a656374204b,1*%
%TF.SameCoordinates,Original*%
%TF.FileFunction,Legend,Top*%
%TF.FilePolarity,Positive*%
%FSLAX46Y46*%
G04 Gerber Fmt 4.6, Leading zero omitted, Abs format (unit mm)*
G04 Created by KiCad (PCBNEW 7.0.6) date 2023-10-09 17:48:47*
%MOMM*%
%LPD*%
G01*
G04 APERTURE LIST*
%ADD10C,0.400000*%
%ADD11C,0.300000*%
%ADD12C,0.200000*%
%ADD13C,0.625000*%
%ADD14C,0.150000*%
%ADD15C,0.120000*%
G04 APERTURE END LIST*
D10*
X71811728Y-46113914D02*
X71811728Y-44313914D01*
X71811728Y-44313914D02*
X72497442Y-44313914D01*
X72497442Y-44313914D02*
X72668871Y-44399628D01*
X72668871Y-44399628D02*
X72754585Y-44485342D01*
X72754585Y-44485342D02*
X72840299Y-44656771D01*
X72840299Y-44656771D02*
X72840299Y-44913914D01*
X72840299Y-44913914D02*
X72754585Y-45085342D01*
X72754585Y-45085342D02*
X72668871Y-45171057D01*
X72668871Y-45171057D02*
X72497442Y-45256771D01*
X72497442Y-45256771D02*
X71811728Y-45256771D01*
X73868871Y-46113914D02*
X73697442Y-46028200D01*
X73697442Y-46028200D02*
X73611728Y-45856771D01*
X73611728Y-45856771D02*
X73611728Y-44313914D01*
X75326014Y-46113914D02*
X75326014Y-45171057D01*
X75326014Y-45171057D02*
X75240299Y-44999628D01*
X75240299Y-44999628D02*
X75068871Y-44913914D01*
X75068871Y-44913914D02*
X74726014Y-44913914D01*
X74726014Y-44913914D02*
X74554585Y-44999628D01*
X75326014Y-46028200D02*
X75154585Y-46113914D01*
X75154585Y-46113914D02*
X74726014Y-46113914D01*
X74726014Y-46113914D02*
X74554585Y-46028200D01*
X74554585Y-46028200D02*
X74468871Y-45856771D01*
X74468871Y-45856771D02*
X74468871Y-45685342D01*
X74468871Y-45685342D02*
X74554585Y-45513914D01*
X74554585Y-45513914D02*
X74726014Y-45428200D01*
X74726014Y-45428200D02*
X75154585Y-45428200D01*
X75154585Y-45428200D02*
X75326014Y-45342485D01*
X76011727Y-44913914D02*
X76440299Y-46113914D01*
X76868870Y-44913914D02*
X76440299Y-46113914D01*
X76440299Y-46113914D02*
X76268870Y-46542485D01*
X76268870Y-46542485D02*
X76183156Y-46628200D01*
X76183156Y-46628200D02*
X76011727Y-46713914D01*
X78240299Y-46028200D02*
X78068871Y-46113914D01*
X78068871Y-46113914D02*
X77726014Y-46113914D01*
X77726014Y-46113914D02*
X77554585Y-46028200D01*
X77554585Y-46028200D02*
X77468871Y-45856771D01*
X77468871Y-45856771D02*
X77468871Y-45171057D01*
X77468871Y-45171057D02*
X77554585Y-44999628D01*
X77554585Y-44999628D02*
X77726014Y-44913914D01*
X77726014Y-44913914D02*
X78068871Y-44913914D01*
X78068871Y-44913914D02*
X78240299Y-44999628D01*
X78240299Y-44999628D02*
X78326014Y-45171057D01*
X78326014Y-45171057D02*
X78326014Y-45342485D01*
X78326014Y-45342485D02*
X77468871Y-45513914D01*
X79097442Y-46113914D02*
X79097442Y-44913914D01*
X79097442Y-45256771D02*
X79183156Y-45085342D01*
X79183156Y-45085342D02*
X79268871Y-44999628D01*
X79268871Y-44999628D02*
X79440299Y-44913914D01*
X79440299Y-44913914D02*
X79611728Y-44913914D01*
X81326014Y-44313914D02*
X82354586Y-44313914D01*
X81840300Y-46113914D02*
X81840300Y-44313914D01*
X82783157Y-44913914D02*
X83126015Y-46113914D01*
X83126015Y-46113914D02*
X83468872Y-45256771D01*
X83468872Y-45256771D02*
X83811729Y-46113914D01*
X83811729Y-46113914D02*
X84154586Y-44913914D01*
X85097443Y-46113914D02*
X84926014Y-46028200D01*
X84926014Y-46028200D02*
X84840300Y-45942485D01*
X84840300Y-45942485D02*
X84754586Y-45771057D01*
X84754586Y-45771057D02*
X84754586Y-45256771D01*
X84754586Y-45256771D02*
X84840300Y-45085342D01*
X84840300Y-45085342D02*
X84926014Y-44999628D01*
X84926014Y-44999628D02*
X85097443Y-44913914D01*
X85097443Y-44913914D02*
X85354586Y-44913914D01*
X85354586Y-44913914D02*
X85526014Y-44999628D01*
X85526014Y-44999628D02*
X85611729Y-45085342D01*
X85611729Y-45085342D02*
X85697443Y-45256771D01*
X85697443Y-45256771D02*
X85697443Y-45771057D01*
X85697443Y-45771057D02*
X85611729Y-45942485D01*
X85611729Y-45942485D02*
X85526014Y-46028200D01*
X85526014Y-46028200D02*
X85354586Y-46113914D01*
X85354586Y-46113914D02*
X85097443Y-46113914D01*
X71811728Y-22618914D02*
X71811728Y-20818914D01*
X71811728Y-20818914D02*
X72497442Y-20818914D01*
X72497442Y-20818914D02*
X72668871Y-20904628D01*
X72668871Y-20904628D02*
X72754585Y-20990342D01*
X72754585Y-20990342D02*
X72840299Y-21161771D01*
X72840299Y-21161771D02*
X72840299Y-21418914D01*
X72840299Y-21418914D02*
X72754585Y-21590342D01*
X72754585Y-21590342D02*
X72668871Y-21676057D01*
X72668871Y-21676057D02*
X72497442Y-21761771D01*
X72497442Y-21761771D02*
X71811728Y-21761771D01*
X73868871Y-22618914D02*
X73697442Y-22533200D01*
X73697442Y-22533200D02*
X73611728Y-22361771D01*
X73611728Y-22361771D02*
X73611728Y-20818914D01*
X75326014Y-22618914D02*
X75326014Y-21676057D01*
X75326014Y-21676057D02*
X75240299Y-21504628D01*
X75240299Y-21504628D02*
X75068871Y-21418914D01*
X75068871Y-21418914D02*
X74726014Y-21418914D01*
X74726014Y-21418914D02*
X74554585Y-21504628D01*
X75326014Y-22533200D02*
X75154585Y-22618914D01*
X75154585Y-22618914D02*
X74726014Y-22618914D01*
X74726014Y-22618914D02*
X74554585Y-22533200D01*
X74554585Y-22533200D02*
X74468871Y-22361771D01*
X74468871Y-22361771D02*
X74468871Y-22190342D01*
X74468871Y-22190342D02*
X74554585Y-22018914D01*
X74554585Y-22018914D02*
X74726014Y-21933200D01*
X74726014Y-21933200D02*
X75154585Y-21933200D01*
X75154585Y-21933200D02*
X75326014Y-21847485D01*
X76011727Y-21418914D02*
X76440299Y-22618914D01*
X76868870Y-21418914D02*
X76440299Y-22618914D01*
X76440299Y-22618914D02*
X76268870Y-23047485D01*
X76268870Y-23047485D02*
X76183156Y-23133200D01*
X76183156Y-23133200D02*
X76011727Y-23218914D01*
X78240299Y-22533200D02*
X78068871Y-22618914D01*
X78068871Y-22618914D02*
X77726014Y-22618914D01*
X77726014Y-22618914D02*
X77554585Y-22533200D01*
X77554585Y-22533200D02*
X77468871Y-22361771D01*
X77468871Y-22361771D02*
X77468871Y-21676057D01*
X77468871Y-21676057D02*
X77554585Y-21504628D01*
X77554585Y-21504628D02*
X77726014Y-21418914D01*
X77726014Y-21418914D02*
X78068871Y-21418914D01*
X78068871Y-21418914D02*
X78240299Y-21504628D01*
X78240299Y-21504628D02*
X78326014Y-21676057D01*
X78326014Y-21676057D02*
X78326014Y-21847485D01*
X78326014Y-21847485D02*
X77468871Y-22018914D01*
X79097442Y-22618914D02*
X79097442Y-21418914D01*
X79097442Y-21761771D02*
X79183156Y-21590342D01*
X79183156Y-21590342D02*
X79268871Y-21504628D01*
X79268871Y-21504628D02*
X79440299Y-21418914D01*
X79440299Y-21418914D02*
X79611728Y-21418914D01*
X81926014Y-20818914D02*
X82268871Y-20818914D01*
X82268871Y-20818914D02*
X82440300Y-20904628D01*
X82440300Y-20904628D02*
X82611728Y-21076057D01*
X82611728Y-21076057D02*
X82697443Y-21418914D01*
X82697443Y-21418914D02*
X82697443Y-22018914D01*
X82697443Y-22018914D02*
X82611728Y-22361771D01*
X82611728Y-22361771D02*
X82440300Y-22533200D01*
X82440300Y-22533200D02*
X82268871Y-22618914D01*
X82268871Y-22618914D02*
X81926014Y-22618914D01*
X81926014Y-22618914D02*
X81754586Y-22533200D01*
X81754586Y-22533200D02*
X81583157Y-22361771D01*
X81583157Y-22361771D02*
X81497443Y-22018914D01*
X81497443Y-22018914D02*
X81497443Y-21418914D01*
X81497443Y-21418914D02*
X81583157Y-21076057D01*
X81583157Y-21076057D02*
X81754586Y-20904628D01*
X81754586Y-20904628D02*
X81926014Y-20818914D01*
X83468871Y-21418914D02*
X83468871Y-22618914D01*
X83468871Y-21590342D02*
X83554585Y-21504628D01*
X83554585Y-21504628D02*
X83726014Y-21418914D01*
X83726014Y-21418914D02*
X83983157Y-21418914D01*
X83983157Y-21418914D02*
X84154585Y-21504628D01*
X84154585Y-21504628D02*
X84240300Y-21676057D01*
X84240300Y-21676057D02*
X84240300Y-22618914D01*
X85783156Y-22533200D02*
X85611728Y-22618914D01*
X85611728Y-22618914D02*
X85268871Y-22618914D01*
X85268871Y-22618914D02*
X85097442Y-22533200D01*
X85097442Y-22533200D02*
X85011728Y-22361771D01*
X85011728Y-22361771D02*
X85011728Y-21676057D01*
X85011728Y-21676057D02*
X85097442Y-21504628D01*
X85097442Y-21504628D02*
X85268871Y-21418914D01*
X85268871Y-21418914D02*
X85611728Y-21418914D01*
X85611728Y-21418914D02*
X85783156Y-21504628D01*
X85783156Y-21504628D02*
X85868871Y-21676057D01*
X85868871Y-21676057D02*
X85868871Y-21847485D01*
X85868871Y-21847485D02*
X85011728Y-22018914D01*
D11*
X27859510Y-72825828D02*
X27859510Y-71325828D01*
X27859510Y-71325828D02*
X28430939Y-71325828D01*
X28430939Y-71325828D02*
X28573796Y-71397257D01*
X28573796Y-71397257D02*
X28645225Y-71468685D01*
X28645225Y-71468685D02*
X28716653Y-71611542D01*
X28716653Y-71611542D02*
X28716653Y-71825828D01*
X28716653Y-71825828D02*
X28645225Y-71968685D01*
X28645225Y-71968685D02*
X28573796Y-72040114D01*
X28573796Y-72040114D02*
X28430939Y-72111542D01*
X28430939Y-72111542D02*
X27859510Y-72111542D01*
X30145225Y-72825828D02*
X29288082Y-72825828D01*
X29716653Y-72825828D02*
X29716653Y-71325828D01*
X29716653Y-71325828D02*
X29573796Y-71540114D01*
X29573796Y-71540114D02*
X29430939Y-71682971D01*
X29430939Y-71682971D02*
X29288082Y-71754400D01*
D12*
X103128482Y-71304838D02*
X103033244Y-71257219D01*
X103033244Y-71257219D02*
X102890387Y-71257219D01*
X102890387Y-71257219D02*
X102747530Y-71304838D01*
X102747530Y-71304838D02*
X102652292Y-71400076D01*
X102652292Y-71400076D02*
X102604673Y-71495314D01*
X102604673Y-71495314D02*
X102557054Y-71685790D01*
X102557054Y-71685790D02*
X102557054Y-71828647D01*
X102557054Y-71828647D02*
X102604673Y-72019123D01*
X102604673Y-72019123D02*
X102652292Y-72114361D01*
X102652292Y-72114361D02*
X102747530Y-72209600D01*
X102747530Y-72209600D02*
X102890387Y-72257219D01*
X102890387Y-72257219D02*
X102985625Y-72257219D01*
X102985625Y-72257219D02*
X103128482Y-72209600D01*
X103128482Y-72209600D02*
X103176101Y-72161980D01*
X103176101Y-72161980D02*
X103176101Y-71828647D01*
X103176101Y-71828647D02*
X102985625Y-71828647D01*
X103604673Y-72257219D02*
X103604673Y-71590552D01*
X103604673Y-71781028D02*
X103652292Y-71685790D01*
X103652292Y-71685790D02*
X103699911Y-71638171D01*
X103699911Y-71638171D02*
X103795149Y-71590552D01*
X103795149Y-71590552D02*
X103890387Y-71590552D01*
X104652292Y-72257219D02*
X104652292Y-71733409D01*
X104652292Y-71733409D02*
X104604673Y-71638171D01*
X104604673Y-71638171D02*
X104509435Y-71590552D01*
X104509435Y-71590552D02*
X104318959Y-71590552D01*
X104318959Y-71590552D02*
X104223721Y-71638171D01*
X104652292Y-72209600D02*
X104557054Y-72257219D01*
X104557054Y-72257219D02*
X104318959Y-72257219D01*
X104318959Y-72257219D02*
X104223721Y-72209600D01*
X104223721Y-72209600D02*
X104176102Y-72114361D01*
X104176102Y-72114361D02*
X104176102Y-72019123D01*
X104176102Y-72019123D02*
X104223721Y-71923885D01*
X104223721Y-71923885D02*
X104318959Y-71876266D01*
X104318959Y-71876266D02*
X104557054Y-71876266D01*
X104557054Y-71876266D02*
X104652292Y-71828647D01*
X105128483Y-71590552D02*
X105128483Y-72590552D01*
X105128483Y-71638171D02*
X105223721Y-71590552D01*
X105223721Y-71590552D02*
X105414197Y-71590552D01*
X105414197Y-71590552D02*
X105509435Y-71638171D01*
X105509435Y-71638171D02*
X105557054Y-71685790D01*
X105557054Y-71685790D02*
X105604673Y-71781028D01*
X105604673Y-71781028D02*
X105604673Y-72066742D01*
X105604673Y-72066742D02*
X105557054Y-72161980D01*
X105557054Y-72161980D02*
X105509435Y-72209600D01*
X105509435Y-72209600D02*
X105414197Y-72257219D01*
X105414197Y-72257219D02*
X105223721Y-72257219D01*
X105223721Y-72257219D02*
X105128483Y-72209600D01*
X106033245Y-72257219D02*
X106033245Y-71257219D01*
X106461816Y-72257219D02*
X106461816Y-71733409D01*
X106461816Y-71733409D02*
X106414197Y-71638171D01*
X106414197Y-71638171D02*
X106318959Y-71590552D01*
X106318959Y-71590552D02*
X106176102Y-71590552D01*
X106176102Y-71590552D02*
X106080864Y-71638171D01*
X106080864Y-71638171D02*
X106033245Y-71685790D01*
X106938007Y-72257219D02*
X106938007Y-71590552D01*
X106938007Y-71257219D02*
X106890388Y-71304838D01*
X106890388Y-71304838D02*
X106938007Y-71352457D01*
X106938007Y-71352457D02*
X106985626Y-71304838D01*
X106985626Y-71304838D02*
X106938007Y-71257219D01*
X106938007Y-71257219D02*
X106938007Y-71352457D01*
X107842768Y-72209600D02*
X107747530Y-72257219D01*
X107747530Y-72257219D02*
X107557054Y-72257219D01*
X107557054Y-72257219D02*
X107461816Y-72209600D01*
X107461816Y-72209600D02*
X107414197Y-72161980D01*
X107414197Y-72161980D02*
X107366578Y-72066742D01*
X107366578Y-72066742D02*
X107366578Y-71781028D01*
X107366578Y-71781028D02*
X107414197Y-71685790D01*
X107414197Y-71685790D02*
X107461816Y-71638171D01*
X107461816Y-71638171D02*
X107557054Y-71590552D01*
X107557054Y-71590552D02*
X107747530Y-71590552D01*
X107747530Y-71590552D02*
X107842768Y-71638171D01*
X108223721Y-72209600D02*
X108318959Y-72257219D01*
X108318959Y-72257219D02*
X108509435Y-72257219D01*
X108509435Y-72257219D02*
X108604673Y-72209600D01*
X108604673Y-72209600D02*
X108652292Y-72114361D01*
X108652292Y-72114361D02*
X108652292Y-72066742D01*
X108652292Y-72066742D02*
X108604673Y-71971504D01*
X108604673Y-71971504D02*
X108509435Y-71923885D01*
X108509435Y-71923885D02*
X108366578Y-71923885D01*
X108366578Y-71923885D02*
X108271340Y-71876266D01*
X108271340Y-71876266D02*
X108223721Y-71781028D01*
X108223721Y-71781028D02*
X108223721Y-71733409D01*
X108223721Y-71733409D02*
X108271340Y-71638171D01*
X108271340Y-71638171D02*
X108366578Y-71590552D01*
X108366578Y-71590552D02*
X108509435Y-71590552D01*
X108509435Y-71590552D02*
X108604673Y-71638171D01*
X110414197Y-72161980D02*
X110366578Y-72209600D01*
X110366578Y-72209600D02*
X110223721Y-72257219D01*
X110223721Y-72257219D02*
X110128483Y-72257219D01*
X110128483Y-72257219D02*
X109985626Y-72209600D01*
X109985626Y-72209600D02*
X109890388Y-72114361D01*
X109890388Y-72114361D02*
X109842769Y-72019123D01*
X109842769Y-72019123D02*
X109795150Y-71828647D01*
X109795150Y-71828647D02*
X109795150Y-71685790D01*
X109795150Y-71685790D02*
X109842769Y-71495314D01*
X109842769Y-71495314D02*
X109890388Y-71400076D01*
X109890388Y-71400076D02*
X109985626Y-71304838D01*
X109985626Y-71304838D02*
X110128483Y-71257219D01*
X110128483Y-71257219D02*
X110223721Y-71257219D01*
X110223721Y-71257219D02*
X110366578Y-71304838D01*
X110366578Y-71304838D02*
X110414197Y-71352457D01*
X110985626Y-72257219D02*
X110890388Y-72209600D01*
X110890388Y-72209600D02*
X110842769Y-72161980D01*
X110842769Y-72161980D02*
X110795150Y-72066742D01*
X110795150Y-72066742D02*
X110795150Y-71781028D01*
X110795150Y-71781028D02*
X110842769Y-71685790D01*
X110842769Y-71685790D02*
X110890388Y-71638171D01*
X110890388Y-71638171D02*
X110985626Y-71590552D01*
X110985626Y-71590552D02*
X111128483Y-71590552D01*
X111128483Y-71590552D02*
X111223721Y-71638171D01*
X111223721Y-71638171D02*
X111271340Y-71685790D01*
X111271340Y-71685790D02*
X111318959Y-71781028D01*
X111318959Y-71781028D02*
X111318959Y-72066742D01*
X111318959Y-72066742D02*
X111271340Y-72161980D01*
X111271340Y-72161980D02*
X111223721Y-72209600D01*
X111223721Y-72209600D02*
X111128483Y-72257219D01*
X111128483Y-72257219D02*
X110985626Y-72257219D01*
X111747531Y-71590552D02*
X111747531Y-72257219D01*
X111747531Y-71685790D02*
X111795150Y-71638171D01*
X111795150Y-71638171D02*
X111890388Y-71590552D01*
X111890388Y-71590552D02*
X112033245Y-71590552D01*
X112033245Y-71590552D02*
X112128483Y-71638171D01*
X112128483Y-71638171D02*
X112176102Y-71733409D01*
X112176102Y-71733409D02*
X112176102Y-72257219D01*
X112509436Y-71590552D02*
X112890388Y-71590552D01*
X112652293Y-71257219D02*
X112652293Y-72114361D01*
X112652293Y-72114361D02*
X112699912Y-72209600D01*
X112699912Y-72209600D02*
X112795150Y-72257219D01*
X112795150Y-72257219D02*
X112890388Y-72257219D01*
X113223722Y-72257219D02*
X113223722Y-71590552D01*
X113223722Y-71781028D02*
X113271341Y-71685790D01*
X113271341Y-71685790D02*
X113318960Y-71638171D01*
X113318960Y-71638171D02*
X113414198Y-71590552D01*
X113414198Y-71590552D02*
X113509436Y-71590552D01*
X113985627Y-72257219D02*
X113890389Y-72209600D01*
X113890389Y-72209600D02*
X113842770Y-72161980D01*
X113842770Y-72161980D02*
X113795151Y-72066742D01*
X113795151Y-72066742D02*
X113795151Y-71781028D01*
X113795151Y-71781028D02*
X113842770Y-71685790D01*
X113842770Y-71685790D02*
X113890389Y-71638171D01*
X113890389Y-71638171D02*
X113985627Y-71590552D01*
X113985627Y-71590552D02*
X114128484Y-71590552D01*
X114128484Y-71590552D02*
X114223722Y-71638171D01*
X114223722Y-71638171D02*
X114271341Y-71685790D01*
X114271341Y-71685790D02*
X114318960Y-71781028D01*
X114318960Y-71781028D02*
X114318960Y-72066742D01*
X114318960Y-72066742D02*
X114271341Y-72161980D01*
X114271341Y-72161980D02*
X114223722Y-72209600D01*
X114223722Y-72209600D02*
X114128484Y-72257219D01*
X114128484Y-72257219D02*
X113985627Y-72257219D01*
X114890389Y-72257219D02*
X114795151Y-72209600D01*
X114795151Y-72209600D02*
X114747532Y-72114361D01*
X114747532Y-72114361D02*
X114747532Y-71257219D01*
X115414199Y-72257219D02*
X115318961Y-72209600D01*
X115318961Y-72209600D02*
X115271342Y-72114361D01*
X115271342Y-72114361D02*
X115271342Y-71257219D01*
X116176104Y-72209600D02*
X116080866Y-72257219D01*
X116080866Y-72257219D02*
X115890390Y-72257219D01*
X115890390Y-72257219D02*
X115795152Y-72209600D01*
X115795152Y-72209600D02*
X115747533Y-72114361D01*
X115747533Y-72114361D02*
X115747533Y-71733409D01*
X115747533Y-71733409D02*
X115795152Y-71638171D01*
X115795152Y-71638171D02*
X115890390Y-71590552D01*
X115890390Y-71590552D02*
X116080866Y-71590552D01*
X116080866Y-71590552D02*
X116176104Y-71638171D01*
X116176104Y-71638171D02*
X116223723Y-71733409D01*
X116223723Y-71733409D02*
X116223723Y-71828647D01*
X116223723Y-71828647D02*
X115747533Y-71923885D01*
X116652295Y-72257219D02*
X116652295Y-71590552D01*
X116652295Y-71781028D02*
X116699914Y-71685790D01*
X116699914Y-71685790D02*
X116747533Y-71638171D01*
X116747533Y-71638171D02*
X116842771Y-71590552D01*
X116842771Y-71590552D02*
X116938009Y-71590552D01*
X80480552Y-111390326D02*
X81480552Y-111390326D01*
X80528171Y-111390326D02*
X80480552Y-111295088D01*
X80480552Y-111295088D02*
X80480552Y-111104612D01*
X80480552Y-111104612D02*
X80528171Y-111009374D01*
X80528171Y-111009374D02*
X80575790Y-110961755D01*
X80575790Y-110961755D02*
X80671028Y-110914136D01*
X80671028Y-110914136D02*
X80956742Y-110914136D01*
X80956742Y-110914136D02*
X81051980Y-110961755D01*
X81051980Y-110961755D02*
X81099600Y-111009374D01*
X81099600Y-111009374D02*
X81147219Y-111104612D01*
X81147219Y-111104612D02*
X81147219Y-111295088D01*
X81147219Y-111295088D02*
X81099600Y-111390326D01*
X81147219Y-109961755D02*
X81147219Y-110533183D01*
X81147219Y-110247469D02*
X80147219Y-110247469D01*
X80147219Y-110247469D02*
X80290076Y-110342707D01*
X80290076Y-110342707D02*
X80385314Y-110437945D01*
X80385314Y-110437945D02*
X80432933Y-110533183D01*
X80147219Y-109342707D02*
X80147219Y-109247469D01*
X80147219Y-109247469D02*
X80194838Y-109152231D01*
X80194838Y-109152231D02*
X80242457Y-109104612D01*
X80242457Y-109104612D02*
X80337695Y-109056993D01*
X80337695Y-109056993D02*
X80528171Y-109009374D01*
X80528171Y-109009374D02*
X80766266Y-109009374D01*
X80766266Y-109009374D02*
X80956742Y-109056993D01*
X80956742Y-109056993D02*
X81051980Y-109104612D01*
X81051980Y-109104612D02*
X81099600Y-109152231D01*
X81099600Y-109152231D02*
X81147219Y-109247469D01*
X81147219Y-109247469D02*
X81147219Y-109342707D01*
X81147219Y-109342707D02*
X81099600Y-109437945D01*
X81099600Y-109437945D02*
X81051980Y-109485564D01*
X81051980Y-109485564D02*
X80956742Y-109533183D01*
X80956742Y-109533183D02*
X80766266Y-109580802D01*
X80766266Y-109580802D02*
X80528171Y-109580802D01*
X80528171Y-109580802D02*
X80337695Y-109533183D01*
X80337695Y-109533183D02*
X80242457Y-109485564D01*
X80242457Y-109485564D02*
X80194838Y-109437945D01*
X80194838Y-109437945D02*
X80147219Y-109342707D01*
X80766266Y-108580802D02*
X80766266Y-107818898D01*
X80575790Y-107199850D02*
X80528171Y-107295088D01*
X80528171Y-107295088D02*
X80480552Y-107342707D01*
X80480552Y-107342707D02*
X80385314Y-107390326D01*
X80385314Y-107390326D02*
X80337695Y-107390326D01*
X80337695Y-107390326D02*
X80242457Y-107342707D01*
X80242457Y-107342707D02*
X80194838Y-107295088D01*
X80194838Y-107295088D02*
X80147219Y-107199850D01*
X80147219Y-107199850D02*
X80147219Y-107009374D01*
X80147219Y-107009374D02*
X80194838Y-106914136D01*
X80194838Y-106914136D02*
X80242457Y-106866517D01*
X80242457Y-106866517D02*
X80337695Y-106818898D01*
X80337695Y-106818898D02*
X80385314Y-106818898D01*
X80385314Y-106818898D02*
X80480552Y-106866517D01*
X80480552Y-106866517D02*
X80528171Y-106914136D01*
X80528171Y-106914136D02*
X80575790Y-107009374D01*
X80575790Y-107009374D02*
X80575790Y-107199850D01*
X80575790Y-107199850D02*
X80623409Y-107295088D01*
X80623409Y-107295088D02*
X80671028Y-107342707D01*
X80671028Y-107342707D02*
X80766266Y-107390326D01*
X80766266Y-107390326D02*
X80956742Y-107390326D01*
X80956742Y-107390326D02*
X81051980Y-107342707D01*
X81051980Y-107342707D02*
X81099600Y-107295088D01*
X81099600Y-107295088D02*
X81147219Y-107199850D01*
X81147219Y-107199850D02*
X81147219Y-107009374D01*
X81147219Y-107009374D02*
X81099600Y-106914136D01*
X81099600Y-106914136D02*
X81051980Y-106866517D01*
X81051980Y-106866517D02*
X80956742Y-106818898D01*
X80956742Y-106818898D02*
X80766266Y-106818898D01*
X80766266Y-106818898D02*
X80671028Y-106866517D01*
X80671028Y-106866517D02*
X80623409Y-106914136D01*
X80623409Y-106914136D02*
X80575790Y-107009374D01*
X81099600Y-106437945D02*
X81147219Y-106342707D01*
X81147219Y-106342707D02*
X81147219Y-106152231D01*
X81147219Y-106152231D02*
X81099600Y-106056993D01*
X81099600Y-106056993D02*
X81004361Y-106009374D01*
X81004361Y-106009374D02*
X80956742Y-106009374D01*
X80956742Y-106009374D02*
X80861504Y-106056993D01*
X80861504Y-106056993D02*
X80813885Y-106152231D01*
X80813885Y-106152231D02*
X80813885Y-106295088D01*
X80813885Y-106295088D02*
X80766266Y-106390326D01*
X80766266Y-106390326D02*
X80671028Y-106437945D01*
X80671028Y-106437945D02*
X80623409Y-106437945D01*
X80623409Y-106437945D02*
X80528171Y-106390326D01*
X80528171Y-106390326D02*
X80480552Y-106295088D01*
X80480552Y-106295088D02*
X80480552Y-106152231D01*
X80480552Y-106152231D02*
X80528171Y-106056993D01*
X80147219Y-104914135D02*
X80147219Y-104295088D01*
X80147219Y-104295088D02*
X80528171Y-104628421D01*
X80528171Y-104628421D02*
X80528171Y-104485564D01*
X80528171Y-104485564D02*
X80575790Y-104390326D01*
X80575790Y-104390326D02*
X80623409Y-104342707D01*
X80623409Y-104342707D02*
X80718647Y-104295088D01*
X80718647Y-104295088D02*
X80956742Y-104295088D01*
X80956742Y-104295088D02*
X81051980Y-104342707D01*
X81051980Y-104342707D02*
X81099600Y-104390326D01*
X81099600Y-104390326D02*
X81147219Y-104485564D01*
X81147219Y-104485564D02*
X81147219Y-104771278D01*
X81147219Y-104771278D02*
X81099600Y-104866516D01*
X81099600Y-104866516D02*
X81051980Y-104914135D01*
X80242457Y-103914135D02*
X80194838Y-103866516D01*
X80194838Y-103866516D02*
X80147219Y-103771278D01*
X80147219Y-103771278D02*
X80147219Y-103533183D01*
X80147219Y-103533183D02*
X80194838Y-103437945D01*
X80194838Y-103437945D02*
X80242457Y-103390326D01*
X80242457Y-103390326D02*
X80337695Y-103342707D01*
X80337695Y-103342707D02*
X80432933Y-103342707D01*
X80432933Y-103342707D02*
X80575790Y-103390326D01*
X80575790Y-103390326D02*
X81147219Y-103961754D01*
X81147219Y-103961754D02*
X81147219Y-103342707D01*
X81147219Y-103009373D02*
X80480552Y-102485564D01*
X80480552Y-103009373D02*
X81147219Y-102485564D01*
X81147219Y-101580802D02*
X81147219Y-102152230D01*
X81147219Y-101866516D02*
X80147219Y-101866516D01*
X80147219Y-101866516D02*
X80290076Y-101961754D01*
X80290076Y-101961754D02*
X80385314Y-102056992D01*
X80385314Y-102056992D02*
X80432933Y-102152230D01*
X80147219Y-100723659D02*
X80147219Y-100914135D01*
X80147219Y-100914135D02*
X80194838Y-101009373D01*
X80194838Y-101009373D02*
X80242457Y-101056992D01*
X80242457Y-101056992D02*
X80385314Y-101152230D01*
X80385314Y-101152230D02*
X80575790Y-101199849D01*
X80575790Y-101199849D02*
X80956742Y-101199849D01*
X80956742Y-101199849D02*
X81051980Y-101152230D01*
X81051980Y-101152230D02*
X81099600Y-101104611D01*
X81099600Y-101104611D02*
X81147219Y-101009373D01*
X81147219Y-101009373D02*
X81147219Y-100818897D01*
X81147219Y-100818897D02*
X81099600Y-100723659D01*
X81099600Y-100723659D02*
X81051980Y-100676040D01*
X81051980Y-100676040D02*
X80956742Y-100628421D01*
X80956742Y-100628421D02*
X80718647Y-100628421D01*
X80718647Y-100628421D02*
X80623409Y-100676040D01*
X80623409Y-100676040D02*
X80575790Y-100723659D01*
X80575790Y-100723659D02*
X80528171Y-100818897D01*
X80528171Y-100818897D02*
X80528171Y-101009373D01*
X80528171Y-101009373D02*
X80575790Y-101104611D01*
X80575790Y-101104611D02*
X80623409Y-101152230D01*
X80623409Y-101152230D02*
X80718647Y-101199849D01*
X81147219Y-98866516D02*
X80671028Y-99199849D01*
X81147219Y-99437944D02*
X80147219Y-99437944D01*
X80147219Y-99437944D02*
X80147219Y-99056992D01*
X80147219Y-99056992D02*
X80194838Y-98961754D01*
X80194838Y-98961754D02*
X80242457Y-98914135D01*
X80242457Y-98914135D02*
X80337695Y-98866516D01*
X80337695Y-98866516D02*
X80480552Y-98866516D01*
X80480552Y-98866516D02*
X80575790Y-98914135D01*
X80575790Y-98914135D02*
X80623409Y-98961754D01*
X80623409Y-98961754D02*
X80671028Y-99056992D01*
X80671028Y-99056992D02*
X80671028Y-99437944D01*
X80194838Y-97914135D02*
X80147219Y-98009373D01*
X80147219Y-98009373D02*
X80147219Y-98152230D01*
X80147219Y-98152230D02*
X80194838Y-98295087D01*
X80194838Y-98295087D02*
X80290076Y-98390325D01*
X80290076Y-98390325D02*
X80385314Y-98437944D01*
X80385314Y-98437944D02*
X80575790Y-98485563D01*
X80575790Y-98485563D02*
X80718647Y-98485563D01*
X80718647Y-98485563D02*
X80909123Y-98437944D01*
X80909123Y-98437944D02*
X81004361Y-98390325D01*
X81004361Y-98390325D02*
X81099600Y-98295087D01*
X81099600Y-98295087D02*
X81147219Y-98152230D01*
X81147219Y-98152230D02*
X81147219Y-98056992D01*
X81147219Y-98056992D02*
X81099600Y-97914135D01*
X81099600Y-97914135D02*
X81051980Y-97866516D01*
X81051980Y-97866516D02*
X80718647Y-97866516D01*
X80718647Y-97866516D02*
X80718647Y-98056992D01*
X80623409Y-97104611D02*
X80671028Y-96961754D01*
X80671028Y-96961754D02*
X80718647Y-96914135D01*
X80718647Y-96914135D02*
X80813885Y-96866516D01*
X80813885Y-96866516D02*
X80956742Y-96866516D01*
X80956742Y-96866516D02*
X81051980Y-96914135D01*
X81051980Y-96914135D02*
X81099600Y-96961754D01*
X81099600Y-96961754D02*
X81147219Y-97056992D01*
X81147219Y-97056992D02*
X81147219Y-97437944D01*
X81147219Y-97437944D02*
X80147219Y-97437944D01*
X80147219Y-97437944D02*
X80147219Y-97104611D01*
X80147219Y-97104611D02*
X80194838Y-97009373D01*
X80194838Y-97009373D02*
X80242457Y-96961754D01*
X80242457Y-96961754D02*
X80337695Y-96914135D01*
X80337695Y-96914135D02*
X80432933Y-96914135D01*
X80432933Y-96914135D02*
X80528171Y-96961754D01*
X80528171Y-96961754D02*
X80575790Y-97009373D01*
X80575790Y-97009373D02*
X80623409Y-97104611D01*
X80623409Y-97104611D02*
X80623409Y-97437944D01*
X81147219Y-95199849D02*
X81147219Y-95676039D01*
X81147219Y-95676039D02*
X80147219Y-95676039D01*
X80623409Y-94866515D02*
X80623409Y-94533182D01*
X81147219Y-94390325D02*
X81147219Y-94866515D01*
X81147219Y-94866515D02*
X80147219Y-94866515D01*
X80147219Y-94866515D02*
X80147219Y-94390325D01*
X81147219Y-93961753D02*
X80147219Y-93961753D01*
X80147219Y-93961753D02*
X80147219Y-93723658D01*
X80147219Y-93723658D02*
X80194838Y-93580801D01*
X80194838Y-93580801D02*
X80290076Y-93485563D01*
X80290076Y-93485563D02*
X80385314Y-93437944D01*
X80385314Y-93437944D02*
X80575790Y-93390325D01*
X80575790Y-93390325D02*
X80718647Y-93390325D01*
X80718647Y-93390325D02*
X80909123Y-93437944D01*
X80909123Y-93437944D02*
X81004361Y-93485563D01*
X81004361Y-93485563D02*
X81099600Y-93580801D01*
X81099600Y-93580801D02*
X81147219Y-93723658D01*
X81147219Y-93723658D02*
X81147219Y-93961753D01*
X81147219Y-92199848D02*
X80147219Y-92199848D01*
X80147219Y-92199848D02*
X80861504Y-91866515D01*
X80861504Y-91866515D02*
X80147219Y-91533182D01*
X80147219Y-91533182D02*
X81147219Y-91533182D01*
X81147219Y-90628420D02*
X80623409Y-90628420D01*
X80623409Y-90628420D02*
X80528171Y-90676039D01*
X80528171Y-90676039D02*
X80480552Y-90771277D01*
X80480552Y-90771277D02*
X80480552Y-90961753D01*
X80480552Y-90961753D02*
X80528171Y-91056991D01*
X81099600Y-90628420D02*
X81147219Y-90723658D01*
X81147219Y-90723658D02*
X81147219Y-90961753D01*
X81147219Y-90961753D02*
X81099600Y-91056991D01*
X81099600Y-91056991D02*
X81004361Y-91104610D01*
X81004361Y-91104610D02*
X80909123Y-91104610D01*
X80909123Y-91104610D02*
X80813885Y-91056991D01*
X80813885Y-91056991D02*
X80766266Y-90961753D01*
X80766266Y-90961753D02*
X80766266Y-90723658D01*
X80766266Y-90723658D02*
X80718647Y-90628420D01*
X80480552Y-90295086D02*
X80480552Y-89914134D01*
X80147219Y-90152229D02*
X81004361Y-90152229D01*
X81004361Y-90152229D02*
X81099600Y-90104610D01*
X81099600Y-90104610D02*
X81147219Y-90009372D01*
X81147219Y-90009372D02*
X81147219Y-89914134D01*
X81147219Y-89580800D02*
X80480552Y-89580800D01*
X80671028Y-89580800D02*
X80575790Y-89533181D01*
X80575790Y-89533181D02*
X80528171Y-89485562D01*
X80528171Y-89485562D02*
X80480552Y-89390324D01*
X80480552Y-89390324D02*
X80480552Y-89295086D01*
X81147219Y-88961752D02*
X80480552Y-88961752D01*
X80147219Y-88961752D02*
X80194838Y-89009371D01*
X80194838Y-89009371D02*
X80242457Y-88961752D01*
X80242457Y-88961752D02*
X80194838Y-88914133D01*
X80194838Y-88914133D02*
X80147219Y-88961752D01*
X80147219Y-88961752D02*
X80242457Y-88961752D01*
X81147219Y-88580800D02*
X80480552Y-88056991D01*
X80480552Y-88580800D02*
X81147219Y-88056991D01*
X23055054Y-115897600D02*
X23197911Y-115945219D01*
X23197911Y-115945219D02*
X23436006Y-115945219D01*
X23436006Y-115945219D02*
X23531244Y-115897600D01*
X23531244Y-115897600D02*
X23578863Y-115849980D01*
X23578863Y-115849980D02*
X23626482Y-115754742D01*
X23626482Y-115754742D02*
X23626482Y-115659504D01*
X23626482Y-115659504D02*
X23578863Y-115564266D01*
X23578863Y-115564266D02*
X23531244Y-115516647D01*
X23531244Y-115516647D02*
X23436006Y-115469028D01*
X23436006Y-115469028D02*
X23245530Y-115421409D01*
X23245530Y-115421409D02*
X23150292Y-115373790D01*
X23150292Y-115373790D02*
X23102673Y-115326171D01*
X23102673Y-115326171D02*
X23055054Y-115230933D01*
X23055054Y-115230933D02*
X23055054Y-115135695D01*
X23055054Y-115135695D02*
X23102673Y-115040457D01*
X23102673Y-115040457D02*
X23150292Y-114992838D01*
X23150292Y-114992838D02*
X23245530Y-114945219D01*
X23245530Y-114945219D02*
X23483625Y-114945219D01*
X23483625Y-114945219D02*
X23626482Y-114992838D01*
X24055054Y-115945219D02*
X24055054Y-114945219D01*
X24150292Y-115564266D02*
X24436006Y-115945219D01*
X24436006Y-115278552D02*
X24055054Y-115659504D01*
X24769340Y-115278552D02*
X25007435Y-115945219D01*
X25245530Y-115278552D02*
X25007435Y-115945219D01*
X25007435Y-115945219D02*
X24912197Y-116183314D01*
X24912197Y-116183314D02*
X24864578Y-116230933D01*
X24864578Y-116230933D02*
X24769340Y-116278552D01*
X26007435Y-115897600D02*
X25912197Y-115945219D01*
X25912197Y-115945219D02*
X25721721Y-115945219D01*
X25721721Y-115945219D02*
X25626483Y-115897600D01*
X25626483Y-115897600D02*
X25578864Y-115802361D01*
X25578864Y-115802361D02*
X25578864Y-115421409D01*
X25578864Y-115421409D02*
X25626483Y-115326171D01*
X25626483Y-115326171D02*
X25721721Y-115278552D01*
X25721721Y-115278552D02*
X25912197Y-115278552D01*
X25912197Y-115278552D02*
X26007435Y-115326171D01*
X26007435Y-115326171D02*
X26055054Y-115421409D01*
X26055054Y-115421409D02*
X26055054Y-115516647D01*
X26055054Y-115516647D02*
X25578864Y-115611885D01*
X27245531Y-115945219D02*
X27245531Y-114945219D01*
X27245531Y-114945219D02*
X27626483Y-114945219D01*
X27626483Y-114945219D02*
X27721721Y-114992838D01*
X27721721Y-114992838D02*
X27769340Y-115040457D01*
X27769340Y-115040457D02*
X27816959Y-115135695D01*
X27816959Y-115135695D02*
X27816959Y-115278552D01*
X27816959Y-115278552D02*
X27769340Y-115373790D01*
X27769340Y-115373790D02*
X27721721Y-115421409D01*
X27721721Y-115421409D02*
X27626483Y-115469028D01*
X27626483Y-115469028D02*
X27245531Y-115469028D01*
X28388388Y-115945219D02*
X28293150Y-115897600D01*
X28293150Y-115897600D02*
X28245531Y-115849980D01*
X28245531Y-115849980D02*
X28197912Y-115754742D01*
X28197912Y-115754742D02*
X28197912Y-115469028D01*
X28197912Y-115469028D02*
X28245531Y-115373790D01*
X28245531Y-115373790D02*
X28293150Y-115326171D01*
X28293150Y-115326171D02*
X28388388Y-115278552D01*
X28388388Y-115278552D02*
X28531245Y-115278552D01*
X28531245Y-115278552D02*
X28626483Y-115326171D01*
X28626483Y-115326171D02*
X28674102Y-115373790D01*
X28674102Y-115373790D02*
X28721721Y-115469028D01*
X28721721Y-115469028D02*
X28721721Y-115754742D01*
X28721721Y-115754742D02*
X28674102Y-115849980D01*
X28674102Y-115849980D02*
X28626483Y-115897600D01*
X28626483Y-115897600D02*
X28531245Y-115945219D01*
X28531245Y-115945219D02*
X28388388Y-115945219D01*
X29293150Y-115945219D02*
X29197912Y-115897600D01*
X29197912Y-115897600D02*
X29150293Y-115849980D01*
X29150293Y-115849980D02*
X29102674Y-115754742D01*
X29102674Y-115754742D02*
X29102674Y-115469028D01*
X29102674Y-115469028D02*
X29150293Y-115373790D01*
X29150293Y-115373790D02*
X29197912Y-115326171D01*
X29197912Y-115326171D02*
X29293150Y-115278552D01*
X29293150Y-115278552D02*
X29436007Y-115278552D01*
X29436007Y-115278552D02*
X29531245Y-115326171D01*
X29531245Y-115326171D02*
X29578864Y-115373790D01*
X29578864Y-115373790D02*
X29626483Y-115469028D01*
X29626483Y-115469028D02*
X29626483Y-115754742D01*
X29626483Y-115754742D02*
X29578864Y-115849980D01*
X29578864Y-115849980D02*
X29531245Y-115897600D01*
X29531245Y-115897600D02*
X29436007Y-115945219D01*
X29436007Y-115945219D02*
X29293150Y-115945219D01*
X30197912Y-115945219D02*
X30102674Y-115897600D01*
X30102674Y-115897600D02*
X30055055Y-115802361D01*
X30055055Y-115802361D02*
X30055055Y-114945219D01*
X30959817Y-115897600D02*
X30864579Y-115945219D01*
X30864579Y-115945219D02*
X30674103Y-115945219D01*
X30674103Y-115945219D02*
X30578865Y-115897600D01*
X30578865Y-115897600D02*
X30531246Y-115802361D01*
X30531246Y-115802361D02*
X30531246Y-115421409D01*
X30531246Y-115421409D02*
X30578865Y-115326171D01*
X30578865Y-115326171D02*
X30674103Y-115278552D01*
X30674103Y-115278552D02*
X30864579Y-115278552D01*
X30864579Y-115278552D02*
X30959817Y-115326171D01*
X30959817Y-115326171D02*
X31007436Y-115421409D01*
X31007436Y-115421409D02*
X31007436Y-115516647D01*
X31007436Y-115516647D02*
X30531246Y-115611885D01*
X31340770Y-115278552D02*
X31578865Y-115945219D01*
X31816960Y-115278552D02*
X31578865Y-115945219D01*
X31578865Y-115945219D02*
X31483627Y-116183314D01*
X31483627Y-116183314D02*
X31436008Y-116230933D01*
X31436008Y-116230933D02*
X31340770Y-116278552D01*
X32912199Y-115040457D02*
X32959818Y-114992838D01*
X32959818Y-114992838D02*
X33055056Y-114945219D01*
X33055056Y-114945219D02*
X33293151Y-114945219D01*
X33293151Y-114945219D02*
X33388389Y-114992838D01*
X33388389Y-114992838D02*
X33436008Y-115040457D01*
X33436008Y-115040457D02*
X33483627Y-115135695D01*
X33483627Y-115135695D02*
X33483627Y-115230933D01*
X33483627Y-115230933D02*
X33436008Y-115373790D01*
X33436008Y-115373790D02*
X32864580Y-115945219D01*
X32864580Y-115945219D02*
X33483627Y-115945219D01*
X33864580Y-115040457D02*
X33912199Y-114992838D01*
X33912199Y-114992838D02*
X34007437Y-114945219D01*
X34007437Y-114945219D02*
X34245532Y-114945219D01*
X34245532Y-114945219D02*
X34340770Y-114992838D01*
X34340770Y-114992838D02*
X34388389Y-115040457D01*
X34388389Y-115040457D02*
X34436008Y-115135695D01*
X34436008Y-115135695D02*
X34436008Y-115230933D01*
X34436008Y-115230933D02*
X34388389Y-115373790D01*
X34388389Y-115373790D02*
X33816961Y-115945219D01*
X33816961Y-115945219D02*
X34436008Y-115945219D01*
X35388389Y-115945219D02*
X34816961Y-115945219D01*
X35102675Y-115945219D02*
X35102675Y-114945219D01*
X35102675Y-114945219D02*
X35007437Y-115088076D01*
X35007437Y-115088076D02*
X34912199Y-115183314D01*
X34912199Y-115183314D02*
X34816961Y-115230933D01*
X35721723Y-114945219D02*
X36388389Y-114945219D01*
X36388389Y-114945219D02*
X35959818Y-115945219D01*
X36816961Y-115945219D02*
X37007437Y-115945219D01*
X37007437Y-115945219D02*
X37102675Y-115897600D01*
X37102675Y-115897600D02*
X37150294Y-115849980D01*
X37150294Y-115849980D02*
X37245532Y-115707123D01*
X37245532Y-115707123D02*
X37293151Y-115516647D01*
X37293151Y-115516647D02*
X37293151Y-115135695D01*
X37293151Y-115135695D02*
X37245532Y-115040457D01*
X37245532Y-115040457D02*
X37197913Y-114992838D01*
X37197913Y-114992838D02*
X37102675Y-114945219D01*
X37102675Y-114945219D02*
X36912199Y-114945219D01*
X36912199Y-114945219D02*
X36816961Y-114992838D01*
X36816961Y-114992838D02*
X36769342Y-115040457D01*
X36769342Y-115040457D02*
X36721723Y-115135695D01*
X36721723Y-115135695D02*
X36721723Y-115373790D01*
X36721723Y-115373790D02*
X36769342Y-115469028D01*
X36769342Y-115469028D02*
X36816961Y-115516647D01*
X36816961Y-115516647D02*
X36912199Y-115564266D01*
X36912199Y-115564266D02*
X37102675Y-115564266D01*
X37102675Y-115564266D02*
X37197913Y-115516647D01*
X37197913Y-115516647D02*
X37245532Y-115469028D01*
X37245532Y-115469028D02*
X37293151Y-115373790D01*
X37674104Y-115040457D02*
X37721723Y-114992838D01*
X37721723Y-114992838D02*
X37816961Y-114945219D01*
X37816961Y-114945219D02*
X38055056Y-114945219D01*
X38055056Y-114945219D02*
X38150294Y-114992838D01*
X38150294Y-114992838D02*
X38197913Y-115040457D01*
X38197913Y-115040457D02*
X38245532Y-115135695D01*
X38245532Y-115135695D02*
X38245532Y-115230933D01*
X38245532Y-115230933D02*
X38197913Y-115373790D01*
X38197913Y-115373790D02*
X37626485Y-115945219D01*
X37626485Y-115945219D02*
X38245532Y-115945219D01*
X38578866Y-114945219D02*
X39197913Y-114945219D01*
X39197913Y-114945219D02*
X38864580Y-115326171D01*
X38864580Y-115326171D02*
X39007437Y-115326171D01*
X39007437Y-115326171D02*
X39102675Y-115373790D01*
X39102675Y-115373790D02*
X39150294Y-115421409D01*
X39150294Y-115421409D02*
X39197913Y-115516647D01*
X39197913Y-115516647D02*
X39197913Y-115754742D01*
X39197913Y-115754742D02*
X39150294Y-115849980D01*
X39150294Y-115849980D02*
X39102675Y-115897600D01*
X39102675Y-115897600D02*
X39007437Y-115945219D01*
X39007437Y-115945219D02*
X38721723Y-115945219D01*
X38721723Y-115945219D02*
X38626485Y-115897600D01*
X38626485Y-115897600D02*
X38578866Y-115849980D01*
X39531247Y-114945219D02*
X40197913Y-114945219D01*
X40197913Y-114945219D02*
X39769342Y-115945219D01*
D13*
X23231422Y-110151547D02*
X23231422Y-107651547D01*
X23231422Y-107651547D02*
X24183803Y-107651547D01*
X24183803Y-107651547D02*
X24421898Y-107770595D01*
X24421898Y-107770595D02*
X24540945Y-107889642D01*
X24540945Y-107889642D02*
X24659993Y-108127738D01*
X24659993Y-108127738D02*
X24659993Y-108484880D01*
X24659993Y-108484880D02*
X24540945Y-108722976D01*
X24540945Y-108722976D02*
X24421898Y-108842023D01*
X24421898Y-108842023D02*
X24183803Y-108961071D01*
X24183803Y-108961071D02*
X23231422Y-108961071D01*
X26207612Y-107651547D02*
X26683803Y-107651547D01*
X26683803Y-107651547D02*
X26921898Y-107770595D01*
X26921898Y-107770595D02*
X27159993Y-108008690D01*
X27159993Y-108008690D02*
X27279041Y-108484880D01*
X27279041Y-108484880D02*
X27279041Y-109318214D01*
X27279041Y-109318214D02*
X27159993Y-109794404D01*
X27159993Y-109794404D02*
X26921898Y-110032500D01*
X26921898Y-110032500D02*
X26683803Y-110151547D01*
X26683803Y-110151547D02*
X26207612Y-110151547D01*
X26207612Y-110151547D02*
X25969517Y-110032500D01*
X25969517Y-110032500D02*
X25731422Y-109794404D01*
X25731422Y-109794404D02*
X25612374Y-109318214D01*
X25612374Y-109318214D02*
X25612374Y-108484880D01*
X25612374Y-108484880D02*
X25731422Y-108008690D01*
X25731422Y-108008690D02*
X25969517Y-107770595D01*
X25969517Y-107770595D02*
X26207612Y-107651547D01*
X28350470Y-110151547D02*
X28350470Y-107651547D01*
X28350470Y-107651547D02*
X29779041Y-110151547D01*
X29779041Y-110151547D02*
X29779041Y-107651547D01*
X32279041Y-107770595D02*
X32040946Y-107651547D01*
X32040946Y-107651547D02*
X31683803Y-107651547D01*
X31683803Y-107651547D02*
X31326660Y-107770595D01*
X31326660Y-107770595D02*
X31088565Y-108008690D01*
X31088565Y-108008690D02*
X30969518Y-108246785D01*
X30969518Y-108246785D02*
X30850470Y-108722976D01*
X30850470Y-108722976D02*
X30850470Y-109080119D01*
X30850470Y-109080119D02*
X30969518Y-109556309D01*
X30969518Y-109556309D02*
X31088565Y-109794404D01*
X31088565Y-109794404D02*
X31326660Y-110032500D01*
X31326660Y-110032500D02*
X31683803Y-110151547D01*
X31683803Y-110151547D02*
X31921899Y-110151547D01*
X31921899Y-110151547D02*
X32279041Y-110032500D01*
X32279041Y-110032500D02*
X32398089Y-109913452D01*
X32398089Y-109913452D02*
X32398089Y-109080119D01*
X32398089Y-109080119D02*
X31921899Y-109080119D01*
D11*
X23033510Y-112680114D02*
X23533510Y-112680114D01*
X23747796Y-113465828D02*
X23033510Y-113465828D01*
X23033510Y-113465828D02*
X23033510Y-111965828D01*
X23033510Y-111965828D02*
X23747796Y-111965828D01*
X24390653Y-113465828D02*
X24390653Y-111965828D01*
X24390653Y-111965828D02*
X25247796Y-113465828D01*
X25247796Y-113465828D02*
X25247796Y-111965828D01*
X25962082Y-112680114D02*
X26462082Y-112680114D01*
X26676368Y-113465828D02*
X25962082Y-113465828D01*
X25962082Y-113465828D02*
X25962082Y-111965828D01*
X25962082Y-111965828D02*
X26676368Y-111965828D01*
X28033511Y-113465828D02*
X27319225Y-113465828D01*
X27319225Y-113465828D02*
X27319225Y-111965828D01*
X29247797Y-111965828D02*
X28533511Y-111965828D01*
X28533511Y-111965828D02*
X28462083Y-112680114D01*
X28462083Y-112680114D02*
X28533511Y-112608685D01*
X28533511Y-112608685D02*
X28676369Y-112537257D01*
X28676369Y-112537257D02*
X29033511Y-112537257D01*
X29033511Y-112537257D02*
X29176369Y-112608685D01*
X29176369Y-112608685D02*
X29247797Y-112680114D01*
X29247797Y-112680114D02*
X29319226Y-112822971D01*
X29319226Y-112822971D02*
X29319226Y-113180114D01*
X29319226Y-113180114D02*
X29247797Y-113322971D01*
X29247797Y-113322971D02*
X29176369Y-113394400D01*
X29176369Y-113394400D02*
X29033511Y-113465828D01*
X29033511Y-113465828D02*
X28676369Y-113465828D01*
X28676369Y-113465828D02*
X28533511Y-113394400D01*
X28533511Y-113394400D02*
X28462083Y-113322971D01*
X30033511Y-113465828D02*
X30319225Y-113465828D01*
X30319225Y-113465828D02*
X30462082Y-113394400D01*
X30462082Y-113394400D02*
X30533511Y-113322971D01*
X30533511Y-113322971D02*
X30676368Y-113108685D01*
X30676368Y-113108685D02*
X30747797Y-112822971D01*
X30747797Y-112822971D02*
X30747797Y-112251542D01*
X30747797Y-112251542D02*
X30676368Y-112108685D01*
X30676368Y-112108685D02*
X30604940Y-112037257D01*
X30604940Y-112037257D02*
X30462082Y-111965828D01*
X30462082Y-111965828D02*
X30176368Y-111965828D01*
X30176368Y-111965828D02*
X30033511Y-112037257D01*
X30033511Y-112037257D02*
X29962082Y-112108685D01*
X29962082Y-112108685D02*
X29890654Y-112251542D01*
X29890654Y-112251542D02*
X29890654Y-112608685D01*
X29890654Y-112608685D02*
X29962082Y-112751542D01*
X29962082Y-112751542D02*
X30033511Y-112822971D01*
X30033511Y-112822971D02*
X30176368Y-112894400D01*
X30176368Y-112894400D02*
X30462082Y-112894400D01*
X30462082Y-112894400D02*
X30604940Y-112822971D01*
X30604940Y-112822971D02*
X30676368Y-112751542D01*
X30676368Y-112751542D02*
X30747797Y-112608685D01*
X31462082Y-113465828D02*
X31747796Y-113465828D01*
X31747796Y-113465828D02*
X31890653Y-113394400D01*
X31890653Y-113394400D02*
X31962082Y-113322971D01*
X31962082Y-113322971D02*
X32104939Y-113108685D01*
X32104939Y-113108685D02*
X32176368Y-112822971D01*
X32176368Y-112822971D02*
X32176368Y-112251542D01*
X32176368Y-112251542D02*
X32104939Y-112108685D01*
X32104939Y-112108685D02*
X32033511Y-112037257D01*
X32033511Y-112037257D02*
X31890653Y-111965828D01*
X31890653Y-111965828D02*
X31604939Y-111965828D01*
X31604939Y-111965828D02*
X31462082Y-112037257D01*
X31462082Y-112037257D02*
X31390653Y-112108685D01*
X31390653Y-112108685D02*
X31319225Y-112251542D01*
X31319225Y-112251542D02*
X31319225Y-112608685D01*
X31319225Y-112608685D02*
X31390653Y-112751542D01*
X31390653Y-112751542D02*
X31462082Y-112822971D01*
X31462082Y-112822971D02*
X31604939Y-112894400D01*
X31604939Y-112894400D02*
X31890653Y-112894400D01*
X31890653Y-112894400D02*
X32033511Y-112822971D01*
X32033511Y-112822971D02*
X32104939Y-112751542D01*
X32104939Y-112751542D02*
X32176368Y-112608685D01*
X34462081Y-112680114D02*
X33962081Y-112680114D01*
X33962081Y-113465828D02*
X33962081Y-111965828D01*
X33962081Y-111965828D02*
X34676367Y-111965828D01*
X35247795Y-113465828D02*
X35247795Y-112465828D01*
X35247795Y-111965828D02*
X35176367Y-112037257D01*
X35176367Y-112037257D02*
X35247795Y-112108685D01*
X35247795Y-112108685D02*
X35319224Y-112037257D01*
X35319224Y-112037257D02*
X35247795Y-111965828D01*
X35247795Y-111965828D02*
X35247795Y-112108685D01*
X35962081Y-112465828D02*
X35962081Y-113465828D01*
X35962081Y-112608685D02*
X36033510Y-112537257D01*
X36033510Y-112537257D02*
X36176367Y-112465828D01*
X36176367Y-112465828D02*
X36390653Y-112465828D01*
X36390653Y-112465828D02*
X36533510Y-112537257D01*
X36533510Y-112537257D02*
X36604939Y-112680114D01*
X36604939Y-112680114D02*
X36604939Y-113465828D01*
X37962082Y-113465828D02*
X37962082Y-112680114D01*
X37962082Y-112680114D02*
X37890653Y-112537257D01*
X37890653Y-112537257D02*
X37747796Y-112465828D01*
X37747796Y-112465828D02*
X37462082Y-112465828D01*
X37462082Y-112465828D02*
X37319224Y-112537257D01*
X37962082Y-113394400D02*
X37819224Y-113465828D01*
X37819224Y-113465828D02*
X37462082Y-113465828D01*
X37462082Y-113465828D02*
X37319224Y-113394400D01*
X37319224Y-113394400D02*
X37247796Y-113251542D01*
X37247796Y-113251542D02*
X37247796Y-113108685D01*
X37247796Y-113108685D02*
X37319224Y-112965828D01*
X37319224Y-112965828D02*
X37462082Y-112894400D01*
X37462082Y-112894400D02*
X37819224Y-112894400D01*
X37819224Y-112894400D02*
X37962082Y-112822971D01*
X38890653Y-113465828D02*
X38747796Y-113394400D01*
X38747796Y-113394400D02*
X38676367Y-113251542D01*
X38676367Y-113251542D02*
X38676367Y-111965828D01*
X40604938Y-113465828D02*
X40604938Y-111965828D01*
X40604938Y-111965828D02*
X41176367Y-111965828D01*
X41176367Y-111965828D02*
X41319224Y-112037257D01*
X41319224Y-112037257D02*
X41390653Y-112108685D01*
X41390653Y-112108685D02*
X41462081Y-112251542D01*
X41462081Y-112251542D02*
X41462081Y-112465828D01*
X41462081Y-112465828D02*
X41390653Y-112608685D01*
X41390653Y-112608685D02*
X41319224Y-112680114D01*
X41319224Y-112680114D02*
X41176367Y-112751542D01*
X41176367Y-112751542D02*
X40604938Y-112751542D01*
X42104938Y-113465828D02*
X42104938Y-112465828D01*
X42104938Y-112751542D02*
X42176367Y-112608685D01*
X42176367Y-112608685D02*
X42247796Y-112537257D01*
X42247796Y-112537257D02*
X42390653Y-112465828D01*
X42390653Y-112465828D02*
X42533510Y-112465828D01*
X43247795Y-113465828D02*
X43104938Y-113394400D01*
X43104938Y-113394400D02*
X43033509Y-113322971D01*
X43033509Y-113322971D02*
X42962081Y-113180114D01*
X42962081Y-113180114D02*
X42962081Y-112751542D01*
X42962081Y-112751542D02*
X43033509Y-112608685D01*
X43033509Y-112608685D02*
X43104938Y-112537257D01*
X43104938Y-112537257D02*
X43247795Y-112465828D01*
X43247795Y-112465828D02*
X43462081Y-112465828D01*
X43462081Y-112465828D02*
X43604938Y-112537257D01*
X43604938Y-112537257D02*
X43676367Y-112608685D01*
X43676367Y-112608685D02*
X43747795Y-112751542D01*
X43747795Y-112751542D02*
X43747795Y-113180114D01*
X43747795Y-113180114D02*
X43676367Y-113322971D01*
X43676367Y-113322971D02*
X43604938Y-113394400D01*
X43604938Y-113394400D02*
X43462081Y-113465828D01*
X43462081Y-113465828D02*
X43247795Y-113465828D01*
X44390652Y-112465828D02*
X44390652Y-113751542D01*
X44390652Y-113751542D02*
X44319224Y-113894400D01*
X44319224Y-113894400D02*
X44176367Y-113965828D01*
X44176367Y-113965828D02*
X44104938Y-113965828D01*
X44390652Y-111965828D02*
X44319224Y-112037257D01*
X44319224Y-112037257D02*
X44390652Y-112108685D01*
X44390652Y-112108685D02*
X44462081Y-112037257D01*
X44462081Y-112037257D02*
X44390652Y-111965828D01*
X44390652Y-111965828D02*
X44390652Y-112108685D01*
X45676367Y-113394400D02*
X45533510Y-113465828D01*
X45533510Y-113465828D02*
X45247796Y-113465828D01*
X45247796Y-113465828D02*
X45104938Y-113394400D01*
X45104938Y-113394400D02*
X45033510Y-113251542D01*
X45033510Y-113251542D02*
X45033510Y-112680114D01*
X45033510Y-112680114D02*
X45104938Y-112537257D01*
X45104938Y-112537257D02*
X45247796Y-112465828D01*
X45247796Y-112465828D02*
X45533510Y-112465828D01*
X45533510Y-112465828D02*
X45676367Y-112537257D01*
X45676367Y-112537257D02*
X45747796Y-112680114D01*
X45747796Y-112680114D02*
X45747796Y-112822971D01*
X45747796Y-112822971D02*
X45033510Y-112965828D01*
X47033510Y-113394400D02*
X46890652Y-113465828D01*
X46890652Y-113465828D02*
X46604938Y-113465828D01*
X46604938Y-113465828D02*
X46462081Y-113394400D01*
X46462081Y-113394400D02*
X46390652Y-113322971D01*
X46390652Y-113322971D02*
X46319224Y-113180114D01*
X46319224Y-113180114D02*
X46319224Y-112751542D01*
X46319224Y-112751542D02*
X46390652Y-112608685D01*
X46390652Y-112608685D02*
X46462081Y-112537257D01*
X46462081Y-112537257D02*
X46604938Y-112465828D01*
X46604938Y-112465828D02*
X46890652Y-112465828D01*
X46890652Y-112465828D02*
X47033510Y-112537257D01*
X47462081Y-112465828D02*
X48033509Y-112465828D01*
X47676366Y-111965828D02*
X47676366Y-113251542D01*
X47676366Y-113251542D02*
X47747795Y-113394400D01*
X47747795Y-113394400D02*
X47890652Y-113465828D01*
X47890652Y-113465828D02*
X48033509Y-113465828D01*
D14*
X47488095Y-42409819D02*
X47488095Y-43219342D01*
X47488095Y-43219342D02*
X47535714Y-43314580D01*
X47535714Y-43314580D02*
X47583333Y-43362200D01*
X47583333Y-43362200D02*
X47678571Y-43409819D01*
X47678571Y-43409819D02*
X47869047Y-43409819D01*
X47869047Y-43409819D02*
X47964285Y-43362200D01*
X47964285Y-43362200D02*
X48011904Y-43314580D01*
X48011904Y-43314580D02*
X48059523Y-43219342D01*
X48059523Y-43219342D02*
X48059523Y-42409819D01*
X49059523Y-43409819D02*
X48488095Y-43409819D01*
X48773809Y-43409819D02*
X48773809Y-42409819D01*
X48773809Y-42409819D02*
X48678571Y-42552676D01*
X48678571Y-42552676D02*
X48583333Y-42647914D01*
X48583333Y-42647914D02*
X48488095Y-42695533D01*
X69999819Y-65501904D02*
X70809342Y-65501904D01*
X70809342Y-65501904D02*
X70904580Y-65454285D01*
X70904580Y-65454285D02*
X70952200Y-65406666D01*
X70952200Y-65406666D02*
X70999819Y-65311428D01*
X70999819Y-65311428D02*
X70999819Y-65120952D01*
X70999819Y-65120952D02*
X70952200Y-65025714D01*
X70952200Y-65025714D02*
X70904580Y-64978095D01*
X70904580Y-64978095D02*
X70809342Y-64930476D01*
X70809342Y-64930476D02*
X69999819Y-64930476D01*
X70333152Y-64025714D02*
X70999819Y-64025714D01*
X69952200Y-64263809D02*
X70666485Y-64501904D01*
X70666485Y-64501904D02*
X70666485Y-63882857D01*
X69999819Y-41249404D02*
X70809342Y-41249404D01*
X70809342Y-41249404D02*
X70904580Y-41201785D01*
X70904580Y-41201785D02*
X70952200Y-41154166D01*
X70952200Y-41154166D02*
X70999819Y-41058928D01*
X70999819Y-41058928D02*
X70999819Y-40868452D01*
X70999819Y-40868452D02*
X70952200Y-40773214D01*
X70952200Y-40773214D02*
X70904580Y-40725595D01*
X70904580Y-40725595D02*
X70809342Y-40677976D01*
X70809342Y-40677976D02*
X69999819Y-40677976D01*
X69999819Y-40297023D02*
X69999819Y-39677976D01*
X69999819Y-39677976D02*
X70380771Y-40011309D01*
X70380771Y-40011309D02*
X70380771Y-39868452D01*
X70380771Y-39868452D02*
X70428390Y-39773214D01*
X70428390Y-39773214D02*
X70476009Y-39725595D01*
X70476009Y-39725595D02*
X70571247Y-39677976D01*
X70571247Y-39677976D02*
X70809342Y-39677976D01*
X70809342Y-39677976D02*
X70904580Y-39725595D01*
X70904580Y-39725595D02*
X70952200Y-39773214D01*
X70952200Y-39773214D02*
X70999819Y-39868452D01*
X70999819Y-39868452D02*
X70999819Y-40154166D01*
X70999819Y-40154166D02*
X70952200Y-40249404D01*
X70952200Y-40249404D02*
X70904580Y-40297023D01*
X47488095Y-69079819D02*
X47488095Y-69889342D01*
X47488095Y-69889342D02*
X47535714Y-69984580D01*
X47535714Y-69984580D02*
X47583333Y-70032200D01*
X47583333Y-70032200D02*
X47678571Y-70079819D01*
X47678571Y-70079819D02*
X47869047Y-70079819D01*
X47869047Y-70079819D02*
X47964285Y-70032200D01*
X47964285Y-70032200D02*
X48011904Y-69984580D01*
X48011904Y-69984580D02*
X48059523Y-69889342D01*
X48059523Y-69889342D02*
X48059523Y-69079819D01*
X48488095Y-69175057D02*
X48535714Y-69127438D01*
X48535714Y-69127438D02*
X48630952Y-69079819D01*
X48630952Y-69079819D02*
X48869047Y-69079819D01*
X48869047Y-69079819D02*
X48964285Y-69127438D01*
X48964285Y-69127438D02*
X49011904Y-69175057D01*
X49011904Y-69175057D02*
X49059523Y-69270295D01*
X49059523Y-69270295D02*
X49059523Y-69365533D01*
X49059523Y-69365533D02*
X49011904Y-69508390D01*
X49011904Y-69508390D02*
X48440476Y-70079819D01*
X48440476Y-70079819D02*
X49059523Y-70079819D01*
X28711667Y-85282200D02*
X28854524Y-85329819D01*
X28854524Y-85329819D02*
X29092619Y-85329819D01*
X29092619Y-85329819D02*
X29187857Y-85282200D01*
X29187857Y-85282200D02*
X29235476Y-85234580D01*
X29235476Y-85234580D02*
X29283095Y-85139342D01*
X29283095Y-85139342D02*
X29283095Y-85044104D01*
X29283095Y-85044104D02*
X29235476Y-84948866D01*
X29235476Y-84948866D02*
X29187857Y-84901247D01*
X29187857Y-84901247D02*
X29092619Y-84853628D01*
X29092619Y-84853628D02*
X28902143Y-84806009D01*
X28902143Y-84806009D02*
X28806905Y-84758390D01*
X28806905Y-84758390D02*
X28759286Y-84710771D01*
X28759286Y-84710771D02*
X28711667Y-84615533D01*
X28711667Y-84615533D02*
X28711667Y-84520295D01*
X28711667Y-84520295D02*
X28759286Y-84425057D01*
X28759286Y-84425057D02*
X28806905Y-84377438D01*
X28806905Y-84377438D02*
X28902143Y-84329819D01*
X28902143Y-84329819D02*
X29140238Y-84329819D01*
X29140238Y-84329819D02*
X29283095Y-84377438D01*
X29616429Y-84329819D02*
X29854524Y-85329819D01*
X29854524Y-85329819D02*
X30045000Y-84615533D01*
X30045000Y-84615533D02*
X30235476Y-85329819D01*
X30235476Y-85329819D02*
X30473572Y-84329819D01*
X31378333Y-85329819D02*
X30806905Y-85329819D01*
X31092619Y-85329819D02*
X31092619Y-84329819D01*
X31092619Y-84329819D02*
X30997381Y-84472676D01*
X30997381Y-84472676D02*
X30902143Y-84567914D01*
X30902143Y-84567914D02*
X30806905Y-84615533D01*
X20349761Y-75749819D02*
X20016428Y-75273628D01*
X19778333Y-75749819D02*
X19778333Y-74749819D01*
X19778333Y-74749819D02*
X20159285Y-74749819D01*
X20159285Y-74749819D02*
X20254523Y-74797438D01*
X20254523Y-74797438D02*
X20302142Y-74845057D01*
X20302142Y-74845057D02*
X20349761Y-74940295D01*
X20349761Y-74940295D02*
X20349761Y-75083152D01*
X20349761Y-75083152D02*
X20302142Y-75178390D01*
X20302142Y-75178390D02*
X20254523Y-75226009D01*
X20254523Y-75226009D02*
X20159285Y-75273628D01*
X20159285Y-75273628D02*
X19778333Y-75273628D01*
X20635476Y-74749819D02*
X20968809Y-75749819D01*
X20968809Y-75749819D02*
X21302142Y-74749819D01*
X21587857Y-74845057D02*
X21635476Y-74797438D01*
X21635476Y-74797438D02*
X21730714Y-74749819D01*
X21730714Y-74749819D02*
X21968809Y-74749819D01*
X21968809Y-74749819D02*
X22064047Y-74797438D01*
X22064047Y-74797438D02*
X22111666Y-74845057D01*
X22111666Y-74845057D02*
X22159285Y-74940295D01*
X22159285Y-74940295D02*
X22159285Y-75035533D01*
X22159285Y-75035533D02*
X22111666Y-75178390D01*
X22111666Y-75178390D02*
X21540238Y-75749819D01*
X21540238Y-75749819D02*
X22159285Y-75749819D01*
X20419761Y-85274819D02*
X20086428Y-84798628D01*
X19848333Y-85274819D02*
X19848333Y-84274819D01*
X19848333Y-84274819D02*
X20229285Y-84274819D01*
X20229285Y-84274819D02*
X20324523Y-84322438D01*
X20324523Y-84322438D02*
X20372142Y-84370057D01*
X20372142Y-84370057D02*
X20419761Y-84465295D01*
X20419761Y-84465295D02*
X20419761Y-84608152D01*
X20419761Y-84608152D02*
X20372142Y-84703390D01*
X20372142Y-84703390D02*
X20324523Y-84751009D01*
X20324523Y-84751009D02*
X20229285Y-84798628D01*
X20229285Y-84798628D02*
X19848333Y-84798628D01*
X20705476Y-84274819D02*
X21038809Y-85274819D01*
X21038809Y-85274819D02*
X21372142Y-84274819D01*
X22229285Y-85274819D02*
X21657857Y-85274819D01*
X21943571Y-85274819D02*
X21943571Y-84274819D01*
X21943571Y-84274819D02*
X21848333Y-84417676D01*
X21848333Y-84417676D02*
X21753095Y-84512914D01*
X21753095Y-84512914D02*
X21657857Y-84560533D01*
X33012142Y-66029819D02*
X32678809Y-65553628D01*
X32440714Y-66029819D02*
X32440714Y-65029819D01*
X32440714Y-65029819D02*
X32821666Y-65029819D01*
X32821666Y-65029819D02*
X32916904Y-65077438D01*
X32916904Y-65077438D02*
X32964523Y-65125057D01*
X32964523Y-65125057D02*
X33012142Y-65220295D01*
X33012142Y-65220295D02*
X33012142Y-65363152D01*
X33012142Y-65363152D02*
X32964523Y-65458390D01*
X32964523Y-65458390D02*
X32916904Y-65506009D01*
X32916904Y-65506009D02*
X32821666Y-65553628D01*
X32821666Y-65553628D02*
X32440714Y-65553628D01*
X33964523Y-66029819D02*
X33393095Y-66029819D01*
X33678809Y-66029819D02*
X33678809Y-65029819D01*
X33678809Y-65029819D02*
X33583571Y-65172676D01*
X33583571Y-65172676D02*
X33488333Y-65267914D01*
X33488333Y-65267914D02*
X33393095Y-65315533D01*
X34869285Y-65029819D02*
X34393095Y-65029819D01*
X34393095Y-65029819D02*
X34345476Y-65506009D01*
X34345476Y-65506009D02*
X34393095Y-65458390D01*
X34393095Y-65458390D02*
X34488333Y-65410771D01*
X34488333Y-65410771D02*
X34726428Y-65410771D01*
X34726428Y-65410771D02*
X34821666Y-65458390D01*
X34821666Y-65458390D02*
X34869285Y-65506009D01*
X34869285Y-65506009D02*
X34916904Y-65601247D01*
X34916904Y-65601247D02*
X34916904Y-65839342D01*
X34916904Y-65839342D02*
X34869285Y-65934580D01*
X34869285Y-65934580D02*
X34821666Y-65982200D01*
X34821666Y-65982200D02*
X34726428Y-66029819D01*
X34726428Y-66029819D02*
X34488333Y-66029819D01*
X34488333Y-66029819D02*
X34393095Y-65982200D01*
X34393095Y-65982200D02*
X34345476Y-65934580D01*
X60317142Y-46344819D02*
X59983809Y-45868628D01*
X59745714Y-46344819D02*
X59745714Y-45344819D01*
X59745714Y-45344819D02*
X60126666Y-45344819D01*
X60126666Y-45344819D02*
X60221904Y-45392438D01*
X60221904Y-45392438D02*
X60269523Y-45440057D01*
X60269523Y-45440057D02*
X60317142Y-45535295D01*
X60317142Y-45535295D02*
X60317142Y-45678152D01*
X60317142Y-45678152D02*
X60269523Y-45773390D01*
X60269523Y-45773390D02*
X60221904Y-45821009D01*
X60221904Y-45821009D02*
X60126666Y-45868628D01*
X60126666Y-45868628D02*
X59745714Y-45868628D01*
X61269523Y-46344819D02*
X60698095Y-46344819D01*
X60983809Y-46344819D02*
X60983809Y-45344819D01*
X60983809Y-45344819D02*
X60888571Y-45487676D01*
X60888571Y-45487676D02*
X60793333Y-45582914D01*
X60793333Y-45582914D02*
X60698095Y-45630533D01*
X62126666Y-45678152D02*
X62126666Y-46344819D01*
X61888571Y-45297200D02*
X61650476Y-46011485D01*
X61650476Y-46011485D02*
X62269523Y-46011485D01*
X60317142Y-49519819D02*
X59983809Y-49043628D01*
X59745714Y-49519819D02*
X59745714Y-48519819D01*
X59745714Y-48519819D02*
X60126666Y-48519819D01*
X60126666Y-48519819D02*
X60221904Y-48567438D01*
X60221904Y-48567438D02*
X60269523Y-48615057D01*
X60269523Y-48615057D02*
X60317142Y-48710295D01*
X60317142Y-48710295D02*
X60317142Y-48853152D01*
X60317142Y-48853152D02*
X60269523Y-48948390D01*
X60269523Y-48948390D02*
X60221904Y-48996009D01*
X60221904Y-48996009D02*
X60126666Y-49043628D01*
X60126666Y-49043628D02*
X59745714Y-49043628D01*
X61269523Y-49519819D02*
X60698095Y-49519819D01*
X60983809Y-49519819D02*
X60983809Y-48519819D01*
X60983809Y-48519819D02*
X60888571Y-48662676D01*
X60888571Y-48662676D02*
X60793333Y-48757914D01*
X60793333Y-48757914D02*
X60698095Y-48805533D01*
X61602857Y-48519819D02*
X62221904Y-48519819D01*
X62221904Y-48519819D02*
X61888571Y-48900771D01*
X61888571Y-48900771D02*
X62031428Y-48900771D01*
X62031428Y-48900771D02*
X62126666Y-48948390D01*
X62126666Y-48948390D02*
X62174285Y-48996009D01*
X62174285Y-48996009D02*
X62221904Y-49091247D01*
X62221904Y-49091247D02*
X62221904Y-49329342D01*
X62221904Y-49329342D02*
X62174285Y-49424580D01*
X62174285Y-49424580D02*
X62126666Y-49472200D01*
X62126666Y-49472200D02*
X62031428Y-49519819D01*
X62031428Y-49519819D02*
X61745714Y-49519819D01*
X61745714Y-49519819D02*
X61650476Y-49472200D01*
X61650476Y-49472200D02*
X61602857Y-49424580D01*
X60317142Y-52694819D02*
X59983809Y-52218628D01*
X59745714Y-52694819D02*
X59745714Y-51694819D01*
X59745714Y-51694819D02*
X60126666Y-51694819D01*
X60126666Y-51694819D02*
X60221904Y-51742438D01*
X60221904Y-51742438D02*
X60269523Y-51790057D01*
X60269523Y-51790057D02*
X60317142Y-51885295D01*
X60317142Y-51885295D02*
X60317142Y-52028152D01*
X60317142Y-52028152D02*
X60269523Y-52123390D01*
X60269523Y-52123390D02*
X60221904Y-52171009D01*
X60221904Y-52171009D02*
X60126666Y-52218628D01*
X60126666Y-52218628D02*
X59745714Y-52218628D01*
X61269523Y-52694819D02*
X60698095Y-52694819D01*
X60983809Y-52694819D02*
X60983809Y-51694819D01*
X60983809Y-51694819D02*
X60888571Y-51837676D01*
X60888571Y-51837676D02*
X60793333Y-51932914D01*
X60793333Y-51932914D02*
X60698095Y-51980533D01*
X61650476Y-51790057D02*
X61698095Y-51742438D01*
X61698095Y-51742438D02*
X61793333Y-51694819D01*
X61793333Y-51694819D02*
X62031428Y-51694819D01*
X62031428Y-51694819D02*
X62126666Y-51742438D01*
X62126666Y-51742438D02*
X62174285Y-51790057D01*
X62174285Y-51790057D02*
X62221904Y-51885295D01*
X62221904Y-51885295D02*
X62221904Y-51980533D01*
X62221904Y-51980533D02*
X62174285Y-52123390D01*
X62174285Y-52123390D02*
X61602857Y-52694819D01*
X61602857Y-52694819D02*
X62221904Y-52694819D01*
X60317142Y-55869819D02*
X59983809Y-55393628D01*
X59745714Y-55869819D02*
X59745714Y-54869819D01*
X59745714Y-54869819D02*
X60126666Y-54869819D01*
X60126666Y-54869819D02*
X60221904Y-54917438D01*
X60221904Y-54917438D02*
X60269523Y-54965057D01*
X60269523Y-54965057D02*
X60317142Y-55060295D01*
X60317142Y-55060295D02*
X60317142Y-55203152D01*
X60317142Y-55203152D02*
X60269523Y-55298390D01*
X60269523Y-55298390D02*
X60221904Y-55346009D01*
X60221904Y-55346009D02*
X60126666Y-55393628D01*
X60126666Y-55393628D02*
X59745714Y-55393628D01*
X61269523Y-55869819D02*
X60698095Y-55869819D01*
X60983809Y-55869819D02*
X60983809Y-54869819D01*
X60983809Y-54869819D02*
X60888571Y-55012676D01*
X60888571Y-55012676D02*
X60793333Y-55107914D01*
X60793333Y-55107914D02*
X60698095Y-55155533D01*
X62221904Y-55869819D02*
X61650476Y-55869819D01*
X61936190Y-55869819D02*
X61936190Y-54869819D01*
X61936190Y-54869819D02*
X61840952Y-55012676D01*
X61840952Y-55012676D02*
X61745714Y-55107914D01*
X61745714Y-55107914D02*
X61650476Y-55155533D01*
X60317142Y-59044819D02*
X59983809Y-58568628D01*
X59745714Y-59044819D02*
X59745714Y-58044819D01*
X59745714Y-58044819D02*
X60126666Y-58044819D01*
X60126666Y-58044819D02*
X60221904Y-58092438D01*
X60221904Y-58092438D02*
X60269523Y-58140057D01*
X60269523Y-58140057D02*
X60317142Y-58235295D01*
X60317142Y-58235295D02*
X60317142Y-58378152D01*
X60317142Y-58378152D02*
X60269523Y-58473390D01*
X60269523Y-58473390D02*
X60221904Y-58521009D01*
X60221904Y-58521009D02*
X60126666Y-58568628D01*
X60126666Y-58568628D02*
X59745714Y-58568628D01*
X61269523Y-59044819D02*
X60698095Y-59044819D01*
X60983809Y-59044819D02*
X60983809Y-58044819D01*
X60983809Y-58044819D02*
X60888571Y-58187676D01*
X60888571Y-58187676D02*
X60793333Y-58282914D01*
X60793333Y-58282914D02*
X60698095Y-58330533D01*
X61888571Y-58044819D02*
X61983809Y-58044819D01*
X61983809Y-58044819D02*
X62079047Y-58092438D01*
X62079047Y-58092438D02*
X62126666Y-58140057D01*
X62126666Y-58140057D02*
X62174285Y-58235295D01*
X62174285Y-58235295D02*
X62221904Y-58425771D01*
X62221904Y-58425771D02*
X62221904Y-58663866D01*
X62221904Y-58663866D02*
X62174285Y-58854342D01*
X62174285Y-58854342D02*
X62126666Y-58949580D01*
X62126666Y-58949580D02*
X62079047Y-58997200D01*
X62079047Y-58997200D02*
X61983809Y-59044819D01*
X61983809Y-59044819D02*
X61888571Y-59044819D01*
X61888571Y-59044819D02*
X61793333Y-58997200D01*
X61793333Y-58997200D02*
X61745714Y-58949580D01*
X61745714Y-58949580D02*
X61698095Y-58854342D01*
X61698095Y-58854342D02*
X61650476Y-58663866D01*
X61650476Y-58663866D02*
X61650476Y-58425771D01*
X61650476Y-58425771D02*
X61698095Y-58235295D01*
X61698095Y-58235295D02*
X61745714Y-58140057D01*
X61745714Y-58140057D02*
X61793333Y-58092438D01*
X61793333Y-58092438D02*
X61888571Y-58044819D01*
X60793333Y-62219819D02*
X60460000Y-61743628D01*
X60221905Y-62219819D02*
X60221905Y-61219819D01*
X60221905Y-61219819D02*
X60602857Y-61219819D01*
X60602857Y-61219819D02*
X60698095Y-61267438D01*
X60698095Y-61267438D02*
X60745714Y-61315057D01*
X60745714Y-61315057D02*
X60793333Y-61410295D01*
X60793333Y-61410295D02*
X60793333Y-61553152D01*
X60793333Y-61553152D02*
X60745714Y-61648390D01*
X60745714Y-61648390D02*
X60698095Y-61696009D01*
X60698095Y-61696009D02*
X60602857Y-61743628D01*
X60602857Y-61743628D02*
X60221905Y-61743628D01*
X61269524Y-62219819D02*
X61460000Y-62219819D01*
X61460000Y-62219819D02*
X61555238Y-62172200D01*
X61555238Y-62172200D02*
X61602857Y-62124580D01*
X61602857Y-62124580D02*
X61698095Y-61981723D01*
X61698095Y-61981723D02*
X61745714Y-61791247D01*
X61745714Y-61791247D02*
X61745714Y-61410295D01*
X61745714Y-61410295D02*
X61698095Y-61315057D01*
X61698095Y-61315057D02*
X61650476Y-61267438D01*
X61650476Y-61267438D02*
X61555238Y-61219819D01*
X61555238Y-61219819D02*
X61364762Y-61219819D01*
X61364762Y-61219819D02*
X61269524Y-61267438D01*
X61269524Y-61267438D02*
X61221905Y-61315057D01*
X61221905Y-61315057D02*
X61174286Y-61410295D01*
X61174286Y-61410295D02*
X61174286Y-61648390D01*
X61174286Y-61648390D02*
X61221905Y-61743628D01*
X61221905Y-61743628D02*
X61269524Y-61791247D01*
X61269524Y-61791247D02*
X61364762Y-61838866D01*
X61364762Y-61838866D02*
X61555238Y-61838866D01*
X61555238Y-61838866D02*
X61650476Y-61791247D01*
X61650476Y-61791247D02*
X61698095Y-61743628D01*
X61698095Y-61743628D02*
X61745714Y-61648390D01*
X60793333Y-65394819D02*
X60460000Y-64918628D01*
X60221905Y-65394819D02*
X60221905Y-64394819D01*
X60221905Y-64394819D02*
X60602857Y-64394819D01*
X60602857Y-64394819D02*
X60698095Y-64442438D01*
X60698095Y-64442438D02*
X60745714Y-64490057D01*
X60745714Y-64490057D02*
X60793333Y-64585295D01*
X60793333Y-64585295D02*
X60793333Y-64728152D01*
X60793333Y-64728152D02*
X60745714Y-64823390D01*
X60745714Y-64823390D02*
X60698095Y-64871009D01*
X60698095Y-64871009D02*
X60602857Y-64918628D01*
X60602857Y-64918628D02*
X60221905Y-64918628D01*
X61364762Y-64823390D02*
X61269524Y-64775771D01*
X61269524Y-64775771D02*
X61221905Y-64728152D01*
X61221905Y-64728152D02*
X61174286Y-64632914D01*
X61174286Y-64632914D02*
X61174286Y-64585295D01*
X61174286Y-64585295D02*
X61221905Y-64490057D01*
X61221905Y-64490057D02*
X61269524Y-64442438D01*
X61269524Y-64442438D02*
X61364762Y-64394819D01*
X61364762Y-64394819D02*
X61555238Y-64394819D01*
X61555238Y-64394819D02*
X61650476Y-64442438D01*
X61650476Y-64442438D02*
X61698095Y-64490057D01*
X61698095Y-64490057D02*
X61745714Y-64585295D01*
X61745714Y-64585295D02*
X61745714Y-64632914D01*
X61745714Y-64632914D02*
X61698095Y-64728152D01*
X61698095Y-64728152D02*
X61650476Y-64775771D01*
X61650476Y-64775771D02*
X61555238Y-64823390D01*
X61555238Y-64823390D02*
X61364762Y-64823390D01*
X61364762Y-64823390D02*
X61269524Y-64871009D01*
X61269524Y-64871009D02*
X61221905Y-64918628D01*
X61221905Y-64918628D02*
X61174286Y-65013866D01*
X61174286Y-65013866D02*
X61174286Y-65204342D01*
X61174286Y-65204342D02*
X61221905Y-65299580D01*
X61221905Y-65299580D02*
X61269524Y-65347200D01*
X61269524Y-65347200D02*
X61364762Y-65394819D01*
X61364762Y-65394819D02*
X61555238Y-65394819D01*
X61555238Y-65394819D02*
X61650476Y-65347200D01*
X61650476Y-65347200D02*
X61698095Y-65299580D01*
X61698095Y-65299580D02*
X61745714Y-65204342D01*
X61745714Y-65204342D02*
X61745714Y-65013866D01*
X61745714Y-65013866D02*
X61698095Y-64918628D01*
X61698095Y-64918628D02*
X61650476Y-64871009D01*
X61650476Y-64871009D02*
X61555238Y-64823390D01*
X60793333Y-20944819D02*
X60460000Y-20468628D01*
X60221905Y-20944819D02*
X60221905Y-19944819D01*
X60221905Y-19944819D02*
X60602857Y-19944819D01*
X60602857Y-19944819D02*
X60698095Y-19992438D01*
X60698095Y-19992438D02*
X60745714Y-20040057D01*
X60745714Y-20040057D02*
X60793333Y-20135295D01*
X60793333Y-20135295D02*
X60793333Y-20278152D01*
X60793333Y-20278152D02*
X60745714Y-20373390D01*
X60745714Y-20373390D02*
X60698095Y-20421009D01*
X60698095Y-20421009D02*
X60602857Y-20468628D01*
X60602857Y-20468628D02*
X60221905Y-20468628D01*
X61126667Y-19944819D02*
X61793333Y-19944819D01*
X61793333Y-19944819D02*
X61364762Y-20944819D01*
X60793333Y-24119819D02*
X60460000Y-23643628D01*
X60221905Y-24119819D02*
X60221905Y-23119819D01*
X60221905Y-23119819D02*
X60602857Y-23119819D01*
X60602857Y-23119819D02*
X60698095Y-23167438D01*
X60698095Y-23167438D02*
X60745714Y-23215057D01*
X60745714Y-23215057D02*
X60793333Y-23310295D01*
X60793333Y-23310295D02*
X60793333Y-23453152D01*
X60793333Y-23453152D02*
X60745714Y-23548390D01*
X60745714Y-23548390D02*
X60698095Y-23596009D01*
X60698095Y-23596009D02*
X60602857Y-23643628D01*
X60602857Y-23643628D02*
X60221905Y-23643628D01*
X61650476Y-23119819D02*
X61460000Y-23119819D01*
X61460000Y-23119819D02*
X61364762Y-23167438D01*
X61364762Y-23167438D02*
X61317143Y-23215057D01*
X61317143Y-23215057D02*
X61221905Y-23357914D01*
X61221905Y-23357914D02*
X61174286Y-23548390D01*
X61174286Y-23548390D02*
X61174286Y-23929342D01*
X61174286Y-23929342D02*
X61221905Y-24024580D01*
X61221905Y-24024580D02*
X61269524Y-24072200D01*
X61269524Y-24072200D02*
X61364762Y-24119819D01*
X61364762Y-24119819D02*
X61555238Y-24119819D01*
X61555238Y-24119819D02*
X61650476Y-24072200D01*
X61650476Y-24072200D02*
X61698095Y-24024580D01*
X61698095Y-24024580D02*
X61745714Y-23929342D01*
X61745714Y-23929342D02*
X61745714Y-23691247D01*
X61745714Y-23691247D02*
X61698095Y-23596009D01*
X61698095Y-23596009D02*
X61650476Y-23548390D01*
X61650476Y-23548390D02*
X61555238Y-23500771D01*
X61555238Y-23500771D02*
X61364762Y-23500771D01*
X61364762Y-23500771D02*
X61269524Y-23548390D01*
X61269524Y-23548390D02*
X61221905Y-23596009D01*
X61221905Y-23596009D02*
X61174286Y-23691247D01*
X60793333Y-27294819D02*
X60460000Y-26818628D01*
X60221905Y-27294819D02*
X60221905Y-26294819D01*
X60221905Y-26294819D02*
X60602857Y-26294819D01*
X60602857Y-26294819D02*
X60698095Y-26342438D01*
X60698095Y-26342438D02*
X60745714Y-26390057D01*
X60745714Y-26390057D02*
X60793333Y-26485295D01*
X60793333Y-26485295D02*
X60793333Y-26628152D01*
X60793333Y-26628152D02*
X60745714Y-26723390D01*
X60745714Y-26723390D02*
X60698095Y-26771009D01*
X60698095Y-26771009D02*
X60602857Y-26818628D01*
X60602857Y-26818628D02*
X60221905Y-26818628D01*
X61698095Y-26294819D02*
X61221905Y-26294819D01*
X61221905Y-26294819D02*
X61174286Y-26771009D01*
X61174286Y-26771009D02*
X61221905Y-26723390D01*
X61221905Y-26723390D02*
X61317143Y-26675771D01*
X61317143Y-26675771D02*
X61555238Y-26675771D01*
X61555238Y-26675771D02*
X61650476Y-26723390D01*
X61650476Y-26723390D02*
X61698095Y-26771009D01*
X61698095Y-26771009D02*
X61745714Y-26866247D01*
X61745714Y-26866247D02*
X61745714Y-27104342D01*
X61745714Y-27104342D02*
X61698095Y-27199580D01*
X61698095Y-27199580D02*
X61650476Y-27247200D01*
X61650476Y-27247200D02*
X61555238Y-27294819D01*
X61555238Y-27294819D02*
X61317143Y-27294819D01*
X61317143Y-27294819D02*
X61221905Y-27247200D01*
X61221905Y-27247200D02*
X61174286Y-27199580D01*
X60793333Y-30469819D02*
X60460000Y-29993628D01*
X60221905Y-30469819D02*
X60221905Y-29469819D01*
X60221905Y-29469819D02*
X60602857Y-29469819D01*
X60602857Y-29469819D02*
X60698095Y-29517438D01*
X60698095Y-29517438D02*
X60745714Y-29565057D01*
X60745714Y-29565057D02*
X60793333Y-29660295D01*
X60793333Y-29660295D02*
X60793333Y-29803152D01*
X60793333Y-29803152D02*
X60745714Y-29898390D01*
X60745714Y-29898390D02*
X60698095Y-29946009D01*
X60698095Y-29946009D02*
X60602857Y-29993628D01*
X60602857Y-29993628D02*
X60221905Y-29993628D01*
X61650476Y-29803152D02*
X61650476Y-30469819D01*
X61412381Y-29422200D02*
X61174286Y-30136485D01*
X61174286Y-30136485D02*
X61793333Y-30136485D01*
X60793333Y-33644819D02*
X60460000Y-33168628D01*
X60221905Y-33644819D02*
X60221905Y-32644819D01*
X60221905Y-32644819D02*
X60602857Y-32644819D01*
X60602857Y-32644819D02*
X60698095Y-32692438D01*
X60698095Y-32692438D02*
X60745714Y-32740057D01*
X60745714Y-32740057D02*
X60793333Y-32835295D01*
X60793333Y-32835295D02*
X60793333Y-32978152D01*
X60793333Y-32978152D02*
X60745714Y-33073390D01*
X60745714Y-33073390D02*
X60698095Y-33121009D01*
X60698095Y-33121009D02*
X60602857Y-33168628D01*
X60602857Y-33168628D02*
X60221905Y-33168628D01*
X61126667Y-32644819D02*
X61745714Y-32644819D01*
X61745714Y-32644819D02*
X61412381Y-33025771D01*
X61412381Y-33025771D02*
X61555238Y-33025771D01*
X61555238Y-33025771D02*
X61650476Y-33073390D01*
X61650476Y-33073390D02*
X61698095Y-33121009D01*
X61698095Y-33121009D02*
X61745714Y-33216247D01*
X61745714Y-33216247D02*
X61745714Y-33454342D01*
X61745714Y-33454342D02*
X61698095Y-33549580D01*
X61698095Y-33549580D02*
X61650476Y-33597200D01*
X61650476Y-33597200D02*
X61555238Y-33644819D01*
X61555238Y-33644819D02*
X61269524Y-33644819D01*
X61269524Y-33644819D02*
X61174286Y-33597200D01*
X61174286Y-33597200D02*
X61126667Y-33549580D01*
X60793333Y-36819819D02*
X60460000Y-36343628D01*
X60221905Y-36819819D02*
X60221905Y-35819819D01*
X60221905Y-35819819D02*
X60602857Y-35819819D01*
X60602857Y-35819819D02*
X60698095Y-35867438D01*
X60698095Y-35867438D02*
X60745714Y-35915057D01*
X60745714Y-35915057D02*
X60793333Y-36010295D01*
X60793333Y-36010295D02*
X60793333Y-36153152D01*
X60793333Y-36153152D02*
X60745714Y-36248390D01*
X60745714Y-36248390D02*
X60698095Y-36296009D01*
X60698095Y-36296009D02*
X60602857Y-36343628D01*
X60602857Y-36343628D02*
X60221905Y-36343628D01*
X61174286Y-35915057D02*
X61221905Y-35867438D01*
X61221905Y-35867438D02*
X61317143Y-35819819D01*
X61317143Y-35819819D02*
X61555238Y-35819819D01*
X61555238Y-35819819D02*
X61650476Y-35867438D01*
X61650476Y-35867438D02*
X61698095Y-35915057D01*
X61698095Y-35915057D02*
X61745714Y-36010295D01*
X61745714Y-36010295D02*
X61745714Y-36105533D01*
X61745714Y-36105533D02*
X61698095Y-36248390D01*
X61698095Y-36248390D02*
X61126667Y-36819819D01*
X61126667Y-36819819D02*
X61745714Y-36819819D01*
X60793333Y-39994819D02*
X60460000Y-39518628D01*
X60221905Y-39994819D02*
X60221905Y-38994819D01*
X60221905Y-38994819D02*
X60602857Y-38994819D01*
X60602857Y-38994819D02*
X60698095Y-39042438D01*
X60698095Y-39042438D02*
X60745714Y-39090057D01*
X60745714Y-39090057D02*
X60793333Y-39185295D01*
X60793333Y-39185295D02*
X60793333Y-39328152D01*
X60793333Y-39328152D02*
X60745714Y-39423390D01*
X60745714Y-39423390D02*
X60698095Y-39471009D01*
X60698095Y-39471009D02*
X60602857Y-39518628D01*
X60602857Y-39518628D02*
X60221905Y-39518628D01*
X61745714Y-39994819D02*
X61174286Y-39994819D01*
X61460000Y-39994819D02*
X61460000Y-38994819D01*
X61460000Y-38994819D02*
X61364762Y-39137676D01*
X61364762Y-39137676D02*
X61269524Y-39232914D01*
X61269524Y-39232914D02*
X61174286Y-39280533D01*
X110944819Y-61388095D02*
X109944819Y-61388095D01*
X109944819Y-61388095D02*
X109944819Y-61150000D01*
X109944819Y-61150000D02*
X109992438Y-61007143D01*
X109992438Y-61007143D02*
X110087676Y-60911905D01*
X110087676Y-60911905D02*
X110182914Y-60864286D01*
X110182914Y-60864286D02*
X110373390Y-60816667D01*
X110373390Y-60816667D02*
X110516247Y-60816667D01*
X110516247Y-60816667D02*
X110706723Y-60864286D01*
X110706723Y-60864286D02*
X110801961Y-60911905D01*
X110801961Y-60911905D02*
X110897200Y-61007143D01*
X110897200Y-61007143D02*
X110944819Y-61150000D01*
X110944819Y-61150000D02*
X110944819Y-61388095D01*
X110944819Y-60388095D02*
X110278152Y-60388095D01*
X109944819Y-60388095D02*
X109992438Y-60435714D01*
X109992438Y-60435714D02*
X110040057Y-60388095D01*
X110040057Y-60388095D02*
X109992438Y-60340476D01*
X109992438Y-60340476D02*
X109944819Y-60388095D01*
X109944819Y-60388095D02*
X110040057Y-60388095D01*
X110897200Y-59959524D02*
X110944819Y-59864286D01*
X110944819Y-59864286D02*
X110944819Y-59673810D01*
X110944819Y-59673810D02*
X110897200Y-59578572D01*
X110897200Y-59578572D02*
X110801961Y-59530953D01*
X110801961Y-59530953D02*
X110754342Y-59530953D01*
X110754342Y-59530953D02*
X110659104Y-59578572D01*
X110659104Y-59578572D02*
X110611485Y-59673810D01*
X110611485Y-59673810D02*
X110611485Y-59816667D01*
X110611485Y-59816667D02*
X110563866Y-59911905D01*
X110563866Y-59911905D02*
X110468628Y-59959524D01*
X110468628Y-59959524D02*
X110421009Y-59959524D01*
X110421009Y-59959524D02*
X110325771Y-59911905D01*
X110325771Y-59911905D02*
X110278152Y-59816667D01*
X110278152Y-59816667D02*
X110278152Y-59673810D01*
X110278152Y-59673810D02*
X110325771Y-59578572D01*
X110278152Y-59102381D02*
X111278152Y-59102381D01*
X110325771Y-59102381D02*
X110278152Y-59007143D01*
X110278152Y-59007143D02*
X110278152Y-58816667D01*
X110278152Y-58816667D02*
X110325771Y-58721429D01*
X110325771Y-58721429D02*
X110373390Y-58673810D01*
X110373390Y-58673810D02*
X110468628Y-58626191D01*
X110468628Y-58626191D02*
X110754342Y-58626191D01*
X110754342Y-58626191D02*
X110849580Y-58673810D01*
X110849580Y-58673810D02*
X110897200Y-58721429D01*
X110897200Y-58721429D02*
X110944819Y-58816667D01*
X110944819Y-58816667D02*
X110944819Y-59007143D01*
X110944819Y-59007143D02*
X110897200Y-59102381D01*
X110944819Y-58054762D02*
X110897200Y-58150000D01*
X110897200Y-58150000D02*
X110801961Y-58197619D01*
X110801961Y-58197619D02*
X109944819Y-58197619D01*
X110944819Y-57245238D02*
X110421009Y-57245238D01*
X110421009Y-57245238D02*
X110325771Y-57292857D01*
X110325771Y-57292857D02*
X110278152Y-57388095D01*
X110278152Y-57388095D02*
X110278152Y-57578571D01*
X110278152Y-57578571D02*
X110325771Y-57673809D01*
X110897200Y-57245238D02*
X110944819Y-57340476D01*
X110944819Y-57340476D02*
X110944819Y-57578571D01*
X110944819Y-57578571D02*
X110897200Y-57673809D01*
X110897200Y-57673809D02*
X110801961Y-57721428D01*
X110801961Y-57721428D02*
X110706723Y-57721428D01*
X110706723Y-57721428D02*
X110611485Y-57673809D01*
X110611485Y-57673809D02*
X110563866Y-57578571D01*
X110563866Y-57578571D02*
X110563866Y-57340476D01*
X110563866Y-57340476D02*
X110516247Y-57245238D01*
X110278152Y-56864285D02*
X110944819Y-56626190D01*
X110278152Y-56388095D02*
X110944819Y-56626190D01*
X110944819Y-56626190D02*
X111182914Y-56721428D01*
X111182914Y-56721428D02*
X111230533Y-56769047D01*
X111230533Y-56769047D02*
X111278152Y-56864285D01*
X109992438Y-54721428D02*
X109944819Y-54816666D01*
X109944819Y-54816666D02*
X109944819Y-54959523D01*
X109944819Y-54959523D02*
X109992438Y-55102380D01*
X109992438Y-55102380D02*
X110087676Y-55197618D01*
X110087676Y-55197618D02*
X110182914Y-55245237D01*
X110182914Y-55245237D02*
X110373390Y-55292856D01*
X110373390Y-55292856D02*
X110516247Y-55292856D01*
X110516247Y-55292856D02*
X110706723Y-55245237D01*
X110706723Y-55245237D02*
X110801961Y-55197618D01*
X110801961Y-55197618D02*
X110897200Y-55102380D01*
X110897200Y-55102380D02*
X110944819Y-54959523D01*
X110944819Y-54959523D02*
X110944819Y-54864285D01*
X110944819Y-54864285D02*
X110897200Y-54721428D01*
X110897200Y-54721428D02*
X110849580Y-54673809D01*
X110849580Y-54673809D02*
X110516247Y-54673809D01*
X110516247Y-54673809D02*
X110516247Y-54864285D01*
X110278152Y-54245237D02*
X110944819Y-54245237D01*
X110373390Y-54245237D02*
X110325771Y-54197618D01*
X110325771Y-54197618D02*
X110278152Y-54102380D01*
X110278152Y-54102380D02*
X110278152Y-53959523D01*
X110278152Y-53959523D02*
X110325771Y-53864285D01*
X110325771Y-53864285D02*
X110421009Y-53816666D01*
X110421009Y-53816666D02*
X110944819Y-53816666D01*
X110944819Y-52911904D02*
X109944819Y-52911904D01*
X110897200Y-52911904D02*
X110944819Y-53007142D01*
X110944819Y-53007142D02*
X110944819Y-53197618D01*
X110944819Y-53197618D02*
X110897200Y-53292856D01*
X110897200Y-53292856D02*
X110849580Y-53340475D01*
X110849580Y-53340475D02*
X110754342Y-53388094D01*
X110754342Y-53388094D02*
X110468628Y-53388094D01*
X110468628Y-53388094D02*
X110373390Y-53340475D01*
X110373390Y-53340475D02*
X110325771Y-53292856D01*
X110325771Y-53292856D02*
X110278152Y-53197618D01*
X110278152Y-53197618D02*
X110278152Y-53007142D01*
X110278152Y-53007142D02*
X110325771Y-52911904D01*
X110944819Y-48823095D02*
X109944819Y-48823095D01*
X109944819Y-48823095D02*
X109944819Y-48585000D01*
X109944819Y-48585000D02*
X109992438Y-48442143D01*
X109992438Y-48442143D02*
X110087676Y-48346905D01*
X110087676Y-48346905D02*
X110182914Y-48299286D01*
X110182914Y-48299286D02*
X110373390Y-48251667D01*
X110373390Y-48251667D02*
X110516247Y-48251667D01*
X110516247Y-48251667D02*
X110706723Y-48299286D01*
X110706723Y-48299286D02*
X110801961Y-48346905D01*
X110801961Y-48346905D02*
X110897200Y-48442143D01*
X110897200Y-48442143D02*
X110944819Y-48585000D01*
X110944819Y-48585000D02*
X110944819Y-48823095D01*
X110944819Y-47823095D02*
X110278152Y-47823095D01*
X109944819Y-47823095D02*
X109992438Y-47870714D01*
X109992438Y-47870714D02*
X110040057Y-47823095D01*
X110040057Y-47823095D02*
X109992438Y-47775476D01*
X109992438Y-47775476D02*
X109944819Y-47823095D01*
X109944819Y-47823095D02*
X110040057Y-47823095D01*
X110897200Y-47394524D02*
X110944819Y-47299286D01*
X110944819Y-47299286D02*
X110944819Y-47108810D01*
X110944819Y-47108810D02*
X110897200Y-47013572D01*
X110897200Y-47013572D02*
X110801961Y-46965953D01*
X110801961Y-46965953D02*
X110754342Y-46965953D01*
X110754342Y-46965953D02*
X110659104Y-47013572D01*
X110659104Y-47013572D02*
X110611485Y-47108810D01*
X110611485Y-47108810D02*
X110611485Y-47251667D01*
X110611485Y-47251667D02*
X110563866Y-47346905D01*
X110563866Y-47346905D02*
X110468628Y-47394524D01*
X110468628Y-47394524D02*
X110421009Y-47394524D01*
X110421009Y-47394524D02*
X110325771Y-47346905D01*
X110325771Y-47346905D02*
X110278152Y-47251667D01*
X110278152Y-47251667D02*
X110278152Y-47108810D01*
X110278152Y-47108810D02*
X110325771Y-47013572D01*
X110278152Y-46537381D02*
X111278152Y-46537381D01*
X110325771Y-46537381D02*
X110278152Y-46442143D01*
X110278152Y-46442143D02*
X110278152Y-46251667D01*
X110278152Y-46251667D02*
X110325771Y-46156429D01*
X110325771Y-46156429D02*
X110373390Y-46108810D01*
X110373390Y-46108810D02*
X110468628Y-46061191D01*
X110468628Y-46061191D02*
X110754342Y-46061191D01*
X110754342Y-46061191D02*
X110849580Y-46108810D01*
X110849580Y-46108810D02*
X110897200Y-46156429D01*
X110897200Y-46156429D02*
X110944819Y-46251667D01*
X110944819Y-46251667D02*
X110944819Y-46442143D01*
X110944819Y-46442143D02*
X110897200Y-46537381D01*
X110944819Y-45489762D02*
X110897200Y-45585000D01*
X110897200Y-45585000D02*
X110801961Y-45632619D01*
X110801961Y-45632619D02*
X109944819Y-45632619D01*
X110944819Y-44680238D02*
X110421009Y-44680238D01*
X110421009Y-44680238D02*
X110325771Y-44727857D01*
X110325771Y-44727857D02*
X110278152Y-44823095D01*
X110278152Y-44823095D02*
X110278152Y-45013571D01*
X110278152Y-45013571D02*
X110325771Y-45108809D01*
X110897200Y-44680238D02*
X110944819Y-44775476D01*
X110944819Y-44775476D02*
X110944819Y-45013571D01*
X110944819Y-45013571D02*
X110897200Y-45108809D01*
X110897200Y-45108809D02*
X110801961Y-45156428D01*
X110801961Y-45156428D02*
X110706723Y-45156428D01*
X110706723Y-45156428D02*
X110611485Y-45108809D01*
X110611485Y-45108809D02*
X110563866Y-45013571D01*
X110563866Y-45013571D02*
X110563866Y-44775476D01*
X110563866Y-44775476D02*
X110516247Y-44680238D01*
X110278152Y-44299285D02*
X110944819Y-44061190D01*
X110278152Y-43823095D02*
X110944819Y-44061190D01*
X110944819Y-44061190D02*
X111182914Y-44156428D01*
X111182914Y-44156428D02*
X111230533Y-44204047D01*
X111230533Y-44204047D02*
X111278152Y-44299285D01*
X109944819Y-42204047D02*
X109944819Y-42680237D01*
X109944819Y-42680237D02*
X110421009Y-42727856D01*
X110421009Y-42727856D02*
X110373390Y-42680237D01*
X110373390Y-42680237D02*
X110325771Y-42584999D01*
X110325771Y-42584999D02*
X110325771Y-42346904D01*
X110325771Y-42346904D02*
X110373390Y-42251666D01*
X110373390Y-42251666D02*
X110421009Y-42204047D01*
X110421009Y-42204047D02*
X110516247Y-42156428D01*
X110516247Y-42156428D02*
X110754342Y-42156428D01*
X110754342Y-42156428D02*
X110849580Y-42204047D01*
X110849580Y-42204047D02*
X110897200Y-42251666D01*
X110897200Y-42251666D02*
X110944819Y-42346904D01*
X110944819Y-42346904D02*
X110944819Y-42584999D01*
X110944819Y-42584999D02*
X110897200Y-42680237D01*
X110897200Y-42680237D02*
X110849580Y-42727856D01*
X109944819Y-41870713D02*
X110944819Y-41537380D01*
X110944819Y-41537380D02*
X109944819Y-41204047D01*
X108962319Y-23283333D02*
X109676604Y-23283333D01*
X109676604Y-23283333D02*
X109819461Y-23330952D01*
X109819461Y-23330952D02*
X109914700Y-23426190D01*
X109914700Y-23426190D02*
X109962319Y-23569047D01*
X109962319Y-23569047D02*
X109962319Y-23664285D01*
X109057557Y-22854761D02*
X109009938Y-22807142D01*
X109009938Y-22807142D02*
X108962319Y-22711904D01*
X108962319Y-22711904D02*
X108962319Y-22473809D01*
X108962319Y-22473809D02*
X109009938Y-22378571D01*
X109009938Y-22378571D02*
X109057557Y-22330952D01*
X109057557Y-22330952D02*
X109152795Y-22283333D01*
X109152795Y-22283333D02*
X109248033Y-22283333D01*
X109248033Y-22283333D02*
X109390890Y-22330952D01*
X109390890Y-22330952D02*
X109962319Y-22902380D01*
X109962319Y-22902380D02*
X109962319Y-22283333D01*
X84756666Y-88564819D02*
X84756666Y-89279104D01*
X84756666Y-89279104D02*
X84709047Y-89421961D01*
X84709047Y-89421961D02*
X84613809Y-89517200D01*
X84613809Y-89517200D02*
X84470952Y-89564819D01*
X84470952Y-89564819D02*
X84375714Y-89564819D01*
X85756666Y-89564819D02*
X85185238Y-89564819D01*
X85470952Y-89564819D02*
X85470952Y-88564819D01*
X85470952Y-88564819D02*
X85375714Y-88707676D01*
X85375714Y-88707676D02*
X85280476Y-88802914D01*
X85280476Y-88802914D02*
X85185238Y-88850533D01*
X88789819Y-30583094D02*
X87789819Y-30583094D01*
X87789819Y-30583094D02*
X87789819Y-30344999D01*
X87789819Y-30344999D02*
X87837438Y-30202142D01*
X87837438Y-30202142D02*
X87932676Y-30106904D01*
X87932676Y-30106904D02*
X88027914Y-30059285D01*
X88027914Y-30059285D02*
X88218390Y-30011666D01*
X88218390Y-30011666D02*
X88361247Y-30011666D01*
X88361247Y-30011666D02*
X88551723Y-30059285D01*
X88551723Y-30059285D02*
X88646961Y-30106904D01*
X88646961Y-30106904D02*
X88742200Y-30202142D01*
X88742200Y-30202142D02*
X88789819Y-30344999D01*
X88789819Y-30344999D02*
X88789819Y-30583094D01*
X88789819Y-29059285D02*
X88789819Y-29630713D01*
X88789819Y-29344999D02*
X87789819Y-29344999D01*
X87789819Y-29344999D02*
X87932676Y-29440237D01*
X87932676Y-29440237D02*
X88027914Y-29535475D01*
X88027914Y-29535475D02*
X88075533Y-29630713D01*
X93744580Y-27431666D02*
X93792200Y-27479285D01*
X93792200Y-27479285D02*
X93839819Y-27622142D01*
X93839819Y-27622142D02*
X93839819Y-27717380D01*
X93839819Y-27717380D02*
X93792200Y-27860237D01*
X93792200Y-27860237D02*
X93696961Y-27955475D01*
X93696961Y-27955475D02*
X93601723Y-28003094D01*
X93601723Y-28003094D02*
X93411247Y-28050713D01*
X93411247Y-28050713D02*
X93268390Y-28050713D01*
X93268390Y-28050713D02*
X93077914Y-28003094D01*
X93077914Y-28003094D02*
X92982676Y-27955475D01*
X92982676Y-27955475D02*
X92887438Y-27860237D01*
X92887438Y-27860237D02*
X92839819Y-27717380D01*
X92839819Y-27717380D02*
X92839819Y-27622142D01*
X92839819Y-27622142D02*
X92887438Y-27479285D01*
X92887438Y-27479285D02*
X92935057Y-27431666D01*
X92935057Y-27050713D02*
X92887438Y-27003094D01*
X92887438Y-27003094D02*
X92839819Y-26907856D01*
X92839819Y-26907856D02*
X92839819Y-26669761D01*
X92839819Y-26669761D02*
X92887438Y-26574523D01*
X92887438Y-26574523D02*
X92935057Y-26526904D01*
X92935057Y-26526904D02*
X93030295Y-26479285D01*
X93030295Y-26479285D02*
X93125533Y-26479285D01*
X93125533Y-26479285D02*
X93268390Y-26526904D01*
X93268390Y-26526904D02*
X93839819Y-27098332D01*
X93839819Y-27098332D02*
X93839819Y-26479285D01*
X98614580Y-27374317D02*
X98662200Y-27421936D01*
X98662200Y-27421936D02*
X98709819Y-27564793D01*
X98709819Y-27564793D02*
X98709819Y-27660031D01*
X98709819Y-27660031D02*
X98662200Y-27802888D01*
X98662200Y-27802888D02*
X98566961Y-27898126D01*
X98566961Y-27898126D02*
X98471723Y-27945745D01*
X98471723Y-27945745D02*
X98281247Y-27993364D01*
X98281247Y-27993364D02*
X98138390Y-27993364D01*
X98138390Y-27993364D02*
X97947914Y-27945745D01*
X97947914Y-27945745D02*
X97852676Y-27898126D01*
X97852676Y-27898126D02*
X97757438Y-27802888D01*
X97757438Y-27802888D02*
X97709819Y-27660031D01*
X97709819Y-27660031D02*
X97709819Y-27564793D01*
X97709819Y-27564793D02*
X97757438Y-27421936D01*
X97757438Y-27421936D02*
X97805057Y-27374317D01*
X98709819Y-26421936D02*
X98709819Y-26993364D01*
X98709819Y-26707650D02*
X97709819Y-26707650D01*
X97709819Y-26707650D02*
X97852676Y-26802888D01*
X97852676Y-26802888D02*
X97947914Y-26898126D01*
X97947914Y-26898126D02*
X97995533Y-26993364D01*
X36713263Y-70866009D02*
X36856120Y-70913628D01*
X36856120Y-70913628D02*
X36903739Y-70961247D01*
X36903739Y-70961247D02*
X36951358Y-71056485D01*
X36951358Y-71056485D02*
X36951358Y-71199342D01*
X36951358Y-71199342D02*
X36903739Y-71294580D01*
X36903739Y-71294580D02*
X36856120Y-71342200D01*
X36856120Y-71342200D02*
X36760882Y-71389819D01*
X36760882Y-71389819D02*
X36379930Y-71389819D01*
X36379930Y-71389819D02*
X36379930Y-70389819D01*
X36379930Y-70389819D02*
X36713263Y-70389819D01*
X36713263Y-70389819D02*
X36808501Y-70437438D01*
X36808501Y-70437438D02*
X36856120Y-70485057D01*
X36856120Y-70485057D02*
X36903739Y-70580295D01*
X36903739Y-70580295D02*
X36903739Y-70675533D01*
X36903739Y-70675533D02*
X36856120Y-70770771D01*
X36856120Y-70770771D02*
X36808501Y-70818390D01*
X36808501Y-70818390D02*
X36713263Y-70866009D01*
X36713263Y-70866009D02*
X36379930Y-70866009D01*
X37284692Y-70389819D02*
X37951358Y-70389819D01*
X37951358Y-70389819D02*
X37284692Y-71389819D01*
X37284692Y-71389819D02*
X37951358Y-71389819D01*
X38856120Y-71389819D02*
X38284692Y-71389819D01*
X38570406Y-71389819D02*
X38570406Y-70389819D01*
X38570406Y-70389819D02*
X38475168Y-70532676D01*
X38475168Y-70532676D02*
X38379930Y-70627914D01*
X38379930Y-70627914D02*
X38284692Y-70675533D01*
X108505714Y-73829104D02*
X108981904Y-73829104D01*
X108410476Y-74114819D02*
X108743809Y-73114819D01*
X108743809Y-73114819D02*
X109077142Y-74114819D01*
X109362857Y-73210057D02*
X109410476Y-73162438D01*
X109410476Y-73162438D02*
X109505714Y-73114819D01*
X109505714Y-73114819D02*
X109743809Y-73114819D01*
X109743809Y-73114819D02*
X109839047Y-73162438D01*
X109839047Y-73162438D02*
X109886666Y-73210057D01*
X109886666Y-73210057D02*
X109934285Y-73305295D01*
X109934285Y-73305295D02*
X109934285Y-73400533D01*
X109934285Y-73400533D02*
X109886666Y-73543390D01*
X109886666Y-73543390D02*
X109315238Y-74114819D01*
X109315238Y-74114819D02*
X109934285Y-74114819D01*
X107958095Y-113754819D02*
X107958095Y-114564342D01*
X107958095Y-114564342D02*
X108005714Y-114659580D01*
X108005714Y-114659580D02*
X108053333Y-114707200D01*
X108053333Y-114707200D02*
X108148571Y-114754819D01*
X108148571Y-114754819D02*
X108339047Y-114754819D01*
X108339047Y-114754819D02*
X108434285Y-114707200D01*
X108434285Y-114707200D02*
X108481904Y-114659580D01*
X108481904Y-114659580D02*
X108529523Y-114564342D01*
X108529523Y-114564342D02*
X108529523Y-113754819D01*
X108958095Y-114707200D02*
X109100952Y-114754819D01*
X109100952Y-114754819D02*
X109339047Y-114754819D01*
X109339047Y-114754819D02*
X109434285Y-114707200D01*
X109434285Y-114707200D02*
X109481904Y-114659580D01*
X109481904Y-114659580D02*
X109529523Y-114564342D01*
X109529523Y-114564342D02*
X109529523Y-114469104D01*
X109529523Y-114469104D02*
X109481904Y-114373866D01*
X109481904Y-114373866D02*
X109434285Y-114326247D01*
X109434285Y-114326247D02*
X109339047Y-114278628D01*
X109339047Y-114278628D02*
X109148571Y-114231009D01*
X109148571Y-114231009D02*
X109053333Y-114183390D01*
X109053333Y-114183390D02*
X109005714Y-114135771D01*
X109005714Y-114135771D02*
X108958095Y-114040533D01*
X108958095Y-114040533D02*
X108958095Y-113945295D01*
X108958095Y-113945295D02*
X109005714Y-113850057D01*
X109005714Y-113850057D02*
X109053333Y-113802438D01*
X109053333Y-113802438D02*
X109148571Y-113754819D01*
X109148571Y-113754819D02*
X109386666Y-113754819D01*
X109386666Y-113754819D02*
X109529523Y-113802438D01*
X110291428Y-114231009D02*
X110434285Y-114278628D01*
X110434285Y-114278628D02*
X110481904Y-114326247D01*
X110481904Y-114326247D02*
X110529523Y-114421485D01*
X110529523Y-114421485D02*
X110529523Y-114564342D01*
X110529523Y-114564342D02*
X110481904Y-114659580D01*
X110481904Y-114659580D02*
X110434285Y-114707200D01*
X110434285Y-114707200D02*
X110339047Y-114754819D01*
X110339047Y-114754819D02*
X109958095Y-114754819D01*
X109958095Y-114754819D02*
X109958095Y-113754819D01*
X109958095Y-113754819D02*
X110291428Y-113754819D01*
X110291428Y-113754819D02*
X110386666Y-113802438D01*
X110386666Y-113802438D02*
X110434285Y-113850057D01*
X110434285Y-113850057D02*
X110481904Y-113945295D01*
X110481904Y-113945295D02*
X110481904Y-114040533D01*
X110481904Y-114040533D02*
X110434285Y-114135771D01*
X110434285Y-114135771D02*
X110386666Y-114183390D01*
X110386666Y-114183390D02*
X110291428Y-114231009D01*
X110291428Y-114231009D02*
X109958095Y-114231009D01*
X29765714Y-66209104D02*
X30241904Y-66209104D01*
X29670476Y-66494819D02*
X30003809Y-65494819D01*
X30003809Y-65494819D02*
X30337142Y-66494819D01*
X31194285Y-66494819D02*
X30622857Y-66494819D01*
X30908571Y-66494819D02*
X30908571Y-65494819D01*
X30908571Y-65494819D02*
X30813333Y-65637676D01*
X30813333Y-65637676D02*
X30718095Y-65732914D01*
X30718095Y-65732914D02*
X30622857Y-65780533D01*
X31741904Y-25945180D02*
X31741904Y-25135657D01*
X31741904Y-25135657D02*
X31694285Y-25040419D01*
X31694285Y-25040419D02*
X31646666Y-24992800D01*
X31646666Y-24992800D02*
X31551428Y-24945180D01*
X31551428Y-24945180D02*
X31360952Y-24945180D01*
X31360952Y-24945180D02*
X31265714Y-24992800D01*
X31265714Y-24992800D02*
X31218095Y-25040419D01*
X31218095Y-25040419D02*
X31170476Y-25135657D01*
X31170476Y-25135657D02*
X31170476Y-25945180D01*
X30741904Y-24992800D02*
X30599047Y-24945180D01*
X30599047Y-24945180D02*
X30360952Y-24945180D01*
X30360952Y-24945180D02*
X30265714Y-24992800D01*
X30265714Y-24992800D02*
X30218095Y-25040419D01*
X30218095Y-25040419D02*
X30170476Y-25135657D01*
X30170476Y-25135657D02*
X30170476Y-25230895D01*
X30170476Y-25230895D02*
X30218095Y-25326133D01*
X30218095Y-25326133D02*
X30265714Y-25373752D01*
X30265714Y-25373752D02*
X30360952Y-25421371D01*
X30360952Y-25421371D02*
X30551428Y-25468990D01*
X30551428Y-25468990D02*
X30646666Y-25516609D01*
X30646666Y-25516609D02*
X30694285Y-25564228D01*
X30694285Y-25564228D02*
X30741904Y-25659466D01*
X30741904Y-25659466D02*
X30741904Y-25754704D01*
X30741904Y-25754704D02*
X30694285Y-25849942D01*
X30694285Y-25849942D02*
X30646666Y-25897561D01*
X30646666Y-25897561D02*
X30551428Y-25945180D01*
X30551428Y-25945180D02*
X30313333Y-25945180D01*
X30313333Y-25945180D02*
X30170476Y-25897561D01*
X29408571Y-25468990D02*
X29265714Y-25421371D01*
X29265714Y-25421371D02*
X29218095Y-25373752D01*
X29218095Y-25373752D02*
X29170476Y-25278514D01*
X29170476Y-25278514D02*
X29170476Y-25135657D01*
X29170476Y-25135657D02*
X29218095Y-25040419D01*
X29218095Y-25040419D02*
X29265714Y-24992800D01*
X29265714Y-24992800D02*
X29360952Y-24945180D01*
X29360952Y-24945180D02*
X29741904Y-24945180D01*
X29741904Y-24945180D02*
X29741904Y-25945180D01*
X29741904Y-25945180D02*
X29408571Y-25945180D01*
X29408571Y-25945180D02*
X29313333Y-25897561D01*
X29313333Y-25897561D02*
X29265714Y-25849942D01*
X29265714Y-25849942D02*
X29218095Y-25754704D01*
X29218095Y-25754704D02*
X29218095Y-25659466D01*
X29218095Y-25659466D02*
X29265714Y-25564228D01*
X29265714Y-25564228D02*
X29313333Y-25516609D01*
X29313333Y-25516609D02*
X29408571Y-25468990D01*
X29408571Y-25468990D02*
X29741904Y-25468990D01*
D15*
%TO.C,U1*%
X45600000Y-41955000D02*
X47250000Y-41955000D01*
X50900000Y-41955000D02*
X50900000Y-21515000D01*
X45600000Y-21515000D02*
X45600000Y-41955000D01*
X50900000Y-21515000D02*
X45600000Y-21515000D01*
X49250000Y-41955000D02*
X50900000Y-41955000D01*
X49250000Y-41955000D02*
G75*
G03*
X47250000Y-41955000I-1000000J0D01*
G01*
%TO.C,U4*%
X80223000Y-51586800D02*
X80223000Y-56946200D01*
X76184400Y-51586800D02*
X76184400Y-56946200D01*
X84465000Y-47540000D02*
X84465000Y-66760000D01*
X76362200Y-62026200D02*
X80045200Y-62026200D01*
X71745000Y-66760000D02*
X84465000Y-66760000D01*
X71745000Y-47540000D02*
X84465000Y-47540000D01*
X80223000Y-57124000D02*
X80223000Y-62026200D01*
X72225000Y-67110000D02*
X73835000Y-67110000D01*
X71745000Y-47540000D02*
X71745000Y-66760000D01*
X76362200Y-57022400D02*
X80045200Y-57022400D01*
X76184400Y-57124000D02*
X76184400Y-62026200D01*
X76362200Y-51561400D02*
X80045200Y-51561400D01*
X81567467Y-62212467D02*
G75*
G03*
X81567467Y-62212467I-472467J0D01*
G01*
%TO.C,U3*%
X80223000Y-27334300D02*
X80223000Y-32693700D01*
X76184400Y-27334300D02*
X76184400Y-32693700D01*
X84465000Y-23287500D02*
X84465000Y-42507500D01*
X76362200Y-37773700D02*
X80045200Y-37773700D01*
X71745000Y-42507500D02*
X84465000Y-42507500D01*
X71745000Y-23287500D02*
X84465000Y-23287500D01*
X80223000Y-32871500D02*
X80223000Y-37773700D01*
X72225000Y-42857500D02*
X73835000Y-42857500D01*
X71745000Y-23287500D02*
X71745000Y-42507500D01*
X76362200Y-32769900D02*
X80045200Y-32769900D01*
X76184400Y-32871500D02*
X76184400Y-37773700D01*
X76362200Y-27308900D02*
X80045200Y-27308900D01*
X81567467Y-37959967D02*
G75*
G03*
X81567467Y-37959967I-472467J0D01*
G01*
%TO.C,U2*%
X45600000Y-68625000D02*
X47250000Y-68625000D01*
X50900000Y-68625000D02*
X50900000Y-48185000D01*
X45600000Y-48185000D02*
X45600000Y-68625000D01*
X50900000Y-48185000D02*
X45600000Y-48185000D01*
X49250000Y-68625000D02*
X50900000Y-68625000D01*
X49250000Y-68625000D02*
G75*
G03*
X47250000Y-68625000I-1000000J0D01*
G01*
%TO.C,SW1*%
X36095000Y-98185000D02*
X23795000Y-98185000D01*
X23795000Y-98185000D02*
X23795000Y-96065000D01*
X23795000Y-93005000D02*
X23795000Y-91065000D01*
X36095000Y-91065000D02*
X36095000Y-93005000D01*
X36095000Y-85885000D02*
X36095000Y-88005000D01*
X23795000Y-88005000D02*
X23795000Y-85885000D01*
X23795000Y-85885000D02*
X36095000Y-85885000D01*
X36095000Y-96065000D02*
X36095000Y-98185000D01*
X34624050Y-92075000D02*
G75*
G03*
X34624050Y-92075000I-4579050J0D01*
G01*
%TO.C,RV2*%
X21230000Y-73225000D02*
X15230000Y-73225000D01*
X24220000Y-73405000D02*
X23890000Y-73405000D01*
X15230000Y-70105000D02*
X21230000Y-70105000D01*
X24287071Y-68325000D02*
X23890000Y-68325000D01*
X21230000Y-72985000D02*
X15230000Y-72985000D01*
X21230000Y-73405000D02*
X15230000Y-73405000D01*
X21230000Y-66615000D02*
X21230000Y-74355000D01*
X15230000Y-70865000D02*
X15230000Y-70105000D01*
X24220000Y-72645000D02*
X23890000Y-72645000D01*
X21230000Y-70865000D02*
X15230000Y-70865000D01*
X21230000Y-68325000D02*
X15230000Y-68325000D01*
X15230000Y-73405000D02*
X15230000Y-72645000D01*
X21230000Y-74355000D02*
X23890000Y-74355000D01*
X15230000Y-68325000D02*
X15230000Y-67565000D01*
X24287071Y-70865000D02*
X23890000Y-70865000D01*
X21230000Y-72745000D02*
X15230000Y-72745000D01*
X26600000Y-73025000D02*
X26600000Y-74295000D01*
X24287071Y-67565000D02*
X23890000Y-67565000D01*
X23890000Y-74355000D02*
X23890000Y-66615000D01*
X21230000Y-73105000D02*
X15230000Y-73105000D01*
X23890000Y-69215000D02*
X21230000Y-69215000D01*
X21230000Y-73345000D02*
X15230000Y-73345000D01*
X15230000Y-67565000D02*
X21230000Y-67565000D01*
X26600000Y-74295000D02*
X25330000Y-74295000D01*
X15230000Y-72645000D02*
X21230000Y-72645000D01*
X23890000Y-71755000D02*
X21230000Y-71755000D01*
X21230000Y-72865000D02*
X15230000Y-72865000D01*
X24287071Y-70105000D02*
X23890000Y-70105000D01*
X23890000Y-66615000D02*
X21230000Y-66615000D01*
%TO.C,RV1*%
X21300000Y-82750000D02*
X15300000Y-82750000D01*
X24290000Y-82930000D02*
X23960000Y-82930000D01*
X15300000Y-79630000D02*
X21300000Y-79630000D01*
X24357071Y-77850000D02*
X23960000Y-77850000D01*
X21300000Y-82510000D02*
X15300000Y-82510000D01*
X21300000Y-82930000D02*
X15300000Y-82930000D01*
X21300000Y-76140000D02*
X21300000Y-83880000D01*
X15300000Y-80390000D02*
X15300000Y-79630000D01*
X24290000Y-82170000D02*
X23960000Y-82170000D01*
X21300000Y-80390000D02*
X15300000Y-80390000D01*
X21300000Y-77850000D02*
X15300000Y-77850000D01*
X15300000Y-82930000D02*
X15300000Y-82170000D01*
X21300000Y-83880000D02*
X23960000Y-83880000D01*
X15300000Y-77850000D02*
X15300000Y-77090000D01*
X24357071Y-80390000D02*
X23960000Y-80390000D01*
X21300000Y-82270000D02*
X15300000Y-82270000D01*
X26670000Y-82550000D02*
X26670000Y-83820000D01*
X24357071Y-77090000D02*
X23960000Y-77090000D01*
X23960000Y-83880000D02*
X23960000Y-76140000D01*
X21300000Y-82630000D02*
X15300000Y-82630000D01*
X23960000Y-78740000D02*
X21300000Y-78740000D01*
X21300000Y-82870000D02*
X15300000Y-82870000D01*
X15300000Y-77090000D02*
X21300000Y-77090000D01*
X26670000Y-83820000D02*
X25400000Y-83820000D01*
X15300000Y-82170000D02*
X21300000Y-82170000D01*
X23960000Y-81280000D02*
X21300000Y-81280000D01*
X21300000Y-82390000D02*
X15300000Y-82390000D01*
X24357071Y-79630000D02*
X23960000Y-79630000D01*
X23960000Y-76140000D02*
X21300000Y-76140000D01*
%TO.C,R15*%
X36925000Y-69315000D02*
X36925000Y-68985000D01*
X30385000Y-66575000D02*
X36925000Y-66575000D01*
X30385000Y-69315000D02*
X36925000Y-69315000D01*
X30385000Y-68985000D02*
X30385000Y-69315000D01*
X30385000Y-66905000D02*
X30385000Y-66575000D01*
X36925000Y-66575000D02*
X36925000Y-66905000D01*
%TO.C,R14*%
X64230000Y-49630000D02*
X64230000Y-49300000D01*
X57690000Y-46890000D02*
X64230000Y-46890000D01*
X57690000Y-49630000D02*
X64230000Y-49630000D01*
X57690000Y-49300000D02*
X57690000Y-49630000D01*
X57690000Y-47220000D02*
X57690000Y-46890000D01*
X64230000Y-46890000D02*
X64230000Y-47220000D01*
%TO.C,R13*%
X64230000Y-52805000D02*
X64230000Y-52475000D01*
X57690000Y-50065000D02*
X64230000Y-50065000D01*
X57690000Y-52805000D02*
X64230000Y-52805000D01*
X57690000Y-52475000D02*
X57690000Y-52805000D01*
X57690000Y-50395000D02*
X57690000Y-50065000D01*
X64230000Y-50065000D02*
X64230000Y-50395000D01*
%TO.C,R12*%
X64230000Y-55980000D02*
X64230000Y-55650000D01*
X57690000Y-53240000D02*
X64230000Y-53240000D01*
X57690000Y-55980000D02*
X64230000Y-55980000D01*
X57690000Y-55650000D02*
X57690000Y-55980000D01*
X57690000Y-53570000D02*
X57690000Y-53240000D01*
X64230000Y-53240000D02*
X64230000Y-53570000D01*
%TO.C,R11*%
X64230000Y-59155000D02*
X64230000Y-58825000D01*
X57690000Y-56415000D02*
X64230000Y-56415000D01*
X57690000Y-59155000D02*
X64230000Y-59155000D01*
X57690000Y-58825000D02*
X57690000Y-59155000D01*
X57690000Y-56745000D02*
X57690000Y-56415000D01*
X64230000Y-56415000D02*
X64230000Y-56745000D01*
%TO.C,R10*%
X64230000Y-59590000D02*
X64230000Y-59920000D01*
X57690000Y-59920000D02*
X57690000Y-59590000D01*
X57690000Y-62000000D02*
X57690000Y-62330000D01*
X57690000Y-62330000D02*
X64230000Y-62330000D01*
X57690000Y-59590000D02*
X64230000Y-59590000D01*
X64230000Y-62330000D02*
X64230000Y-62000000D01*
%TO.C,R9*%
X64230000Y-65505000D02*
X64230000Y-65175000D01*
X57690000Y-62765000D02*
X64230000Y-62765000D01*
X57690000Y-65505000D02*
X64230000Y-65505000D01*
X57690000Y-65175000D02*
X57690000Y-65505000D01*
X57690000Y-63095000D02*
X57690000Y-62765000D01*
X64230000Y-62765000D02*
X64230000Y-63095000D01*
%TO.C,R8*%
X64230000Y-68680000D02*
X64230000Y-68350000D01*
X57690000Y-65940000D02*
X64230000Y-65940000D01*
X57690000Y-68680000D02*
X64230000Y-68680000D01*
X57690000Y-68350000D02*
X57690000Y-68680000D01*
X57690000Y-66270000D02*
X57690000Y-65940000D01*
X64230000Y-65940000D02*
X64230000Y-66270000D01*
%TO.C,R7*%
X64230000Y-24230000D02*
X64230000Y-23900000D01*
X57690000Y-21490000D02*
X64230000Y-21490000D01*
X57690000Y-24230000D02*
X64230000Y-24230000D01*
X57690000Y-23900000D02*
X57690000Y-24230000D01*
X57690000Y-21820000D02*
X57690000Y-21490000D01*
X64230000Y-21490000D02*
X64230000Y-21820000D01*
%TO.C,R6*%
X64230000Y-27405000D02*
X64230000Y-27075000D01*
X57690000Y-24665000D02*
X64230000Y-24665000D01*
X57690000Y-27405000D02*
X64230000Y-27405000D01*
X57690000Y-27075000D02*
X57690000Y-27405000D01*
X57690000Y-24995000D02*
X57690000Y-24665000D01*
X64230000Y-24665000D02*
X64230000Y-24995000D01*
%TO.C,R5*%
X64230000Y-30580000D02*
X64230000Y-30250000D01*
X57690000Y-27840000D02*
X64230000Y-27840000D01*
X57690000Y-30580000D02*
X64230000Y-30580000D01*
X57690000Y-30250000D02*
X57690000Y-30580000D01*
X57690000Y-28170000D02*
X57690000Y-27840000D01*
X64230000Y-27840000D02*
X64230000Y-28170000D01*
%TO.C,R4*%
X64230000Y-33755000D02*
X64230000Y-33425000D01*
X57690000Y-31015000D02*
X64230000Y-31015000D01*
X57690000Y-33755000D02*
X64230000Y-33755000D01*
X57690000Y-33425000D02*
X57690000Y-33755000D01*
X57690000Y-31345000D02*
X57690000Y-31015000D01*
X64230000Y-31015000D02*
X64230000Y-31345000D01*
%TO.C,R3*%
X64230000Y-34190000D02*
X64230000Y-34520000D01*
X57690000Y-34520000D02*
X57690000Y-34190000D01*
X57690000Y-36600000D02*
X57690000Y-36930000D01*
X57690000Y-36930000D02*
X64230000Y-36930000D01*
X57690000Y-34190000D02*
X64230000Y-34190000D01*
X64230000Y-36930000D02*
X64230000Y-36600000D01*
%TO.C,R2*%
X64230000Y-37365000D02*
X64230000Y-37695000D01*
X57690000Y-37695000D02*
X57690000Y-37365000D01*
X57690000Y-39775000D02*
X57690000Y-40105000D01*
X57690000Y-40105000D02*
X64230000Y-40105000D01*
X57690000Y-37365000D02*
X64230000Y-37365000D01*
X64230000Y-40105000D02*
X64230000Y-39775000D01*
%TO.C,R1*%
X64230000Y-43280000D02*
X64230000Y-42950000D01*
X57690000Y-40540000D02*
X64230000Y-40540000D01*
X57690000Y-43280000D02*
X64230000Y-43280000D01*
X57690000Y-42950000D02*
X57690000Y-43280000D01*
X57690000Y-40870000D02*
X57690000Y-40540000D01*
X64230000Y-40540000D02*
X64230000Y-40870000D01*
%TO.C,Display Gnd*%
X111760000Y-62230000D02*
X119380000Y-62230000D01*
X119380000Y-52070000D02*
X111760000Y-52070000D01*
X118110000Y-52070000D02*
X118110000Y-62230000D01*
X119380000Y-62230000D02*
X119380000Y-52070000D01*
X111760000Y-52070000D02*
X111760000Y-62230000D01*
%TO.C,Display 5V*%
X111760000Y-40005000D02*
X111760000Y-50165000D01*
X119380000Y-50165000D02*
X119380000Y-40005000D01*
X118110000Y-40005000D02*
X118110000Y-50165000D01*
X119380000Y-40005000D02*
X111760000Y-40005000D01*
X111760000Y-50165000D02*
X119380000Y-50165000D01*
%TO.C,J2*%
X119857500Y-17600000D02*
X119857500Y-32300000D01*
X110657500Y-17600000D02*
X119857500Y-17600000D01*
X110657500Y-32300000D02*
X110657500Y-30400000D01*
X113357500Y-32300000D02*
X110657500Y-32300000D01*
X119857500Y-32300000D02*
X117257500Y-32300000D01*
X110657500Y-26400000D02*
X110657500Y-17600000D01*
X119007500Y-32500000D02*
X120057500Y-32500000D01*
X120057500Y-31450000D02*
X120057500Y-32500000D01*
%TO.C,J1*%
X85090000Y-92710000D02*
X85090000Y-90110000D01*
X82490000Y-92710000D02*
X82490000Y-110550000D01*
X87690000Y-90110000D02*
X87690000Y-110550000D01*
X82490000Y-92710000D02*
X85090000Y-92710000D01*
X82490000Y-110550000D02*
X87690000Y-110550000D01*
X85090000Y-90110000D02*
X87690000Y-90110000D01*
X82490000Y-91440000D02*
X82490000Y-90110000D01*
X82490000Y-90110000D02*
X83820000Y-90110000D01*
%TO.C,D1*%
X89335000Y-31665000D02*
X92275000Y-31665000D01*
X89335000Y-31545000D02*
X92275000Y-31545000D01*
X92275000Y-32565000D02*
X92275000Y-27125000D01*
X90805000Y-26105000D02*
X90805000Y-27125000D01*
X89335000Y-32565000D02*
X92275000Y-32565000D01*
X89335000Y-31785000D02*
X92275000Y-31785000D01*
X92275000Y-27125000D02*
X89335000Y-27125000D01*
X90805000Y-33585000D02*
X90805000Y-32565000D01*
X89335000Y-27125000D02*
X89335000Y-32565000D01*
%TO.C,C2*%
X94515000Y-29735000D02*
X94515000Y-24795000D01*
X94515000Y-29735000D02*
X94830000Y-29735000D01*
X96940000Y-24795000D02*
X97255000Y-24795000D01*
X94515000Y-24795000D02*
X94830000Y-24795000D01*
X97255000Y-29735000D02*
X97255000Y-24795000D01*
X96940000Y-29735000D02*
X97255000Y-29735000D01*
%TO.C,C1*%
X107625000Y-27207651D02*
G75*
G03*
X107625000Y-27207651I-4120000J0D01*
G01*
X104545000Y-25206651D02*
X107067000Y-25206651D01*
X99642000Y-25886651D02*
X102465000Y-25886651D01*
X104545000Y-25406651D02*
X107171000Y-25406651D01*
X104545000Y-24686651D02*
X106725000Y-24686651D01*
X102276000Y-23286651D02*
X104734000Y-23286651D01*
X99428000Y-27047651D02*
X107582000Y-27047651D01*
X100598000Y-24326651D02*
X102465000Y-24326651D01*
X99580000Y-26086651D02*
X102465000Y-26086651D01*
X104545000Y-24606651D02*
X106661000Y-24606651D01*
X104545000Y-25766651D02*
X107326000Y-25766651D01*
X99858000Y-25366651D02*
X102465000Y-25366651D01*
X99839000Y-25406651D02*
X102465000Y-25406651D01*
X104545000Y-25446651D02*
X107191000Y-25446651D01*
X99457000Y-26687651D02*
X107553000Y-26687651D01*
X100901000Y-24046651D02*
X106109000Y-24046651D01*
X104545000Y-24286651D02*
X106372000Y-24286651D01*
X104545000Y-25326651D02*
X107132000Y-25326651D01*
X104545000Y-24326651D02*
X106412000Y-24326651D01*
X99425000Y-27207651D02*
X107585000Y-27207651D01*
X104545000Y-26086651D02*
X107430000Y-26086651D01*
X104545000Y-24726651D02*
X106755000Y-24726651D01*
X99475000Y-26567651D02*
X107535000Y-26567651D01*
X104545000Y-25726651D02*
X107310000Y-25726651D01*
X99943000Y-25206651D02*
X102465000Y-25206651D01*
X104545000Y-25526651D02*
X107227000Y-25526651D01*
X104545000Y-25886651D02*
X107368000Y-25886651D01*
X104545000Y-25926651D02*
X107382000Y-25926651D01*
X99899000Y-25286651D02*
X102465000Y-25286651D01*
X104545000Y-24966651D02*
X106923000Y-24966651D01*
X100225000Y-24766651D02*
X102465000Y-24766651D01*
X104545000Y-25846651D02*
X107355000Y-25846651D01*
X99558000Y-26166651D02*
X102465000Y-26166651D01*
X99426000Y-27087651D02*
X107584000Y-27087651D01*
X101160000Y-23846651D02*
X105850000Y-23846651D01*
X101000000Y-23966651D02*
X106010000Y-23966651D01*
X104545000Y-25046651D02*
X106974000Y-25046651D01*
X99670000Y-25806651D02*
X102465000Y-25806651D01*
X99783000Y-25526651D02*
X102465000Y-25526651D01*
X104545000Y-24766651D02*
X106785000Y-24766651D01*
X101774000Y-23486651D02*
X105236000Y-23486651D01*
X99453000Y-26727651D02*
X107557000Y-26727651D01*
X100381000Y-24566651D02*
X102465000Y-24566651D01*
X104545000Y-26326651D02*
X107490000Y-26326651D01*
X99444000Y-26807651D02*
X107566000Y-26807651D01*
X104545000Y-24446651D02*
X106524000Y-24446651D01*
X104545000Y-25606651D02*
X107262000Y-25606651D01*
X102052000Y-23366651D02*
X104958000Y-23366651D01*
X104545000Y-25966651D02*
X107394000Y-25966651D01*
X104545000Y-26126651D02*
X107441000Y-26126651D01*
X99429000Y-27007651D02*
X107581000Y-27007651D01*
X99801000Y-25486651D02*
X102465000Y-25486651D01*
X104545000Y-26206651D02*
X107462000Y-26206651D01*
X101541000Y-23606651D02*
X105469000Y-23606651D01*
X104545000Y-24566651D02*
X106629000Y-24566651D01*
X99529000Y-26286651D02*
X102465000Y-26286651D01*
X100560000Y-24366651D02*
X102465000Y-24366651D01*
X100808000Y-24126651D02*
X106202000Y-24126651D01*
X99965000Y-25166651D02*
X102465000Y-25166651D01*
X100522000Y-24406651D02*
X102465000Y-24406651D01*
X100087000Y-24966651D02*
X102465000Y-24966651D01*
X99715000Y-25686651D02*
X102465000Y-25686651D01*
X102407000Y-23246651D02*
X104603000Y-23246651D01*
X99425000Y-27127651D02*
X107585000Y-27127651D01*
X100415000Y-24526651D02*
X102465000Y-24526651D01*
X100316000Y-24646651D02*
X102465000Y-24646651D01*
X99463000Y-26647651D02*
X107547000Y-26647651D01*
X102557000Y-23206651D02*
X104453000Y-23206651D01*
X101277000Y-23766651D02*
X105733000Y-23766651D01*
X104545000Y-24806651D02*
X106814000Y-24806651D01*
X101218000Y-23806651D02*
X105792000Y-23806651D01*
X101615000Y-23566651D02*
X105395000Y-23566651D01*
X99603000Y-26006651D02*
X102465000Y-26006651D01*
X99440000Y-26847651D02*
X107570000Y-26847651D01*
X100764000Y-24166651D02*
X106246000Y-24166651D01*
X104545000Y-25286651D02*
X107111000Y-25286651D01*
X100638000Y-24286651D02*
X102465000Y-24286651D01*
X101953000Y-23406651D02*
X105057000Y-23406651D01*
X100721000Y-24206651D02*
X106289000Y-24206651D01*
X99437000Y-26887651D02*
X107573000Y-26887651D01*
X104545000Y-24846651D02*
X106843000Y-24846651D01*
X100036000Y-25046651D02*
X102465000Y-25046651D01*
X104545000Y-24926651D02*
X106897000Y-24926651D01*
X104545000Y-25686651D02*
X107295000Y-25686651D01*
X101190000Y-31617349D02*
X101190000Y-30817349D01*
X99988000Y-25126651D02*
X102465000Y-25126651D01*
X99548000Y-26206651D02*
X102465000Y-26206651D01*
X99655000Y-25846651D02*
X102465000Y-25846651D01*
X104545000Y-25246651D02*
X107089000Y-25246651D01*
X101105000Y-23886651D02*
X105905000Y-23886651D01*
X99731000Y-25646651D02*
X102465000Y-25646651D01*
X100140000Y-24886651D02*
X102465000Y-24886651D01*
X99748000Y-25606651D02*
X102465000Y-25606651D01*
X104545000Y-25006651D02*
X106949000Y-25006651D01*
X104545000Y-24526651D02*
X106595000Y-24526651D01*
X99431000Y-26967651D02*
X107579000Y-26967651D01*
X101051000Y-23926651D02*
X105959000Y-23926651D01*
X99616000Y-25966651D02*
X102465000Y-25966651D01*
X99921000Y-25246651D02*
X102465000Y-25246651D01*
X104545000Y-26286651D02*
X107481000Y-26286651D01*
X99538000Y-26246651D02*
X102465000Y-26246651D01*
X100790000Y-31217349D02*
X101590000Y-31217349D01*
X100167000Y-24846651D02*
X102465000Y-24846651D01*
X101403000Y-23686651D02*
X105607000Y-23686651D01*
X99448000Y-26767651D02*
X107562000Y-26767651D01*
X99878000Y-25326651D02*
X102465000Y-25326651D01*
X100113000Y-24926651D02*
X102465000Y-24926651D01*
X100349000Y-24606651D02*
X102465000Y-24606651D01*
X102972000Y-23126651D02*
X104038000Y-23126651D01*
X104545000Y-25366651D02*
X107152000Y-25366651D01*
X104545000Y-25566651D02*
X107245000Y-25566651D01*
X99819000Y-25446651D02*
X102465000Y-25446651D01*
X101471000Y-23646651D02*
X105539000Y-23646651D01*
X99700000Y-25726651D02*
X102465000Y-25726651D01*
X99495000Y-26446651D02*
X107515000Y-26446651D01*
X100949000Y-24006651D02*
X106061000Y-24006651D01*
X104545000Y-26246651D02*
X107472000Y-26246651D01*
X104545000Y-24366651D02*
X106450000Y-24366651D01*
X104545000Y-25166651D02*
X107045000Y-25166651D01*
X99468000Y-26607651D02*
X107542000Y-26607651D01*
X101860000Y-23446651D02*
X105150000Y-23446651D01*
X102737000Y-23166651D02*
X104273000Y-23166651D01*
X100255000Y-24726651D02*
X102465000Y-24726651D01*
X99434000Y-26927651D02*
X107576000Y-26927651D01*
X99503000Y-26406651D02*
X107507000Y-26406651D01*
X100012000Y-25086651D02*
X102465000Y-25086651D01*
X104545000Y-25646651D02*
X107279000Y-25646651D01*
X104545000Y-25806651D02*
X107340000Y-25806651D01*
X99765000Y-25566651D02*
X102465000Y-25566651D01*
X104545000Y-26006651D02*
X107407000Y-26006651D01*
X100061000Y-25006651D02*
X102465000Y-25006651D01*
X100285000Y-24686651D02*
X102465000Y-24686651D01*
X101339000Y-23726651D02*
X105671000Y-23726651D01*
X99425000Y-27167651D02*
X107585000Y-27167651D01*
X104545000Y-26046651D02*
X107419000Y-26046651D01*
X100679000Y-24246651D02*
X106331000Y-24246651D01*
X99684000Y-25766651D02*
X102465000Y-25766651D01*
X104545000Y-25486651D02*
X107209000Y-25486651D01*
X104545000Y-25086651D02*
X106998000Y-25086651D01*
X104545000Y-24406651D02*
X106488000Y-24406651D01*
X99569000Y-26126651D02*
X102465000Y-26126651D01*
X104545000Y-24486651D02*
X106560000Y-24486651D01*
X104545000Y-24646651D02*
X106694000Y-24646651D01*
X100196000Y-24806651D02*
X102465000Y-24806651D01*
X99520000Y-26326651D02*
X102465000Y-26326651D01*
X99511000Y-26366651D02*
X107499000Y-26366651D01*
X104545000Y-25126651D02*
X107022000Y-25126651D01*
X99628000Y-25926651D02*
X102465000Y-25926651D01*
X99488000Y-26486651D02*
X107522000Y-26486651D01*
X100854000Y-24086651D02*
X106156000Y-24086651D01*
X100486000Y-24446651D02*
X102465000Y-24446651D01*
X99591000Y-26046651D02*
X102465000Y-26046651D01*
X104545000Y-24886651D02*
X106870000Y-24886651D01*
X99481000Y-26527651D02*
X107529000Y-26527651D01*
X101692000Y-23526651D02*
X105318000Y-23526651D01*
X100450000Y-24486651D02*
X102465000Y-24486651D01*
X102159000Y-23326651D02*
X104851000Y-23326651D01*
X104545000Y-26166651D02*
X107452000Y-26166651D01*
%TO.C,BZ1*%
X31194216Y-76605000D02*
G75*
G03*
X31194216Y-79604999I6400000J-1500000D01*
G01*
X43824216Y-78105000D02*
G75*
G03*
X43824216Y-78105000I-6230000J0D01*
G01*
%TO.C,A2*%
X102870000Y-77470000D02*
X100200000Y-77470000D01*
X113160000Y-120780000D02*
X105280000Y-120780000D01*
X118240000Y-118240000D02*
X118240000Y-74800000D01*
X105280000Y-120780000D02*
X105280000Y-110360000D01*
X113160000Y-110360000D02*
X113160000Y-120780000D01*
X118240000Y-118240000D02*
X113160000Y-118240000D01*
X100200000Y-80010000D02*
X100200000Y-118240000D01*
X102870000Y-115570000D02*
X100200000Y-115570000D01*
X115570000Y-77470000D02*
X115570000Y-115570000D01*
X102870000Y-80010000D02*
X102870000Y-77470000D01*
X115570000Y-115570000D02*
X118240000Y-115570000D01*
X115570000Y-77470000D02*
X118240000Y-77470000D01*
X102870000Y-80010000D02*
X100200000Y-80010000D01*
X118240000Y-74800000D02*
X100200000Y-74800000D01*
X100200000Y-118240000D02*
X105280000Y-118240000D01*
X100200000Y-74800000D02*
X100200000Y-77470000D01*
X105280000Y-110360000D02*
X113160000Y-110360000D01*
X102870000Y-80010000D02*
X102870000Y-115570000D01*
%TO.C,A1*%
X36830000Y-62230000D02*
X39500000Y-62230000D01*
X26540000Y-18920000D02*
X34420000Y-18920000D01*
X21460000Y-21460000D02*
X21460000Y-64900000D01*
X34420000Y-18920000D02*
X34420000Y-29340000D01*
X26540000Y-29340000D02*
X26540000Y-18920000D01*
X21460000Y-21460000D02*
X26540000Y-21460000D01*
X39500000Y-59690000D02*
X39500000Y-21460000D01*
X36830000Y-24130000D02*
X39500000Y-24130000D01*
X24130000Y-62230000D02*
X24130000Y-24130000D01*
X36830000Y-59690000D02*
X36830000Y-62230000D01*
X24130000Y-24130000D02*
X21460000Y-24130000D01*
X24130000Y-62230000D02*
X21460000Y-62230000D01*
X36830000Y-59690000D02*
X39500000Y-59690000D01*
X21460000Y-64900000D02*
X39500000Y-64900000D01*
X39500000Y-21460000D02*
X34420000Y-21460000D01*
X39500000Y-64900000D02*
X39500000Y-62230000D01*
X34420000Y-29340000D02*
X26540000Y-29340000D01*
X36830000Y-59690000D02*
X36830000Y-24130000D01*
%TD*%
M02*
